<svg xmlns="http://www.w3.org/2000/svg" xmlns:xlink="http://www.w3.org/1999/xlink" width="500" zoomAndPan="magnify" viewBox="0 0 375 374.999991" height="500" preserveAspectRatio="xMidYMid meet" version="1.0"><defs><clipPath id="d173c15c18"><path d="M 34.449219 19.8125 L 309 19.8125 L 309 272 L 34.449219 272 Z M 34.449219 19.8125 " clip-rule="nonzero"/></clipPath><clipPath id="01e2ddbb5f"><path d="M 66 103 L 340.449219 103 L 340.449219 355.0625 L 66 355.0625 Z M 66 103 " clip-rule="nonzero"/></clipPath></defs><rect x="-37.5" width="450" fill="#ffffff" y="-37.499999" height="449.999989" fill-opacity="1"/><rect x="-37.5" width="450" fill="#ffffff" y="-37.499999" height="449.999989" fill-opacity="1"/><rect x="-37.5" width="450" fill="#ffffff" y="-37.499999" height="449.999989" fill-opacity="1"/><g clip-path="url(#d173c15c18)"><path fill="#004aad" d="M 129.375 220.269531 L 245.511719 220.269531 C 246.726562 220.273438 247.933594 220.347656 249.136719 220.5 C 250.339844 220.652344 251.527344 220.878906 252.703125 221.179688 C 253.878906 221.480469 255.027344 221.851562 256.15625 222.296875 C 257.285156 222.742188 258.378906 223.257812 259.445312 223.839844 C 260.507812 224.421875 261.53125 225.066406 262.515625 225.777344 C 263.496094 226.488281 264.429688 227.257812 265.316406 228.085938 C 266.203125 228.914062 267.035156 229.792969 267.808594 230.726562 C 268.585938 231.65625 269.300781 232.632812 269.953125 233.65625 C 269.390625 234.226562 268.855469 234.828125 268.355469 235.460938 C 267.859375 236.089844 267.394531 236.746094 266.964844 237.425781 C 266.535156 238.105469 266.144531 238.808594 265.792969 239.53125 C 265.4375 240.253906 265.125 240.992188 264.851562 241.75 C 264.578125 242.507812 264.347656 243.277344 264.160156 244.058594 C 263.96875 244.839844 263.824219 245.628906 263.71875 246.425781 C 263.613281 247.226562 263.554688 248.027344 263.535156 248.828125 C 263.519531 249.632812 263.542969 250.4375 263.613281 251.238281 C 263.683594 252.039062 263.796875 252.835938 263.949219 253.625 C 264.105469 254.414062 264.304688 255.191406 264.542969 255.960938 C 264.78125 256.726562 265.0625 257.480469 265.382812 258.21875 C 265.707031 258.957031 266.066406 259.671875 266.464844 260.371094 C 266.863281 261.070312 267.300781 261.746094 267.769531 262.398438 C 268.242188 263.046875 268.75 263.671875 269.289062 264.269531 C 269.828125 264.867188 270.398438 265.433594 270.996094 265.96875 C 271.597656 266.503906 272.226562 267.003906 272.882812 267.46875 C 273.535156 267.9375 274.214844 268.367188 274.914062 268.761719 C 275.617188 269.15625 276.339844 269.511719 277.078125 269.824219 C 277.816406 270.140625 278.574219 270.417969 279.34375 270.648438 C 280.113281 270.882812 280.890625 271.074219 281.683594 271.226562 C 282.472656 271.375 283.269531 271.480469 284.070312 271.546875 C 284.871094 271.609375 285.675781 271.628906 286.480469 271.605469 C 287.285156 271.582031 288.085938 271.515625 288.882812 271.40625 C 289.679688 271.296875 290.464844 271.144531 291.246094 270.949219 C 292.027344 270.753906 292.792969 270.515625 293.550781 270.238281 C 294.304688 269.957031 295.042969 269.640625 295.761719 269.28125 C 296.480469 268.921875 297.179688 268.527344 297.859375 268.09375 C 298.535156 267.660156 299.1875 267.191406 299.816406 266.6875 C 300.441406 266.183594 301.039062 265.644531 301.605469 265.078125 C 302.175781 264.507812 302.710938 263.910156 303.214844 263.28125 C 303.71875 262.65625 304.1875 262.003906 304.621094 261.324219 C 305.054688 260.648438 305.449219 259.949219 305.808594 259.226562 C 306.164062 258.507812 306.484375 257.769531 306.761719 257.015625 C 307.039062 256.257812 307.273438 255.492188 307.46875 254.710938 C 307.664062 253.929688 307.816406 253.140625 307.925781 252.34375 C 308.035156 251.546875 308.101562 250.746094 308.125 249.945312 C 308.144531 249.140625 308.125 248.335938 308.0625 247.535156 C 307.996094 246.734375 307.890625 245.9375 307.738281 245.148438 C 307.589844 244.355469 307.394531 243.578125 307.160156 242.808594 C 306.925781 242.039062 306.652344 241.285156 306.335938 240.542969 C 306.019531 239.804688 305.664062 239.085938 305.269531 238.382812 C 304.875 237.683594 304.441406 237.003906 303.976562 236.347656 C 303.507812 235.695312 303.003906 235.066406 302.46875 234.46875 C 301.933594 233.867188 301.367188 233.296875 300.769531 232.757812 C 300.171875 232.21875 299.550781 231.714844 298.898438 231.242188 C 298.246094 230.773438 297.570312 230.335938 296.871094 229.941406 C 296.171875 229.542969 295.453125 229.183594 294.714844 228.863281 C 293.976562 228.542969 293.226562 228.261719 292.457031 228.023438 C 291.4375 225.78125 290.261719 223.621094 288.933594 221.546875 C 287.601562 219.472656 286.132812 217.503906 284.523438 215.636719 C 282.910156 213.773438 281.175781 212.035156 279.316406 210.417969 C 277.457031 208.800781 275.488281 207.328125 273.417969 205.992188 C 271.347656 204.660156 269.191406 203.476562 266.949219 202.453125 C 264.710938 201.425781 262.410156 200.566406 260.046875 199.867188 C 257.683594 199.171875 255.28125 198.648438 252.84375 198.292969 C 250.402344 197.941406 247.953125 197.765625 245.488281 197.761719 L 129.375 197.761719 C 128.195312 197.761719 127.015625 197.734375 125.835938 197.675781 C 124.65625 197.617188 123.476562 197.53125 122.300781 197.414062 C 121.128906 197.296875 119.957031 197.152344 118.785156 196.980469 C 117.617188 196.808594 116.457031 196.605469 115.296875 196.375 C 114.140625 196.144531 112.988281 195.886719 111.839844 195.597656 C 110.695312 195.3125 109.558594 194.996094 108.425781 194.65625 C 107.296875 194.3125 106.175781 193.941406 105.066406 193.542969 C 103.953125 193.144531 102.851562 192.722656 101.761719 192.269531 C 100.667969 191.816406 99.589844 191.339844 98.523438 190.832031 C 97.453125 190.328125 96.398438 189.796875 95.359375 189.242188 C 94.316406 188.683594 93.289062 188.101562 92.277344 187.496094 C 91.261719 186.886719 90.265625 186.257812 89.285156 185.601562 C 88.300781 184.945312 87.335938 184.265625 86.386719 183.5625 C 85.4375 182.859375 84.507812 182.132812 83.597656 181.382812 C 82.683594 180.632812 81.789062 179.863281 80.914062 179.070312 C 80.039062 178.277344 79.183594 177.460938 78.347656 176.625 C 77.511719 175.792969 76.699219 174.9375 75.90625 174.0625 C 75.113281 173.1875 74.34375 172.292969 73.59375 171.378906 C 72.84375 170.464844 72.117188 169.535156 71.414062 168.585938 C 70.710938 167.640625 70.03125 166.671875 69.375 165.691406 C 68.71875 164.710938 68.085938 163.710938 67.480469 162.699219 C 66.871094 161.6875 66.289062 160.660156 65.734375 159.617188 C 65.175781 158.574219 64.644531 157.523438 64.140625 156.453125 C 63.636719 155.386719 63.15625 154.308594 62.707031 153.214844 C 62.253906 152.125 61.828125 151.023438 61.429688 149.910156 C 61.03125 148.800781 60.664062 147.679688 60.320312 146.546875 C 59.976562 145.417969 59.660156 144.28125 59.375 143.136719 C 59.089844 141.988281 58.828125 140.835938 58.597656 139.679688 C 58.367188 138.519531 58.167969 137.359375 57.992188 136.191406 C 57.820312 135.019531 57.675781 133.851562 57.558594 132.675781 C 57.445312 131.5 57.355469 130.320312 57.300781 129.140625 C 57.242188 127.960938 57.210938 126.78125 57.210938 125.601562 C 57.210938 124.421875 57.242188 123.242188 57.300781 122.0625 C 57.355469 120.882812 57.445312 119.703125 57.558594 118.527344 C 57.675781 117.351562 57.820312 116.179688 57.992188 115.011719 C 58.167969 113.84375 58.367188 112.683594 58.597656 111.523438 C 58.828125 110.367188 59.089844 109.214844 59.375 108.066406 C 59.660156 106.921875 59.976562 105.785156 60.320312 104.65625 C 60.664062 103.523438 61.03125 102.402344 61.429688 101.292969 C 61.828125 100.179688 62.253906 99.078125 62.707031 97.988281 C 63.15625 96.894531 63.636719 95.816406 64.140625 94.75 C 64.644531 93.679688 65.175781 92.628906 65.734375 91.585938 C 66.289062 90.542969 66.871094 89.515625 67.480469 88.503906 C 68.085938 87.492188 68.71875 86.492188 69.375 85.511719 C 70.03125 84.53125 70.710938 83.5625 71.414062 82.617188 C 72.117188 81.667969 72.84375 80.738281 73.59375 79.824219 C 74.34375 78.910156 75.113281 78.015625 75.90625 77.140625 C 76.699219 76.265625 77.511719 75.410156 78.347656 74.578125 C 79.183594 73.742188 80.039062 72.925781 80.914062 72.132812 C 81.789062 71.339844 82.683594 70.570312 83.597656 69.820312 C 84.507812 69.070312 85.4375 68.34375 86.386719 67.640625 C 87.335938 66.9375 88.300781 66.257812 89.285156 65.601562 C 90.265625 64.945312 91.261719 64.316406 92.277344 63.707031 C 93.289062 63.101562 94.316406 62.519531 95.359375 61.960938 C 96.398438 61.40625 97.453125 60.875 98.523438 60.371094 C 99.589844 59.863281 100.667969 59.386719 101.761719 58.933594 C 102.851562 58.480469 103.953125 58.058594 105.066406 57.660156 C 106.175781 57.261719 107.296875 56.890625 108.425781 56.546875 C 109.558594 56.207031 110.695312 55.890625 111.839844 55.605469 C 112.988281 55.316406 114.140625 55.058594 115.296875 54.828125 C 116.457031 54.597656 117.617188 54.394531 118.785156 54.222656 C 119.957031 54.050781 121.128906 53.90625 122.300781 53.789062 C 123.476562 53.671875 124.65625 53.585938 125.835938 53.527344 C 127.015625 53.46875 128.195312 53.441406 129.375 53.441406 L 220.703125 53.441406 C 221.113281 54.140625 221.558594 54.816406 222.042969 55.46875 C 222.523438 56.117188 223.039062 56.742188 223.589844 57.335938 C 224.140625 57.933594 224.722656 58.496094 225.332031 59.027344 C 225.945312 59.558594 226.582031 60.054688 227.25 60.515625 C 227.914062 60.980469 228.605469 61.402344 229.316406 61.789062 C 230.027344 62.179688 230.757812 62.523438 231.507812 62.832031 C 232.257812 63.140625 233.023438 63.40625 233.800781 63.628906 C 234.582031 63.851562 235.371094 64.035156 236.167969 64.171875 C 236.964844 64.308594 237.769531 64.40625 238.578125 64.453125 C 239.386719 64.503906 240.195312 64.511719 241.007812 64.472656 C 241.816406 64.4375 242.621094 64.355469 243.421875 64.230469 C 244.222656 64.105469 245.015625 63.933594 245.796875 63.722656 C 246.578125 63.511719 247.347656 63.257812 248.101562 62.960938 C 248.855469 62.667969 249.59375 62.332031 250.3125 61.957031 C 251.027344 61.582031 251.722656 61.167969 252.398438 60.714844 C 253.070312 60.265625 253.714844 59.777344 254.335938 59.253906 C 254.957031 58.734375 255.546875 58.179688 256.105469 57.59375 C 256.664062 57.007812 257.191406 56.390625 257.683594 55.75 C 258.175781 55.105469 258.632812 54.4375 259.050781 53.742188 C 259.472656 53.050781 259.851562 52.335938 260.195312 51.601562 C 260.535156 50.867188 260.835938 50.117188 261.097656 49.347656 C 261.355469 48.582031 261.574219 47.800781 261.75 47.007812 C 261.925781 46.21875 262.058594 45.421875 262.144531 44.613281 C 262.234375 43.808594 262.277344 43 262.277344 42.191406 C 262.277344 41.378906 262.234375 40.570312 262.144531 39.765625 C 262.058594 38.960938 261.925781 38.164062 261.75 37.371094 C 261.574219 36.582031 261.355469 35.800781 261.097656 35.035156 C 260.835938 34.265625 260.535156 33.515625 260.195312 32.78125 C 259.851562 32.046875 259.472656 31.332031 259.050781 30.636719 C 258.632812 29.945312 258.175781 29.277344 257.683594 28.632812 C 257.191406 27.988281 256.664062 27.375 256.105469 26.789062 C 255.546875 26.203125 254.957031 25.648438 254.335938 25.125 C 253.714844 24.605469 253.070312 24.117188 252.398438 23.664062 C 251.722656 23.214844 251.027344 22.800781 250.3125 22.425781 C 249.59375 22.050781 248.855469 21.714844 248.101562 21.417969 C 247.347656 21.121094 246.578125 20.871094 245.796875 20.65625 C 245.015625 20.445312 244.222656 20.277344 243.421875 20.152344 C 242.621094 20.027344 241.816406 19.945312 241.007812 19.90625 C 240.195312 19.871094 239.386719 19.875 238.578125 19.925781 C 237.769531 19.976562 236.964844 20.070312 236.167969 20.210938 C 235.371094 20.347656 234.582031 20.527344 233.800781 20.753906 C 233.023438 20.976562 232.257812 21.242188 231.507812 21.550781 C 230.757812 21.855469 230.027344 22.203125 229.316406 22.589844 C 228.605469 22.976562 227.914062 23.402344 227.25 23.863281 C 226.582031 24.324219 225.945312 24.824219 225.332031 25.355469 C 224.722656 25.886719 224.140625 26.449219 223.589844 27.042969 C 223.039062 27.640625 222.523438 28.261719 222.042969 28.914062 C 221.558594 29.566406 221.113281 30.238281 220.703125 30.941406 L 129.375 30.941406 C 127.824219 30.941406 126.277344 30.976562 124.726562 31.054688 C 123.179688 31.128906 121.632812 31.242188 120.09375 31.394531 C 118.550781 31.546875 117.011719 31.738281 115.476562 31.964844 C 113.945312 32.191406 112.417969 32.457031 110.898438 32.757812 C 109.378906 33.0625 107.867188 33.402344 106.363281 33.777344 C 104.859375 34.15625 103.367188 34.566406 101.882812 35.019531 C 100.398438 35.46875 98.925781 35.953125 97.46875 36.476562 C 96.007812 37 94.5625 37.554688 93.128906 38.148438 C 91.699219 38.742188 90.28125 39.371094 88.878906 40.03125 C 87.480469 40.695312 86.09375 41.390625 84.726562 42.121094 C 83.363281 42.851562 82.011719 43.617188 80.683594 44.414062 C 79.355469 45.210938 78.046875 46.039062 76.757812 46.902344 C 75.46875 47.761719 74.199219 48.65625 72.957031 49.578125 C 71.710938 50.5 70.488281 51.453125 69.289062 52.4375 C 68.09375 53.421875 66.917969 54.433594 65.769531 55.472656 C 64.621094 56.515625 63.5 57.582031 62.402344 58.679688 C 61.308594 59.773438 60.238281 60.898438 59.199219 62.046875 C 58.15625 63.195312 57.144531 64.367188 56.160156 65.566406 C 55.179688 66.765625 54.226562 67.984375 53.300781 69.230469 C 52.378906 70.476562 51.484375 71.742188 50.625 73.03125 C 49.765625 74.320312 48.933594 75.628906 48.136719 76.957031 C 47.339844 78.289062 46.578125 79.636719 45.847656 81.003906 C 45.117188 82.371094 44.417969 83.753906 43.757812 85.15625 C 43.09375 86.554688 42.464844 87.972656 41.871094 89.40625 C 41.28125 90.835938 40.722656 92.28125 40.199219 93.742188 C 39.675781 95.203125 39.191406 96.671875 38.742188 98.15625 C 38.292969 99.640625 37.878906 101.132812 37.5 102.636719 C 37.125 104.140625 36.785156 105.652344 36.484375 107.171875 C 36.179688 108.691406 35.914062 110.21875 35.6875 111.75 C 35.460938 113.285156 35.269531 114.824219 35.121094 116.363281 C 34.96875 117.90625 34.851562 119.453125 34.777344 121 C 34.703125 122.550781 34.664062 124.097656 34.664062 125.648438 C 34.664062 127.199219 34.703125 128.746094 34.777344 130.296875 C 34.851562 131.84375 34.96875 133.386719 35.121094 134.929688 C 35.269531 136.472656 35.460938 138.011719 35.6875 139.542969 C 35.914062 141.078125 36.179688 142.605469 36.484375 144.125 C 36.785156 145.644531 37.125 147.15625 37.5 148.660156 C 37.878906 150.164062 38.292969 151.65625 38.742188 153.140625 C 39.191406 154.625 39.675781 156.09375 40.199219 157.554688 C 40.722656 159.015625 41.28125 160.460938 41.871094 161.890625 C 42.464844 163.324219 43.09375 164.738281 43.757812 166.140625 C 44.417969 167.542969 45.117188 168.925781 45.847656 170.292969 C 46.578125 171.660156 47.339844 173.007812 48.136719 174.335938 C 48.933594 175.667969 49.765625 176.976562 50.625 178.265625 C 51.484375 179.554688 52.378906 180.820312 53.300781 182.066406 C 54.226562 183.3125 55.179688 184.53125 56.160156 185.730469 C 57.144531 186.929688 58.15625 188.101562 59.199219 189.25 C 60.238281 190.398438 61.308594 191.519531 62.402344 192.617188 C 63.5 193.714844 64.621094 194.78125 65.769531 195.824219 C 66.917969 196.863281 68.09375 197.875 69.289062 198.859375 C 70.488281 199.84375 71.710938 200.796875 72.957031 201.71875 C 74.199219 202.640625 75.46875 203.535156 76.757812 204.394531 C 78.046875 205.257812 79.355469 206.085938 80.683594 206.882812 C 82.011719 207.679688 83.363281 208.441406 84.726562 209.171875 C 86.09375 209.902344 87.480469 210.601562 88.878906 211.261719 C 90.28125 211.925781 91.699219 212.554688 93.128906 213.148438 C 94.5625 213.742188 96.007812 214.296875 97.46875 214.820312 C 98.925781 215.34375 100.398438 215.828125 101.882812 216.277344 C 103.367188 216.726562 104.859375 217.140625 106.363281 217.519531 C 107.867188 217.894531 109.378906 218.234375 110.898438 218.535156 C 112.417969 218.839844 113.945312 219.105469 115.476562 219.332031 C 117.011719 219.558594 118.550781 219.75 120.09375 219.898438 C 121.632812 220.050781 123.179688 220.167969 124.726562 220.242188 C 126.277344 220.320312 127.824219 220.355469 129.375 220.355469 Z M 129.375 220.269531 " fill-opacity="1" fill-rule="nonzero"/></g><path fill="#5271ff" d="M 148.6875 73.972656 C 148.285156 73.269531 147.84375 72.59375 147.363281 71.9375 C 146.886719 71.285156 146.371094 70.660156 145.824219 70.0625 C 145.277344 69.460938 144.699219 68.894531 144.089844 68.359375 C 143.484375 67.828125 142.847656 67.324219 142.183594 66.859375 C 141.519531 66.394531 140.832031 65.964844 140.125 65.574219 C 139.414062 65.183594 138.683594 64.832031 137.9375 64.523438 C 137.1875 64.210938 136.425781 63.941406 135.648438 63.710938 C 134.871094 63.484375 134.082031 63.296875 133.285156 63.15625 C 132.488281 63.015625 131.683594 62.914062 130.875 62.859375 C 130.066406 62.804688 129.257812 62.792969 128.449219 62.828125 C 127.636719 62.859375 126.832031 62.9375 126.03125 63.058594 C 125.230469 63.179688 124.4375 63.34375 123.65625 63.550781 C 122.871094 63.757812 122.101562 64.007812 121.34375 64.300781 C 120.589844 64.589844 119.851562 64.921875 119.128906 65.292969 C 118.410156 65.667969 117.710938 66.074219 117.039062 66.523438 C 116.363281 66.972656 115.710938 67.453125 115.089844 67.972656 C 114.46875 68.492188 113.875 69.042969 113.3125 69.625 C 112.75 70.207031 112.21875 70.820312 111.722656 71.460938 C 111.226562 72.101562 110.765625 72.769531 110.34375 73.457031 C 109.921875 74.148438 109.535156 74.863281 109.191406 75.59375 C 108.84375 76.328125 108.539062 77.078125 108.273438 77.84375 C 108.011719 78.609375 107.789062 79.386719 107.609375 80.175781 C 107.429688 80.96875 107.292969 81.765625 107.199219 82.570312 C 107.109375 83.375 107.058594 84.183594 107.054688 84.992188 C 107.050781 85.804688 107.089844 86.613281 107.175781 87.417969 C 107.257812 88.222656 107.386719 89.023438 107.554688 89.816406 C 107.726562 90.609375 107.941406 91.386719 108.195312 92.15625 C 108.453125 92.925781 108.75 93.679688 109.085938 94.414062 C 109.421875 95.152344 109.800781 95.867188 110.214844 96.5625 C 110.632812 97.257812 111.085938 97.929688 111.574219 98.578125 C 112.0625 99.222656 112.585938 99.839844 113.140625 100.429688 C 113.699219 101.019531 114.285156 101.578125 114.902344 102.101562 C 115.519531 102.625 116.164062 103.117188 116.832031 103.574219 C 117.503906 104.027344 118.195312 104.445312 118.914062 104.824219 C 119.628906 105.203125 120.363281 105.542969 121.117188 105.84375 C 121.867188 106.144531 122.636719 106.402344 123.417969 106.617188 C 124.199219 106.832031 124.988281 107.007812 125.789062 107.136719 C 126.589844 107.265625 127.394531 107.351562 128.203125 107.394531 C 129.011719 107.4375 129.820312 107.433594 130.628906 107.386719 C 131.4375 107.34375 132.242188 107.253906 133.042969 107.117188 C 133.84375 106.984375 134.632812 106.808594 135.410156 106.589844 C 136.191406 106.371094 136.957031 106.109375 137.710938 105.804688 C 138.460938 105.5 139.195312 105.160156 139.90625 104.773438 C 140.621094 104.390625 141.3125 103.972656 141.980469 103.511719 C 142.648438 103.054688 143.292969 102.5625 143.90625 102.035156 C 144.519531 101.503906 145.105469 100.945312 145.65625 100.351562 C 146.210938 99.761719 146.730469 99.140625 147.21875 98.492188 C 147.703125 97.84375 148.152344 97.171875 148.566406 96.472656 L 290.167969 96.472656 C 290.582031 97.171875 291.03125 97.84375 291.515625 98.492188 C 292 99.140625 292.519531 99.761719 293.074219 100.351562 C 293.628906 100.945312 294.210938 101.503906 294.828125 102.035156 C 295.441406 102.5625 296.082031 103.054688 296.75 103.511719 C 297.417969 103.972656 298.109375 104.390625 298.824219 104.773438 C 299.539062 105.160156 300.273438 105.5 301.023438 105.804688 C 301.773438 106.109375 302.539062 106.371094 303.320312 106.589844 C 304.101562 106.808594 304.890625 106.984375 305.691406 107.117188 C 306.488281 107.253906 307.292969 107.34375 308.101562 107.386719 C 308.910156 107.433594 309.722656 107.4375 310.53125 107.394531 C 311.339844 107.351562 312.144531 107.265625 312.945312 107.136719 C 313.742188 107.007812 314.535156 106.832031 315.316406 106.617188 C 316.097656 106.402344 316.863281 106.144531 317.617188 105.84375 C 318.371094 105.542969 319.105469 105.203125 319.820312 104.824219 C 320.535156 104.445312 321.230469 104.027344 321.898438 103.574219 C 322.570312 103.117188 323.214844 102.628906 323.832031 102.101562 C 324.449219 101.578125 325.035156 101.019531 325.589844 100.429688 C 326.148438 99.839844 326.671875 99.222656 327.160156 98.578125 C 327.648438 97.929688 328.101562 97.257812 328.515625 96.5625 C 328.933594 95.867188 329.308594 95.152344 329.648438 94.414062 C 329.984375 93.679688 330.28125 92.925781 330.539062 92.15625 C 330.792969 91.386719 331.007812 90.609375 331.175781 89.816406 C 331.347656 89.023438 331.476562 88.222656 331.558594 87.417969 C 331.640625 86.613281 331.679688 85.804688 331.675781 84.992188 C 331.671875 84.183594 331.625 83.375 331.53125 82.570312 C 331.4375 81.765625 331.304688 80.96875 331.125 80.175781 C 330.945312 79.386719 330.722656 78.609375 330.457031 77.84375 C 330.195312 77.078125 329.890625 76.328125 329.542969 75.59375 C 329.195312 74.863281 328.8125 74.148438 328.390625 73.457031 C 327.964844 72.769531 327.503906 72.101562 327.007812 71.460938 C 326.511719 70.820312 325.984375 70.207031 325.421875 69.625 C 324.859375 69.042969 324.265625 68.492188 323.644531 67.972656 C 323.019531 67.453125 322.371094 66.972656 321.695312 66.523438 C 321.019531 66.074219 320.320312 65.667969 319.601562 65.292969 C 318.882812 64.921875 318.144531 64.589844 317.386719 64.300781 C 316.632812 64.007812 315.863281 63.757812 315.078125 63.550781 C 314.292969 63.34375 313.503906 63.179688 312.699219 63.058594 C 311.898438 62.9375 311.09375 62.859375 310.285156 62.828125 C 309.476562 62.792969 308.664062 62.804688 307.855469 62.859375 C 307.046875 62.914062 306.246094 63.015625 305.449219 63.15625 C 304.648438 63.296875 303.863281 63.484375 303.085938 63.710938 C 302.308594 63.941406 301.542969 64.210938 300.796875 64.523438 C 300.046875 64.832031 299.320312 65.183594 298.609375 65.574219 C 297.898438 65.964844 297.210938 66.394531 296.550781 66.859375 C 295.886719 67.324219 295.25 67.828125 294.640625 68.359375 C 294.03125 68.894531 293.453125 69.460938 292.90625 70.0625 C 292.359375 70.660156 291.847656 71.285156 291.367188 71.9375 C 290.890625 72.59375 290.449219 73.269531 290.042969 73.972656 Z M 148.6875 73.972656 " fill-opacity="1" fill-rule="nonzero"/><g clip-path="url(#01e2ddbb5f)"><path fill="#5271ff" d="M 245.511719 154.613281 L 129.375 154.613281 C 128.164062 154.613281 126.957031 154.535156 125.753906 154.382812 C 124.550781 154.230469 123.363281 154.003906 122.1875 153.703125 C 121.011719 153.402344 119.863281 153.03125 118.734375 152.585938 C 117.605469 152.140625 116.511719 151.625 115.449219 151.042969 C 114.382812 150.460938 113.363281 149.816406 112.378906 149.105469 C 111.398438 148.394531 110.460938 147.625 109.578125 146.796875 C 108.691406 145.96875 107.859375 145.089844 107.085938 144.15625 C 106.308594 143.226562 105.59375 142.25 104.941406 141.226562 C 105.507812 140.65625 106.039062 140.054688 106.539062 139.425781 C 107.039062 138.792969 107.503906 138.136719 107.929688 137.457031 C 108.359375 136.777344 108.75 136.074219 109.105469 135.351562 C 109.457031 134.628906 109.769531 133.890625 110.042969 133.132812 C 110.316406 132.375 110.546875 131.609375 110.734375 130.824219 C 110.925781 130.042969 111.074219 129.253906 111.175781 128.457031 C 111.28125 127.660156 111.34375 126.859375 111.359375 126.054688 C 111.378906 125.25 111.351562 124.445312 111.28125 123.644531 C 111.210938 122.84375 111.101562 122.050781 110.945312 121.257812 C 110.789062 120.46875 110.589844 119.691406 110.351562 118.925781 C 110.113281 118.15625 109.832031 117.402344 109.511719 116.667969 C 109.1875 115.929688 108.828125 115.210938 108.429688 114.511719 C 108.03125 113.8125 107.597656 113.136719 107.125 112.488281 C 106.652344 111.835938 106.148438 111.210938 105.609375 110.613281 C 105.066406 110.019531 104.496094 109.453125 103.898438 108.917969 C 103.296875 108.382812 102.667969 107.882812 102.015625 107.414062 C 101.359375 106.945312 100.679688 106.515625 99.980469 106.121094 C 99.277344 105.730469 98.558594 105.375 97.816406 105.058594 C 97.078125 104.742188 96.324219 104.46875 95.554688 104.234375 C 94.785156 104 94.003906 103.808594 93.214844 103.660156 C 92.421875 103.507812 91.625 103.402344 90.824219 103.339844 C 90.023438 103.273438 89.21875 103.253906 88.414062 103.277344 C 87.613281 103.300781 86.8125 103.367188 86.015625 103.476562 C 85.21875 103.589844 84.429688 103.742188 83.648438 103.9375 C 82.867188 104.132812 82.101562 104.367188 81.347656 104.648438 C 80.589844 104.925781 79.855469 105.242188 79.132812 105.601562 C 78.414062 105.960938 77.714844 106.355469 77.035156 106.789062 C 76.359375 107.222656 75.707031 107.691406 75.082031 108.199219 C 74.453125 108.703125 73.855469 109.238281 73.289062 109.808594 C 72.71875 110.375 72.183594 110.976562 71.679688 111.601562 C 71.175781 112.230469 70.707031 112.882812 70.273438 113.558594 C 69.839844 114.238281 69.445312 114.9375 69.085938 115.65625 C 68.730469 116.378906 68.414062 117.113281 68.132812 117.871094 C 67.855469 118.625 67.621094 119.390625 67.425781 120.171875 C 67.230469 120.953125 67.078125 121.742188 66.96875 122.539062 C 66.859375 123.335938 66.792969 124.136719 66.773438 124.941406 C 66.75 125.746094 66.769531 126.546875 66.835938 127.347656 C 66.898438 128.152344 67.007812 128.945312 67.15625 129.738281 C 67.308594 130.527344 67.5 131.308594 67.734375 132.078125 C 67.96875 132.847656 68.246094 133.601562 68.5625 134.339844 C 68.878906 135.078125 69.234375 135.800781 69.628906 136.5 C 70.019531 137.203125 70.453125 137.878906 70.921875 138.535156 C 71.386719 139.1875 71.890625 139.816406 72.425781 140.417969 C 72.960938 141.015625 73.527344 141.585938 74.125 142.125 C 74.722656 142.664062 75.347656 143.167969 76 143.640625 C 76.648438 144.113281 77.324219 144.546875 78.023438 144.945312 C 78.722656 145.34375 79.441406 145.703125 80.179688 146.023438 C 80.917969 146.34375 81.671875 146.621094 82.4375 146.863281 C 83.457031 149.105469 84.632812 151.261719 85.960938 153.335938 C 87.289062 155.414062 88.757812 157.382812 90.371094 159.246094 C 91.980469 161.109375 93.714844 162.851562 95.574219 164.464844 C 97.4375 166.082031 99.402344 167.558594 101.472656 168.890625 C 103.542969 170.226562 105.699219 171.40625 107.9375 172.433594 C 110.179688 173.457031 112.480469 174.320312 114.84375 175.015625 C 117.207031 175.710938 119.605469 176.238281 122.046875 176.589844 C 124.484375 176.941406 126.933594 177.121094 129.398438 177.121094 L 245.511719 177.121094 C 246.691406 177.121094 247.875 177.152344 249.054688 177.210938 C 250.230469 177.265625 251.410156 177.355469 252.585938 177.46875 C 253.761719 177.585938 254.933594 177.730469 256.101562 177.902344 C 257.269531 178.078125 258.433594 178.277344 259.589844 178.507812 C 260.75 178.738281 261.902344 178.996094 263.046875 179.285156 C 264.191406 179.570312 265.328125 179.886719 266.460938 180.230469 C 267.589844 180.574219 268.710938 180.941406 269.824219 181.339844 C 270.933594 181.738281 272.035156 182.164062 273.128906 182.613281 C 274.21875 183.066406 275.296875 183.546875 276.367188 184.050781 C 277.433594 184.554688 278.488281 185.085938 279.53125 185.644531 C 280.570312 186.199219 281.597656 186.78125 282.609375 187.390625 C 283.625 187.996094 284.621094 188.628906 285.605469 189.285156 C 286.585938 189.941406 287.550781 190.621094 288.5 191.324219 C 289.449219 192.027344 290.378906 192.753906 291.292969 193.503906 C 292.203125 194.25 293.097656 195.023438 293.972656 195.816406 C 294.847656 196.609375 295.703125 197.421875 296.539062 198.257812 C 297.375 199.09375 298.1875 199.949219 298.980469 200.824219 C 299.773438 201.699219 300.546875 202.589844 301.292969 203.503906 C 302.042969 204.417969 302.769531 205.347656 303.472656 206.296875 C 304.175781 207.246094 304.855469 208.210938 305.511719 209.191406 C 306.167969 210.175781 306.800781 211.171875 307.410156 212.183594 C 308.015625 213.199219 308.597656 214.226562 309.152344 215.265625 C 309.710938 216.308594 310.242188 217.363281 310.746094 218.429688 C 311.25 219.496094 311.730469 220.578125 312.183594 221.667969 C 312.632812 222.757812 313.058594 223.859375 313.457031 224.972656 C 313.855469 226.085938 314.226562 227.207031 314.566406 228.335938 C 314.910156 229.464844 315.226562 230.601562 315.511719 231.75 C 315.800781 232.894531 316.058594 234.046875 316.289062 235.203125 C 316.519531 236.363281 316.722656 237.527344 316.894531 238.695312 C 317.066406 239.863281 317.210938 241.035156 317.328125 242.210938 C 317.445312 243.386719 317.53125 244.5625 317.589844 245.742188 C 317.644531 246.921875 317.675781 248.101562 317.675781 249.28125 C 317.675781 250.464844 317.644531 251.644531 317.589844 252.824219 C 317.53125 254.003906 317.445312 255.179688 317.328125 256.355469 C 317.210938 257.53125 317.066406 258.703125 316.894531 259.871094 C 316.722656 261.039062 316.519531 262.203125 316.289062 263.359375 C 316.058594 264.519531 315.800781 265.671875 315.511719 266.816406 C 315.226562 267.960938 314.910156 269.097656 314.566406 270.230469 C 314.226562 271.359375 313.855469 272.480469 313.457031 273.59375 C 313.058594 274.703125 312.632812 275.804688 312.183594 276.898438 C 311.730469 277.988281 311.25 279.066406 310.746094 280.136719 C 310.242188 281.203125 309.710938 282.257812 309.152344 283.296875 C 308.597656 284.339844 308.015625 285.367188 307.410156 286.378906 C 306.800781 287.394531 306.167969 288.390625 305.511719 289.371094 C 304.855469 290.355469 304.175781 291.320312 303.472656 292.269531 C 302.769531 293.21875 302.042969 294.148438 301.292969 295.058594 C 300.546875 295.972656 299.773438 296.867188 298.980469 297.742188 C 298.1875 298.617188 297.375 299.472656 296.539062 300.308594 C 295.703125 301.140625 294.847656 301.957031 293.972656 302.75 C 293.097656 303.542969 292.203125 304.3125 291.292969 305.0625 C 290.378906 305.8125 289.449219 306.539062 288.5 307.242188 C 287.550781 307.945312 286.585938 308.625 285.605469 309.28125 C 284.621094 309.9375 283.625 310.570312 282.609375 311.175781 C 281.597656 311.785156 280.570312 312.367188 279.53125 312.921875 C 278.488281 313.480469 277.433594 314.007812 276.367188 314.515625 C 275.296875 315.019531 274.21875 315.496094 273.128906 315.949219 C 272.035156 316.402344 270.933594 316.828125 269.824219 317.222656 C 268.710938 317.621094 267.589844 317.992188 266.460938 318.335938 C 265.328125 318.679688 264.191406 318.992188 263.046875 319.28125 C 261.902344 319.566406 260.75 319.824219 259.589844 320.054688 C 258.433594 320.285156 257.269531 320.488281 256.101562 320.660156 C 254.933594 320.835938 253.761719 320.980469 252.585938 321.09375 C 251.410156 321.210938 250.230469 321.296875 249.054688 321.355469 C 247.875 321.414062 246.691406 321.441406 245.511719 321.441406 L 153.390625 321.441406 C 152.980469 320.742188 152.535156 320.070312 152.054688 319.417969 C 151.570312 318.769531 151.054688 318.144531 150.503906 317.550781 C 149.953125 316.957031 149.371094 316.394531 148.757812 315.863281 C 148.148438 315.332031 147.507812 314.835938 146.84375 314.375 C 146.175781 313.914062 145.488281 313.492188 144.777344 313.105469 C 144.0625 312.71875 143.332031 312.371094 142.582031 312.066406 C 141.832031 311.757812 141.070312 311.492188 140.289062 311.269531 C 139.511719 311.046875 138.722656 310.867188 137.925781 310.730469 C 137.125 310.589844 136.324219 310.496094 135.515625 310.449219 C 134.707031 310.398438 133.898438 310.390625 133.085938 310.429688 C 132.277344 310.46875 131.472656 310.550781 130.671875 310.675781 C 129.875 310.800781 129.082031 310.972656 128.300781 311.183594 C 127.519531 311.394531 126.75 311.648438 125.996094 311.945312 C 125.242188 312.238281 124.507812 312.574219 123.789062 312.953125 C 123.070312 313.328125 122.375 313.742188 121.703125 314.191406 C 121.03125 314.644531 120.382812 315.132812 119.765625 315.652344 C 119.144531 316.175781 118.554688 316.730469 117.996094 317.316406 C 117.4375 317.902344 116.914062 318.515625 116.421875 319.160156 C 115.929688 319.804688 115.472656 320.472656 115.054688 321.164062 C 114.632812 321.855469 114.253906 322.570312 113.910156 323.304688 C 113.570312 324.039062 113.269531 324.792969 113.007812 325.558594 C 112.75 326.324219 112.53125 327.105469 112.355469 327.894531 C 112.183594 328.6875 112.050781 329.484375 111.960938 330.289062 C 111.875 331.09375 111.832031 331.902344 111.832031 332.710938 C 111.832031 333.523438 111.875 334.332031 111.960938 335.136719 C 112.050781 335.941406 112.183594 336.738281 112.355469 337.53125 C 112.53125 338.320312 112.75 339.101562 113.007812 339.867188 C 113.269531 340.632812 113.570312 341.386719 113.910156 342.121094 C 114.253906 342.855469 114.632812 343.570312 115.054688 344.261719 C 115.472656 344.953125 115.929688 345.621094 116.421875 346.265625 C 116.914062 346.910156 117.4375 347.523438 117.996094 348.109375 C 118.554688 348.695312 119.144531 349.25 119.765625 349.773438 C 120.382812 350.292969 121.03125 350.78125 121.703125 351.234375 C 122.375 351.683594 123.070312 352.097656 123.789062 352.472656 C 124.507812 352.851562 125.242188 353.1875 125.996094 353.480469 C 126.75 353.777344 127.519531 354.03125 128.300781 354.242188 C 129.082031 354.453125 129.875 354.625 130.671875 354.75 C 131.472656 354.875 132.277344 354.957031 133.085938 354.996094 C 133.898438 355.035156 134.707031 355.027344 135.515625 354.976562 C 136.324219 354.929688 137.125 354.835938 137.925781 354.695312 C 138.722656 354.558594 139.511719 354.378906 140.289062 354.15625 C 141.070312 353.933594 141.832031 353.667969 142.582031 353.359375 C 143.332031 353.054688 144.0625 352.707031 144.777344 352.320312 C 145.488281 351.933594 146.175781 351.511719 146.84375 351.050781 C 147.507812 350.589844 148.148438 350.09375 148.757812 349.5625 C 149.371094 349.03125 149.953125 348.46875 150.503906 347.875 C 151.054688 347.28125 151.570312 346.65625 152.054688 346.007812 C 152.535156 345.355469 152.980469 344.683594 153.390625 343.984375 L 245.511719 343.984375 C 247.0625 343.984375 248.609375 343.945312 250.160156 343.867188 C 251.707031 343.792969 253.253906 343.679688 254.796875 343.527344 C 256.339844 343.375 257.875 343.183594 259.410156 342.957031 C 260.941406 342.730469 262.46875 342.464844 263.988281 342.164062 C 265.507812 341.859375 267.023438 341.519531 268.523438 341.144531 C 270.027344 340.769531 271.523438 340.355469 273.003906 339.90625 C 274.488281 339.453125 275.960938 338.96875 277.417969 338.445312 C 278.878906 337.925781 280.324219 337.367188 281.757812 336.773438 C 283.1875 336.179688 284.605469 335.550781 286.007812 334.890625 C 287.40625 334.226562 288.792969 333.53125 290.160156 332.800781 C 291.527344 332.070312 292.875 331.304688 294.203125 330.507812 C 295.535156 329.710938 296.84375 328.882812 298.132812 328.023438 C 299.421875 327.160156 300.6875 326.269531 301.933594 325.34375 C 303.175781 324.421875 304.398438 323.46875 305.597656 322.484375 C 306.796875 321.5 307.96875 320.488281 309.117188 319.449219 C 310.265625 318.40625 311.386719 317.339844 312.484375 316.242188 C 313.578125 315.148438 314.648438 314.027344 315.6875 312.878906 C 316.730469 311.730469 317.742188 310.554688 318.726562 309.355469 C 319.707031 308.160156 320.664062 306.9375 321.585938 305.691406 C 322.507812 304.449219 323.402344 303.179688 324.261719 301.890625 C 325.125 300.601562 325.953125 299.292969 326.75 297.964844 C 327.546875 296.636719 328.308594 295.285156 329.039062 293.921875 C 329.769531 292.554688 330.46875 291.167969 331.132812 289.769531 C 331.792969 288.367188 332.421875 286.949219 333.015625 285.519531 C 333.609375 284.085938 334.164062 282.640625 334.6875 281.179688 C 335.210938 279.722656 335.695312 278.25 336.144531 276.765625 C 336.597656 275.285156 337.007812 273.789062 337.386719 272.285156 C 337.761719 270.785156 338.101562 269.273438 338.40625 267.75 C 338.707031 266.230469 338.972656 264.703125 339.199219 263.171875 C 339.425781 261.636719 339.617188 260.101562 339.769531 258.558594 C 339.921875 257.015625 340.035156 255.46875 340.109375 253.921875 C 340.1875 252.375 340.222656 250.824219 340.222656 249.273438 C 340.222656 247.726562 340.1875 246.175781 340.109375 244.628906 C 340.035156 243.078125 339.921875 241.535156 339.769531 239.992188 C 339.617188 238.449219 339.425781 236.910156 339.199219 235.378906 C 338.972656 233.84375 338.707031 232.316406 338.40625 230.796875 C 338.101562 229.277344 337.761719 227.765625 337.386719 226.261719 C 337.007812 224.757812 336.597656 223.265625 336.144531 221.78125 C 335.695312 220.300781 335.210938 218.828125 334.6875 217.367188 C 334.164062 215.910156 333.609375 214.464844 333.015625 213.03125 C 332.421875 211.597656 331.792969 210.183594 331.132812 208.78125 C 330.46875 207.378906 329.769531 205.996094 329.039062 204.628906 C 328.308594 203.261719 327.546875 201.914062 326.75 200.585938 C 325.953125 199.253906 325.125 197.945312 324.261719 196.65625 C 323.402344 195.367188 322.507812 194.101562 321.585938 192.855469 C 320.664062 191.613281 319.707031 190.390625 318.726562 189.191406 C 317.742188 187.996094 316.730469 186.820312 315.6875 185.671875 C 314.648438 184.523438 313.578125 183.402344 312.484375 182.304688 C 311.386719 181.210938 310.265625 180.140625 309.117188 179.101562 C 307.96875 178.058594 306.796875 177.046875 305.597656 176.0625 C 304.398438 175.082031 303.175781 174.128906 301.933594 173.203125 C 300.6875 172.28125 299.421875 171.390625 298.132812 170.527344 C 296.84375 169.667969 295.535156 168.835938 294.203125 168.039062 C 292.875 167.242188 291.527344 166.480469 290.160156 165.75 C 288.792969 165.019531 287.40625 164.320312 286.007812 163.660156 C 284.605469 162.996094 283.1875 162.367188 281.757812 161.777344 C 280.324219 161.183594 278.878906 160.625 277.417969 160.101562 C 275.960938 159.582031 274.488281 159.09375 273.003906 158.644531 C 271.523438 158.195312 270.027344 157.78125 268.523438 157.40625 C 267.023438 157.027344 265.507812 156.6875 263.988281 156.386719 C 262.46875 156.082031 260.941406 155.820312 259.410156 155.589844 C 257.875 155.363281 256.339844 155.175781 254.796875 155.023438 C 253.253906 154.871094 251.707031 154.757812 250.160156 154.679688 C 248.609375 154.605469 247.0625 154.566406 245.511719 154.566406 Z M 245.511719 154.613281 " fill-opacity="1" fill-rule="nonzero"/></g><path fill="#004aad" d="M 226.261719 300.910156 C 226.667969 301.613281 227.113281 302.289062 227.597656 302.941406 C 228.078125 303.589844 228.597656 304.214844 229.148438 304.808594 C 229.695312 305.40625 230.277344 305.96875 230.890625 306.5 C 231.5 307.03125 232.140625 307.53125 232.804688 307.992188 C 233.472656 308.453125 234.160156 308.878906 234.875 309.265625 C 235.585938 309.652344 236.316406 310 237.066406 310.308594 C 237.816406 310.617188 238.582031 310.882812 239.363281 311.105469 C 240.140625 311.332031 240.929688 311.511719 241.730469 311.648438 C 242.527344 311.789062 243.332031 311.882812 244.140625 311.933594 C 244.949219 311.984375 245.757812 311.988281 246.570312 311.953125 C 247.378906 311.914062 248.183594 311.832031 248.984375 311.707031 C 249.785156 311.582031 250.578125 311.414062 251.359375 311.203125 C 252.144531 310.992188 252.914062 310.738281 253.667969 310.441406 C 254.421875 310.144531 255.160156 309.808594 255.878906 309.433594 C 256.597656 309.058594 257.292969 308.644531 257.964844 308.191406 C 258.636719 307.742188 259.285156 307.253906 259.90625 306.734375 C 260.527344 306.210938 261.117188 305.65625 261.675781 305.070312 C 262.234375 304.484375 262.761719 303.867188 263.253906 303.222656 C 263.746094 302.582031 264.203125 301.914062 264.625 301.21875 C 265.042969 300.523438 265.425781 299.8125 265.765625 299.074219 C 266.109375 298.339844 266.410156 297.589844 266.667969 296.820312 C 266.929688 296.054688 267.148438 295.273438 267.324219 294.480469 C 267.496094 293.691406 267.628906 292.890625 267.71875 292.085938 C 267.804688 291.28125 267.847656 290.472656 267.847656 289.660156 C 267.847656 288.851562 267.804688 288.042969 267.71875 287.234375 C 267.628906 286.429688 267.496094 285.632812 267.324219 284.839844 C 267.148438 284.046875 266.929688 283.269531 266.667969 282.5 C 266.410156 281.734375 266.109375 280.980469 265.765625 280.246094 C 265.425781 279.511719 265.042969 278.796875 264.625 278.105469 C 264.203125 277.410156 263.746094 276.742188 263.253906 276.097656 C 262.761719 275.453125 262.234375 274.839844 261.675781 274.253906 C 261.117188 273.667969 260.527344 273.113281 259.90625 272.589844 C 259.285156 272.066406 258.636719 271.582031 257.964844 271.128906 C 257.292969 270.675781 256.597656 270.265625 255.878906 269.886719 C 255.160156 269.511719 254.421875 269.175781 253.667969 268.882812 C 252.914062 268.585938 252.144531 268.332031 251.359375 268.121094 C 250.578125 267.910156 249.785156 267.738281 248.984375 267.613281 C 248.183594 267.488281 247.378906 267.40625 246.570312 267.371094 C 245.757812 267.332031 244.949219 267.339844 244.140625 267.390625 C 243.332031 267.441406 242.527344 267.535156 241.730469 267.671875 C 240.929688 267.8125 240.140625 267.992188 239.363281 268.214844 C 238.582031 268.441406 237.816406 268.707031 237.066406 269.015625 C 236.316406 269.320312 235.585938 269.667969 234.875 270.054688 C 234.160156 270.441406 233.472656 270.867188 232.804688 271.332031 C 232.140625 271.792969 231.5 272.289062 230.890625 272.820312 C 230.277344 273.355469 229.695312 273.917969 229.148438 274.511719 C 228.597656 275.109375 228.078125 275.730469 227.597656 276.382812 C 227.113281 277.035156 226.667969 277.710938 226.261719 278.410156 L 84.789062 278.410156 C 84.378906 277.710938 83.933594 277.035156 83.453125 276.382812 C 82.96875 275.734375 82.453125 275.109375 81.902344 274.515625 C 81.355469 273.917969 80.773438 273.355469 80.160156 272.824219 C 79.550781 272.292969 78.910156 271.796875 78.246094 271.335938 C 77.578125 270.871094 76.890625 270.449219 76.179688 270.0625 C 75.464844 269.675781 74.734375 269.328125 73.984375 269.019531 C 73.234375 268.710938 72.472656 268.445312 71.691406 268.222656 C 70.914062 268 70.125 267.816406 69.328125 267.679688 C 68.527344 267.542969 67.722656 267.449219 66.914062 267.398438 C 66.105469 267.347656 65.296875 267.339844 64.488281 267.378906 C 63.679688 267.414062 62.875 267.496094 62.074219 267.621094 C 61.273438 267.75 60.480469 267.917969 59.699219 268.128906 C 58.914062 268.339844 58.148438 268.59375 57.394531 268.890625 C 56.636719 269.183594 55.902344 269.519531 55.183594 269.894531 C 54.464844 270.269531 53.769531 270.683594 53.097656 271.136719 C 52.425781 271.589844 51.777344 272.074219 51.15625 272.597656 C 50.539062 273.117188 49.949219 273.671875 49.386719 274.257812 C 48.828125 274.84375 48.304688 275.460938 47.808594 276.101562 C 47.316406 276.746094 46.863281 277.414062 46.441406 278.109375 C 46.023438 278.800781 45.640625 279.515625 45.300781 280.25 C 44.957031 280.984375 44.65625 281.738281 44.398438 282.503906 C 44.136719 283.273438 43.917969 284.050781 43.746094 284.84375 C 43.570312 285.632812 43.4375 286.433594 43.351562 287.238281 C 43.261719 288.042969 43.21875 288.851562 43.21875 289.660156 C 43.21875 290.472656 43.261719 291.28125 43.351562 292.085938 C 43.4375 292.890625 43.570312 293.6875 43.746094 294.480469 C 43.917969 295.273438 44.136719 296.050781 44.398438 296.820312 C 44.65625 297.585938 44.957031 298.335938 45.300781 299.070312 C 45.640625 299.804688 46.023438 300.519531 46.441406 301.214844 C 46.863281 301.90625 47.316406 302.574219 47.808594 303.21875 C 48.304688 303.863281 48.828125 304.476562 49.386719 305.0625 C 49.949219 305.648438 50.539062 306.203125 51.15625 306.726562 C 51.777344 307.246094 52.425781 307.734375 53.097656 308.1875 C 53.769531 308.636719 54.464844 309.050781 55.183594 309.425781 C 55.902344 309.800781 56.636719 310.136719 57.394531 310.433594 C 58.148438 310.730469 58.914062 310.980469 59.699219 311.195312 C 60.480469 311.40625 61.273438 311.574219 62.074219 311.699219 C 62.875 311.824219 63.679688 311.90625 64.488281 311.945312 C 65.296875 311.980469 66.105469 311.976562 66.914062 311.925781 C 67.722656 311.875 68.527344 311.78125 69.328125 311.644531 C 70.125 311.503906 70.914062 311.324219 71.691406 311.101562 C 72.472656 310.875 73.234375 310.609375 73.984375 310.304688 C 74.734375 309.996094 75.464844 309.648438 76.179688 309.261719 C 76.890625 308.875 77.578125 308.449219 78.246094 307.988281 C 78.910156 307.527344 79.550781 307.027344 80.160156 306.496094 C 80.773438 305.964844 81.355469 305.402344 81.902344 304.808594 C 82.453125 304.210938 82.96875 303.589844 83.453125 302.9375 C 83.933594 302.289062 84.378906 301.613281 84.789062 300.910156 Z M 226.261719 300.910156 " fill-opacity="1" fill-rule="nonzero"/></svg>