<svg xmlns="http://www.w3.org/2000/svg" xmlns:xlink="http://www.w3.org/1999/xlink" width="500" zoomAndPan="magnify" viewBox="0 0 375 374.999991" height="500" preserveAspectRatio="xMidYMid meet" version="1.0"><path fill="#000000" d="M 362.902344 217.742188 L 356.71875 217.742188 C 355.992188 211.332031 352.253906 205.554688 346.582031 202.3125 L 314.773438 184.136719 C 314.691406 184.089844 314.601562 184.046875 314.515625 184 L 314.515625 114.917969 C 314.515625 98.667969 309.660156 83.238281 300.449219 70.039062 C 301.714844 67.105469 302.417969 63.878906 302.417969 60.484375 C 302.417969 55.589844 301.261719 50.695312 299.074219 46.320312 L 278.226562 4.621094 L 260.4375 40.199219 C 252.542969 37.605469 244.308594 36.289062 235.886719 36.289062 C 207.90625 36.289062 183.292969 50.988281 169.355469 73.0625 L 169.355469 65.066406 C 169.355469 29.1875 140.167969 0 104.289062 0 C 86.847656 0 70.410156 6.519531 57.761719 18.410156 L 50.585938 19.207031 C 21.746094 22.414062 0 46.710938 0 75.726562 C 0 90.746094 7.152344 105.089844 19.132812 114.140625 C 18.492188 116.308594 18.144531 118.597656 18.144531 120.96875 C 18.144531 129.574219 22.664062 137.136719 29.449219 141.429688 C 18.519531 151.089844 12.097656 165.175781 12.097656 179.859375 C 12.097656 190.011719 15.074219 199.84375 20.707031 208.292969 L 36.289062 231.667969 L 36.289062 375 L 362.902344 375 C 369.574219 375 375 369.574219 375 362.902344 L 375 229.839844 C 375 223.167969 369.574219 217.742188 362.902344 217.742188 Z M 340.582031 212.816406 C 342.480469 213.902344 343.84375 215.6875 344.433594 217.742188 L 313.097656 217.742188 L 300.546875 210.570312 C 297.972656 209.097656 296.371094 206.339844 296.371094 203.375 L 296.371094 201.835938 C 296.371094 197.265625 300.089844 193.546875 304.660156 193.546875 C 306.101562 193.546875 307.523438 193.925781 308.773438 194.640625 Z M 254.03125 338.710938 L 254.03125 229.839844 L 266.128906 229.839844 L 266.128906 338.710938 Z M 241.933594 314.515625 L 241.933594 338.710938 L 229.839844 338.710938 L 229.839844 314.515625 Z M 241.933594 302.417969 L 202.101562 302.417969 C 194.96875 302.417969 188.265625 305.195312 183.222656 310.238281 L 191.777344 318.792969 C 194.535156 316.035156 198.199219 314.515625 202.101562 314.515625 L 217.742188 314.515625 L 217.742188 338.710938 L 205.644531 338.710938 C 178.964844 338.710938 157.257812 317.003906 157.257812 290.324219 L 175.402344 290.324219 C 192.078125 290.324219 205.644531 276.757812 205.644531 260.082031 C 205.644531 243.40625 192.078125 229.839844 175.402344 229.839844 L 168.578125 229.839844 C 176.601562 220.257812 188.089844 214.085938 200.832031 212.808594 L 205.765625 212.316406 C 206.878906 234.269531 215.953125 254.75 231.609375 270.40625 L 235.886719 274.683594 L 241.933594 268.632812 Z M 241.933594 251.527344 L 236.050781 257.410156 C 231.972656 252.644531 228.550781 247.445312 225.789062 241.933594 L 241.933594 241.933594 Z M 205.644531 200.171875 L 199.628906 200.773438 C 188.441406 201.890625 178.035156 206.035156 169.355469 212.546875 L 169.355469 166.101562 C 172.917969 168.167969 177.046875 169.355469 181.453125 169.355469 L 183.722656 169.355469 C 187.316406 180.878906 195.015625 190.777344 205.644531 197.128906 Z M 181.535156 157.257812 L 181.453125 157.257812 C 174.78125 157.257812 169.355469 151.832031 169.355469 145.160156 C 169.355469 138.492188 174.78125 133.066406 181.453125 133.066406 L 181.453125 154.402344 C 181.453125 155.359375 181.484375 156.3125 181.535156 157.257812 Z M 157.257812 224.660156 C 156.332031 225.894531 155.453125 227.167969 154.617188 228.480469 L 139.113281 192.304688 L 139.113281 173.007812 C 146.191406 168.835938 152.371094 163.292969 157.257812 156.726562 Z M 118.417969 192.054688 L 114.058594 181.160156 C 118.535156 180.726562 122.871094 179.808594 127.015625 178.460938 L 127.015625 189.1875 Z M 120.96875 203.957031 L 129.695312 201.046875 L 142.035156 229.839844 L 120.96875 229.839844 Z M 175.402344 241.933594 C 185.40625 241.933594 193.546875 250.074219 193.546875 260.082031 C 193.546875 270.085938 185.40625 278.226562 175.402344 278.226562 L 157.257812 278.226562 L 157.257812 241.933594 Z M 241.933594 229.839844 L 220.988281 229.839844 C 218.859375 222.753906 217.742188 215.324219 217.742188 207.71875 L 217.742188 189.808594 L 214.398438 188.140625 C 201.539062 181.707031 193.546875 168.78125 193.546875 154.402344 L 193.546875 116.847656 C 193.546875 114.425781 194.988281 112.242188 197.214844 111.289062 L 221.292969 100.96875 C 230.902344 106.921875 241.835938 110.707031 253.28125 111.851562 L 272.777344 113.800781 C 275.882812 114.109375 278.226562 116.699219 278.226562 119.816406 L 278.226562 154.402344 C 278.226562 168.78125 270.238281 181.707031 257.375 188.136719 L 254.03125 189.808594 L 254.03125 217.742188 C 247.363281 217.742188 241.933594 223.167969 241.933594 229.839844 Z M 290.324219 154.402344 L 290.324219 133.066406 C 296.992188 133.066406 302.417969 138.492188 302.417969 145.160156 C 302.417969 151.832031 296.992188 157.257812 290.324219 157.257812 L 290.242188 157.257812 C 290.292969 156.3125 290.324219 155.359375 290.324219 154.402344 Z M 288.054688 169.355469 L 290.324219 169.355469 C 294.726562 169.355469 298.859375 168.164062 302.417969 166.101562 L 302.417969 181.578125 C 294.117188 182.488281 287.304688 188.402344 285.0625 196.234375 C 280.332031 195.207031 275.542969 194.464844 270.71875 194.027344 C 278.984375 187.765625 285 179.144531 288.054688 169.355469 Z M 266.128906 217.742188 L 266.128906 205.832031 C 272.476562 206.195312 278.78125 207.121094 284.964844 208.617188 C 285.886719 212.0625 287.699219 215.210938 290.207031 217.742188 Z M 268.195312 51.730469 L 278.226562 31.671875 L 288.257812 51.730469 C 289.609375 54.433594 290.324219 57.460938 290.324219 60.484375 C 290.324219 67.152344 284.894531 72.582031 278.226562 72.582031 C 271.554688 72.582031 266.128906 67.152344 266.128906 60.484375 C 266.128906 57.460938 266.84375 54.433594 268.195312 51.730469 Z M 235.886719 48.386719 C 242.570312 48.386719 249.109375 49.371094 255.402344 51.300781 C 254.5 54.273438 254.03125 57.378906 254.03125 60.484375 C 254.03125 73.824219 264.886719 84.675781 278.226562 84.675781 C 283.566406 84.675781 288.507812 82.933594 292.515625 79.988281 C 299.007812 90.457031 302.417969 102.398438 302.417969 114.917969 L 302.417969 124.222656 C 298.859375 122.15625 294.726562 120.96875 290.324219 120.96875 L 290.324219 119.816406 C 290.324219 110.457031 283.296875 102.695312 273.984375 101.761719 L 254.484375 99.8125 C 237.039062 98.066406 221.003906 89.023438 210.484375 75 L 200.804688 82.257812 C 203.617188 86.003906 206.761719 89.453125 210.175781 92.570312 L 192.449219 100.167969 C 185.769531 103.03125 181.453125 109.582031 181.453125 116.847656 L 181.453125 120.96875 C 177.046875 120.96875 172.917969 122.15625 169.355469 124.222656 L 169.355469 114.917969 C 169.355469 78.234375 199.203125 48.386719 235.886719 48.386719 Z M 157.257812 114.917969 L 157.257812 120.238281 C 157.257812 147.320312 135.222656 169.355469 108.140625 169.355469 C 86.328125 169.355469 66.910156 154.707031 60.917969 133.730469 L 53.445312 107.582031 L 68.667969 110.628906 L 65.589844 98.320312 C 63.246094 88.925781 64.144531 79.046875 68.015625 70.300781 C 74.363281 75.722656 81.96875 79.417969 90.210938 81.066406 C 99.894531 83.003906 108.246094 88.59375 113.722656 96.808594 L 122.792969 110.417969 L 130.503906 87.292969 L 151.210938 102.824219 L 151.210938 83.882812 L 161.144531 90.503906 C 158.625 98.195312 157.257812 106.398438 157.257812 114.917969 Z M 42.339844 133.066406 C 35.667969 133.066406 30.242188 127.636719 30.242188 120.96875 C 30.242188 114.667969 35.089844 109.480469 41.246094 108.925781 L 47.777344 131.773438 C 46.105469 132.617188 44.25 133.066406 42.339844 133.066406 Z M 12.097656 75.726562 C 12.097656 52.882812 29.21875 33.753906 51.921875 31.230469 L 63.261719 29.96875 L 64.761719 28.46875 C 75.320312 17.910156 89.355469 12.097656 104.289062 12.097656 C 133.496094 12.097656 157.257812 35.859375 157.257812 65.066406 L 157.257812 73.375 L 151.210938 69.34375 L 151.210938 69.039062 C 151.210938 61.90625 148.433594 55.203125 143.390625 50.160156 L 134.835938 58.710938 C 137.59375 61.46875 139.113281 65.136719 139.113281 69.035156 L 139.113281 78.628906 L 133.066406 74.09375 L 133.066406 74.007812 C 133.066406 63.363281 127.148438 53.789062 117.625 49.027344 L 112.214844 59.847656 C 117.613281 62.546875 120.96875 67.972656 120.96875 74.007812 L 120.96875 75.078125 C 120.96875 76.78125 120.695312 78.46875 120.15625 80.085938 L 118.890625 83.882812 C 111.929688 76.375 102.820312 71.25 92.585938 69.203125 C 85.40625 67.769531 78.875 64.273438 73.699219 59.09375 L 65.59375 50.988281 L 61.5 57.128906 C 54.035156 68.328125 50.941406 81.871094 52.6875 95.09375 L 48.011719 94.160156 C 41.21875 92.800781 36.289062 86.789062 36.289062 79.863281 C 36.289062 76.78125 37.488281 73.886719 39.667969 71.710938 L 40.566406 70.808594 L 32.011719 62.253906 L 31.113281 63.15625 C 26.652344 67.617188 24.195312 73.550781 24.195312 79.863281 C 24.195312 87.253906 27.265625 94.074219 32.289062 98.96875 C 29.730469 100.140625 27.410156 101.746094 25.421875 103.691406 C 17.058594 96.890625 12.097656 86.542969 12.097656 75.726562 Z M 24.195312 179.859375 C 24.195312 167.601562 30.050781 155.890625 39.855469 148.535156 L 44.484375 145.0625 C 46.90625 144.851562 49.261719 144.273438 51.484375 143.367188 C 59.886719 163.882812 78.984375 178.398438 100.976562 181.019531 L 108.871094 200.761719 L 108.871094 229.839844 L 106.175781 229.839844 L 84.878906 195.761719 C 79.597656 187.316406 72.097656 180.496094 63.1875 176.042969 L 57.78125 186.863281 C 64.695312 190.320312 70.519531 195.617188 74.617188 202.175781 L 95.144531 235.011719 L 86.449219 243.707031 L 95.003906 252.261719 L 105.328125 241.933594 L 145.160156 241.933594 L 145.160156 278.226562 L 111 278.226562 C 92.757812 278.226562 75.824219 269.164062 65.707031 253.984375 L 30.769531 201.582031 C 26.46875 195.128906 24.195312 187.617188 24.195312 179.859375 Z M 55.640625 260.695312 C 68.007812 279.246094 88.703125 290.324219 111 290.324219 L 145.160156 290.324219 C 145.160156 294.464844 145.582031 298.511719 146.378906 302.417969 L 48.386719 302.417969 L 48.386719 249.816406 Z M 120.96875 362.902344 L 120.96875 341.945312 L 136.417969 331.644531 L 129.710938 321.582031 L 114.917969 331.441406 L 100.128906 321.582031 L 93.417969 331.644531 L 108.871094 341.945312 L 108.871094 362.902344 L 48.386719 362.902344 L 48.386719 314.515625 L 150.226562 314.515625 C 155.136719 325.722656 163.347656 335.160156 173.625 341.601562 C 171.015625 343.820312 169.355469 347.121094 169.355469 350.804688 L 169.355469 362.902344 Z M 362.902344 362.902344 L 181.453125 362.902344 L 181.453125 350.804688 L 362.902344 350.804688 Z M 362.902344 338.710938 L 278.226562 338.710938 L 278.226562 229.839844 L 362.902344 229.839844 Z M 362.902344 338.710938 " fill-opacity="1" fill-rule="nonzero"/><path fill="#000000" d="M 320.566406 290.324219 C 330.570312 290.324219 338.710938 282.183594 338.710938 272.175781 C 338.710938 262.171875 330.570312 254.03125 320.566406 254.03125 C 310.558594 254.03125 302.417969 262.171875 302.417969 272.175781 C 302.417969 282.183594 310.558594 290.324219 320.566406 290.324219 Z M 320.566406 266.128906 C 323.898438 266.128906 326.613281 268.84375 326.613281 272.175781 C 326.613281 275.511719 323.898438 278.226562 320.566406 278.226562 C 317.230469 278.226562 314.515625 275.511719 314.515625 272.175781 C 314.515625 268.84375 317.230469 266.128906 320.566406 266.128906 Z M 320.566406 266.128906 " fill-opacity="1" fill-rule="nonzero"/><path fill="#000000" d="M 217.742188 127.015625 C 217.742188 127.414062 217.703125 127.804688 217.625 128.195312 C 217.546875 128.585938 217.433594 128.964844 217.28125 129.332031 C 217.128906 129.699219 216.941406 130.046875 216.722656 130.375 C 216.5 130.707031 216.25 131.011719 215.96875 131.292969 C 215.691406 131.574219 215.382812 131.824219 215.054688 132.046875 C 214.722656 132.265625 214.375 132.453125 214.007812 132.605469 C 213.640625 132.757812 213.261719 132.871094 212.875 132.949219 C 212.484375 133.027344 212.089844 133.066406 211.695312 133.066406 C 211.296875 133.066406 210.902344 133.027344 210.511719 132.949219 C 210.125 132.871094 209.746094 132.757812 209.378906 132.605469 C 209.011719 132.453125 208.664062 132.265625 208.332031 132.046875 C 208.003906 131.824219 207.699219 131.574219 207.417969 131.292969 C 207.136719 131.011719 206.886719 130.707031 206.664062 130.375 C 206.445312 130.046875 206.257812 129.699219 206.105469 129.332031 C 205.953125 128.964844 205.839844 128.585938 205.761719 128.195312 C 205.683594 127.804688 205.644531 127.414062 205.644531 127.015625 C 205.644531 126.617188 205.683594 126.226562 205.761719 125.835938 C 205.839844 125.445312 205.953125 125.070312 206.105469 124.703125 C 206.257812 124.335938 206.445312 123.984375 206.664062 123.65625 C 206.886719 123.324219 207.136719 123.019531 207.417969 122.738281 C 207.699219 122.457031 208.003906 122.207031 208.332031 121.988281 C 208.664062 121.765625 209.011719 121.582031 209.378906 121.429688 C 209.746094 121.277344 210.125 121.160156 210.511719 121.082031 C 210.902344 121.007812 211.296875 120.96875 211.695312 120.96875 C 212.089844 120.96875 212.484375 121.007812 212.875 121.082031 C 213.261719 121.160156 213.640625 121.277344 214.007812 121.429688 C 214.375 121.582031 214.722656 121.765625 215.054688 121.988281 C 215.382812 122.207031 215.691406 122.457031 215.96875 122.738281 C 216.25 123.019531 216.5 123.324219 216.722656 123.65625 C 216.941406 123.984375 217.128906 124.335938 217.28125 124.703125 C 217.433594 125.070312 217.546875 125.445312 217.625 125.835938 C 217.703125 126.226562 217.742188 126.617188 217.742188 127.015625 Z M 217.742188 127.015625 " fill-opacity="1" fill-rule="nonzero"/><path fill="#000000" d="M 266.128906 127.015625 C 266.128906 127.414062 266.089844 127.804688 266.011719 128.195312 C 265.933594 128.585938 265.820312 128.964844 265.667969 129.332031 C 265.515625 129.699219 265.332031 130.046875 265.109375 130.375 C 264.890625 130.707031 264.636719 131.011719 264.359375 131.292969 C 264.078125 131.574219 263.769531 131.824219 263.441406 132.046875 C 263.109375 132.265625 262.761719 132.453125 262.394531 132.605469 C 262.027344 132.757812 261.648438 132.871094 261.261719 132.949219 C 260.871094 133.027344 260.476562 133.066406 260.082031 133.066406 C 259.683594 133.066406 259.289062 133.027344 258.902344 132.949219 C 258.511719 132.871094 258.132812 132.757812 257.765625 132.605469 C 257.398438 132.453125 257.050781 132.265625 256.71875 132.046875 C 256.390625 131.824219 256.085938 131.574219 255.804688 131.292969 C 255.523438 131.011719 255.273438 130.707031 255.050781 130.375 C 254.832031 130.046875 254.644531 129.699219 254.492188 129.332031 C 254.339844 128.964844 254.226562 128.585938 254.148438 128.195312 C 254.070312 127.804688 254.03125 127.414062 254.03125 127.015625 C 254.03125 126.617188 254.070312 126.226562 254.148438 125.835938 C 254.226562 125.445312 254.339844 125.070312 254.492188 124.703125 C 254.644531 124.335938 254.832031 123.984375 255.050781 123.65625 C 255.273438 123.324219 255.523438 123.019531 255.804688 122.738281 C 256.085938 122.457031 256.390625 122.207031 256.71875 121.988281 C 257.050781 121.765625 257.398438 121.582031 257.765625 121.429688 C 258.132812 121.277344 258.511719 121.160156 258.902344 121.082031 C 259.289062 121.007812 259.683594 120.96875 260.082031 120.96875 C 260.476562 120.96875 260.871094 121.007812 261.261719 121.082031 C 261.648438 121.160156 262.027344 121.277344 262.394531 121.429688 C 262.761719 121.582031 263.109375 121.765625 263.441406 121.988281 C 263.769531 122.207031 264.078125 122.457031 264.359375 122.738281 C 264.636719 123.019531 264.890625 123.324219 265.109375 123.65625 C 265.332031 123.984375 265.515625 124.335938 265.667969 124.703125 C 265.820312 125.070312 265.933594 125.445312 266.011719 125.835938 C 266.089844 126.226562 266.128906 126.617188 266.128906 127.015625 Z M 266.128906 127.015625 " fill-opacity="1" fill-rule="nonzero"/><path fill="#000000" d="M 258.804688 171.421875 C 254.4375 162.683594 245.65625 157.257812 235.886719 157.257812 C 226.117188 157.257812 217.339844 162.683594 212.96875 171.421875 L 212.332031 172.699219 L 223.152344 178.109375 L 223.789062 176.828125 C 226.097656 172.21875 230.730469 169.355469 235.886719 169.355469 C 241.042969 169.355469 245.679688 172.21875 247.984375 176.832031 L 248.621094 178.109375 L 259.441406 172.699219 Z M 258.804688 171.421875 " fill-opacity="1" fill-rule="nonzero"/><path fill="#000000" d="M 244.640625 139.75 L 237.234375 136.046875 L 241.625 122.878906 L 230.148438 119.054688 L 222.441406 142.175781 L 239.230469 150.570312 Z M 244.640625 139.75 " fill-opacity="1" fill-rule="nonzero"/><path fill="#000000" d="M 97.414062 124.3125 L 108.230469 129.722656 L 116.230469 113.726562 L 95.003906 92.496094 L 86.449219 101.050781 L 101.511719 116.113281 Z M 97.414062 124.3125 " fill-opacity="1" fill-rule="nonzero"/><path fill="#000000" d="M 121.429688 136.761719 C 118.839844 141.941406 113.632812 145.160156 107.839844 145.160156 C 105.492188 145.160156 103.140625 144.605469 101.042969 143.558594 L 93.433594 139.75 L 88.019531 150.570312 L 95.632812 154.375 C 99.402344 156.261719 103.625 157.257812 107.839844 157.257812 C 118.242188 157.257812 127.597656 151.476562 132.25 142.171875 L 132.425781 141.820312 L 121.605469 136.410156 Z M 121.429688 136.761719 " fill-opacity="1" fill-rule="nonzero"/></svg>