<svg xmlns="http://www.w3.org/2000/svg" xmlns:xlink="http://www.w3.org/1999/xlink" width="500" zoomAndPan="magnify" viewBox="0 0 375 374.999991" height="500" preserveAspectRatio="xMidYMid meet" version="1.0"><defs><clipPath id="46795b0ae2"><path d="M 0 75 L 375 75 L 375 345.515625 L 0 345.515625 Z M 0 75 " clip-rule="nonzero"/></clipPath></defs><path fill="#000000" d="M 195.675781 48.273438 C 192.652344 48.273438 189.421875 48.734375 185.988281 49.652344 C 183.550781 50.378906 181.277344 51.382812 179.167969 52.652344 C 177.339844 53.582031 175.226562 55.457031 172.828125 58.269531 C 171.574219 59.914062 170.535156 61.695312 169.707031 63.613281 L 168.613281 66.550781 C 167.980469 68.566406 167.53125 70.632812 167.261719 72.753906 C 166.992188 74.875 166.875 76.992188 166.921875 79.105469 C 166.78125 80.25 167.140625 83.269531 168.003906 88.167969 C 169.363281 93.753906 171.476562 98.261719 174.34375 101.691406 C 176.644531 104.675781 180.382812 108.113281 185.558594 112 L 186.515625 122.960938 C 189.703125 125.644531 192.246094 126.988281 194.140625 126.988281 C 194.234375 126.988281 194.328125 126.984375 194.417969 126.976562 C 194.476562 126.980469 194.535156 126.984375 194.59375 126.984375 C 196.425781 126.984375 199.207031 125.503906 202.9375 122.550781 L 203.074219 111.863281 C 206.285156 109.070312 209.261719 105.9375 212.011719 102.453125 C 215 98.0625 216.820312 94.449219 217.472656 91.617188 C 219.152344 86.132812 219.726562 79.890625 219.199219 72.890625 C 218.058594 60.273438 212.839844 52.460938 203.535156 49.453125 C 201.089844 48.667969 198.472656 48.273438 195.675781 48.273438 Z M 157.570312 249.738281 L 147.695312 250.394531 L 148.351562 257.519531 C 149.710938 262.128906 150.820312 265.375 151.679688 267.265625 C 152.523438 269.117188 153.324219 270.105469 154.089844 270.226562 C 154.144531 270.230469 154.203125 270.234375 154.253906 270.234375 C 155.089844 270.234375 155.660156 269.582031 155.957031 268.28125 C 156.074219 267.574219 156.121094 267.066406 156.105469 266.761719 C 156.136719 266.425781 156.058594 265.066406 155.863281 262.679688 C 155.855469 262.390625 155.867188 262.164062 155.898438 262 L 155.972656 261.808594 C 155.992188 261.757812 156.03125 261.730469 156.09375 261.730469 C 156.175781 261.730469 156.296875 261.777344 156.457031 261.871094 L 157.921875 263.136719 C 158.101562 263.277344 158.28125 263.394531 158.453125 263.484375 C 158.710938 263.582031 158.90625 263.632812 159.035156 263.632812 C 159.113281 263.632812 159.167969 263.613281 159.203125 263.578125 C 160.042969 263.03125 160.375 261.707031 160.199219 259.605469 C 160.050781 258.484375 159.703125 257.382812 159.152344 256.304688 C 158.71875 255.40625 157.972656 254.164062 156.917969 252.574219 Z M 232.644531 250.792969 L 233.347656 253.859375 C 232.292969 255.445312 231.546875 256.6875 231.113281 257.589844 C 230.566406 258.664062 230.214844 259.765625 230.066406 260.886719 C 229.890625 262.988281 230.222656 264.3125 231.066406 264.863281 C 231.097656 264.898438 231.152344 264.914062 231.230469 264.914062 C 231.359375 264.914062 231.554688 264.867188 231.8125 264.769531 C 231.988281 264.679688 232.164062 264.5625 232.34375 264.417969 L 233.808594 263.15625 C 233.96875 263.058594 234.09375 263.011719 234.175781 263.011719 C 234.234375 263.011719 234.277344 263.039062 234.292969 263.09375 L 234.367188 263.28125 C 234.402344 263.449219 234.414062 263.675781 234.402344 263.964844 C 234.207031 266.351562 234.128906 267.710938 234.164062 268.042969 C 234.144531 268.347656 234.195312 268.855469 234.3125 269.566406 C 234.609375 270.867188 235.175781 271.519531 236.011719 271.519531 C 236.066406 271.519531 236.121094 271.515625 236.175781 271.511719 C 236.941406 271.386719 237.746094 270.402344 238.585938 268.550781 C 239.445312 266.660156 240.554688 263.410156 241.917969 258.800781 L 242.699219 251.652344 Z M 232.644531 250.792969 " fill-opacity="1" fill-rule="nonzero"/><path fill="#000000" d="M 163.429688 237.144531 L 161.359375 172.511719 L 160.527344 249.550781 L 146.003906 250.550781 C 141.796875 207.671875 139.8125 184.695312 140.058594 181.617188 C 139.539062 171.457031 140.359375 162.199219 142.515625 153.839844 C 143.789062 146.417969 149.316406 139.535156 159.089844 133.191406 C 164.695312 129.832031 173.855469 126.375 186.578125 122.808594 C 192.074219 128.28125 197.269531 127.925781 202.164062 121.753906 C 214.8125 123.683594 223.886719 126.664062 229.378906 130.695312 C 236.253906 134.988281 241.121094 143.15625 243.972656 155.203125 C 247.78125 174.1875 247.769531 206.375 243.949219 251.761719 L 231.519531 250.730469 L 225.828125 170.460938 L 225.054688 235.652344 Z M 163.429688 237.144531 " fill-opacity="1" fill-rule="nonzero"/><path fill="#000000" d="M 150.382812 157.40625 L 150.324219 156.648438 C 150.046875 153.117188 150.496094 150.917969 151.667969 150.058594 L 162.027344 145.410156 L 167.929688 136.78125 C 176.195312 132.648438 182.617188 128.222656 187.191406 123.507812 L 186.496094 112.335938 C 175.582031 104.375 169.0625 92.628906 166.9375 77.089844 C 181.414062 72.890625 189.625 66.476562 191.566406 57.839844 C 202.394531 64.613281 209.105469 70.316406 211.699219 74.953125 C 216.203125 83.128906 217.253906 90.683594 214.859375 97.621094 C 227.039062 84.519531 232.953125 74.40625 232.609375 67.289062 C 231.714844 61.625 226.644531 55.773438 217.402344 49.726562 C 215.953125 44.917969 214.386719 41.472656 212.707031 39.386719 C 210.179688 36.589844 207.847656 34.945312 205.707031 34.460938 C 191.304688 31.429688 179.269531 34.460938 169.597656 43.558594 C 163.691406 49.824219 159.917969 57.28125 158.28125 65.925781 C 156.976562 77.058594 159.957031 89.15625 167.226562 102.226562 C 165.625 103.382812 164.625 104.441406 164.226562 105.40625 L 162.445312 112.945312 L 159.367188 116.839844 C 160.125 123.0625 160.1875 126.28125 159.546875 126.503906 C 159.792969 126.792969 158.082031 128.226562 154.417969 130.796875 L 151.925781 137.640625 C 148.265625 143.410156 146.566406 146.476562 146.828125 146.839844 C 146.097656 149.953125 147.285156 153.476562 150.382812 157.40625 Z M 150.382812 157.40625 " fill-opacity="1" fill-rule="nonzero"/><g clip-path="url(#46795b0ae2)"><path fill="#000000" d="M 247.503906 75.464844 C 247.484375 75.464844 247.46875 75.46875 247.449219 75.46875 C 245.421875 75.585938 244.832031 77.609375 245.683594 81.53125 C 246.660156 84.605469 249.066406 87.90625 252.898438 91.429688 L 255.023438 103.800781 L 249.617188 91.71875 L 245.339844 88.09375 C 239.628906 83.597656 235.460938 81.347656 232.835938 81.347656 C 231.296875 81.347656 230.289062 82.121094 229.8125 83.667969 C 229.894531 85.628906 230.738281 87.398438 232.34375 88.980469 C 233.726562 90.695312 237.652344 93.925781 244.117188 98.679688 L 245.949219 110.566406 L 239.289062 100.128906 C 232.734375 94.824219 228.621094 91.804688 226.945312 91.066406 C 225.976562 90.496094 225.171875 90.210938 224.527344 90.210938 C 223.773438 90.210938 223.238281 90.601562 222.925781 91.378906 C 222.683594 92.605469 223.261719 94.324219 224.660156 96.527344 C 226.414062 99.117188 229.585938 102.539062 234.171875 106.796875 L 240.15625 118.492188 L 239.042969 128.082031 L 227.9375 131.359375 L 219.507812 124.707031 C 219.140625 120.835938 218.050781 118.117188 216.246094 116.554688 C 214.304688 114.699219 212.097656 113.675781 209.628906 113.484375 C 207.976562 113.660156 207.234375 114.769531 207.410156 116.804688 C 207.488281 119.148438 208.496094 123.304688 210.441406 129.273438 L 226.808594 143.261719 L 249.902344 150.609375 L 375.011719 246.640625 L 373.902344 187.882812 L 276.492188 132.972656 L 273.617188 96.234375 L 270.785156 82.371094 C 267.390625 78.425781 264.761719 76.453125 262.898438 76.453125 C 261.949219 76.453125 261.195312 76.96875 260.644531 77.996094 C 259.648438 80.261719 261.214844 82.9375 265.351562 86.015625 L 263.808594 97.90625 L 259.269531 84.664062 C 253.113281 78.53125 249.1875 75.464844 247.503906 75.464844 Z M 127.460938 174.15625 C 125.777344 174.15625 121.855469 177.21875 115.695312 183.351562 L 111.160156 196.59375 L 109.613281 184.703125 C 113.75 181.625 115.320312 178.949219 114.320312 176.683594 C 113.769531 175.65625 113.015625 175.144531 112.066406 175.144531 C 110.203125 175.144531 107.574219 177.117188 104.183594 181.058594 L 101.347656 194.921875 L 98.472656 231.660156 L 1.0625 286.570312 L -0.0429688 345.332031 L 125.0625 249.296875 L 148.15625 241.949219 L 164.523438 227.960938 C 166.46875 221.992188 167.480469 217.835938 167.554688 215.492188 C 167.730469 213.457031 166.988281 212.347656 165.335938 212.171875 C 162.867188 212.363281 160.664062 213.386719 158.71875 215.242188 C 156.914062 216.804688 155.824219 219.523438 155.457031 223.394531 L 147.027344 230.046875 L 135.921875 226.769531 L 134.808594 217.179688 L 140.792969 205.484375 C 145.378906 201.226562 148.550781 197.804688 150.304688 195.21875 C 151.703125 193.011719 152.28125 191.296875 152.039062 190.066406 C 151.726562 189.289062 151.191406 188.898438 150.441406 188.898438 C 149.792969 188.898438 148.988281 189.183594 148.023438 189.753906 C 146.347656 190.492188 142.230469 193.511719 135.675781 198.816406 L 129.015625 209.253906 L 130.851562 197.367188 C 137.3125 192.617188 141.238281 189.382812 142.621094 187.667969 C 144.226562 186.085938 145.070312 184.316406 145.152344 182.355469 C 144.675781 180.808594 143.667969 180.035156 142.128906 180.035156 C 139.507812 180.035156 135.339844 182.285156 129.628906 186.78125 L 125.347656 190.40625 L 119.941406 202.488281 L 122.066406 190.117188 C 125.898438 186.59375 128.304688 183.296875 129.28125 180.21875 C 130.132812 176.296875 129.542969 174.273438 127.515625 174.15625 C 127.496094 174.15625 127.480469 174.15625 127.460938 174.15625 Z M 127.460938 174.15625 " fill-opacity="1" fill-rule="nonzero"/></g><path fill="#000000" d="M 217.621094 143.316406 C 217.515625 143.316406 217.410156 143.328125 217.304688 143.359375 C 216.679688 143.535156 216.320312 144.183594 216.496094 144.808594 C 217.074219 146.847656 217.476562 149.210938 217.699219 151.898438 C 217.921875 154.605469 218.121094 159.078125 218.292969 165.308594 C 218.3125 165.945312 218.832031 166.449219 219.460938 166.449219 C 219.472656 166.449219 219.484375 166.449219 219.496094 166.449219 C 220.140625 166.429688 220.652344 165.890625 220.632812 165.246094 C 220.457031 158.96875 220.257812 154.453125 220.03125 151.703125 C 219.796875 148.867188 219.367188 146.355469 218.75 144.167969 C 218.601562 143.652344 218.132812 143.316406 217.621094 143.316406 Z M 163.832031 143.316406 C 163.320312 143.316406 162.851562 143.652344 162.703125 144.167969 C 162.464844 145.007812 162.296875 146.554688 162.195312 148.804688 L 162.191406 148.835938 C 162.15625 150.808594 162.199219 153.359375 162.328125 156.496094 L 162.332031 156.515625 C 162.597656 161.089844 163.160156 165.78125 164.015625 170.59375 C 164.113281 171.160156 164.609375 171.5625 165.164062 171.5625 C 165.234375 171.5625 165.300781 171.554688 165.371094 171.542969 C 166.007812 171.429688 166.433594 170.820312 166.320312 170.183594 C 165.484375 165.46875 164.933594 160.875 164.667969 156.398438 L 164.667969 156.402344 C 164.542969 153.328125 164.496094 150.832031 164.535156 148.910156 L 164.535156 148.914062 C 164.628906 146.839844 164.769531 145.472656 164.957031 144.808594 C 165.132812 144.183594 164.773438 143.539062 164.152344 143.359375 C 164.042969 143.328125 163.9375 143.316406 163.832031 143.316406 Z M 176.816406 226.058594 C 176.175781 226.058594 175.652344 226.578125 175.648438 227.222656 C 175.644531 227.871094 176.164062 228.398438 176.8125 228.402344 C 178 228.40625 179.472656 228.488281 181.230469 228.636719 L 181.230469 228.640625 C 181.6875 228.679688 182.089844 228.71875 182.429688 228.761719 C 183.816406 228.945312 185.398438 229.136719 187.183594 229.335938 L 187.191406 229.335938 C 188.328125 229.460938 189.609375 229.578125 191.03125 229.695312 C 192.441406 229.8125 193.980469 229.875 195.65625 229.875 C 195.699219 229.875 195.746094 229.875 195.792969 229.871094 C 196.441406 229.871094 196.964844 229.347656 196.960938 228.699219 C 196.960938 228.050781 196.4375 227.53125 195.792969 227.53125 L 195.789062 227.53125 C 195.742188 227.53125 195.699219 227.53125 195.652344 227.53125 C 194.042969 227.53125 192.566406 227.472656 191.222656 227.359375 L 191.21875 227.359375 C 189.820312 227.246094 188.5625 227.128906 187.445312 227.007812 C 185.671875 226.808594 184.097656 226.617188 182.730469 226.4375 L 182.71875 226.433594 L 182.710938 226.433594 C 182.34375 226.390625 181.917969 226.347656 181.433594 226.304688 L 181.429688 226.304688 C 179.613281 226.144531 178.078125 226.066406 176.824219 226.058594 Z M 155.292969 242.28125 C 155.203125 242.28125 155.109375 242.28125 155.015625 242.28125 L 155.015625 242.285156 C 154.765625 242.285156 154.613281 242.285156 154.5625 242.285156 C 154.402344 242.285156 154.128906 242.289062 153.734375 242.292969 C 153.621094 242.292969 153.511719 242.292969 153.40625 242.292969 C 153.296875 242.292969 153.1875 242.292969 153.085938 242.292969 L 153.085938 242.296875 C 152.980469 242.296875 152.875 242.296875 152.773438 242.296875 L 152.617188 242.296875 C 151.972656 242.296875 151.449219 242.820312 151.449219 243.46875 C 151.449219 244.113281 151.972656 244.640625 152.617188 244.640625 L 152.777344 244.640625 C 152.882812 244.640625 152.988281 244.640625 153.09375 244.636719 L 153.09375 244.640625 C 153.203125 244.636719 153.3125 244.636719 153.417969 244.636719 C 153.535156 244.636719 153.644531 244.636719 153.753906 244.636719 C 154.15625 244.632812 154.433594 244.628906 154.578125 244.628906 L 154.582031 244.628906 C 154.640625 244.628906 154.789062 244.628906 155.023438 244.625 L 155.019531 244.628906 C 155.117188 244.625 155.203125 244.625 155.289062 244.625 L 155.292969 244.628906 L 155.421875 244.625 L 155.421875 244.628906 C 156.535156 244.628906 157.363281 244.628906 157.90625 244.628906 C 158.550781 244.628906 159.074219 244.105469 159.078125 243.457031 C 159.078125 242.8125 158.554688 242.285156 157.90625 242.285156 C 157.367188 242.285156 156.539062 242.285156 155.425781 242.28125 L 155.421875 242.285156 Z M 234.445312 242.792969 C 233.96875 242.792969 233.519531 243.089844 233.347656 243.5625 C 233.125 244.171875 233.4375 244.84375 234.042969 245.066406 C 234.074219 245.078125 234.105469 245.089844 234.136719 245.097656 L 234.136719 245.101562 C 234.230469 245.128906 234.390625 245.167969 234.617188 245.222656 L 234.640625 245.226562 C 234.878906 245.277344 235.109375 245.3125 235.335938 245.332031 C 235.453125 245.339844 235.566406 245.34375 235.683594 245.347656 L 235.6875 245.347656 C 236.808594 245.359375 237.425781 245.367188 237.539062 245.371094 C 237.527344 245.371094 237.519531 245.371094 237.503906 245.367188 L 237.511719 245.371094 L 237.574219 245.371094 C 237.882812 245.378906 238.144531 245.390625 238.363281 245.402344 C 238.386719 245.40625 238.410156 245.40625 238.433594 245.40625 C 239.050781 245.40625 239.566406 244.925781 239.601562 244.300781 C 239.640625 243.65625 239.148438 243.101562 238.503906 243.0625 C 238.265625 243.050781 237.984375 243.039062 237.660156 243.03125 L 237.65625 243.03125 C 237.648438 243.03125 237.640625 243.03125 237.632812 243.027344 L 237.632812 243.03125 C 237.507812 243.023438 236.867188 243.015625 235.703125 243.003906 C 235.644531 243.003906 235.589844 243 235.527344 242.996094 C 235.410156 242.984375 235.285156 242.964844 235.152344 242.9375 L 235.152344 242.941406 C 235.007812 242.90625 234.90625 242.882812 234.851562 242.867188 L 234.847656 242.867188 C 234.714844 242.816406 234.578125 242.792969 234.445312 242.792969 Z M 234.445312 242.792969 " fill-opacity="1" fill-rule="nonzero"/></svg>