<svg xmlns="http://www.w3.org/2000/svg" xmlns:xlink="http://www.w3.org/1999/xlink" width="500" zoomAndPan="magnify" viewBox="0 0 375 374.999991" height="500" preserveAspectRatio="xMidYMid meet" version="1.0"><path fill="#000000" d="M 162.039062 183.480469 C 162.039062 182.457031 161.992188 181.433594 161.890625 180.414062 C 161.789062 179.398438 161.640625 178.386719 161.441406 177.382812 C 161.242188 176.378906 160.992188 175.386719 160.695312 174.40625 C 160.398438 173.425781 160.054688 172.464844 159.660156 171.519531 C 159.269531 170.574219 158.832031 169.648438 158.351562 168.746094 C 157.867188 167.84375 157.34375 166.964844 156.773438 166.113281 C 156.203125 165.265625 155.59375 164.441406 154.945312 163.652344 C 154.296875 162.859375 153.609375 162.101562 152.886719 161.378906 C 152.164062 160.65625 151.40625 159.96875 150.613281 159.320312 C 149.824219 158.667969 149 158.0625 148.148438 157.492188 C 147.300781 156.921875 146.421875 156.398438 145.519531 155.914062 C 144.617188 155.433594 143.691406 154.996094 142.746094 154.605469 C 141.800781 154.210938 140.839844 153.867188 139.859375 153.570312 C 138.878906 153.273438 137.886719 153.023438 136.882812 152.824219 C 135.878906 152.625 134.867188 152.476562 133.851562 152.375 C 132.832031 152.273438 131.808594 152.226562 130.785156 152.226562 C 129.761719 152.226562 128.742188 152.273438 127.722656 152.375 C 126.703125 152.476562 125.691406 152.625 124.6875 152.824219 C 123.683594 153.023438 122.691406 153.273438 121.714844 153.570312 C 120.734375 153.867188 119.769531 154.210938 118.824219 154.605469 C 117.878906 154.996094 116.957031 155.433594 116.054688 155.914062 C 115.148438 156.398438 114.273438 156.921875 113.421875 157.492188 C 112.570312 158.0625 111.75 158.667969 110.957031 159.320312 C 110.167969 159.96875 109.410156 160.65625 108.6875 161.378906 C 107.960938 162.101562 107.277344 162.859375 106.625 163.652344 C 105.976562 164.441406 105.367188 165.265625 104.800781 166.117188 C 104.230469 166.964844 103.703125 167.84375 103.222656 168.746094 C 102.738281 169.648438 102.300781 170.574219 101.910156 171.519531 C 101.519531 172.464844 101.175781 173.425781 100.878906 174.40625 C 100.582031 175.386719 100.332031 176.378906 100.132812 177.382812 C 99.933594 178.386719 99.78125 179.398438 99.683594 180.414062 C 99.582031 181.433594 99.53125 182.457031 99.53125 183.480469 C 99.53125 184.503906 99.582031 185.523438 99.683594 186.542969 C 99.78125 187.5625 99.933594 188.574219 100.132812 189.578125 C 100.332031 190.582031 100.582031 191.574219 100.878906 192.550781 C 101.175781 193.53125 101.519531 194.496094 101.910156 195.441406 C 102.300781 196.386719 102.738281 197.308594 103.222656 198.210938 C 103.703125 199.117188 104.230469 199.992188 104.800781 200.84375 C 105.367188 201.695312 105.976562 202.515625 106.625 203.308594 C 107.277344 204.097656 107.960938 204.855469 108.6875 205.578125 C 109.410156 206.304688 110.167969 206.988281 110.957031 207.640625 C 111.75 208.289062 112.570312 208.898438 113.421875 209.464844 C 114.273438 210.035156 115.148438 210.5625 116.054688 211.042969 C 116.957031 211.527344 117.878906 211.964844 118.824219 212.355469 C 119.769531 212.746094 120.734375 213.089844 121.714844 213.386719 C 122.691406 213.683594 123.683594 213.933594 124.6875 214.132812 C 125.691406 214.332031 126.703125 214.484375 127.722656 214.582031 C 128.742188 214.683594 129.761719 214.734375 130.785156 214.734375 C 131.808594 214.734375 132.832031 214.683594 133.851562 214.582031 C 134.867188 214.484375 135.878906 214.332031 136.882812 214.132812 C 137.886719 213.933594 138.878906 213.683594 139.859375 213.386719 C 140.839844 213.089844 141.800781 212.746094 142.746094 212.355469 C 143.691406 211.964844 144.617188 211.527344 145.519531 211.042969 C 146.421875 210.5625 147.300781 210.035156 148.148438 209.464844 C 149 208.898438 149.824219 208.289062 150.613281 207.640625 C 151.40625 206.988281 152.164062 206.304688 152.886719 205.578125 C 153.609375 204.855469 154.296875 204.097656 154.945312 203.308594 C 155.59375 202.515625 156.203125 201.695312 156.773438 200.84375 C 157.34375 199.992188 157.867188 199.117188 158.351562 198.210938 C 158.832031 197.308594 159.269531 196.386719 159.660156 195.441406 C 160.054688 194.496094 160.398438 193.53125 160.695312 192.550781 C 160.992188 191.574219 161.242188 190.582031 161.441406 189.578125 C 161.640625 188.574219 161.789062 187.5625 161.890625 186.542969 C 161.992188 185.523438 162.039062 184.503906 162.039062 183.480469 Z M 125.101562 183.480469 C 125.101562 183.105469 125.140625 182.738281 125.210938 182.371094 C 125.285156 182.003906 125.394531 181.648438 125.535156 181.304688 C 125.679688 180.960938 125.855469 180.632812 126.0625 180.320312 C 126.269531 180.011719 126.503906 179.726562 126.769531 179.460938 C 127.03125 179.195312 127.320312 178.960938 127.628906 178.753906 C 127.9375 178.546875 128.265625 178.371094 128.613281 178.230469 C 128.957031 178.085938 129.3125 177.980469 129.675781 177.90625 C 130.042969 177.832031 130.414062 177.796875 130.785156 177.796875 C 131.160156 177.796875 131.527344 177.832031 131.894531 177.90625 C 132.261719 177.980469 132.617188 178.085938 132.960938 178.230469 C 133.304688 178.371094 133.632812 178.546875 133.941406 178.753906 C 134.253906 178.960938 134.539062 179.195312 134.804688 179.460938 C 135.066406 179.726562 135.304688 180.011719 135.511719 180.320312 C 135.71875 180.632812 135.894531 180.960938 136.035156 181.304688 C 136.179688 181.648438 136.285156 182.003906 136.359375 182.371094 C 136.433594 182.738281 136.46875 183.105469 136.46875 183.480469 C 136.46875 183.851562 136.433594 184.222656 136.359375 184.589844 C 136.285156 184.953125 136.179688 185.308594 136.035156 185.652344 C 135.894531 186 135.71875 186.324219 135.511719 186.636719 C 135.304688 186.945312 135.066406 187.234375 134.804688 187.496094 C 134.539062 187.761719 134.253906 187.996094 133.941406 188.203125 C 133.632812 188.410156 133.304688 188.585938 132.960938 188.730469 C 132.617188 188.871094 132.261719 188.980469 131.894531 189.054688 C 131.527344 189.125 131.160156 189.160156 130.785156 189.160156 C 130.414062 189.160156 130.042969 189.125 129.675781 189.054688 C 129.3125 188.980469 128.957031 188.871094 128.613281 188.730469 C 128.265625 188.585938 127.9375 188.410156 127.628906 188.203125 C 127.320312 187.996094 127.03125 187.761719 126.769531 187.496094 C 126.503906 187.234375 126.269531 186.945312 126.0625 186.636719 C 125.855469 186.324219 125.679688 186 125.535156 185.652344 C 125.394531 185.308594 125.285156 184.953125 125.210938 184.585938 C 125.140625 184.222656 125.101562 183.851562 125.101562 183.480469 Z M 125.101562 183.480469 " fill-opacity="1" fill-rule="nonzero"/><path fill="#000000" d="M 240.046875 216.628906 C 241.101562 216.628906 242.152344 216.574219 243.203125 216.472656 C 244.253906 216.371094 245.292969 216.214844 246.328125 216.007812 C 247.363281 215.804688 248.386719 215.546875 249.394531 215.242188 C 250.402344 214.933594 251.394531 214.578125 252.371094 214.175781 C 253.34375 213.773438 254.296875 213.324219 255.226562 212.824219 C 256.15625 212.328125 257.058594 211.785156 257.9375 211.199219 C 258.8125 210.613281 259.660156 209.988281 260.476562 209.316406 C 261.289062 208.648438 262.070312 207.941406 262.816406 207.195312 C 263.5625 206.449219 264.269531 205.667969 264.9375 204.855469 C 265.609375 204.039062 266.234375 203.191406 266.820312 202.316406 C 267.40625 201.4375 267.949219 200.535156 268.445312 199.605469 C 268.941406 198.675781 269.394531 197.722656 269.796875 196.75 C 270.199219 195.773438 270.554688 194.78125 270.863281 193.773438 C 271.167969 192.765625 271.421875 191.742188 271.628906 190.707031 C 271.835938 189.675781 271.988281 188.632812 272.09375 187.582031 C 272.195312 186.53125 272.25 185.480469 272.25 184.425781 C 272.25 183.371094 272.195312 182.320312 272.09375 181.269531 C 271.988281 180.21875 271.835938 179.179688 271.628906 178.144531 C 271.421875 177.109375 271.167969 176.085938 270.863281 175.078125 C 270.554688 174.070312 270.199219 173.078125 269.796875 172.101562 C 269.394531 171.128906 268.941406 170.175781 268.445312 169.246094 C 267.949219 168.316406 267.40625 167.414062 266.820312 166.535156 C 266.234375 165.660156 265.609375 164.8125 264.9375 163.996094 C 264.269531 163.183594 263.5625 162.402344 262.816406 161.65625 C 262.070312 160.910156 261.289062 160.203125 260.476562 159.535156 C 259.660156 158.863281 258.8125 158.238281 257.9375 157.652344 C 257.058594 157.066406 256.15625 156.523438 255.226562 156.027344 C 254.296875 155.53125 253.34375 155.078125 252.371094 154.675781 C 251.394531 154.273438 250.402344 153.917969 249.394531 153.613281 C 248.386719 153.304688 247.363281 153.050781 246.328125 152.84375 C 245.292969 152.636719 244.253906 152.484375 243.203125 152.378906 C 242.152344 152.277344 241.101562 152.226562 240.046875 152.226562 C 238.992188 152.226562 237.941406 152.277344 236.890625 152.378906 C 235.839844 152.484375 234.800781 152.636719 233.765625 152.84375 C 232.730469 153.050781 231.707031 153.304688 230.699219 153.613281 C 229.691406 153.917969 228.699219 154.273438 227.722656 154.675781 C 226.75 155.078125 225.796875 155.53125 224.867188 156.027344 C 223.9375 156.523438 223.035156 157.066406 222.15625 157.652344 C 221.28125 158.238281 220.433594 158.863281 219.617188 159.535156 C 218.804688 160.203125 218.023438 160.910156 217.277344 161.65625 C 216.53125 162.402344 215.824219 163.183594 215.15625 163.996094 C 214.484375 164.8125 213.859375 165.660156 213.273438 166.535156 C 212.6875 167.414062 212.144531 168.316406 211.648438 169.246094 C 211.152344 170.175781 210.699219 171.128906 210.296875 172.101562 C 209.894531 173.078125 209.539062 174.070312 209.230469 175.078125 C 208.925781 176.085938 208.667969 177.109375 208.464844 178.144531 C 208.257812 179.179688 208.105469 180.21875 208 181.269531 C 207.898438 182.320312 207.84375 183.371094 207.84375 184.425781 C 207.84375 185.480469 207.898438 186.53125 208 187.582031 C 208.105469 188.632812 208.257812 189.675781 208.464844 190.707031 C 208.667969 191.742188 208.925781 192.765625 209.230469 193.773438 C 209.539062 194.78125 209.894531 195.773438 210.296875 196.75 C 210.699219 197.722656 211.152344 198.675781 211.648438 199.605469 C 212.144531 200.535156 212.6875 201.4375 213.273438 202.316406 C 213.859375 203.191406 214.484375 204.039062 215.15625 204.855469 C 215.824219 205.667969 216.53125 206.449219 217.277344 207.195312 C 218.023438 207.941406 218.804688 208.648438 219.617188 209.316406 C 220.433594 209.988281 221.28125 210.613281 222.15625 211.199219 C 223.035156 211.785156 223.9375 212.328125 224.867188 212.824219 C 225.796875 213.324219 226.75 213.773438 227.722656 214.175781 C 228.699219 214.578125 229.691406 214.933594 230.699219 215.242188 C 231.707031 215.546875 232.730469 215.804688 233.765625 216.007812 C 234.800781 216.214844 235.839844 216.371094 236.890625 216.472656 C 237.941406 216.574219 238.992188 216.628906 240.046875 216.628906 Z M 235.914062 177.796875 C 236.289062 177.796875 236.65625 177.832031 237.023438 177.90625 C 237.390625 177.980469 237.746094 178.085938 238.089844 178.230469 C 238.433594 178.371094 238.761719 178.546875 239.070312 178.753906 C 239.382812 178.960938 239.667969 179.195312 239.933594 179.460938 C 240.195312 179.726562 240.433594 180.011719 240.640625 180.320312 C 240.847656 180.632812 241.023438 180.960938 241.164062 181.304688 C 241.308594 181.648438 241.414062 182.003906 241.488281 182.371094 C 241.5625 182.738281 241.597656 183.105469 241.597656 183.480469 C 241.597656 183.851562 241.5625 184.222656 241.488281 184.589844 C 241.414062 184.953125 241.308594 185.308594 241.164062 185.652344 C 241.023438 186 240.847656 186.328125 240.640625 186.636719 C 240.433594 186.945312 240.195312 187.234375 239.933594 187.496094 C 239.667969 187.761719 239.382812 187.996094 239.070312 188.203125 C 238.761719 188.410156 238.433594 188.585938 238.089844 188.730469 C 237.746094 188.871094 237.390625 188.980469 237.023438 189.054688 C 236.65625 189.125 236.289062 189.160156 235.914062 189.160156 C 235.542969 189.160156 235.171875 189.125 234.804688 189.050781 C 234.441406 188.980469 234.085938 188.871094 233.738281 188.730469 C 233.394531 188.585938 233.066406 188.410156 232.757812 188.203125 C 232.449219 187.996094 232.160156 187.761719 231.898438 187.496094 C 231.632812 187.234375 231.398438 186.945312 231.191406 186.636719 C 230.984375 186.324219 230.808594 186 230.664062 185.652344 C 230.523438 185.308594 230.414062 184.953125 230.339844 184.585938 C 230.269531 184.222656 230.230469 183.851562 230.230469 183.480469 C 230.230469 183.105469 230.269531 182.738281 230.339844 182.371094 C 230.414062 182.003906 230.523438 181.648438 230.664062 181.304688 C 230.808594 180.960938 230.984375 180.632812 231.191406 180.320312 C 231.398438 180.011719 231.632812 179.726562 231.898438 179.460938 C 232.160156 179.195312 232.449219 178.960938 232.757812 178.753906 C 233.066406 178.546875 233.394531 178.371094 233.742188 178.230469 C 234.085938 178.085938 234.441406 177.980469 234.804688 177.90625 C 235.171875 177.832031 235.542969 177.796875 235.914062 177.796875 Z M 235.914062 177.796875 " fill-opacity="1" fill-rule="nonzero"/><path fill="#000000" d="M 68.730469 351.105469 L 90.460938 350.945312 C 92.339844 351.101562 94.023438 351.757812 95.511719 352.914062 C 100.371094 357.578125 105.742188 361.546875 111.632812 364.816406 C 117.519531 368.085938 123.726562 370.554688 130.253906 372.214844 C 138.96875 374.03125 147.777344 374.863281 156.683594 374.707031 C 161.355469 374.707031 227.273438 373.789062 227.273438 373.789062 C 227.96875 373.78125 228.660156 373.734375 229.347656 373.648438 C 230.035156 373.558594 230.71875 373.433594 231.390625 373.265625 C 232.066406 373.097656 232.726562 372.894531 233.375 372.648438 C 234.027344 372.402344 234.660156 372.121094 235.277344 371.804688 C 235.894531 371.484375 236.488281 371.132812 237.066406 370.746094 C 237.640625 370.355469 238.191406 369.9375 238.71875 369.484375 C 239.246094 369.03125 239.742188 368.550781 240.210938 368.039062 C 240.683594 367.527344 241.121094 366.992188 241.527344 366.429688 C 241.9375 365.867188 242.308594 365.28125 242.648438 364.675781 C 242.988281 364.070312 243.292969 363.449219 243.558594 362.808594 C 243.824219 362.167969 244.050781 361.511719 244.242188 360.84375 C 244.433594 360.175781 244.582031 359.5 244.691406 358.816406 C 244.804688 358.128906 244.875 357.441406 244.90625 356.746094 C 244.933594 356.054688 244.925781 355.359375 244.875 354.667969 C 244.824219 353.976562 244.734375 353.289062 244.601562 352.605469 C 244.472656 351.925781 244.300781 351.253906 244.089844 350.589844 L 258.546875 350.523438 C 259.121094 350.515625 259.695312 350.480469 260.269531 350.417969 C 260.839844 350.355469 261.410156 350.265625 261.972656 350.148438 C 262.535156 350.027344 263.09375 349.882812 263.640625 349.710938 C 264.191406 349.539062 264.730469 349.34375 265.261719 349.117188 C 265.792969 348.894531 266.308594 348.644531 266.816406 348.371094 C 267.320312 348.097656 267.8125 347.800781 268.292969 347.480469 C 268.769531 347.160156 269.230469 346.816406 269.675781 346.449219 C 270.117188 346.082031 270.542969 345.695312 270.953125 345.289062 C 271.359375 344.882812 271.746094 344.457031 272.113281 344.011719 C 272.476562 343.570312 272.820312 343.109375 273.144531 342.632812 C 273.464844 342.152344 273.761719 341.664062 274.035156 341.15625 C 274.3125 340.648438 274.558594 340.132812 274.785156 339.601562 C 275.007812 339.070312 275.207031 338.53125 275.378906 337.980469 C 275.550781 337.433594 275.695312 336.875 275.8125 336.3125 C 275.929688 335.75 276.023438 335.183594 276.085938 334.609375 C 276.148438 334.039062 276.183594 333.464844 276.191406 332.890625 C 276.210938 330.449219 275.777344 328.09375 274.882812 325.824219 L 275.09375 325.820312 C 275.667969 325.816406 276.242188 325.78125 276.816406 325.714844 C 277.386719 325.652344 277.957031 325.5625 278.519531 325.445312 C 279.082031 325.328125 279.640625 325.183594 280.191406 325.011719 C 280.738281 324.839844 281.277344 324.640625 281.808594 324.417969 C 282.339844 324.195312 282.859375 323.945312 283.363281 323.671875 C 283.871094 323.398438 284.363281 323.101562 284.839844 322.78125 C 285.320312 322.457031 285.78125 322.113281 286.226562 321.75 C 286.667969 321.382812 287.09375 320.996094 287.503906 320.589844 C 287.910156 320.183594 288.296875 319.757812 288.660156 319.3125 C 289.027344 318.867188 289.371094 318.40625 289.691406 317.929688 C 290.015625 317.453125 290.3125 316.960938 290.585938 316.453125 C 290.859375 315.945312 291.109375 315.429688 291.332031 314.898438 C 291.558594 314.367188 291.753906 313.828125 291.925781 313.277344 C 292.097656 312.730469 292.242188 312.171875 292.359375 311.609375 C 292.480469 311.046875 292.570312 310.476562 292.632812 309.90625 C 292.695312 309.332031 292.730469 308.757812 292.738281 308.183594 C 292.78125 305.832031 292.363281 303.566406 291.484375 301.382812 C 290.609375 299.199219 289.339844 297.273438 287.679688 295.605469 C 286.878906 294.785156 286 294.054688 285.050781 293.410156 C 284.097656 292.769531 283.089844 292.226562 282.03125 291.789062 C 280.96875 291.351562 279.875 291.023438 278.746094 290.808594 C 277.617188 290.59375 276.480469 290.492188 275.332031 290.507812 L 267.023438 290.542969 C 267.964844 288.277344 268.453125 285.917969 268.488281 283.464844 C 268.53125 281.113281 268.113281 278.847656 267.238281 276.667969 C 266.363281 274.488281 265.097656 272.5625 263.441406 270.894531 C 261.820312 269.253906 259.945312 267.988281 257.816406 267.101562 C 255.683594 266.214844 253.464844 265.773438 251.160156 265.78125 L 251.085938 265.78125 L 187.648438 266.066406 L 207.863281 251.558594 C 208.929688 250.828125 209.90625 249.992188 210.789062 249.046875 C 211.671875 248.105469 212.441406 247.078125 213.101562 245.964844 C 213.757812 244.851562 214.289062 243.679688 214.6875 242.449219 C 215.089844 241.222656 215.351562 239.964844 215.476562 238.675781 C 215.65625 237.214844 215.679688 235.746094 215.546875 234.277344 C 215.410156 232.808594 215.125 231.371094 214.683594 229.964844 C 214.242188 228.558594 213.660156 227.210938 212.933594 225.929688 C 212.207031 224.648438 211.351562 223.453125 210.371094 222.355469 C 198.226562 209.179688 181.003906 222.195312 174.519531 227.097656 C 170.191406 230.386719 165.515625 233.066406 160.488281 235.128906 C 155.460938 237.195312 150.253906 238.574219 144.863281 239.273438 C 132.417969 241.472656 109.25 245.574219 93.1875 268.449219 C 92.425781 269.371094 91.453125 269.917969 90.269531 270.085938 L 68.945312 269.898438 C 68.460938 268.933594 67.855469 268.050781 67.128906 267.257812 C 66.398438 266.460938 65.574219 265.777344 64.65625 265.210938 C 63.738281 264.644531 62.761719 264.210938 61.722656 263.914062 C 60.6875 263.617188 59.628906 263.46875 58.546875 263.464844 L 35.128906 263.464844 C 34.359375 263.464844 33.597656 263.539062 32.84375 263.691406 C 32.089844 263.839844 31.359375 264.0625 30.648438 264.355469 C 29.9375 264.652344 29.261719 265.011719 28.625 265.4375 C 27.984375 265.867188 27.390625 266.351562 26.847656 266.894531 C 26.304688 267.4375 25.820312 268.03125 25.394531 268.671875 C 24.964844 269.308594 24.605469 269.984375 24.308594 270.695312 C 24.015625 271.40625 23.792969 272.136719 23.644531 272.890625 C 23.496094 273.644531 23.417969 274.40625 23.417969 275.175781 L 23.417969 345.433594 C 23.417969 346.203125 23.496094 346.964844 23.644531 347.71875 C 23.792969 348.472656 24.015625 349.203125 24.308594 349.914062 C 24.605469 350.625 24.964844 351.300781 25.394531 351.9375 C 25.820312 352.578125 26.304688 353.167969 26.847656 353.714844 C 27.390625 354.257812 27.984375 354.742188 28.625 355.167969 C 29.261719 355.597656 29.9375 355.957031 30.648438 356.25 C 31.359375 356.546875 32.089844 356.769531 32.84375 356.917969 C 33.597656 357.066406 34.359375 357.144531 35.128906 357.144531 L 58.546875 357.144531 C 59.589844 357.140625 60.609375 357 61.613281 356.722656 C 62.617188 356.449219 63.566406 356.042969 64.464844 355.515625 C 65.359375 354.984375 66.167969 354.34375 66.890625 353.597656 C 67.617188 352.847656 68.230469 352.019531 68.730469 351.105469 Z M 70.257812 281.605469 L 89.453125 281.765625 C 90.746094 281.796875 92.027344 281.671875 93.289062 281.394531 C 94.550781 281.113281 95.765625 280.6875 96.921875 280.113281 C 98.082031 279.539062 99.15625 278.835938 100.144531 278 C 101.132812 277.167969 102.007812 276.226562 102.769531 275.179688 C 115.027344 257.722656 131.976562 253.441406 146.910156 250.800781 C 153.210938 249.949219 159.300781 248.304688 165.175781 245.871094 C 171.050781 243.4375 176.519531 240.292969 181.578125 236.4375 C 194.96875 226.320312 199.1875 227.5 201.75 230.285156 C 202.574219 231.257812 203.167969 232.355469 203.535156 233.574219 C 203.898438 234.796875 204.003906 236.039062 203.851562 237.304688 C 203.773438 238.238281 203.503906 239.113281 203.035156 239.925781 C 202.566406 240.738281 201.949219 241.410156 201.179688 241.945312 L 172.132812 262.792969 C 166.652344 266.726562 167.28125 270.90625 167.808594 272.523438 C 168.328125 274.128906 170.371094 277.941406 176.921875 277.824219 L 251.136719 277.492188 C 251.886719 277.476562 252.609375 277.609375 253.300781 277.898438 C 253.996094 278.183594 254.601562 278.597656 255.121094 279.136719 C 255.667969 279.695312 256.085938 280.335938 256.375 281.058594 C 256.660156 281.785156 256.796875 282.539062 256.777344 283.316406 C 256.777344 284.164062 256.640625 284.988281 256.359375 285.789062 C 256.082031 286.589844 255.679688 287.320312 255.152344 287.984375 C 254.625 288.648438 254 289.203125 253.285156 289.65625 C 252.566406 290.109375 251.796875 290.429688 250.96875 290.617188 L 178.929688 290.941406 C 178.542969 290.941406 178.164062 290.980469 177.785156 291.058594 C 177.410156 291.132812 177.042969 291.246094 176.6875 291.390625 C 176.335938 291.539062 175.996094 291.722656 175.679688 291.9375 C 175.359375 292.148438 175.0625 292.394531 174.792969 292.664062 C 174.519531 292.9375 174.277344 293.234375 174.066406 293.554688 C 173.855469 293.875 173.675781 294.210938 173.527344 294.566406 C 173.382812 294.921875 173.269531 295.289062 173.195312 295.667969 C 173.121094 296.042969 173.085938 296.425781 173.085938 296.808594 C 173.085938 297.195312 173.125 297.574219 173.203125 297.953125 C 173.277344 298.328125 173.390625 298.695312 173.539062 299.050781 C 173.683594 299.402344 173.867188 299.742188 174.082031 300.058594 C 174.296875 300.378906 174.539062 300.675781 174.8125 300.945312 C 175.082031 301.21875 175.378906 301.457031 175.699219 301.671875 C 176.019531 301.882812 176.359375 302.0625 176.714844 302.210938 C 177.070312 302.355469 177.433594 302.46875 177.8125 302.542969 C 178.1875 302.617188 178.570312 302.652344 178.953125 302.652344 L 178.980469 302.652344 L 275.386719 302.21875 L 275.417969 302.21875 C 276.160156 302.214844 276.875 302.355469 277.558594 302.636719 C 278.246094 302.921875 278.847656 303.328125 279.371094 303.855469 C 279.917969 304.410156 280.335938 305.050781 280.625 305.777344 C 280.910156 306.503906 281.046875 307.257812 281.027344 308.039062 C 281.027344 308.433594 280.984375 308.824219 280.90625 309.210938 C 280.828125 309.597656 280.714844 309.972656 280.566406 310.335938 C 280.414062 310.703125 280.230469 311.046875 280.011719 311.378906 C 279.792969 311.707031 279.546875 312.011719 279.269531 312.292969 C 278.992188 312.574219 278.691406 312.824219 278.363281 313.046875 C 278.039062 313.269531 277.695312 313.460938 277.332031 313.617188 C 276.96875 313.773438 276.59375 313.890625 276.207031 313.976562 C 275.824219 314.058594 275.433594 314.105469 275.039062 314.113281 L 178.628906 314.554688 C 178.246094 314.554688 177.863281 314.59375 177.488281 314.671875 C 177.109375 314.746094 176.746094 314.859375 176.390625 315.007812 C 176.035156 315.152344 175.699219 315.335938 175.378906 315.550781 C 175.058594 315.765625 174.765625 316.007812 174.492188 316.28125 C 174.222656 316.550781 173.980469 316.847656 173.769531 317.167969 C 173.554688 317.488281 173.375 317.828125 173.230469 318.183594 C 173.082031 318.539062 172.972656 318.902344 172.898438 319.28125 C 172.824219 319.660156 172.789062 320.039062 172.789062 320.421875 C 172.789062 320.808594 172.828125 321.1875 172.902344 321.566406 C 172.980469 321.941406 173.089844 322.308594 173.238281 322.664062 C 173.386719 323.019531 173.570312 323.355469 173.78125 323.675781 C 173.996094 323.992188 174.242188 324.289062 174.511719 324.558594 C 174.785156 324.832031 175.082031 325.074219 175.402344 325.285156 C 175.722656 325.5 176.058594 325.679688 176.414062 325.824219 C 176.769531 325.972656 177.136719 326.082031 177.515625 326.15625 C 177.890625 326.230469 178.273438 326.265625 178.65625 326.265625 L 178.683594 326.265625 L 259.585938 325.894531 C 260.621094 326.140625 261.507812 326.640625 262.253906 327.398438 C 262.957031 328.113281 263.5 328.929688 263.886719 329.855469 C 264.273438 330.777344 264.472656 331.742188 264.484375 332.742188 C 264.480469 333.136719 264.441406 333.527344 264.363281 333.914062 C 264.28125 334.300781 264.167969 334.675781 264.015625 335.042969 C 263.867188 335.40625 263.679688 335.753906 263.460938 336.082031 C 263.242188 336.410156 262.996094 336.714844 262.71875 336.996094 C 262.441406 337.277344 262.140625 337.527344 261.8125 337.75 C 261.488281 337.972656 261.144531 338.164062 260.78125 338.320312 C 260.417969 338.476562 260.042969 338.59375 259.660156 338.679688 C 259.273438 338.761719 258.882812 338.808594 258.488281 338.816406 L 178.335938 338.699219 C 177.949219 338.699219 177.570312 338.738281 177.191406 338.8125 C 176.816406 338.890625 176.449219 339 176.09375 339.148438 C 175.738281 339.296875 175.402344 339.476562 175.082031 339.691406 C 174.765625 339.90625 174.46875 340.148438 174.199219 340.421875 C 173.925781 340.695312 173.683594 340.992188 173.472656 341.3125 C 173.257812 341.632812 173.078125 341.96875 172.933594 342.324219 C 172.785156 342.679688 172.675781 343.046875 172.601562 343.425781 C 172.527344 343.800781 172.492188 344.183594 172.492188 344.566406 C 172.492188 344.949219 172.53125 345.332031 172.609375 345.707031 C 172.683594 346.085938 172.796875 346.449219 172.945312 346.804688 C 173.089844 347.160156 173.273438 347.496094 173.488281 347.816406 C 173.703125 348.136719 173.945312 348.429688 174.21875 348.703125 C 174.488281 348.972656 174.785156 349.214844 175.105469 349.429688 C 175.425781 349.640625 175.765625 349.820312 176.121094 349.96875 C 176.476562 350.113281 176.839844 350.222656 177.21875 350.296875 C 177.597656 350.371094 177.976562 350.410156 178.359375 350.40625 L 178.386719 350.40625 L 227.566406 350.179688 C 228.316406 350.144531 229.039062 350.269531 229.734375 350.554688 C 230.433594 350.84375 231.03125 351.265625 231.539062 351.820312 C 232.089844 352.375 232.507812 353.015625 232.800781 353.742188 C 233.089844 354.46875 233.226562 355.222656 233.210938 356.003906 C 233.207031 356.398438 233.167969 356.789062 233.089844 357.175781 C 233.011719 357.5625 232.898438 357.9375 232.746094 358.304688 C 232.59375 358.667969 232.410156 359.015625 232.191406 359.34375 C 231.972656 359.671875 231.726562 359.976562 231.449219 360.257812 C 231.171875 360.539062 230.867188 360.792969 230.542969 361.015625 C 230.214844 361.238281 229.871094 361.425781 229.507812 361.582031 C 229.148438 361.738281 228.773438 361.859375 228.386719 361.941406 C 228 362.027344 227.609375 362.070312 227.214844 362.082031 C 227.214844 362.082031 174.246094 362.59375 170.242188 362.714844 C 157.183594 363.125 144.839844 363.503906 132.832031 360.789062 C 127.289062 359.347656 122.023438 357.222656 117.03125 354.417969 C 112.039062 351.613281 107.488281 348.21875 103.375 344.234375 C 101.535156 342.664062 99.480469 341.449219 97.21875 340.589844 C 94.953125 339.734375 92.613281 339.285156 90.191406 339.242188 L 70.257812 339.386719 Z M 70.257812 281.605469 " fill-opacity="1" fill-rule="nonzero"/><path fill="#000000" d="M 371.601562 216.113281 C 368.703125 202.730469 365.113281 183.683594 365.363281 172.375 C 365.363281 172.375 354.566406 17.195312 201.335938 0.84375 C 196.480469 0.300781 191.605469 0.0195312 186.71875 0 C 182.253906 -0.00390625 177.804688 0.277344 173.371094 0.84375 C 20.144531 17.195312 9.339844 172.375 9.339844 172.375 C 9.59375 183.683594 6.003906 202.730469 3.101562 216.113281 C 1.933594 221.179688 1.039062 226.289062 0.425781 231.453125 C -0.0390625 235.707031 -0.121094 239.96875 0.179688 244.238281 C 1.253906 262.90625 5.097656 280.988281 11.710938 298.480469 L 11.710938 275.175781 C 11.710938 274.410156 11.75 273.644531 11.824219 272.882812 C 11.902344 272.117188 12.015625 271.359375 12.164062 270.609375 C 12.3125 269.855469 12.5 269.113281 12.722656 268.378906 C 12.945312 267.648438 13.207031 266.925781 13.5 266.21875 C 13.792969 265.507812 14.121094 264.816406 14.484375 264.140625 C 14.84375 263.464844 15.238281 262.808594 15.664062 262.171875 C 16.089844 261.535156 16.546875 260.917969 17.035156 260.324219 C 17.519531 259.734375 18.035156 259.164062 18.578125 258.625 C 19.117188 258.082031 19.6875 257.566406 20.277344 257.082031 C 20.871094 256.59375 21.488281 256.136719 22.125 255.710938 C 22.761719 255.285156 23.417969 254.890625 24.09375 254.53125 C 24.769531 254.167969 25.460938 253.839844 26.171875 253.546875 C 26.878906 253.253906 27.601562 252.992188 28.332031 252.769531 C 29.066406 252.546875 29.808594 252.359375 30.5625 252.210938 C 31.3125 252.0625 32.070312 251.949219 32.835938 251.871094 C 33.597656 251.796875 34.363281 251.757812 35.128906 251.757812 L 58.546875 251.757812 C 60.035156 251.757812 61.507812 251.898438 62.96875 252.179688 C 64.429688 252.460938 65.847656 252.878906 67.226562 253.433594 C 68.609375 253.988281 69.921875 254.667969 71.171875 255.472656 C 72.421875 256.277344 73.585938 257.195312 74.660156 258.222656 L 86.125 258.316406 C 87.375 256.722656 88.660156 255.226562 89.960938 253.800781 L 89.964844 253.800781 C 78.753906 223.671875 71.363281 192.632812 67.789062 160.6875 C 142.804688 132.878906 175.238281 83.6875 187.515625 58.289062 C 216.574219 114.085938 281.285156 148.164062 306.777344 159.847656 C 299.679688 206.308594 288.042969 240.746094 274.8125 266.285156 C 277.566406 270.167969 279.257812 274.472656 279.890625 279.191406 C 280.746094 279.324219 281.597656 279.492188 282.4375 279.699219 C 283.28125 279.910156 284.113281 280.152344 284.929688 280.4375 C 285.75 280.71875 286.554688 281.039062 287.347656 281.394531 C 288.136719 281.746094 288.914062 282.136719 289.667969 282.5625 C 290.425781 282.988281 291.160156 283.445312 291.875 283.933594 C 292.589844 284.425781 293.28125 284.945312 293.949219 285.5 C 294.617188 286.050781 295.261719 286.632812 295.875 287.246094 C 296.492188 287.855469 297.078125 288.492188 297.636719 289.15625 C 298.195312 289.816406 298.722656 290.503906 299.222656 291.214844 C 299.71875 291.925781 300.183594 292.65625 300.613281 293.410156 C 301.046875 294.160156 301.441406 294.929688 301.804688 295.71875 C 302.167969 296.507812 302.492188 297.308594 302.78125 298.125 C 303.074219 298.945312 303.324219 299.773438 303.542969 300.613281 C 303.757812 301.453125 303.933594 302.300781 304.074219 303.15625 C 304.214844 304.011719 304.316406 304.871094 304.375 305.738281 C 304.4375 306.601562 304.460938 307.46875 304.445312 308.335938 C 304.425781 309.695312 304.308594 311.050781 304.101562 312.398438 C 303.890625 313.746094 303.59375 315.070312 303.203125 316.375 C 302.8125 317.679688 302.332031 318.953125 301.765625 320.191406 C 301.199219 321.429688 300.550781 322.625 299.820312 323.773438 C 299.089844 324.925781 298.285156 326.019531 297.402344 327.058594 C 296.519531 328.097656 295.574219 329.070312 294.558594 329.980469 C 293.542969 330.886719 292.46875 331.722656 291.339844 332.484375 C 290.207031 333.242188 289.03125 333.921875 287.808594 334.523438 C 287.746094 335.441406 287.644531 336.359375 287.5 337.269531 C 287.355469 338.179688 287.167969 339.082031 286.9375 339.976562 C 286.707031 340.871094 286.4375 341.75 286.125 342.621094 C 285.8125 343.488281 285.460938 344.339844 285.070312 345.175781 C 284.679688 346.011719 284.25 346.824219 283.78125 347.621094 C 283.3125 348.417969 282.808594 349.1875 282.269531 349.9375 C 281.730469 350.683594 281.15625 351.40625 280.550781 352.101562 C 279.941406 352.796875 279.304688 353.460938 278.636719 354.097656 C 277.964844 354.730469 277.269531 355.332031 276.542969 355.902344 C 275.816406 356.472656 275.066406 357.007812 274.292969 357.507812 C 273.515625 358.007812 272.71875 358.472656 271.902344 358.898438 C 271.082031 359.324219 270.246094 359.710938 269.390625 360.054688 C 268.535156 360.402344 267.667969 360.710938 266.785156 360.976562 C 265.898438 361.242188 265.007812 361.46875 264.101562 361.648438 C 263.199219 361.832031 262.285156 361.972656 261.367188 362.070312 C 260.453125 362.167969 259.53125 362.222656 258.609375 362.234375 L 255.9375 362.246094 C 255.710938 363.246094 255.433594 364.230469 255.105469 365.199219 C 255.027344 365.4375 254.9375 365.667969 254.851562 365.898438 C 254.558594 366.707031 254.234375 367.496094 253.878906 368.269531 C 253.8125 368.414062 253.75 368.554688 253.683594 368.695312 C 252.746094 370.628906 251.617188 372.441406 250.289062 374.128906 L 250.289062 374.132812 C 303.203125 370.304688 367.210938 345.402344 374.527344 244.238281 C 374.828125 239.96875 374.746094 235.707031 374.28125 231.453125 C 373.667969 226.289062 372.773438 221.179688 371.601562 216.113281 Z M 371.601562 216.113281 " fill-opacity="1" fill-rule="nonzero"/></svg>