<svg xmlns="http://www.w3.org/2000/svg" xmlns:xlink="http://www.w3.org/1999/xlink" width="500" zoomAndPan="magnify" viewBox="0 0 375 374.999991" height="500" preserveAspectRatio="xMidYMid meet" version="1.0"><path fill="#000000" d="M 188.773438 75.136719 C 189.382812 75.105469 189.992188 75.074219 190.605469 75.054688 C 191.691406 75.019531 192.78125 75 193.875 75 C 194.972656 75 196.0625 75.023438 197.152344 75.054688 C 197.765625 75.074219 198.375 75.109375 198.988281 75.136719 C 202.03125 75.285156 205.050781 75.546875 208.027344 75.945312 L 217.054688 66.917969 L 208.210938 58.082031 L 200.128906 66.160156 L 200.128906 25 L 187.621094 25 L 187.621094 66.160156 L 179.539062 58.082031 L 170.695312 66.917969 L 179.714844 75.9375 C 182.710938 75.539062 185.734375 75.277344 188.773438 75.136719 Z M 188.773438 75.136719 " fill-opacity="1" fill-rule="nonzero"/><path fill="#000000" d="M 200.128906 6.25 C 200.128906 6.660156 200.085938 7.066406 200.007812 7.46875 C 199.925781 7.871094 199.808594 8.261719 199.652344 8.640625 C 199.496094 9.019531 199.300781 9.382812 199.074219 9.722656 C 198.847656 10.0625 198.585938 10.378906 198.296875 10.667969 C 198.007812 10.960938 197.691406 11.21875 197.347656 11.445312 C 197.007812 11.675781 196.648438 11.867188 196.269531 12.023438 C 195.886719 12.179688 195.496094 12.300781 195.09375 12.378906 C 194.691406 12.460938 194.285156 12.5 193.875 12.5 C 193.464844 12.5 193.058594 12.460938 192.65625 12.378906 C 192.253906 12.300781 191.863281 12.179688 191.480469 12.023438 C 191.101562 11.867188 190.742188 11.675781 190.402344 11.445312 C 190.058594 11.21875 189.742188 10.960938 189.453125 10.667969 C 189.164062 10.378906 188.902344 10.0625 188.675781 9.722656 C 188.449219 9.382812 188.253906 9.019531 188.097656 8.640625 C 187.941406 8.261719 187.824219 7.871094 187.742188 7.46875 C 187.664062 7.066406 187.621094 6.660156 187.621094 6.25 C 187.621094 5.839844 187.664062 5.433594 187.742188 5.03125 C 187.824219 4.628906 187.941406 4.238281 188.097656 3.859375 C 188.253906 3.480469 188.449219 3.117188 188.675781 2.777344 C 188.902344 2.4375 189.164062 2.121094 189.453125 1.832031 C 189.742188 1.539062 190.058594 1.28125 190.402344 1.054688 C 190.742188 0.824219 191.101562 0.632812 191.480469 0.476562 C 191.863281 0.320312 192.253906 0.199219 192.65625 0.121094 C 193.058594 0.0390625 193.464844 0 193.875 0 C 194.285156 0 194.691406 0.0390625 195.09375 0.121094 C 195.496094 0.199219 195.886719 0.320312 196.269531 0.476562 C 196.648438 0.632812 197.007812 0.824219 197.347656 1.054688 C 197.691406 1.28125 198.007812 1.539062 198.296875 1.832031 C 198.585938 2.121094 198.847656 2.4375 199.074219 2.777344 C 199.300781 3.117188 199.496094 3.480469 199.652344 3.859375 C 199.808594 4.238281 199.925781 4.628906 200.007812 5.03125 C 200.085938 5.433594 200.128906 5.839844 200.128906 6.25 Z M 200.128906 6.25 " fill-opacity="1" fill-rule="nonzero"/><path fill="#000000" d="M 87.578125 225 L 87.578125 203.660156 L 79.496094 195.582031 L 70.652344 204.417969 L 78.738281 212.5 L 25.054688 212.5 L 25.054688 225 L 78.738281 225 L 70.652344 233.082031 L 79.496094 241.917969 L 87.578125 233.839844 Z M 87.578125 225 " fill-opacity="1" fill-rule="nonzero"/><path fill="#000000" d="M 317.097656 204.417969 L 308.253906 195.582031 L 300.171875 203.660156 L 300.171875 233.839844 L 308.253906 241.917969 L 317.097656 233.082031 L 309.011719 225 L 362.695312 225 L 362.695312 212.5 L 309.011719 212.5 Z M 317.097656 204.417969 " fill-opacity="1" fill-rule="nonzero"/><path fill="#000000" d="M 223.355469 266.636719 C 214.777344 271.933594 204.679688 275 193.875 275 C 183.070312 275 172.972656 271.933594 164.394531 266.636719 C 168.6875 278.777344 180.28125 287.5 193.875 287.5 C 207.46875 287.5 219.0625 278.777344 223.355469 266.636719 Z M 223.355469 266.636719 " fill-opacity="1" fill-rule="nonzero"/><path fill="#000000" d="M 237.644531 187.144531 C 218.554688 185.023438 202.324219 173.320312 193.875 156.96875 C 185.425781 173.320312 169.195312 185.023438 150.105469 187.144531 L 150.105469 218.75 C 150.105469 242.875 169.742188 262.5 193.875 262.5 C 218.007812 262.5 237.644531 242.875 237.644531 218.75 Z M 187.621094 187.5 L 200.128906 187.5 L 200.128906 212.5 L 187.621094 212.5 Z M 207.039062 246.546875 L 206.378906 245.226562 C 203.996094 240.460938 199.203125 237.5 193.875 237.5 C 188.546875 237.5 183.753906 240.460938 181.371094 245.226562 L 180.710938 246.546875 L 169.523438 240.953125 L 170.183594 239.636719 C 174.699219 230.609375 183.777344 225 193.875 225 C 203.972656 225 213.050781 230.609375 217.566406 239.636719 L 218.226562 240.953125 Z M 207.039062 246.546875 " fill-opacity="1" fill-rule="nonzero"/><path fill="#000000" d="M 212.632812 312.5 C 219.527344 312.5 225.136719 306.890625 225.136719 300 L 225.136719 286.828125 C 218.566406 293.539062 209.863281 298.148438 200.128906 299.546875 L 200.128906 300 C 200.128906 306.890625 205.738281 312.5 212.632812 312.5 Z M 212.632812 312.5 " fill-opacity="1" fill-rule="nonzero"/><path fill="#000000" d="M 123.269531 237.5 L 140.828125 237.5 C 139.414062 233.519531 138.4375 229.332031 137.957031 225 L 137.601562 225 C 123.808594 225 112.589844 213.785156 112.589844 200 C 112.589844 186.214844 123.808594 175 137.601562 175 L 137.878906 175 C 139.039062 163.886719 143.925781 153.589844 151.9375 145.582031 L 160.78125 154.417969 C 155.257812 159.9375 151.734375 166.917969 150.550781 174.488281 C 171.519531 171.253906 187.621094 153.097656 187.621094 131.25 L 187.621094 125 L 200.128906 125 L 200.128906 131.25 C 200.128906 153.097656 216.230469 171.253906 237.199219 174.488281 C 236.015625 166.917969 232.492188 159.9375 226.96875 154.417969 L 235.8125 145.582031 C 243.824219 153.589844 248.710938 163.890625 249.871094 175 L 250.148438 175 C 263.941406 175 275.160156 186.214844 275.160156 200 C 275.160156 213.785156 263.941406 225 250.148438 225 L 249.792969 225 C 249.3125 229.332031 248.335938 233.519531 246.921875 237.5 L 264.480469 237.5 C 273.535156 237.5 281.863281 241.328125 287.664062 247.761719 L 287.664062 181.25 C 287.664062 129.554688 245.589844 87.5 193.875 87.5 C 182.527344 87.5 171.5 89.488281 161.027344 93.414062 C 162.023438 97.839844 162.613281 102.175781 162.613281 106.25 C 162.613281 123.480469 148.585938 137.5 131.347656 137.5 C 124.910156 137.5 118.917969 135.542969 113.941406 132.195312 C 104.859375 146.921875 100.085938 163.742188 100.085938 181.25 L 100.085938 247.761719 C 105.886719 241.328125 114.214844 237.5 123.269531 237.5 Z M 123.269531 237.5 " fill-opacity="1" fill-rule="nonzero"/><path fill="#000000" d="M 131.347656 125 C 141.691406 125 150.105469 116.589844 150.105469 106.25 C 150.105469 90.203125 138.398438 67.746094 131.351562 55.679688 C 124.304688 67.753906 112.589844 90.226562 112.589844 106.25 C 112.589844 116.589844 121.007812 125 131.347656 125 Z M 131.347656 125 " fill-opacity="1" fill-rule="nonzero"/><path fill="#000000" d="M 250.148438 187.5 L 250.148438 212.5 C 257.042969 212.5 262.652344 206.890625 262.652344 200 C 262.652344 193.109375 257.042969 187.5 250.148438 187.5 Z M 250.148438 187.5 " fill-opacity="1" fill-rule="nonzero"/><path fill="#000000" d="M 137.601562 212.5 L 137.601562 187.5 C 130.707031 187.5 125.097656 193.109375 125.097656 200 C 125.097656 206.890625 130.707031 212.5 137.601562 212.5 Z M 137.601562 212.5 " fill-opacity="1" fill-rule="nonzero"/><path fill="#000000" d="M 162.613281 300 C 162.613281 306.890625 168.222656 312.5 175.117188 312.5 C 182.011719 312.5 187.621094 306.890625 187.621094 300 L 187.621094 299.546875 C 177.886719 298.148438 169.183594 293.539062 162.613281 286.828125 Z M 162.613281 300 " fill-opacity="1" fill-rule="nonzero"/><path fill="#000000" d="M 262.652344 362.5 L 287.664062 362.5 L 287.664062 375 L 262.652344 375 Z M 262.652344 362.5 " fill-opacity="1" fill-rule="nonzero"/><path fill="#000000" d="M 262.652344 337.5 L 287.664062 337.5 L 287.664062 350 L 262.652344 350 Z M 262.652344 337.5 " fill-opacity="1" fill-rule="nonzero"/><path fill="#000000" d="M 100.085938 337.5 L 125.097656 337.5 L 125.097656 350 L 100.085938 350 Z M 100.085938 337.5 " fill-opacity="1" fill-rule="nonzero"/><path fill="#000000" d="M 281.894531 261.785156 C 279.03125 254.625 272.195312 250 264.480469 250 L 240.640625 250 C 239.703125 251.398438 238.699219 252.746094 237.644531 254.050781 L 237.644531 300 C 237.644531 313.785156 226.425781 325 212.632812 325 C 205.167969 325 198.460938 321.710938 193.875 316.507812 C 189.289062 321.710938 182.582031 325 175.117188 325 C 161.324219 325 150.105469 313.785156 150.105469 300 L 150.105469 254.050781 C 149.050781 252.746094 148.046875 251.398438 147.109375 250 L 123.269531 250 C 115.554688 250 108.71875 254.625 105.855469 261.785156 L 88.90625 304.136719 C 88.027344 306.335938 87.578125 308.65625 87.578125 311.023438 C 87.578125 316.804688 90.558594 322.042969 95.433594 325 L 125.097656 325 L 125.097656 287.5 L 137.601562 287.5 L 137.601562 375 L 250.148438 375 L 250.148438 287.5 L 262.652344 287.5 L 262.652344 325 L 292.316406 325 C 297.191406 322.042969 300.171875 316.804688 300.171875 311.023438 C 300.171875 308.65625 299.722656 306.335938 298.84375 304.136719 Z M 281.894531 261.785156 " fill-opacity="1" fill-rule="nonzero"/><path fill="#000000" d="M 100.085938 362.5 L 125.097656 362.5 L 125.097656 375 L 100.085938 375 Z M 100.085938 362.5 " fill-opacity="1" fill-rule="nonzero"/><path fill="#000000" d="M 12.546875 218.75 C 12.546875 219.160156 12.507812 219.566406 12.429688 219.96875 C 12.347656 220.371094 12.230469 220.761719 12.074219 221.140625 C 11.914062 221.519531 11.722656 221.882812 11.496094 222.222656 C 11.265625 222.5625 11.007812 222.878906 10.71875 223.167969 C 10.425781 223.460938 10.109375 223.71875 9.769531 223.945312 C 9.429688 224.175781 9.066406 224.367188 8.6875 224.523438 C 8.308594 224.679688 7.917969 224.800781 7.515625 224.878906 C 7.113281 224.960938 6.707031 225 6.296875 225 C 5.886719 225 5.476562 224.960938 5.074219 224.878906 C 4.671875 224.800781 4.28125 224.679688 3.902344 224.523438 C 3.523438 224.367188 3.164062 224.175781 2.820312 223.945312 C 2.480469 223.71875 2.164062 223.460938 1.875 223.167969 C 1.585938 222.878906 1.324219 222.5625 1.097656 222.222656 C 0.867188 221.882812 0.675781 221.519531 0.519531 221.140625 C 0.363281 220.761719 0.242188 220.371094 0.164062 219.96875 C 0.0820312 219.566406 0.0429688 219.160156 0.0429688 218.75 C 0.0429688 218.339844 0.0820312 217.933594 0.164062 217.53125 C 0.242188 217.128906 0.363281 216.738281 0.519531 216.359375 C 0.675781 215.980469 0.867188 215.617188 1.097656 215.277344 C 1.324219 214.9375 1.585938 214.621094 1.875 214.332031 C 2.164062 214.039062 2.480469 213.78125 2.820312 213.554688 C 3.164062 213.324219 3.523438 213.132812 3.902344 212.976562 C 4.28125 212.820312 4.671875 212.699219 5.074219 212.621094 C 5.476562 212.539062 5.886719 212.5 6.296875 212.5 C 6.707031 212.5 7.113281 212.539062 7.515625 212.621094 C 7.917969 212.699219 8.308594 212.820312 8.6875 212.976562 C 9.066406 213.132812 9.429688 213.324219 9.769531 213.554688 C 10.109375 213.78125 10.425781 214.039062 10.71875 214.332031 C 11.007812 214.621094 11.265625 214.9375 11.496094 215.277344 C 11.722656 215.617188 11.914062 215.980469 12.074219 216.359375 C 12.230469 216.738281 12.347656 217.128906 12.429688 217.53125 C 12.507812 217.933594 12.546875 218.339844 12.546875 218.75 Z M 12.546875 218.75 " fill-opacity="1" fill-rule="nonzero"/><path fill="#000000" d="M 12.546875 6.25 C 12.546875 6.660156 12.507812 7.066406 12.429688 7.46875 C 12.347656 7.871094 12.230469 8.261719 12.074219 8.640625 C 11.914062 9.019531 11.722656 9.382812 11.496094 9.722656 C 11.265625 10.0625 11.007812 10.378906 10.71875 10.667969 C 10.425781 10.960938 10.109375 11.21875 9.769531 11.445312 C 9.429688 11.675781 9.066406 11.867188 8.6875 12.023438 C 8.308594 12.179688 7.917969 12.300781 7.515625 12.378906 C 7.113281 12.460938 6.707031 12.5 6.296875 12.5 C 5.886719 12.5 5.476562 12.460938 5.074219 12.378906 C 4.671875 12.300781 4.28125 12.179688 3.902344 12.023438 C 3.523438 11.867188 3.164062 11.675781 2.820312 11.445312 C 2.480469 11.21875 2.164062 10.960938 1.875 10.667969 C 1.585938 10.378906 1.324219 10.0625 1.097656 9.722656 C 0.867188 9.382812 0.675781 9.019531 0.519531 8.640625 C 0.363281 8.261719 0.242188 7.871094 0.164062 7.46875 C 0.0820312 7.066406 0.0429688 6.660156 0.0429688 6.25 C 0.0429688 5.839844 0.0820312 5.433594 0.164062 5.03125 C 0.242188 4.628906 0.363281 4.238281 0.519531 3.859375 C 0.675781 3.480469 0.867188 3.117188 1.097656 2.777344 C 1.324219 2.4375 1.585938 2.121094 1.875 1.832031 C 2.164062 1.539062 2.480469 1.28125 2.820312 1.054688 C 3.164062 0.824219 3.523438 0.632812 3.902344 0.476562 C 4.28125 0.320312 4.671875 0.199219 5.074219 0.121094 C 5.476562 0.0390625 5.886719 0 6.296875 0 C 6.707031 0 7.113281 0.0390625 7.515625 0.121094 C 7.917969 0.199219 8.308594 0.320312 8.6875 0.476562 C 9.066406 0.632812 9.429688 0.824219 9.769531 1.054688 C 10.109375 1.28125 10.425781 1.539062 10.71875 1.832031 C 11.007812 2.121094 11.265625 2.4375 11.496094 2.777344 C 11.722656 3.117188 11.914062 3.480469 12.074219 3.859375 C 12.230469 4.238281 12.347656 4.628906 12.429688 5.03125 C 12.507812 5.433594 12.546875 5.839844 12.546875 6.25 Z M 12.546875 6.25 " fill-opacity="1" fill-rule="nonzero"/><path fill="#000000" d="M 50.0625 75 L 50.0625 87.5 L 87.578125 87.5 L 87.578125 50 L 75.074219 50 L 75.074219 66.160156 L 23.222656 14.332031 L 14.378906 23.167969 L 66.230469 75 Z M 50.0625 75 " fill-opacity="1" fill-rule="nonzero"/><path fill="#000000" d="M 312.675781 66.160156 L 312.675781 50 L 300.171875 50 L 300.171875 87.5 L 337.6875 87.5 L 337.6875 75 L 321.519531 75 L 373.371094 23.167969 L 364.527344 14.332031 Z M 312.675781 66.160156 " fill-opacity="1" fill-rule="nonzero"/></svg>