<svg xmlns="http://www.w3.org/2000/svg" xmlns:xlink="http://www.w3.org/1999/xlink" width="500" zoomAndPan="magnify" viewBox="0 0 375 374.999991" height="500" preserveAspectRatio="xMidYMid meet" version="1.0"><defs><clipPath id="6d6660ba6b"><path d="M 0 179 L 104 179 L 104 289.554688 L 0 289.554688 Z M 0 179 " clip-rule="nonzero"/></clipPath><clipPath id="712f8610af"><path d="M 167 160 L 375 160 L 375 289.554688 L 167 289.554688 Z M 167 160 " clip-rule="nonzero"/></clipPath></defs><path fill="#040606" d="M 147.382812 198.332031 C 163.195312 188.960938 168.390625 168.550781 159.070312 152.773438 C 149.714844 136.964844 129.339844 131.726562 113.558594 141.101562 C 97.777344 150.4375 92.550781 170.851562 101.90625 186.660156 C 111.261719 202.46875 131.636719 207.707031 147.382812 198.332031 " fill-opacity="1" fill-rule="nonzero"/><g clip-path="url(#6d6660ba6b)"><path fill="#040606" d="M 95.648438 289.554688 C 100.640625 269.640625 110.796875 219.613281 93.882812 193.964844 C 87.824219 184.792969 73.074219 176.820312 57.328125 180.789062 C 14.882812 192.332031 2.597656 257.367188 0 289.554688 L 95.648438 289.554688 " fill-opacity="1" fill-rule="nonzero"/></g><path fill="#040606" d="M 284.28125 153.140625 C 300.058594 143.769531 305.285156 123.355469 295.933594 107.546875 C 286.578125 91.738281 266.203125 86.5 250.421875 95.875 C 234.640625 105.246094 229.414062 125.65625 238.804688 141.46875 C 248.125 157.277344 268.5 162.480469 284.28125 153.140625 " fill-opacity="1" fill-rule="nonzero"/><g clip-path="url(#712f8610af)"><path fill="#040606" d="M 375 289.554688 C 374.066406 259.871094 353.359375 175.855469 307.285156 162.046875 C 293.300781 158.175781 278.785156 165.246094 271.960938 174.652344 L 232.445312 225.648438 L 189.429688 207.472656 C 181.308594 204.070312 171.917969 207.871094 168.492188 216.011719 C 165.0625 224.183594 168.890625 233.554688 177.011719 236.988281 L 231.445312 259.9375 C 233.476562 260.804688 235.574219 261.203125 237.636719 261.203125 C 242.53125 261.203125 247.257812 258.96875 250.355469 254.902344 L 267 233.019531 L 279.820312 289.554688 L 375 289.554688 " fill-opacity="1" fill-rule="nonzero"/></g><path fill="#040606" d="M 216.597656 117.453125 L 172.886719 117.453125 L 172.886719 108.949219 L 216.597656 108.949219 L 216.597656 117.453125 " fill-opacity="1" fill-rule="nonzero"/><path fill="#040606" d="M 188.929688 162.179688 L 185.035156 154.640625 L 220.257812 136.296875 L 224.1875 143.800781 L 188.929688 162.179688 " fill-opacity="1" fill-rule="nonzero"/><path fill="#040606" d="M 221.191406 190.894531 L 214.832031 185.257812 L 235.972656 161.246094 L 242.332031 166.847656 L 221.191406 190.894531 " fill-opacity="1" fill-rule="nonzero"/></svg>