<svg xmlns="http://www.w3.org/2000/svg" xmlns:xlink="http://www.w3.org/1999/xlink" width="500" zoomAndPan="magnify" viewBox="0 0 375 374.999991" height="500" preserveAspectRatio="xMidYMid meet" version="1.0"><defs><clipPath id="cdcbd25cc1"><path d="M 280 120 L 343 120 L 343 374.769531 L 280 374.769531 Z M 280 120 " clip-rule="nonzero"/></clipPath><clipPath id="43fbcfa748"><path d="M 44 120 L 192 120 L 192 374.769531 L 44 374.769531 Z M 44 120 " clip-rule="nonzero"/></clipPath><clipPath id="801191ed31"><path d="M 132 1.269531 L 167 1.269531 L 167 59 L 132 59 Z M 132 1.269531 " clip-rule="nonzero"/></clipPath></defs><path fill="#000000" d="M 223.21875 109.261719 C 223.21875 125.789062 236.609375 139.1875 253.132812 139.1875 C 269.652344 139.1875 283.046875 125.789062 283.046875 109.261719 C 283.046875 92.730469 269.652344 79.332031 253.132812 79.332031 C 236.609375 79.332031 223.21875 92.730469 223.21875 109.261719 Z M 256.261719 113.296875 C 258.851562 113.296875 260.945312 115.394531 260.945312 117.984375 C 260.945312 120.574219 258.851562 122.671875 256.261719 122.671875 C 253.675781 122.671875 251.578125 120.574219 251.578125 117.984375 C 251.578125 115.394531 253.675781 113.296875 256.261719 113.296875 Z M 237.234375 113.296875 C 239.820312 113.296875 241.917969 115.394531 241.917969 117.984375 C 241.917969 120.574219 239.820312 122.671875 237.234375 122.671875 C 234.648438 122.671875 232.550781 120.574219 232.550781 117.984375 C 232.550781 115.394531 234.648438 113.296875 237.234375 113.296875 Z M 237.234375 113.296875 " fill-opacity="1" fill-rule="nonzero"/><g clip-path="url(#cdcbd25cc1)"><path fill="#000000" d="M 299.027344 121.28125 C 287.679688 124.113281 282.6875 139.957031 286.5 153.195312 C 289.257812 167.28125 293.609375 185.992188 294.246094 204.171875 L 295.21875 202.242188 L 294.523438 149.816406 C 294.476562 146.15625 295.855469 142.699219 298.40625 140.078125 C 300.957031 137.453125 304.378906 135.984375 308.035156 135.9375 L 308.21875 135.933594 C 315.671875 135.933594 321.8125 142 321.910156 149.453125 L 322.648438 205.226562 C 322.679688 207.414062 322.175781 209.605469 321.191406 211.5625 L 293.378906 266.914062 C 291.148438 271.359375 286.753906 274.117188 281.828125 274.367188 L 281.054688 277.648438 C 280.664062 279.316406 280.527344 281.039062 280.664062 282.746094 L 286.652344 359.496094 C 287.324219 368.210938 294.609375 374.828125 303.199219 374.828125 C 303.632812 374.828125 304.066406 374.816406 304.507812 374.777344 C 313.664062 374.0625 320.5 366.0625 319.785156 356.910156 L 314 282.742188 L 324.125 239.695312 C 331.765625 237.207031 338.476562 231.332031 341.078125 217.941406 C 344.515625 188.394531 342.570312 170.929688 333.523438 144.09375 C 326.828125 124.617188 310.375 118.449219 299.027344 121.28125 Z M 299.027344 121.28125 " fill-opacity="1" fill-rule="nonzero"/></g><path fill="#000000" d="M 318.457031 210.1875 C 319.226562 208.660156 319.613281 206.972656 319.589844 205.265625 L 318.851562 149.492188 C 318.777344 143.664062 314.027344 138.996094 308.21875 138.996094 C 308.171875 138.996094 308.125 138.996094 308.074219 138.996094 C 302.203125 139.074219 297.503906 143.898438 297.582031 149.777344 L 298.285156 202.949219 L 271.644531 255.980469 C 269.003906 261.234375 271.121094 267.628906 276.371094 270.265625 C 277.902344 271.039062 279.53125 271.402344 281.136719 271.402344 C 285.03125 271.402344 288.78125 269.257812 290.648438 265.539062 Z M 318.457031 210.1875 " fill-opacity="1" fill-rule="nonzero"/><path fill="#000000" d="M 104.617188 117.222656 C 112.6875 117.222656 119.976562 113.992188 125.355469 108.800781 C 121.847656 107.664062 118.898438 107.019531 118.175781 106.738281 C 117.242188 106.378906 116.566406 108.136719 115.167969 107.597656 C 113.773438 107.058594 116.933594 98.417969 118.597656 95.496094 C 120.0625 92.921875 130.332031 96.242188 132.761719 97.070312 C 133.832031 93.992188 134.53125 90.738281 134.53125 87.292969 C 134.53125 70.765625 121.140625 57.367188 104.617188 57.367188 C 88.097656 57.367188 74.703125 70.765625 74.703125 87.292969 C 74.703125 103.824219 88.097656 117.222656 104.617188 117.222656 Z M 104.617188 117.222656 " fill-opacity="1" fill-rule="nonzero"/><g clip-path="url(#43fbcfa748)"><path fill="#000000" d="M 75.003906 135.933594 C 78.695312 135.933594 82.152344 137.382812 84.746094 140.007812 C 87.316406 142.609375 88.722656 146.058594 88.695312 149.71875 C 88.675781 153.378906 87.230469 156.808594 84.625 159.382812 L 58.816406 184.886719 L 86.851562 233.648438 C 90.617188 240.195312 88.355469 248.585938 81.8125 252.355469 C 79.734375 253.550781 77.378906 254.179688 74.992188 254.179688 C 70.101562 254.179688 65.550781 251.546875 63.113281 247.308594 L 59.339844 240.75 L 69.21875 282.742188 L 63.441406 356.910156 C 62.726562 366.070312 69.570312 374.0625 78.714844 374.777344 C 79.15625 374.816406 79.59375 374.828125 80.027344 374.828125 C 88.617188 374.828125 95.898438 368.210938 96.574219 359.496094 L 102.554688 282.746094 C 102.691406 281.039062 102.554688 279.316406 102.164062 277.648438 L 89.738281 224.808594 C 89.722656 223.683594 89.753906 222.667969 89.679688 221.382812 C 86.882812 200.519531 91.996094 176.53125 95.6875 158.339844 L 119.71875 180.1875 C 121.71875 182 124.277344 182.949219 126.871094 182.949219 C 128.289062 182.949219 129.714844 182.667969 131.066406 182.089844 L 184.929688 158.957031 C 190.332031 156.636719 192.824219 150.378906 190.511719 144.980469 C 188.195312 139.582031 181.9375 137.070312 176.542969 139.394531 L 128.964844 159.832031 L 91.832031 126.070312 C 89.757812 123.761719 87.21875 122.035156 84.195312 121.28125 C 72.84375 118.449219 56.390625 124.617188 49.699219 144.09375 C 47.773438 149.796875 46.238281 155.023438 44.941406 160.085938 L 65.378906 139.886719 C 67.960938 137.339844 71.378906 135.933594 75.003906 135.933594 Z M 75.003906 135.933594 " fill-opacity="1" fill-rule="nonzero"/></g><path fill="#000000" d="M 42.144531 217.941406 C 44.6875 231.042969 51.179688 236.910156 58.617188 239.488281 L 41.304688 209.382812 C 41.539062 212.152344 41.796875 214.949219 42.144531 217.941406 Z M 42.144531 217.941406 " fill-opacity="1" fill-rule="nonzero"/><path fill="#000000" d="M 65.761719 245.785156 C 67.730469 249.207031 71.308594 251.121094 74.992188 251.121094 C 76.792969 251.121094 78.617188 250.664062 80.285156 249.703125 C 85.378906 246.773438 87.132812 240.265625 84.203125 235.171875 L 54.992188 184.367188 L 82.476562 157.207031 C 86.65625 153.074219 86.699219 146.339844 82.570312 142.15625 C 78.445312 137.976562 71.707031 137.9375 67.527344 142.066406 L 34.207031 174.992188 C 30.769531 178.390625 30.054688 183.679688 32.464844 187.867188 Z M 65.761719 245.785156 " fill-opacity="1" fill-rule="nonzero"/><path fill="#000000" d="M 76.167969 58.894531 C 76.890625 58.789062 77.394531 58.113281 77.289062 57.386719 C 77.179688 56.65625 76.503906 56.15625 75.777344 56.265625 C 72.65625 56.726562 70.332031 58.011719 68.863281 60.082031 C 66.597656 63.28125 67.3125 67.148438 67.339844 67.3125 C 67.480469 68.03125 68.171875 68.5 68.894531 68.363281 C 68.941406 68.355469 68.992188 68.34375 69.039062 68.328125 C 69.675781 68.132812 70.078125 67.484375 69.953125 66.8125 C 69.949219 66.785156 69.433594 63.859375 71.046875 61.601562 C 72.082031 60.15625 73.804688 59.246094 76.167969 58.894531 Z M 76.167969 58.894531 " fill-opacity="1" fill-rule="nonzero"/><path fill="#000000" d="M 61.066406 66.042969 C 61.167969 66.769531 61.835938 67.273438 62.5625 67.175781 C 62.632812 67.167969 62.707031 67.152344 62.773438 67.128906 C 63.382812 66.941406 63.789062 66.335938 63.699219 65.683594 C 63.695312 65.636719 63.113281 60.941406 65.925781 57.351562 C 67.769531 55 70.691406 53.589844 74.609375 53.167969 C 75.339844 53.082031 75.867188 52.429688 75.789062 51.699219 C 75.707031 50.96875 75.054688 50.441406 74.324219 50.519531 C 69.652344 51.03125 66.113281 52.785156 63.8125 55.738281 C 60.3125 60.226562 61.035156 65.804688 61.066406 66.042969 Z M 61.066406 66.042969 " fill-opacity="1" fill-rule="nonzero"/><path fill="#000000" d="M 286.039062 74.121094 C 300.082031 65.238281 312.886719 66.832031 307.480469 58.738281 C 301.734375 50.136719 286.007812 62.1875 286.039062 74.121094 Z M 286.039062 74.121094 " fill-opacity="1" fill-rule="nonzero"/><path fill="#000000" d="M 272.53125 76.546875 C 275.082031 63.628906 282.984375 57.132812 275.386719 55.828125 C 267.3125 54.441406 265.660156 70.058594 272.53125 76.546875 Z M 272.53125 76.546875 " fill-opacity="1" fill-rule="nonzero"/><path fill="#000000" d="M 308.101562 82.90625 C 305.292969 76.3125 293.042969 82.496094 291.53125 90.625 C 302.230469 86.378906 310.746094 89.109375 308.101562 82.90625 Z M 308.101562 82.90625 " fill-opacity="1" fill-rule="nonzero"/><path fill="#000000" d="M 193.960938 31.96875 L 142.308594 67.402344 L 143.339844 70.03125 L 195.921875 37.691406 Z M 193.960938 31.96875 " fill-opacity="1" fill-rule="nonzero"/><path fill="#000000" d="M 209.867188 77.699219 L 147.339844 81.289062 L 146.863281 84.074219 L 208.585938 83.613281 Z M 209.867188 77.699219 " fill-opacity="1" fill-rule="nonzero"/><g clip-path="url(#801191ed31)"><path fill="#000000" d="M 132.488281 56.234375 L 134.59375 58.113281 L 166.894531 5.492188 L 162.558594 1.269531 Z M 132.488281 56.234375 " fill-opacity="1" fill-rule="nonzero"/></g><path fill="#000000" d="M 320.203125 113.554688 C 320.214844 113.601562 320.230469 113.648438 320.25 113.695312 C 320.492188 114.316406 321.167969 114.667969 321.828125 114.492188 C 321.859375 114.484375 324.730469 113.75 327.105469 115.1875 C 328.625 116.105469 329.667969 117.753906 330.195312 120.085938 C 330.355469 120.800781 331.070312 121.253906 331.785156 121.089844 C 332.503906 120.925781 332.949219 120.214844 332.789062 119.496094 C 332.089844 116.417969 330.628906 114.199219 328.453125 112.890625 C 325.089844 110.875 321.292969 111.882812 321.132812 111.925781 C 320.425781 112.117188 320.011719 112.847656 320.203125 113.554688 Z M 320.203125 113.554688 " fill-opacity="1" fill-rule="nonzero"/><path fill="#000000" d="M 330.949219 109.753906 C 333.433594 111.410156 335.0625 114.214844 335.785156 118.097656 C 335.925781 118.816406 336.617188 119.292969 337.335938 119.160156 C 338.058594 119.023438 338.535156 118.328125 338.398438 117.605469 C 337.535156 112.984375 335.515625 109.589844 332.398438 107.523438 C 327.65625 104.371094 322.148438 105.519531 321.917969 105.570312 C 321.203125 105.726562 320.746094 106.429688 320.902344 107.148438 C 320.917969 107.21875 320.9375 107.289062 320.964844 107.355469 C 321.199219 107.949219 321.832031 108.304688 322.476562 108.171875 C 322.523438 108.160156 327.160156 107.21875 330.949219 109.753906 Z M 330.949219 109.753906 " fill-opacity="1" fill-rule="nonzero"/><path fill="#000000" d="M 283.4375 200.402344 C 282.902344 199.898438 282.0625 199.925781 281.558594 200.460938 C 279.398438 202.761719 278.375 205.214844 278.511719 207.75 C 278.722656 211.664062 281.679688 214.253906 281.804688 214.359375 C 282.359375 214.839844 283.195312 214.773438 283.675781 214.222656 C 283.707031 214.183594 283.738281 214.144531 283.765625 214.105469 C 284.144531 213.554688 284.058594 212.796875 283.542969 212.347656 C 283.519531 212.328125 281.300781 210.355469 281.164062 207.585938 C 281.078125 205.808594 281.863281 204.023438 283.5 202.28125 C 284 201.746094 283.972656 200.902344 283.4375 200.402344 Z M 283.4375 200.402344 " fill-opacity="1" fill-rule="nonzero"/><path fill="#000000" d="M 276.851562 196.863281 C 273.507812 200.167969 271.824219 203.738281 271.855469 207.480469 C 271.898438 213.175781 275.929688 217.101562 276.101562 217.265625 C 276.628906 217.773438 277.46875 217.753906 277.976562 217.226562 C 278.027344 217.171875 278.074219 217.117188 278.113281 217.058594 C 278.476562 216.53125 278.414062 215.804688 277.941406 215.347656 C 277.90625 215.3125 274.535156 211.996094 274.511719 207.433594 C 274.5 204.449219 275.910156 201.527344 278.722656 198.757812 C 279.242188 198.238281 279.25 197.398438 278.734375 196.878906 C 278.21875 196.355469 277.375 196.347656 276.851562 196.863281 Z M 276.851562 196.863281 " fill-opacity="1" fill-rule="nonzero"/></svg>