<svg xmlns="http://www.w3.org/2000/svg" xmlns:xlink="http://www.w3.org/1999/xlink" width="500" zoomAndPan="magnify" viewBox="0 0 375 374.999991" height="500" preserveAspectRatio="xMidYMid meet" version="1.0"><defs><clipPath id="5f3d2ec071"><path d="M 212 239 L 359 239 L 359 334.03125 L 212 334.03125 Z M 212 239 " clip-rule="nonzero"/></clipPath><clipPath id="a195ea1add"><path d="M 0 168 L 260 168 L 260 334.03125 L 0 334.03125 Z M 0 168 " clip-rule="nonzero"/></clipPath></defs><g clip-path="url(#5f3d2ec071)"><path fill="#100f0d" d="M 286.78125 239.691406 L 283.8125 239.691406 C 244.386719 239.691406 212.425781 271.632812 212.425781 311.03125 L 212.425781 334.046875 L 358.164062 334.046875 L 358.164062 311.03125 C 358.164062 271.632812 326.207031 239.691406 286.78125 239.691406 " fill-opacity="1" fill-rule="nonzero"/></g><path fill="#100f0d" d="M 322.917969 125.519531 C 294.242188 125.519531 270.996094 148.75 270.996094 177.414062 C 270.996094 206.078125 294.242188 229.308594 322.917969 229.308594 C 351.601562 229.308594 374.847656 206.078125 374.847656 177.414062 C 374.847656 148.75 351.601562 125.519531 322.917969 125.519531 " fill-opacity="1" fill-rule="nonzero"/><g clip-path="url(#a195ea1add)"><path fill="#100f0d" d="M 253.164062 182.25 C 243.085938 168.097656 223.125 165.082031 208.027344 173.695312 L 104.625 232.664062 C 95.550781 237.835938 85.199219 239.714844 74.757812 239.691406 C 74.707031 239.691406 74.652344 239.691406 74.601562 239.691406 C 33.539062 239.691406 0.25 272.960938 0.25 314 L 0.25 334.046875 L 145.988281 334.046875 L 145.988281 285.582031 L 242.621094 230.472656 C 259.550781 220.816406 264.757812 198.539062 253.164062 182.25 " fill-opacity="1" fill-rule="nonzero"/></g><path fill="#100f0d" d="M 65.324219 220.78125 C 94.003906 220.78125 117.253906 197.546875 117.253906 168.882812 C 117.253906 140.222656 94.003906 116.988281 65.324219 116.988281 C 36.644531 116.988281 13.394531 140.222656 13.394531 168.882812 C 13.394531 197.546875 36.644531 220.78125 65.324219 220.78125 " fill-opacity="1" fill-rule="nonzero"/><path fill="#100f0d" d="M 199.027344 119.15625 C 205.261719 119.609375 222.695312 123.058594 230.199219 132.046875 C 240.140625 143.957031 238.460938 153.195312 238.460938 153.195312 C 238.847656 153.269531 251.503906 139.78125 240.667969 123.851562 C 236.859375 118.257812 230.65625 114.753906 224.679688 112.101562 C 228.179688 109.773438 231.335938 106.683594 233.570312 102.582031 C 237.816406 94.789062 237.839844 85.09375 233.675781 73.609375 C 243.375 77.695312 255.398438 80.632812 267.324219 77.996094 C 274.75 76.34375 281.300781 72.757812 286.917969 67.28125 C 288.464844 77.703125 291.980469 89.804688 299.785156 97.210938 C 305.207031 102.347656 312.171875 104.710938 319.910156 103.945312 C 319.910156 103.945312 309.113281 98.25 304.3125 84.917969 C 300.089844 73.179688 298.761719 56.300781 299.085938 48.28125 C 299.214844 45.140625 297.125 42.339844 294.078125 41.566406 C 290.984375 40.785156 287.859375 42.257812 286.472656 45.074219 C 280.972656 56.273438 273.574219 62.980469 264.480469 65.011719 C 244.527344 69.488281 221.664062 51.46875 221.441406 51.285156 C 218.875 49.238281 215.226562 49.351562 212.8125 51.566406 C 210.398438 53.761719 209.9375 57.386719 211.722656 60.121094 C 222.382812 76.34375 225.898438 88.820312 221.910156 96.199219 C 217.609375 104.152344 204.335938 105.886719 199.550781 105.886719 C 199.546875 105.886719 199.535156 105.886719 199.527344 105.886719 L 199.519531 105.886719 C 195.941406 105.886719 193.003906 108.714844 192.871094 112.28125 C 192.738281 115.859375 195.460938 118.902344 199.027344 119.15625 " fill-opacity="1" fill-rule="nonzero"/></svg>