<svg xmlns="http://www.w3.org/2000/svg" xmlns:xlink="http://www.w3.org/1999/xlink" width="500" zoomAndPan="magnify" viewBox="0 0 375 374.999991" height="500" preserveAspectRatio="xMidYMid meet" version="1.0"><defs><clipPath id="a212a34da8"><path d="M 230 109 L 341.53125 109 L 341.53125 273 L 230 273 Z M 230 109 " clip-rule="nonzero"/></clipPath></defs><path fill="#000000" d="M 277.785156 279.625 C 274.6875 278.929688 271.613281 280.882812 270.921875 283.984375 C 270.910156 284.042969 269.539062 289.816406 265.375 295.527344 C 259.902344 303.035156 252.296875 306.84375 242.769531 306.84375 C 239.59375 306.84375 237.019531 309.417969 237.019531 312.597656 C 237.019531 315.773438 239.59375 318.347656 242.769531 318.347656 C 247.3125 318.347656 251.398438 317.679688 255.074219 316.53125 L 262.488281 370.03125 C 262.886719 372.910156 265.347656 374.996094 268.175781 374.996094 C 268.4375 374.996094 268.703125 374.976562 268.972656 374.941406 C 272.117188 374.503906 274.3125 371.597656 273.875 368.453125 L 266.027344 311.804688 C 265.996094 311.566406 265.941406 311.335938 265.882812 311.105469 C 275.605469 304.03125 280.609375 293.359375 282.144531 286.492188 C 282.835938 283.394531 280.882812 280.316406 277.785156 279.625 Z M 277.785156 279.625 " fill-opacity="1" fill-rule="nonzero"/><path fill="#000000" d="M 212.007812 206.292969 C 209.039062 206.847656 205.988281 207.128906 202.945312 207.128906 C 182.289062 207.128906 163.730469 194.0625 156.757812 174.621094 C 156.234375 173.15625 155.136719 171.96875 153.71875 171.324219 C 152.300781 170.683594 150.683594 170.640625 149.234375 171.214844 L 121.4375 182.195312 C 121.378906 182.21875 121.316406 182.242188 121.257812 182.269531 C 118.988281 183.253906 116.8125 184.414062 114.730469 185.710938 C 94.472656 180.382812 85.65625 160.738281 86.054688 144.527344 C 86.429688 129.347656 95.84375 116.050781 110.039062 110.652344 C 111.425781 110.125 112.53125 109.046875 113.097656 107.675781 C 113.660156 106.300781 113.628906 104.753906 113.015625 103.402344 C 110.660156 98.253906 109.539062 92.75 109.679688 87.050781 C 110.1875 66.539062 127.269531 50.257812 147.773438 50.769531 C 150.738281 50.839844 153.199219 48.5 153.269531 45.535156 C 153.34375 42.570312 151.003906 40.109375 148.039062 40.035156 C 144.1875 39.941406 140.4375 40.316406 136.828125 41.089844 C 136.859375 40.953125 136.882812 40.8125 136.917969 40.675781 C 139.347656 30.953125 145.417969 22.757812 154.007812 17.601562 C 162.597656 12.445312 172.679688 10.945312 182.394531 13.378906 C 183.503906 13.652344 184.613281 13.5625 185.601562 13.183594 C 185.824219 13.152344 186.042969 13.109375 186.265625 13.042969 C 191.394531 11.582031 196.71875 10.910156 202.085938 11.039062 C 216.824219 11.402344 230.542969 17.769531 240.71875 28.964844 C 250.953125 40.226562 256.378906 55.019531 255.996094 70.609375 C 255.800781 78.574219 254.105469 86.230469 251.042969 93.28125 C 250.109375 91.691406 248.386719 90.625 246.417969 90.625 C 246.390625 90.625 246.359375 90.625 246.332031 90.625 C 243.367188 90.675781 241.003906 93.117188 241.050781 96.082031 L 241.515625 125.148438 C 240.816406 151.363281 220.921875 167.582031 202.855469 167.582031 C 190.714844 167.582031 182.335938 161.601562 177.445312 156.585938 C 169.476562 148.414062 164.886719 136.71875 165.167969 125.308594 C 165.167969 125.265625 165.167969 125.21875 165.167969 125.175781 L 165.167969 111.453125 C 184.042969 107.625 195.046875 96.796875 201.265625 87.21875 C 202.484375 85.347656 203.550781 83.46875 204.492188 81.625 C 208.226562 84.972656 213.859375 88.824219 221.605469 91.046875 C 222.101562 91.191406 222.601562 91.257812 223.089844 91.257812 C 225.421875 91.257812 227.570312 89.722656 228.246094 87.367188 C 229.0625 84.515625 227.417969 81.542969 224.566406 80.726562 C 215.921875 78.242188 210.894531 73.222656 208.882812 70.804688 C 210.789062 64.640625 211.222656 60.222656 211.253906 59.902344 C 211.523438 56.957031 209.359375 54.355469 206.414062 54.074219 C 203.476562 53.796875 200.855469 55.964844 200.566406 58.910156 C 200.390625 60.757812 195.625 104.136719 146.859375 102.078125 C 143.894531 101.945312 141.398438 104.253906 141.273438 107.214844 C 141.148438 110.179688 143.445312 112.683594 146.40625 112.808594 C 147.707031 112.863281 148.976562 112.886719 150.222656 112.886719 C 151.664062 112.886719 153.0625 112.84375 154.4375 112.773438 L 154.4375 125.109375 C 154.105469 139.335938 159.832031 153.898438 169.761719 164.082031 C 178.714844 173.265625 190.46875 178.320312 202.855469 178.320312 C 232.558594 178.320312 251.617188 150.804688 252.246094 125.308594 C 252.25 125.234375 252.25 125.164062 252.25 125.089844 L 252.046875 112.492188 C 261.269531 100.589844 266.347656 86.207031 266.722656 70.875 C 267.175781 52.507812 260.761719 35.058594 248.65625 21.742188 C 236.492188 8.355469 220.046875 0.742188 202.351562 0.304688 C 195.996094 0.148438 189.691406 0.9375 183.601562 2.644531 C 171.539062 -0.00390625 159.125 2.007812 148.488281 8.394531 C 137.4375 15.023438 129.632812 25.5625 126.507812 38.070312 C 125.925781 40.402344 125.527344 42.78125 125.296875 45.164062 C 110.046875 52.882812 99.402344 68.527344 98.953125 86.785156 C 98.816406 92.296875 99.601562 97.671875 101.28125 102.820312 C 85.78125 110.78125 75.765625 126.523438 75.328125 144.261719 C 74.875 162.640625 84.046875 184.578125 104.925781 193.652344 C 101.441406 197.273438 98.488281 201.410156 96.195312 205.949219 C 96.160156 206.019531 96.125 206.09375 96.09375 206.164062 L 90.570312 218.34375 C 89.257812 221.238281 90.539062 224.644531 93.429688 225.960938 C 94.203125 226.308594 95.007812 226.476562 95.804688 226.476562 C 97.988281 226.476562 100.078125 225.21875 101.042969 223.097656 L 106.511719 211.03125 C 109.730469 204.703125 114.621094 199.382812 120.574219 195.625 L 133.582031 244.527344 C 134.265625 247.101562 136.589844 248.800781 139.132812 248.800781 C 139.625 248.800781 140.121094 248.738281 140.617188 248.605469 C 143.683594 247.789062 145.511719 244.636719 144.695312 241.566406 L 131.167969 190.722656 L 148.210938 183.988281 C 158.140625 204.933594 179.445312 218.632812 202.945312 218.632812 C 206.699219 218.632812 210.457031 218.289062 214.121094 217.605469 C 217.238281 217.019531 219.296875 214.015625 218.714844 210.894531 C 218.132812 207.769531 215.128906 205.707031 212.007812 206.292969 Z M 212.007812 206.292969 " fill-opacity="1" fill-rule="nonzero"/><path fill="#000000" d="M 315.378906 329.089844 L 313.890625 288.261719 C 313.777344 285.085938 311.078125 282.605469 307.9375 282.722656 C 304.761719 282.835938 302.285156 285.503906 302.398438 288.679688 L 303.914062 330.117188 C 303.925781 330.523438 303.984375 330.925781 304.085938 331.320312 L 314.03125 370.652344 C 314.691406 373.257812 317.03125 374.996094 319.601562 374.996094 C 320.066406 374.996094 320.542969 374.9375 321.015625 374.816406 C 324.09375 374.039062 325.957031 370.910156 325.179688 367.828125 Z M 315.378906 329.089844 " fill-opacity="1" fill-rule="nonzero"/><path fill="#000000" d="M 213.6875 105.40625 C 210.511719 105.40625 207.941406 107.980469 207.941406 111.160156 L 207.941406 118.117188 C 207.941406 120.644531 209.585938 122.875 212 123.617188 L 227.070312 128.257812 C 227.632812 128.429688 228.203125 128.511719 228.761719 128.511719 C 231.21875 128.511719 233.496094 126.921875 234.253906 124.449219 C 235.1875 121.414062 233.484375 118.195312 230.449219 117.257812 L 219.4375 113.867188 L 219.4375 111.160156 C 219.4375 107.980469 216.863281 105.40625 213.6875 105.40625 Z M 213.6875 105.40625 " fill-opacity="1" fill-rule="nonzero"/><path fill="#000000" d="M 187.234375 111.160156 L 187.234375 113.78125 L 175.511719 117.144531 C 172.460938 118.019531 170.695312 121.203125 171.570312 124.257812 C 172.292969 126.785156 174.59375 128.429688 177.09375 128.429688 C 177.617188 128.429688 178.152344 128.355469 178.679688 128.203125 L 194.566406 123.648438 C 197.03125 122.941406 198.730469 120.683594 198.730469 118.117188 L 198.730469 111.160156 C 198.730469 107.980469 196.15625 105.40625 192.980469 105.40625 C 189.804688 105.40625 187.234375 107.980469 187.234375 111.160156 Z M 187.234375 111.160156 " fill-opacity="1" fill-rule="nonzero"/><g clip-path="url(#a212a34da8)"><path fill="#000000" d="M 341.054688 231.734375 L 326.648438 163.992188 C 324.78125 155.203125 319.890625 147.269531 312.878906 141.652344 L 274.222656 110.683594 C 271.746094 108.695312 268.125 109.097656 266.140625 111.578125 C 264.15625 114.058594 264.558594 117.679688 267.035156 119.664062 L 305.691406 150.632812 C 310.636719 154.59375 314.082031 160.191406 315.402344 166.386719 L 329.003906 230.351562 L 323.921875 233.8125 L 322.363281 215.410156 C 322.09375 212.246094 319.308594 209.898438 316.148438 210.164062 C 312.984375 210.433594 310.636719 213.21875 310.90625 216.382812 L 312.667969 237.191406 L 300.039062 258.230469 C 299.339844 257.351562 298.804688 256.386719 298.5 255.421875 C 297.84375 253.320312 298.5625 252.132812 298.800781 251.742188 C 298.898438 251.582031 298.984375 251.414062 299.0625 251.25 L 304.707031 246.863281 C 306.105469 245.773438 306.925781 244.101562 306.929688 242.328125 L 306.980469 211.632812 C 306.988281 208.457031 304.417969 205.875 301.242188 205.871094 C 301.238281 205.871094 301.234375 205.871094 301.234375 205.871094 C 298.0625 205.871094 295.488281 208.441406 295.484375 211.613281 L 295.433594 239.5 L 276.816406 253.976562 C 276.480469 252.90625 276.328125 251.8125 276.394531 250.800781 C 276.539062 248.625 277.617188 247.773438 277.988281 247.488281 L 286.523438 240.910156 C 287.847656 239.890625 288.664062 238.339844 288.753906 236.667969 L 290.34375 207.671875 C 290.519531 204.5 288.089844 201.789062 284.921875 201.613281 C 281.761719 201.4375 279.039062 203.871094 278.867188 207.042969 L 277.417969 233.40625 L 270.992188 238.355469 C 270.988281 238.359375 270.984375 238.363281 270.984375 238.363281 C 270.980469 238.367188 270.976562 238.367188 270.972656 238.371094 L 259.882812 246.917969 C 259.792969 246.082031 259.800781 245.230469 259.910156 244.371094 C 260.285156 241.492188 261.765625 238.941406 264.082031 237.195312 L 270.765625 232.152344 C 272.132812 231.121094 272.96875 229.539062 273.046875 227.828125 L 274.070312 206.105469 C 274.078125 205.972656 274.078125 205.839844 274.074219 205.707031 L 273.738281 190.5625 C 273.683594 188.175781 272.160156 186.070312 269.910156 185.269531 C 267.65625 184.472656 265.148438 185.148438 263.605469 186.972656 L 252.007812 200.652344 C 251.980469 200.683594 251.953125 200.714844 251.929688 200.746094 C 249.988281 203.136719 246.589844 203.6875 244.015625 202.148438 L 271.792969 167.519531 C 273.78125 165.039062 273.382812 161.417969 270.90625 159.429688 C 268.429688 157.441406 264.8125 157.839844 262.824219 160.316406 L 231.410156 199.480469 C 230.457031 200.671875 230.015625 202.195312 230.179688 203.710938 C 230.347656 205.230469 231.109375 206.617188 232.300781 207.570312 L 236.140625 210.648438 C 243.660156 216.679688 254.714844 215.507812 260.8125 208.050781 L 262.566406 205.984375 L 261.691406 224.59375 L 257.160156 228.007812 C 252.355469 231.636719 249.28125 236.921875 248.507812 242.894531 C 247.734375 248.867188 249.359375 254.765625 253.082031 259.5 C 254.214844 260.941406 255.902344 261.695312 257.601562 261.695312 C 258.828125 261.695312 260.0625 261.304688 261.105469 260.5 L 265.714844 256.949219 C 266.734375 260.480469 268.648438 263.839844 271.261719 266.46875 C 272.378906 267.59375 273.855469 268.167969 275.339844 268.167969 C 276.578125 268.167969 277.824219 267.769531 278.867188 266.957031 L 287.898438 259.933594 C 289.855469 265.050781 294.160156 269.566406 299.367188 271.886719 C 300.125 272.222656 300.917969 272.382812 301.703125 272.382812 C 303.667969 272.382812 305.566406 271.375 306.636719 269.59375 L 316.875 252.535156 L 338.664062 237.691406 C 340.597656 236.371094 341.539062 234.019531 341.054688 231.734375 Z M 341.054688 231.734375 " fill-opacity="1" fill-rule="nonzero"/></g><path fill="#000000" d="M 187.828125 304.1875 L 192.511719 300.738281 C 195.050781 298.871094 195.613281 295.304688 193.773438 292.746094 C 190.257812 287.855469 185.042969 284.664062 179.09375 283.757812 C 173.140625 282.847656 167.214844 284.339844 162.402344 287.957031 L 157.867188 291.367188 L 139.757812 287.0625 L 142.226562 285.945312 C 151.078125 282.148438 155.257812 271.839844 151.546875 262.941406 L 149.65625 258.398438 C 149.066406 256.992188 147.945312 255.871094 146.53125 255.292969 C 145.121094 254.710938 143.539062 254.71875 142.128906 255.304688 L 105.644531 270.570312 L 77.25 221.113281 C 75.667969 218.355469 72.152344 217.40625 69.398438 218.988281 C 66.648438 220.570312 65.699219 224.089844 67.277344 226.84375 L 94.996094 275.113281 C 92.648438 276.582031 91.640625 279.566406 92.742188 282.203125 C 93.964844 285.132812 97.335938 286.515625 100.261719 285.289062 L 141.203125 268.164062 C 141.96875 271.066406 140.503906 274.179688 137.671875 275.382812 C 137.632812 275.402344 137.59375 275.417969 137.558594 275.433594 L 121.210938 282.800781 C 119.035156 283.78125 117.691406 286.007812 117.832031 288.390625 C 117.976562 290.777344 119.578125 292.824219 121.859375 293.535156 L 136.304688 298.050781 C 136.433594 298.09375 136.5625 298.128906 136.691406 298.160156 L 157.835938 303.1875 C 159.5 303.582031 161.253906 303.21875 162.617188 302.1875 L 169.308594 297.15625 C 171.628906 295.414062 174.492188 294.691406 177.359375 295.132812 C 178.210938 295.261719 179.035156 295.488281 179.8125 295.808594 L 168.527344 304.113281 L 161.984375 308.929688 L 136.265625 303.027344 C 133.171875 302.316406 130.085938 304.25 129.378906 307.347656 C 128.667969 310.445312 130.601562 313.53125 133.695312 314.242188 L 161.984375 320.734375 C 162.40625 320.832031 162.839844 320.878906 163.269531 320.878906 C 164.480469 320.878906 165.679688 320.496094 166.675781 319.761719 L 175.339844 313.382812 C 175.707031 313.113281 176.824219 312.289062 178.976562 312.757812 C 179.964844 312.972656 180.972656 313.425781 181.910156 314.042969 L 162.855469 327.941406 L 136.058594 320.273438 C 133.003906 319.398438 129.824219 321.167969 128.953125 324.222656 C 128.078125 327.277344 129.84375 330.460938 132.898438 331.335938 L 162.394531 339.777344 C 162.914062 339.925781 163.445312 339.996094 163.972656 339.996094 C 165.175781 339.996094 166.367188 339.617188 167.359375 338.894531 L 173.136719 334.679688 C 173.316406 334.652344 173.5 334.613281 173.679688 334.5625 C 174.121094 334.445312 175.460938 334.078125 177.296875 335.292969 C 178.140625 335.851562 178.917969 336.636719 179.570312 337.550781 L 155.871094 343.875 L 136.375 336.421875 C 133.40625 335.289062 130.082031 336.777344 128.949219 339.742188 C 127.816406 342.710938 129.304688 346.035156 132.269531 347.171875 L 149.511719 353.761719 L 144.78125 357.6875 L 87.113281 326.914062 C 81.527344 323.929688 77.105469 319.066406 74.671875 313.21875 C 74.5625 312.957031 74.433594 312.699219 74.285156 312.457031 L 44.808594 263.652344 C 43.167969 260.933594 39.632812 260.0625 36.917969 261.703125 C 34.199219 263.347656 33.328125 266.882812 34.96875 269.601562 L 64.230469 318.050781 C 67.71875 326.164062 73.910156 332.902344 81.703125 337.0625 L 86.300781 339.515625 L 80.609375 368.117188 C 79.992188 371.234375 82.015625 374.261719 85.128906 374.882812 C 85.507812 374.960938 85.882812 374.996094 86.257812 374.996094 C 88.941406 374.996094 91.34375 373.101562 91.890625 370.363281 L 96.898438 345.171875 L 142.773438 369.65625 C 143.625 370.109375 144.554688 370.332031 145.480469 370.332031 C 146.792969 370.332031 148.097656 369.882812 149.152344 369.007812 L 169.4375 352.160156 L 188.652344 347.035156 C 191.460938 346.285156 193.265625 343.558594 192.863281 340.679688 C 192.078125 335.03125 188.929688 329.644531 184.558594 326.347656 L 193.800781 319.605469 C 196.148438 317.890625 196.851562 314.695312 195.4375 312.15625 C 193.632812 308.917969 190.9375 306.144531 187.828125 304.1875 Z M 187.828125 304.1875 " fill-opacity="1" fill-rule="nonzero"/></svg>