<svg xmlns="http://www.w3.org/2000/svg" xmlns:xlink="http://www.w3.org/1999/xlink" width="500" zoomAndPan="magnify" viewBox="0 0 375 374.999991" height="500" preserveAspectRatio="xMidYMid meet" version="1.0"><defs><clipPath id="372ca435f2"><path d="M 260 11.71875 L 326 11.71875 L 326 77 L 260 77 Z M 260 11.71875 " clip-rule="nonzero"/></clipPath></defs><path fill="#000000" d="M 332.597656 331.011719 L 323.535156 259.960938 C 322.367188 260.253906 320.90625 260.253906 319.738281 260.253906 L 311.847656 260.253906 C 311.847656 260.253906 321.785156 338.613281 321.785156 338.613281 C 322.074219 340.660156 323.535156 342.707031 325.582031 343.292969 C 327.335938 343.878906 329.089844 343.292969 331.136719 343 C 333.472656 342.417969 336.394531 342.125 338.148438 343.585938 C 339.316406 344.753906 339.902344 347.972656 339.316406 348.847656 C 338.441406 350.3125 336.101562 350.3125 334.058594 350.601562 C 334.058594 350.601562 309.507812 350.601562 309.21875 350.601562 C 309.21875 350.601562 287.300781 269.609375 287.300781 269.609375 L 280.285156 288.90625 C 280.285156 288.90625 297.820312 352.941406 297.820312 352.941406 C 299.28125 358.496094 304.542969 363.175781 310.679688 362.300781 L 334.351562 362.300781 C 339.316406 362.300781 346.039062 359.960938 349.253906 354.988281 C 353.636719 348.554688 351.007812 339.492188 346.039062 335.105469 C 342.53125 331.890625 338.148438 330.429688 332.597656 331.011719 Z M 332.597656 331.011719 " fill-opacity="1" fill-rule="nonzero"/><path fill="#000000" d="M 265.964844 260.253906 C 265.964844 260.253906 239.664062 333.644531 239.664062 333.644531 C 239.078125 335.398438 239.371094 337.445312 240.542969 338.90625 C 242.003906 340.660156 244.046875 341.246094 246.386719 341.832031 C 248.429688 342.417969 250.769531 343 252.523438 344.464844 C 253.691406 345.632812 255.738281 349.433594 253.398438 350.601562 C 251.355469 351.480469 248.140625 350.601562 246.386719 349.726562 C 245.21875 349.140625 240.542969 347.679688 220.960938 341.246094 C 220.375 340.953125 220.085938 341.246094 220.375 340.371094 L 234.113281 259.375 C 230.3125 259.085938 226.222656 258.5 222.421875 257.914062 L 208.6875 338.324219 C 207.519531 344.753906 211.316406 350.894531 217.453125 352.359375 C 219.792969 353.234375 239.664062 359.667969 242.003906 360.542969 C 247.554688 362.300781 253.691406 363.46875 258.953125 360.835938 C 266.257812 357.035156 267.71875 347.679688 264.503906 340.953125 C 262.460938 336.570312 258.367188 333.351562 252.816406 331.304688 L 278.238281 260.253906 Z M 265.964844 260.253906 " fill-opacity="1" fill-rule="nonzero"/><path fill="#000000" d="M 189.105469 253.527344 C 186.183594 252.066406 182.679688 253.527344 181.21875 256.453125 L 178.585938 262.300781 C 177.125 265.222656 178.585938 268.734375 181.507812 270.195312 C 184.429688 271.65625 187.9375 270.195312 189.398438 267.269531 L 192.03125 261.421875 C 193.492188 258.5 192.03125 254.992188 189.105469 253.527344 Z M 189.105469 253.527344 " fill-opacity="1" fill-rule="nonzero"/><path fill="#000000" d="M 210.734375 263.46875 L 208.101562 258.207031 C 206.640625 255.28125 203.132812 254.113281 200.210938 255.574219 C 197.289062 257.039062 196.121094 260.546875 197.582031 263.46875 L 200.210938 268.734375 C 201.671875 271.65625 205.179688 272.828125 208.101562 271.363281 C 211.023438 269.902344 212.195312 266.394531 210.734375 263.46875 Z M 210.734375 263.46875 " fill-opacity="1" fill-rule="nonzero"/><path fill="#000000" d="M 180.339844 246.804688 C 179.464844 243.585938 175.957031 242.125 173.035156 243.003906 L 168.652344 244.464844 C 165.4375 245.339844 163.976562 248.851562 164.851562 251.773438 C 165.726562 254.699219 169.234375 256.453125 172.15625 255.574219 L 176.542969 254.113281 C 179.753906 253.234375 181.507812 249.726562 180.339844 246.804688 Z M 180.339844 246.804688 " fill-opacity="1" fill-rule="nonzero"/><path fill="#000000" d="M 246.386719 195.925781 C 246.386719 195.925781 267.71875 196.511719 266.84375 175.75 L 266.550781 121.367188 C 266.550781 118.441406 264.503906 115.8125 261.582031 115.226562 C 257.785156 114.640625 254.859375 117.566406 254.859375 121.074219 L 255.152344 175.75 C 255.152344 180.429688 251.355469 184.230469 246.679688 184.230469 C 242.003906 184.230469 237.617188 180.429688 237.617188 175.75 C 237.617188 175.75 237.910156 121.074219 237.910156 104.699219 C 237.910156 97.683594 239.957031 90.957031 244.339844 85.402344 C 248.722656 80.140625 254.570312 76.046875 261.582031 74.292969 C 258.660156 71.367188 256.320312 67.859375 254.277344 64.351562 C 252.523438 64.933594 250.769531 65.8125 249.015625 66.6875 C 234.988281 74.292969 226.515625 89.496094 226.222656 105.578125 C 226.222656 124.289062 225.929688 175.460938 225.929688 175.460938 C 225.929688 186.570312 235.28125 195.925781 246.386719 195.925781 Z M 246.386719 195.925781 " fill-opacity="1" fill-rule="nonzero"/><path fill="#000000" d="M 42.113281 163.761719 C 44.15625 163.761719 46.203125 163.472656 47.957031 162.886719 L 55.261719 143.296875 L 45.910156 150.898438 C 43.28125 152.945312 39.480469 152.652344 37.144531 150.019531 C 35.097656 147.390625 35.683594 143.589844 38.3125 141.542969 L 64.613281 118.441406 L 73.382812 95.34375 C 73.382812 95.34375 31.007812 132.769531 30.714844 132.769531 C 23.410156 139.203125 21.65625 150.019531 28.085938 157.625 C 31.589844 161.425781 36.851562 163.761719 42.113281 163.761719 Z M 42.113281 163.761719 " fill-opacity="1" fill-rule="nonzero"/><path fill="#000000" d="M 197.582031 204.40625 L 160.46875 127.800781 C 159.007812 124.875 155.5 123.707031 152.578125 125.167969 C 149.65625 126.628906 148.484375 130.136719 149.949219 133.0625 L 187.0625 209.667969 C 188.816406 212.59375 187.644531 216.6875 184.722656 218.441406 C 182.09375 219.902344 178.585938 219.027344 177.125 216.394531 L 128.613281 122.828125 C 127.152344 119.90625 123.644531 118.734375 120.722656 120.195312 C 117.800781 121.660156 116.632812 125.167969 118.09375 128.089844 C 118.09375 128.089844 166.605469 221.65625 166.605469 221.65625 C 170.988281 230.136719 182.386719 233.0625 190.570312 228.089844 C 199.042969 223.410156 201.964844 212.59375 197.582031 204.40625 Z M 197.582031 204.40625 " fill-opacity="1" fill-rule="nonzero"/><path fill="#000000" d="M 176.25 84.816406 C 194.074219 84.816406 208.394531 70.488281 208.394531 52.652344 C 208.394531 34.816406 193.78125 20.492188 176.25 20.492188 C 158.714844 20.492188 144.101562 34.816406 144.101562 52.652344 C 144.101562 70.488281 158.421875 84.816406 176.25 84.816406 Z M 176.25 84.816406 " fill-opacity="1" fill-rule="nonzero"/><g clip-path="url(#372ca435f2)"><path fill="#000000" d="M 293.144531 76.046875 C 310.96875 76.046875 325.289062 61.71875 325.289062 43.882812 C 325.289062 26.046875 310.679688 11.71875 293.144531 11.71875 C 275.609375 11.71875 260.996094 26.046875 260.996094 43.882812 C 260.996094 61.71875 275.316406 76.046875 293.144531 76.046875 Z M 293.144531 76.046875 " fill-opacity="1" fill-rule="nonzero"/></g><path fill="#000000" d="M 152.871094 329.257812 C 152.871094 329.257812 154.039062 267.5625 154.039062 267.269531 C 154.039062 265.808594 151.117188 256.746094 148.777344 247.386719 C 146.734375 249.144531 144.394531 250.605469 142.058594 251.480469 C 140.886719 252.066406 139.425781 252.359375 138.257812 252.945312 C 140.597656 261.421875 142.640625 267.855469 142.640625 267.855469 L 141.179688 334.230469 C 141.179688 337.445312 143.519531 340.078125 146.734375 340.078125 C 146.734375 340.078125 158.714844 340.953125 158.714844 346.800781 C 158.714844 347.972656 158.714844 350.019531 152.871094 350.894531 L 127.738281 350.894531 C 127.738281 350.601562 117.507812 270.488281 117.507812 270.488281 C 117.214844 268.148438 116.046875 265.515625 114.585938 263.46875 L 104.941406 246.804688 L 87.699219 240.078125 C 87.699219 240.078125 105.820312 271.363281 105.820312 271.363281 C 105.820312 271.363281 116.046875 352.066406 116.046875 352.648438 C 116.632812 357.328125 118.679688 362.589844 124.230469 362.589844 C 124.523438 362.589844 153.453125 362.589844 153.453125 362.589844 C 164.265625 361.421875 170.402344 355.574219 170.113281 346.511719 C 170.113281 335.984375 160.761719 331.011719 152.871094 329.257812 Z M 152.871094 329.257812 " fill-opacity="1" fill-rule="nonzero"/><path fill="#000000" d="M 92.085938 271.070312 L 84.484375 288.03125 C 83.902344 289.785156 82.734375 291.246094 81.5625 292.710938 L 47.371094 329.550781 C 45.910156 331.011719 45.617188 333.058594 45.910156 335.105469 C 46.496094 337.152344 47.957031 338.613281 49.710938 339.199219 C 51.464844 339.785156 56.722656 342.417969 54.09375 347.972656 C 52.339844 351.773438 50.003906 352.066406 41.527344 349.433594 L 12.886719 341.246094 C 16.6875 336.570312 33.34375 316.6875 58.476562 287.152344 C 61.398438 283.644531 63.152344 279.550781 63.445312 274.875 L 65.492188 231.890625 L 54.679688 227.796875 C 54.386719 227.796875 54.09375 227.503906 53.800781 227.503906 L 51.464844 274.289062 C 51.464844 276.335938 50.585938 278.089844 49.417969 279.550781 C 36.558594 294.757812 5.875 330.71875 2.660156 334.8125 C 0.613281 337.445312 0.0273438 340.660156 0.613281 343.878906 C 1.492188 346.800781 3.828125 350.601562 7.042969 351.480469 C 7.042969 351.480469 44.742188 362.300781 49.125 362.300781 C 54.386719 362.300781 59.9375 360.253906 64.03125 352.941406 C 66.660156 347.679688 67.242188 342.125 65.199219 337.445312 C 64.320312 335.105469 62.566406 333.058594 60.816406 331.304688 L 89.453125 300.3125 C 91.792969 297.972656 93.546875 295.046875 94.421875 292.417969 L 95.882812 289.492188 L 94.128906 275.75 Z M 92.085938 271.070312 " fill-opacity="1" fill-rule="nonzero"/><path fill="#000000" d="M 172.742188 126.628906 L 179.753906 141.25 L 185.308594 126.042969 C 189.105469 116.101562 188.523438 105.285156 184.722656 95.636719 C 181.800781 96.21875 179.171875 96.511719 176.25 96.511719 C 174.789062 96.511719 173.617188 96.511719 172.15625 96.21875 C 176.542969 104.117188 177.710938 113.179688 174.496094 121.660156 Z M 172.742188 126.628906 " fill-opacity="1" fill-rule="nonzero"/><path fill="#000000" d="M 59.355469 216.980469 C 59.355469 216.980469 123.355469 241.539062 123.355469 241.539062 C 132.121094 244.757812 142.640625 240.957031 145.855469 231.890625 L 151.410156 217.273438 L 144.101562 203.238281 C 144.101562 203.238281 135.042969 227.796875 135.042969 227.796875 C 133.875 230.722656 130.367188 231.597656 127.445312 230.722656 L 63.445312 206.160156 C 60.230469 204.992188 58.476562 201.773438 59.644531 198.851562 L 99.097656 93.003906 C 101.726562 85.695312 107.574219 79.847656 114.878906 76.335938 C 121.890625 73.121094 130.074219 72.535156 137.964844 74 C 135.921875 70.199219 134.167969 66.105469 133.289062 61.71875 C 125.398438 61.132812 117.214844 62.59375 110.203125 65.8125 C 99.976562 70.488281 92.085938 78.675781 88.285156 88.910156 C 88.285156 88.910156 48.832031 194.757812 48.832031 194.757812 C 45.324219 203.238281 50 213.46875 59.355469 216.980469 Z M 59.355469 216.980469 " fill-opacity="1" fill-rule="nonzero"/><path fill="#000000" d="M 360.359375 195.925781 L 360.359375 181.015625 C 360.359375 177.214844 359.191406 173.703125 357.144531 170.78125 C 358.019531 166.6875 357.144531 162.300781 355.097656 158.5 C 355.097656 158.5 315.9375 82.476562 315.644531 81.601562 C 312.433594 83.648438 308.632812 85.109375 304.832031 86.277344 C 305.417969 87.15625 344.871094 164.054688 344.871094 164.347656 C 346.625 167.273438 345.746094 170.78125 343.117188 172.535156 C 340.488281 174.289062 336.980469 172.828125 335.519531 170.488281 L 313.015625 131.308594 C 311.554688 128.382812 307.757812 127.507812 305.125 128.96875 C 302.203125 130.429688 301.328125 134.230469 302.789062 136.863281 L 306.585938 143.589844 L 320.320312 211.425781 L 316.230469 209.960938 C 313.308594 208.5 309.507812 208.5 306.585938 210.253906 L 300.742188 213.179688 L 294.898438 210.253906 C 291.683594 208.792969 288.175781 208.792969 284.960938 210.253906 L 279.410156 213.179688 L 273.5625 210.253906 C 270.347656 208.792969 266.84375 208.792969 263.628906 210.253906 L 258.074219 213.179688 L 252.230469 210.253906 C 249.015625 208.792969 245.507812 208.792969 242.292969 210.253906 L 236.449219 213.179688 L 220.960938 204.699219 C 222.128906 202.945312 223.589844 200.898438 224.46875 198.851562 C 224.175781 198.558594 224.175781 198.558594 223.882812 198.265625 C 220.375 194.757812 218.039062 190.664062 216.285156 186.277344 C 215.117188 191.542969 212.488281 196.511719 208.980469 200.605469 C 208.980469 200.898438 208.980469 200.898438 209.273438 201.191406 C 209.5625 201.773438 209.855469 202.359375 209.855469 202.945312 C 209.855469 203.238281 210.148438 203.527344 210.148438 203.820312 C 214.238281 216.394531 209.273438 231.015625 197.582031 238.324219 C 197.289062 238.617188 196.707031 238.910156 196.414062 238.910156 C 196.996094 239.203125 216.285156 244.757812 216.285156 244.757812 C 225.929688 247.386719 236.15625 248.558594 246.386719 248.558594 C 246.386719 248.558594 320.03125 248.558594 320.03125 248.558594 C 329.675781 248.558594 338.441406 239.785156 336.394531 230.722656 L 324.996094 175.167969 L 325.582031 176.335938 C 330.257812 184.230469 340.777344 187.15625 348.667969 182.769531 L 348.667969 195.925781 C 348.667969 195.925781 341.949219 195.925781 339.609375 195.925781 L 339.609375 196.21875 C 339.609375 196.21875 339.902344 196.511719 339.902344 196.511719 C 339.902344 196.511719 339.609375 196.511719 339.609375 196.511719 L 339.609375 197.972656 L 347.792969 228.96875 C 348.085938 229.84375 348.085938 231.015625 348.085938 231.890625 C 348.085938 239.492188 345.164062 246.511719 340.195312 251.480469 C 339.609375 252.066406 338.734375 252.945312 337.855469 253.527344 C 337.855469 253.527344 337.5625 253.820312 337.5625 253.820312 C 336.6875 254.40625 335.8125 254.992188 334.933594 255.574219 L 335.8125 262.886719 L 360.066406 262.886719 C 368.25 262.886719 374.679688 256.453125 374.679688 248.265625 L 374.679688 210.546875 C 374.972656 202.359375 368.542969 195.925781 360.359375 195.925781 Z M 360.359375 195.925781 " fill-opacity="1" fill-rule="nonzero"/></svg>