<svg xmlns="http://www.w3.org/2000/svg" xmlns:xlink="http://www.w3.org/1999/xlink" width="500" zoomAndPan="magnify" viewBox="0 0 375 374.999991" height="500" preserveAspectRatio="xMidYMid meet" version="1.0"><defs><clipPath id="ed539ac318"><path d="M 0 213 L 130 213 L 130 342.84375 L 0 342.84375 Z M 0 213 " clip-rule="nonzero"/></clipPath><clipPath id="57ea911160"><path d="M 245 213 L 375 213 L 375 342.84375 L 245 342.84375 Z M 245 213 " clip-rule="nonzero"/></clipPath><clipPath id="d013e0fea7"><path d="M 90 32.34375 L 233 32.34375 L 233 188 L 90 188 Z M 90 32.34375 " clip-rule="nonzero"/></clipPath></defs><g clip-path="url(#ed539ac318)"><path fill="#000000" d="M 64.667969 342.84375 C 65.726562 342.84375 66.785156 342.816406 67.839844 342.765625 C 68.898438 342.714844 69.953125 342.636719 71.003906 342.53125 C 72.058594 342.429688 73.105469 342.300781 74.152344 342.144531 C 75.199219 341.988281 76.242188 341.808594 77.28125 341.601562 C 78.316406 341.394531 79.351562 341.164062 80.375 340.90625 C 81.402344 340.648438 82.421875 340.367188 83.433594 340.058594 C 84.445312 339.75 85.453125 339.417969 86.449219 339.0625 C 87.445312 338.707031 88.429688 338.324219 89.40625 337.917969 C 90.386719 337.515625 91.351562 337.085938 92.308594 336.632812 C 93.265625 336.179688 94.210938 335.703125 95.144531 335.207031 C 96.074219 334.707031 96.996094 334.183594 97.902344 333.640625 C 98.8125 333.097656 99.703125 332.53125 100.585938 331.941406 C 101.464844 331.355469 102.328125 330.746094 103.179688 330.113281 C 104.027344 329.484375 104.863281 328.832031 105.679688 328.160156 C 106.5 327.488281 107.300781 326.796875 108.082031 326.085938 C 108.867188 325.375 109.632812 324.644531 110.382812 323.898438 C 111.128906 323.148438 111.859375 322.382812 112.570312 321.597656 C 113.28125 320.8125 113.96875 320.011719 114.640625 319.195312 C 115.3125 318.375 115.964844 317.539062 116.59375 316.691406 C 117.222656 315.839844 117.832031 314.976562 118.421875 314.09375 C 119.007812 313.214844 119.574219 312.320312 120.117188 311.414062 C 120.664062 310.503906 121.183594 309.582031 121.683594 308.648438 C 122.179688 307.714844 122.65625 306.769531 123.109375 305.8125 C 123.5625 304.855469 123.992188 303.890625 124.394531 302.910156 C 124.800781 301.933594 125.179688 300.945312 125.539062 299.949219 C 125.894531 298.953125 126.226562 297.945312 126.53125 296.933594 C 126.839844 295.921875 127.121094 294.902344 127.378906 293.875 C 127.636719 292.847656 127.867188 291.8125 128.074219 290.777344 C 128.28125 289.738281 128.460938 288.695312 128.617188 287.648438 C 128.773438 286.601562 128.902344 285.550781 129.003906 284.496094 C 129.109375 283.441406 129.1875 282.386719 129.238281 281.332031 C 129.289062 280.273438 129.316406 279.214844 129.316406 278.15625 C 129.316406 277.097656 129.289062 276.039062 129.238281 274.980469 C 129.1875 273.925781 129.109375 272.871094 129.003906 271.816406 C 128.902344 270.761719 128.773438 269.710938 128.617188 268.664062 C 128.460938 267.617188 128.28125 266.574219 128.074219 265.535156 C 127.867188 264.496094 127.636719 263.464844 127.378906 262.4375 C 127.121094 261.410156 126.839844 260.390625 126.53125 259.378906 C 126.226562 258.367188 125.894531 257.359375 125.539062 256.363281 C 125.179688 255.367188 124.800781 254.378906 124.394531 253.402344 C 123.992188 252.421875 123.5625 251.457031 123.109375 250.5 C 122.65625 249.542969 122.179688 248.597656 121.683594 247.664062 C 121.183594 246.730469 120.664062 245.808594 120.117188 244.898438 C 119.574219 243.992188 119.007812 243.097656 118.421875 242.21875 C 117.832031 241.335938 117.222656 240.472656 116.59375 239.621094 C 115.964844 238.773438 115.3125 237.9375 114.640625 237.117188 C 113.96875 236.300781 113.28125 235.5 112.570312 234.714844 C 111.859375 233.929688 111.128906 233.164062 110.382812 232.414062 C 109.632812 231.667969 108.867188 230.9375 108.082031 230.226562 C 107.300781 229.515625 106.5 228.824219 105.679688 228.152344 C 104.863281 227.480469 104.027344 226.828125 103.179688 226.199219 C 102.328125 225.566406 101.464844 224.957031 100.585938 224.371094 C 99.703125 223.78125 98.8125 223.214844 97.902344 222.671875 C 96.996094 222.128906 96.074219 221.605469 95.144531 221.105469 C 94.210938 220.609375 93.265625 220.132812 92.308594 219.679688 C 91.351562 219.226562 90.386719 218.796875 89.40625 218.394531 C 88.429688 217.988281 87.445312 217.605469 86.449219 217.25 C 85.453125 216.894531 84.445312 216.5625 83.433594 216.253906 C 82.421875 215.945312 81.402344 215.664062 80.375 215.40625 C 79.351562 215.148438 78.316406 214.917969 77.28125 214.710938 C 76.242188 214.503906 75.199219 214.324219 74.152344 214.167969 C 73.105469 214.011719 72.058594 213.882812 71.003906 213.78125 C 69.953125 213.675781 68.898438 213.597656 67.839844 213.546875 C 66.785156 213.496094 65.726562 213.46875 64.667969 213.46875 C 63.609375 213.46875 62.550781 213.496094 61.496094 213.546875 C 60.4375 213.597656 59.382812 213.675781 58.332031 213.78125 C 57.277344 213.882812 56.230469 214.011719 55.183594 214.167969 C 54.136719 214.324219 53.09375 214.503906 52.054688 214.710938 C 51.019531 214.917969 49.984375 215.148438 48.960938 215.40625 C 47.933594 215.664062 46.914062 215.945312 45.902344 216.253906 C 44.890625 216.5625 43.882812 216.894531 42.886719 217.25 C 41.890625 217.605469 40.90625 217.988281 39.929688 218.394531 C 38.949219 218.796875 37.984375 219.226562 37.027344 219.679688 C 36.070312 220.132812 35.125 220.609375 34.191406 221.105469 C 33.261719 221.605469 32.339844 222.128906 31.433594 222.671875 C 30.523438 223.214844 29.632812 223.78125 28.75 224.371094 C 27.871094 224.957031 27.007812 225.566406 26.15625 226.199219 C 25.308594 226.828125 24.472656 227.480469 23.65625 228.152344 C 22.835938 228.824219 22.035156 229.515625 21.253906 230.226562 C 20.46875 230.9375 19.703125 231.667969 18.953125 232.414062 C 18.207031 233.164062 17.476562 233.929688 16.765625 234.714844 C 16.054688 235.5 15.367188 236.300781 14.695312 237.117188 C 14.023438 237.9375 13.371094 238.773438 12.742188 239.621094 C 12.113281 240.472656 11.503906 241.335938 10.914062 242.21875 C 10.328125 243.097656 9.761719 243.992188 9.21875 244.898438 C 8.671875 245.808594 8.152344 246.730469 7.652344 247.664062 C 7.15625 248.597656 6.679688 249.542969 6.226562 250.5 C 5.773438 251.457031 5.34375 252.421875 4.941406 253.402344 C 4.535156 254.378906 4.15625 255.367188 3.796875 256.363281 C 3.441406 257.359375 3.109375 258.367188 2.804688 259.378906 C 2.496094 260.390625 2.214844 261.410156 1.957031 262.4375 C 1.699219 263.464844 1.46875 264.496094 1.261719 265.535156 C 1.054688 266.574219 0.875 267.617188 0.71875 268.664062 C 0.5625 269.710938 0.433594 270.761719 0.332031 271.816406 C 0.226562 272.871094 0.148438 273.925781 0.0976562 274.980469 C 0.046875 276.039062 0.0195312 277.097656 0.0195312 278.15625 C 0.0195312 279.214844 0.046875 280.273438 0.0976562 281.332031 C 0.148438 282.386719 0.226562 283.441406 0.332031 284.496094 C 0.433594 285.550781 0.5625 286.601562 0.71875 287.648438 C 0.875 288.695312 1.054688 289.738281 1.261719 290.777344 C 1.46875 291.8125 1.699219 292.847656 1.957031 293.875 C 2.214844 294.902344 2.496094 295.921875 2.804688 296.933594 C 3.109375 297.945312 3.441406 298.953125 3.796875 299.949219 C 4.15625 300.945312 4.535156 301.933594 4.941406 302.910156 C 5.34375 303.890625 5.773438 304.855469 6.226562 305.8125 C 6.679688 306.769531 7.15625 307.714844 7.652344 308.648438 C 8.152344 309.582031 8.671875 310.503906 9.21875 311.414062 C 9.761719 312.320312 10.328125 313.214844 10.914062 314.09375 C 11.503906 314.976562 12.113281 315.839844 12.742188 316.691406 C 13.371094 317.539062 14.023438 318.375 14.695312 319.195312 C 15.367188 320.011719 16.054688 320.8125 16.765625 321.597656 C 17.476562 322.382812 18.207031 323.148438 18.953125 323.898438 C 19.703125 324.644531 20.46875 325.375 21.253906 326.085938 C 22.035156 326.796875 22.835938 327.488281 23.65625 328.160156 C 24.472656 328.832031 25.308594 329.484375 26.15625 330.113281 C 27.007812 330.746094 27.871094 331.355469 28.75 331.941406 C 29.632812 332.53125 30.523438 333.097656 31.433594 333.640625 C 32.339844 334.183594 33.261719 334.707031 34.191406 335.207031 C 35.125 335.703125 36.070312 336.179688 37.027344 336.632812 C 37.984375 337.085938 38.949219 337.515625 39.929688 337.917969 C 40.90625 338.324219 41.890625 338.707031 42.886719 339.0625 C 43.882812 339.417969 44.890625 339.75 45.902344 340.058594 C 46.914062 340.367188 47.933594 340.648438 48.960938 340.90625 C 49.984375 341.164062 51.019531 341.394531 52.054688 341.601562 C 53.09375 341.808594 54.136719 341.988281 55.183594 342.144531 C 56.230469 342.300781 57.277344 342.429688 58.332031 342.53125 C 59.382812 342.636719 60.4375 342.714844 61.496094 342.765625 C 62.550781 342.816406 63.609375 342.84375 64.667969 342.84375 Z M 85.421875 241.21875 L 104.816406 260.625 L 95.632812 269.8125 L 76.238281 250.40625 Z M 100.226562 313.734375 L 87.296875 313.734375 C 87.234375 313.046875 87.144531 312.367188 87.019531 311.6875 C 86.894531 311.011719 86.734375 310.34375 86.546875 309.679688 C 86.355469 309.019531 86.132812 308.367188 85.878906 307.726562 C 85.625 307.085938 85.34375 306.460938 85.027344 305.847656 C 84.714844 305.234375 84.371094 304.636719 84 304.058594 C 83.625 303.476562 83.226562 302.917969 82.800781 302.378906 C 82.375 301.835938 81.921875 301.316406 81.445312 300.820312 C 80.96875 300.324219 80.46875 299.851562 79.945312 299.402344 C 79.421875 298.953125 78.878906 298.53125 78.316406 298.136719 C 77.753906 297.742188 77.171875 297.375 76.570312 297.035156 C 75.972656 296.695312 75.359375 296.386719 74.730469 296.109375 C 74.101562 295.828125 73.457031 295.582031 72.804688 295.363281 C 72.152344 295.144531 71.488281 294.960938 70.820312 294.808594 C 70.148438 294.65625 69.46875 294.535156 68.785156 294.449219 C 68.105469 294.363281 67.417969 294.308594 66.730469 294.289062 C 66.042969 294.269531 65.355469 294.28125 64.667969 294.328125 C 63.980469 294.28125 63.292969 294.269531 62.605469 294.289062 C 61.917969 294.308594 61.230469 294.363281 60.550781 294.449219 C 59.867188 294.535156 59.1875 294.65625 58.519531 294.808594 C 57.847656 294.960938 57.183594 295.144531 56.53125 295.363281 C 55.878906 295.582031 55.234375 295.828125 54.605469 296.109375 C 53.976562 296.386719 53.363281 296.695312 52.765625 297.035156 C 52.164062 297.375 51.582031 297.742188 51.019531 298.136719 C 50.457031 298.53125 49.914062 298.953125 49.390625 299.402344 C 48.867188 299.851562 48.367188 300.324219 47.890625 300.820312 C 47.414062 301.316406 46.960938 301.835938 46.535156 302.378906 C 46.109375 302.917969 45.710938 303.476562 45.335938 304.058594 C 44.964844 304.636719 44.621094 305.234375 44.308594 305.847656 C 43.992188 306.460938 43.710938 307.085938 43.457031 307.726562 C 43.203125 308.367188 42.980469 309.019531 42.789062 309.679688 C 42.601562 310.34375 42.441406 311.011719 42.316406 311.6875 C 42.191406 312.367188 42.101562 313.046875 42.042969 313.734375 L 29.113281 313.734375 C 29.167969 312.621094 29.277344 311.515625 29.441406 310.417969 C 29.605469 309.316406 29.824219 308.226562 30.09375 307.148438 C 30.363281 306.066406 30.6875 305.003906 31.0625 303.957031 C 31.4375 302.910156 31.863281 301.882812 32.335938 300.875 C 32.8125 299.871094 33.335938 298.890625 33.90625 297.933594 C 34.476562 296.980469 35.09375 296.054688 35.757812 295.160156 C 36.417969 294.269531 37.121094 293.40625 37.867188 292.582031 C 38.613281 291.757812 39.398438 290.96875 40.21875 290.222656 C 41.042969 289.472656 41.902344 288.765625 42.792969 288.101562 C 43.683594 287.4375 44.605469 286.820312 45.558594 286.246094 C 46.511719 285.671875 47.492188 285.144531 48.496094 284.664062 C 49.5 284.1875 50.523438 283.757812 51.570312 283.382812 C 52.617188 283.003906 53.675781 282.679688 54.753906 282.402344 C 55.832031 282.128906 56.921875 281.910156 58.019531 281.742188 C 59.121094 281.574219 60.226562 281.460938 61.335938 281.402344 C 62.445312 281.34375 63.558594 281.339844 64.667969 281.390625 C 65.777344 281.339844 66.890625 281.34375 68 281.402344 C 69.109375 281.460938 70.214844 281.574219 71.316406 281.742188 C 72.414062 281.910156 73.503906 282.128906 74.582031 282.402344 C 75.660156 282.679688 76.71875 283.003906 77.765625 283.382812 C 78.8125 283.757812 79.835938 284.1875 80.839844 284.664062 C 81.84375 285.144531 82.824219 285.671875 83.777344 286.246094 C 84.730469 286.820312 85.652344 287.4375 86.542969 288.101562 C 87.433594 288.765625 88.292969 289.472656 89.117188 290.222656 C 89.9375 290.96875 90.722656 291.757812 91.46875 292.582031 C 92.214844 293.40625 92.917969 294.269531 93.578125 295.160156 C 94.242188 296.054688 94.859375 296.980469 95.429688 297.933594 C 96 298.890625 96.523438 299.871094 97 300.875 C 97.472656 301.882812 97.898438 302.910156 98.273438 303.957031 C 98.648438 305.003906 98.972656 306.066406 99.242188 307.148438 C 99.511719 308.226562 99.730469 309.316406 99.894531 310.417969 C 100.058594 311.515625 100.167969 312.621094 100.226562 313.734375 Z M 43.914062 241.21875 L 53.097656 250.40625 L 33.703125 269.8125 L 24.519531 260.625 Z M 43.914062 241.21875 " fill-opacity="1" fill-rule="nonzero"/></g><path fill="#000000" d="M 310.332031 310.5 C 311.433594 310.539062 312.53125 310.496094 313.628906 310.378906 C 314.722656 310.257812 315.804688 310.058594 316.871094 309.777344 C 317.9375 309.5 318.976562 309.148438 319.992188 308.71875 C 321.007812 308.289062 321.984375 307.789062 322.929688 307.21875 C 323.871094 306.644531 324.765625 306.007812 325.617188 305.308594 C 326.46875 304.605469 327.261719 303.84375 328 303.027344 C 328.742188 302.210938 329.417969 301.34375 330.03125 300.429688 C 330.644531 299.511719 331.191406 298.558594 331.664062 297.5625 L 289 297.5625 C 289.472656 298.558594 290.019531 299.511719 290.632812 300.429688 C 291.246094 301.34375 291.921875 302.210938 292.664062 303.027344 C 293.402344 303.84375 294.195312 304.605469 295.046875 305.308594 C 295.898438 306.007812 296.792969 306.644531 297.734375 307.21875 C 298.679688 307.789062 299.65625 308.289062 300.671875 308.71875 C 301.6875 309.148438 302.726562 309.5 303.792969 309.777344 C 304.859375 310.058594 305.941406 310.257812 307.035156 310.378906 C 308.132812 310.496094 309.230469 310.539062 310.332031 310.5 Z M 310.332031 310.5 " fill-opacity="1" fill-rule="nonzero"/><g clip-path="url(#57ea911160)"><path fill="#000000" d="M 310.332031 342.84375 C 311.390625 342.84375 312.449219 342.816406 313.503906 342.765625 C 314.5625 342.714844 315.617188 342.636719 316.667969 342.53125 C 317.722656 342.429688 318.769531 342.300781 319.816406 342.144531 C 320.863281 341.988281 321.90625 341.808594 322.945312 341.601562 C 323.980469 341.394531 325.015625 341.164062 326.039062 340.90625 C 327.066406 340.648438 328.085938 340.367188 329.097656 340.058594 C 330.109375 339.75 331.113281 339.417969 332.113281 339.0625 C 333.109375 338.707031 334.09375 338.324219 335.070312 337.917969 C 336.050781 337.515625 337.015625 337.085938 337.972656 336.632812 C 338.929688 336.179688 339.875 335.703125 340.808594 335.207031 C 341.738281 334.707031 342.660156 334.183594 343.566406 333.640625 C 344.476562 333.097656 345.367188 332.53125 346.25 331.941406 C 347.128906 331.355469 347.992188 330.746094 348.84375 330.113281 C 349.691406 329.484375 350.527344 328.832031 351.34375 328.160156 C 352.164062 327.488281 352.964844 326.796875 353.746094 326.085938 C 354.53125 325.375 355.296875 324.644531 356.046875 323.898438 C 356.792969 323.148438 357.523438 322.382812 358.234375 321.597656 C 358.945312 320.8125 359.632812 320.011719 360.304688 319.195312 C 360.976562 318.375 361.628906 317.539062 362.257812 316.691406 C 362.886719 315.839844 363.496094 314.976562 364.085938 314.09375 C 364.671875 313.214844 365.238281 312.320312 365.78125 311.414062 C 366.328125 310.503906 366.847656 309.582031 367.347656 308.648438 C 367.84375 307.714844 368.320312 306.769531 368.773438 305.8125 C 369.226562 304.855469 369.65625 303.890625 370.058594 302.910156 C 370.464844 301.933594 370.84375 300.945312 371.203125 299.949219 C 371.558594 298.953125 371.890625 297.945312 372.195312 296.933594 C 372.503906 295.921875 372.785156 294.902344 373.042969 293.875 C 373.300781 292.847656 373.53125 291.8125 373.738281 290.777344 C 373.945312 289.738281 374.125 288.695312 374.28125 287.648438 C 374.4375 286.601562 374.566406 285.550781 374.667969 284.496094 C 374.773438 283.441406 374.851562 282.386719 374.902344 281.332031 C 374.953125 280.273438 374.980469 279.214844 374.980469 278.15625 C 374.980469 277.097656 374.953125 276.039062 374.902344 274.980469 C 374.851562 273.925781 374.773438 272.871094 374.667969 271.816406 C 374.566406 270.761719 374.4375 269.710938 374.28125 268.664062 C 374.125 267.617188 373.945312 266.574219 373.738281 265.535156 C 373.53125 264.496094 373.300781 263.464844 373.042969 262.4375 C 372.785156 261.410156 372.503906 260.390625 372.195312 259.378906 C 371.890625 258.367188 371.558594 257.359375 371.203125 256.363281 C 370.84375 255.367188 370.464844 254.378906 370.058594 253.402344 C 369.65625 252.421875 369.226562 251.457031 368.773438 250.5 C 368.320312 249.542969 367.84375 248.597656 367.347656 247.664062 C 366.847656 246.730469 366.328125 245.808594 365.78125 244.898438 C 365.238281 243.992188 364.671875 243.097656 364.085938 242.21875 C 363.496094 241.335938 362.886719 240.472656 362.257812 239.621094 C 361.628906 238.773438 360.976562 237.9375 360.304688 237.117188 C 359.632812 236.300781 358.945312 235.5 358.234375 234.714844 C 357.523438 233.929688 356.792969 233.164062 356.046875 232.414062 C 355.296875 231.667969 354.53125 230.9375 353.746094 230.226562 C 352.964844 229.515625 352.164062 228.824219 351.34375 228.152344 C 350.527344 227.480469 349.691406 226.828125 348.84375 226.199219 C 347.992188 225.566406 347.128906 224.957031 346.25 224.371094 C 345.367188 223.78125 344.476562 223.214844 343.566406 222.671875 C 342.660156 222.128906 341.738281 221.605469 340.808594 221.105469 C 339.875 220.609375 338.929688 220.132812 337.972656 219.679688 C 337.015625 219.226562 336.050781 218.796875 335.070312 218.394531 C 334.09375 217.988281 333.109375 217.605469 332.113281 217.25 C 331.113281 216.894531 330.109375 216.5625 329.097656 216.253906 C 328.085938 215.945312 327.066406 215.664062 326.039062 215.40625 C 325.015625 215.148438 323.980469 214.917969 322.945312 214.710938 C 321.90625 214.503906 320.863281 214.324219 319.816406 214.167969 C 318.769531 214.011719 317.722656 213.882812 316.667969 213.78125 C 315.617188 213.675781 314.5625 213.597656 313.503906 213.546875 C 312.449219 213.496094 311.390625 213.46875 310.332031 213.46875 C 309.273438 213.46875 308.214844 213.496094 307.160156 213.546875 C 306.101562 213.597656 305.046875 213.675781 303.996094 213.78125 C 302.941406 213.882812 301.894531 214.011719 300.847656 214.167969 C 299.800781 214.324219 298.757812 214.503906 297.71875 214.710938 C 296.683594 214.917969 295.648438 215.148438 294.625 215.40625 C 293.597656 215.664062 292.578125 215.945312 291.566406 216.253906 C 290.554688 216.5625 289.546875 216.894531 288.550781 217.25 C 287.554688 217.605469 286.570312 217.988281 285.59375 218.394531 C 284.613281 218.796875 283.648438 219.226562 282.691406 219.679688 C 281.734375 220.132812 280.789062 220.609375 279.855469 221.105469 C 278.921875 221.605469 278.003906 222.128906 277.097656 222.671875 C 276.1875 223.214844 275.296875 223.78125 274.414062 224.371094 C 273.535156 224.957031 272.671875 225.566406 271.820312 226.199219 C 270.972656 226.828125 270.136719 227.480469 269.320312 228.152344 C 268.5 228.824219 267.699219 229.515625 266.917969 230.226562 C 266.132812 230.9375 265.367188 231.667969 264.617188 232.414062 C 263.871094 233.164062 263.140625 233.929688 262.429688 234.714844 C 261.71875 235.5 261.027344 236.300781 260.359375 237.117188 C 259.6875 237.9375 259.035156 238.773438 258.40625 239.621094 C 257.777344 240.472656 257.167969 241.335938 256.578125 242.21875 C 255.992188 243.097656 255.425781 243.992188 254.882812 244.898438 C 254.335938 245.808594 253.816406 246.730469 253.316406 247.664062 C 252.820312 248.597656 252.34375 249.542969 251.890625 250.5 C 251.4375 251.457031 251.007812 252.421875 250.605469 253.402344 C 250.199219 254.378906 249.820312 255.367188 249.460938 256.363281 C 249.105469 257.359375 248.773438 258.367188 248.46875 259.378906 C 248.160156 260.390625 247.878906 261.410156 247.621094 262.4375 C 247.363281 263.464844 247.132812 264.496094 246.925781 265.535156 C 246.71875 266.574219 246.539062 267.617188 246.382812 268.664062 C 246.226562 269.710938 246.097656 270.761719 245.996094 271.816406 C 245.890625 272.871094 245.8125 273.925781 245.761719 274.980469 C 245.710938 276.039062 245.683594 277.097656 245.683594 278.15625 C 245.683594 279.214844 245.710938 280.273438 245.761719 281.332031 C 245.8125 282.386719 245.890625 283.441406 245.996094 284.496094 C 246.097656 285.550781 246.226562 286.601562 246.382812 287.648438 C 246.539062 288.695312 246.71875 289.738281 246.925781 290.777344 C 247.132812 291.8125 247.363281 292.847656 247.621094 293.875 C 247.878906 294.902344 248.160156 295.921875 248.46875 296.933594 C 248.773438 297.945312 249.105469 298.953125 249.460938 299.949219 C 249.820312 300.945312 250.199219 301.933594 250.605469 302.910156 C 251.007812 303.890625 251.4375 304.855469 251.890625 305.8125 C 252.34375 306.769531 252.820312 307.714844 253.316406 308.648438 C 253.816406 309.582031 254.335938 310.503906 254.882812 311.414062 C 255.425781 312.320312 255.992188 313.214844 256.578125 314.09375 C 257.167969 314.976562 257.777344 315.839844 258.40625 316.691406 C 259.035156 317.539062 259.6875 318.375 260.359375 319.195312 C 261.027344 320.011719 261.71875 320.8125 262.429688 321.597656 C 263.140625 322.382812 263.871094 323.148438 264.617188 323.898438 C 265.367188 324.644531 266.132812 325.375 266.917969 326.085938 C 267.699219 326.796875 268.5 327.488281 269.320312 328.160156 C 270.136719 328.832031 270.972656 329.484375 271.820312 330.113281 C 272.671875 330.746094 273.535156 331.355469 274.414062 331.941406 C 275.296875 332.53125 276.1875 333.097656 277.097656 333.640625 C 278.003906 334.183594 278.925781 334.707031 279.855469 335.207031 C 280.789062 335.703125 281.734375 336.179688 282.691406 336.632812 C 283.648438 337.085938 284.613281 337.515625 285.59375 337.917969 C 286.570312 338.324219 287.554688 338.707031 288.550781 339.0625 C 289.546875 339.417969 290.554688 339.75 291.566406 340.058594 C 292.578125 340.367188 293.597656 340.648438 294.625 340.90625 C 295.648438 341.164062 296.683594 341.394531 297.71875 341.601562 C 298.757812 341.808594 299.800781 341.988281 300.847656 342.144531 C 301.894531 342.300781 302.941406 342.429688 303.996094 342.53125 C 305.046875 342.636719 306.101562 342.714844 307.160156 342.765625 C 308.214844 342.816406 309.273438 342.84375 310.332031 342.84375 Z M 339.421875 249.046875 C 340.164062 249.046875 340.902344 249.082031 341.640625 249.15625 C 342.378906 249.230469 343.109375 249.335938 343.839844 249.480469 C 344.566406 249.625 345.28125 249.804688 345.992188 250.023438 C 346.703125 250.238281 347.398438 250.488281 348.082031 250.769531 C 348.765625 251.054688 349.4375 251.371094 350.089844 251.71875 C 350.742188 252.070312 351.378906 252.449219 351.996094 252.863281 C 352.609375 253.273438 353.207031 253.714844 353.777344 254.1875 C 354.351562 254.65625 354.898438 255.152344 355.421875 255.679688 C 355.949219 256.203125 356.445312 256.75 356.914062 257.324219 C 357.386719 257.898438 357.824219 258.492188 358.238281 259.109375 C 358.648438 259.726562 359.03125 260.359375 359.378906 261.015625 C 359.726562 261.667969 360.042969 262.339844 360.328125 263.023438 C 360.613281 263.707031 360.863281 264.40625 361.078125 265.113281 C 361.292969 265.824219 361.472656 266.542969 361.617188 267.269531 C 361.761719 267.996094 361.871094 268.730469 361.941406 269.46875 C 362.015625 270.207031 362.050781 270.945312 362.050781 271.6875 L 349.121094 271.6875 C 349.121094 271.050781 349.058594 270.417969 348.933594 269.792969 C 348.808594 269.167969 348.625 268.5625 348.382812 267.972656 C 348.140625 267.386719 347.839844 266.828125 347.488281 266.296875 C 347.132812 265.765625 346.730469 265.277344 346.28125 264.828125 C 345.832031 264.375 345.339844 263.972656 344.8125 263.621094 C 344.28125 263.265625 343.722656 262.964844 343.132812 262.722656 C 342.546875 262.480469 341.941406 262.296875 341.316406 262.171875 C 340.691406 262.046875 340.058594 261.984375 339.421875 261.984375 C 338.785156 261.984375 338.15625 262.046875 337.53125 262.171875 C 336.90625 262.296875 336.300781 262.480469 335.710938 262.722656 C 335.125 262.964844 334.566406 263.265625 334.035156 263.621094 C 333.507812 263.972656 333.015625 264.375 332.566406 264.828125 C 332.117188 265.277344 331.714844 265.765625 331.359375 266.296875 C 331.007812 266.828125 330.707031 267.386719 330.464844 267.972656 C 330.222656 268.5625 330.035156 269.167969 329.914062 269.792969 C 329.789062 270.417969 329.726562 271.050781 329.726562 271.6875 L 316.796875 271.6875 C 316.796875 270.945312 316.832031 270.207031 316.90625 269.46875 C 316.976562 268.730469 317.085938 267.996094 317.230469 267.269531 C 317.375 266.542969 317.554688 265.824219 317.769531 265.117188 C 317.984375 264.40625 318.234375 263.707031 318.519531 263.023438 C 318.804688 262.339844 319.121094 261.667969 319.46875 261.015625 C 319.816406 260.359375 320.199219 259.726562 320.609375 259.109375 C 321.023438 258.492188 321.460938 257.898438 321.933594 257.324219 C 322.402344 256.75 322.898438 256.203125 323.425781 255.679688 C 323.949219 255.152344 324.496094 254.65625 325.070312 254.1875 C 325.640625 253.714844 326.238281 253.273438 326.851562 252.863281 C 327.46875 252.449219 328.105469 252.070312 328.757812 251.71875 C 329.410156 251.371094 330.082031 251.054688 330.765625 250.769531 C 331.449219 250.488281 332.144531 250.238281 332.855469 250.023438 C 333.566406 249.804688 334.28125 249.625 335.007812 249.480469 C 335.738281 249.335938 336.46875 249.230469 337.207031 249.15625 C 337.945312 249.082031 338.683594 249.046875 339.421875 249.046875 Z M 339.421875 284.625 C 339.847656 284.625 340.269531 284.667969 340.683594 284.75 C 341.101562 284.832031 341.503906 284.953125 341.898438 285.117188 C 342.289062 285.28125 342.664062 285.480469 343.015625 285.714844 C 343.367188 285.949219 343.695312 286.21875 343.996094 286.519531 C 344.296875 286.820312 344.5625 287.148438 344.800781 287.5 C 345.035156 287.851562 345.234375 288.226562 345.398438 288.617188 C 345.558594 289.011719 345.679688 289.414062 345.765625 289.832031 C 345.847656 290.25 345.886719 290.667969 345.886719 291.09375 C 345.792969 292.195312 345.648438 293.289062 345.453125 294.378906 C 345.257812 295.46875 345.011719 296.546875 344.71875 297.609375 C 344.421875 298.675781 344.078125 299.726562 343.683594 300.757812 C 343.289062 301.792969 342.851562 302.804688 342.363281 303.800781 C 341.875 304.792969 341.34375 305.757812 340.765625 306.703125 C 340.1875 307.644531 339.570312 308.558594 338.90625 309.445312 C 338.246094 310.332031 337.542969 311.183594 336.800781 312.003906 C 336.0625 312.824219 335.28125 313.609375 334.46875 314.359375 C 333.65625 315.105469 332.808594 315.8125 331.929688 316.484375 C 331.046875 317.152344 330.140625 317.78125 329.199219 318.363281 C 328.261719 318.949219 327.300781 319.488281 326.3125 319.984375 C 325.324219 320.480469 324.3125 320.929688 323.285156 321.328125 C 322.253906 321.730469 321.207031 322.082031 320.144531 322.386719 C 319.082031 322.691406 318.007812 322.945312 316.921875 323.148438 C 315.835938 323.355469 314.742188 323.507812 313.640625 323.609375 C 312.539062 323.714844 311.4375 323.765625 310.332031 323.765625 C 309.226562 323.765625 308.125 323.714844 307.023438 323.609375 C 305.921875 323.507812 304.828125 323.355469 303.742188 323.148438 C 302.65625 322.945312 301.582031 322.691406 300.519531 322.386719 C 299.457031 322.082031 298.410156 321.730469 297.378906 321.328125 C 296.351562 320.929688 295.339844 320.480469 294.351562 319.984375 C 293.363281 319.488281 292.402344 318.949219 291.464844 318.363281 C 290.523438 317.78125 289.617188 317.152344 288.734375 316.484375 C 287.855469 315.8125 287.007812 315.105469 286.195312 314.359375 C 285.382812 313.609375 284.601562 312.824219 283.863281 312.003906 C 283.121094 311.183594 282.417969 310.332031 281.757812 309.445312 C 281.09375 308.558594 280.476562 307.644531 279.898438 306.703125 C 279.320312 305.757812 278.789062 304.792969 278.300781 303.800781 C 277.8125 302.804688 277.375 301.792969 276.980469 300.757812 C 276.585938 299.726562 276.242188 298.675781 275.945312 297.609375 C 275.652344 296.546875 275.40625 295.46875 275.210938 294.378906 C 275.015625 293.289062 274.871094 292.195312 274.773438 291.09375 C 274.773438 290.667969 274.816406 290.25 274.898438 289.832031 C 274.980469 289.414062 275.105469 289.011719 275.265625 288.617188 C 275.429688 288.226562 275.628906 287.851562 275.863281 287.5 C 276.101562 287.148438 276.367188 286.820312 276.667969 286.519531 C 276.96875 286.21875 277.296875 285.949219 277.648438 285.714844 C 278 285.480469 278.375 285.28125 278.765625 285.117188 C 279.160156 284.953125 279.5625 284.832031 279.980469 284.75 C 280.394531 284.667969 280.816406 284.625 281.238281 284.625 Z M 281.238281 249.046875 C 281.980469 249.046875 282.71875 249.082031 283.457031 249.15625 C 284.195312 249.230469 284.925781 249.335938 285.65625 249.480469 C 286.382812 249.625 287.097656 249.804688 287.808594 250.023438 C 288.519531 250.238281 289.214844 250.488281 289.898438 250.769531 C 290.582031 251.054688 291.253906 251.371094 291.90625 251.71875 C 292.558594 252.070312 293.195312 252.449219 293.8125 252.863281 C 294.425781 253.273438 295.023438 253.714844 295.59375 254.1875 C 296.167969 254.65625 296.714844 255.152344 297.238281 255.679688 C 297.765625 256.203125 298.261719 256.75 298.730469 257.324219 C 299.203125 257.898438 299.640625 258.492188 300.054688 259.109375 C 300.464844 259.726562 300.847656 260.359375 301.195312 261.015625 C 301.542969 261.667969 301.859375 262.339844 302.144531 263.023438 C 302.429688 263.707031 302.679688 264.40625 302.894531 265.113281 C 303.109375 265.824219 303.289062 266.542969 303.433594 267.269531 C 303.578125 267.996094 303.6875 268.730469 303.757812 269.46875 C 303.832031 270.207031 303.867188 270.945312 303.867188 271.6875 L 290.9375 271.6875 C 290.9375 271.050781 290.875 270.417969 290.75 269.792969 C 290.625 269.167969 290.441406 268.5625 290.199219 267.972656 C 289.957031 267.386719 289.65625 266.828125 289.304688 266.296875 C 288.949219 265.765625 288.546875 265.277344 288.097656 264.828125 C 287.648438 264.375 287.15625 263.972656 286.628906 263.621094 C 286.097656 263.265625 285.539062 262.964844 284.953125 262.722656 C 284.363281 262.480469 283.757812 262.296875 283.132812 262.171875 C 282.507812 262.046875 281.878906 261.984375 281.238281 261.984375 C 280.601562 261.984375 279.972656 262.046875 279.347656 262.171875 C 278.722656 262.296875 278.117188 262.480469 277.527344 262.722656 C 276.941406 262.964844 276.382812 263.265625 275.851562 263.621094 C 275.324219 263.972656 274.832031 264.375 274.382812 264.828125 C 273.933594 265.277344 273.53125 265.765625 273.175781 266.296875 C 272.824219 266.828125 272.523438 267.386719 272.28125 267.972656 C 272.039062 268.5625 271.851562 269.167969 271.730469 269.792969 C 271.605469 270.417969 271.542969 271.050781 271.542969 271.6875 L 258.613281 271.6875 C 258.613281 270.945312 258.648438 270.207031 258.722656 269.46875 C 258.792969 268.730469 258.902344 267.996094 259.046875 267.269531 C 259.191406 266.542969 259.371094 265.824219 259.585938 265.117188 C 259.804688 264.40625 260.050781 263.707031 260.335938 263.023438 C 260.621094 262.339844 260.9375 261.667969 261.285156 261.015625 C 261.632812 260.359375 262.015625 259.726562 262.425781 259.109375 C 262.839844 258.492188 263.277344 257.898438 263.75 257.324219 C 264.21875 256.75 264.714844 256.203125 265.242188 255.679688 C 265.765625 255.152344 266.3125 254.65625 266.886719 254.1875 C 267.457031 253.714844 268.054688 253.273438 268.667969 252.863281 C 269.285156 252.449219 269.921875 252.070312 270.574219 251.71875 C 271.226562 251.371094 271.898438 251.054688 272.582031 250.769531 C 273.265625 250.488281 273.960938 250.238281 274.671875 250.023438 C 275.382812 249.804688 276.097656 249.625 276.824219 249.480469 C 277.554688 249.335938 278.285156 249.230469 279.023438 249.15625 C 279.761719 249.082031 280.5 249.046875 281.238281 249.046875 Z M 281.238281 249.046875 " fill-opacity="1" fill-rule="nonzero"/></g><path fill="#000000" d="M 182.929688 331.792969 L 221.742188 292.957031 L 230.886719 302.105469 L 192.074219 340.941406 Z M 182.929688 331.792969 " fill-opacity="1" fill-rule="nonzero"/><path fill="#000000" d="M 169.398438 210.882812 L 179.742188 203.117188 L 218.53125 254.867188 L 208.1875 262.632812 Z M 169.398438 210.882812 " fill-opacity="1" fill-rule="nonzero"/><path fill="#000000" d="M 158.730469 277.480469 L 164.515625 265.910156 L 190.359375 278.84375 L 184.578125 290.414062 Z M 158.730469 277.480469 " fill-opacity="1" fill-rule="nonzero"/><g clip-path="url(#d013e0fea7)"><path fill="#000000" d="M 103.457031 135.84375 L 129.316406 135.84375 L 96.992188 187.59375 L 200.429688 135.84375 L 219.824219 135.84375 C 220.671875 135.84375 221.515625 135.761719 222.347656 135.59375 C 223.179688 135.429688 223.988281 135.183594 224.773438 134.859375 C 225.554688 134.535156 226.300781 134.136719 227.007812 133.664062 C 227.714844 133.191406 228.367188 132.65625 228.96875 132.054688 C 229.566406 131.453125 230.101562 130.800781 230.574219 130.09375 C 231.046875 129.386719 231.445312 128.640625 231.769531 127.855469 C 232.09375 127.074219 232.339844 126.261719 232.503906 125.429688 C 232.671875 124.597656 232.753906 123.753906 232.753906 122.90625 L 232.753906 45.28125 C 232.753906 44.433594 232.671875 43.589844 232.503906 42.757812 C 232.339844 41.925781 232.09375 41.113281 231.769531 40.332031 C 231.445312 39.546875 231.046875 38.800781 230.574219 38.09375 C 230.101562 37.386719 229.566406 36.734375 228.96875 36.132812 C 228.367188 35.53125 227.714844 34.996094 227.007812 34.523438 C 226.300781 34.050781 225.554688 33.652344 224.773438 33.328125 C 223.988281 33.003906 223.179688 32.757812 222.347656 32.59375 C 221.515625 32.425781 220.671875 32.34375 219.824219 32.34375 L 103.457031 32.34375 C 102.609375 32.34375 101.765625 32.425781 100.933594 32.59375 C 100.101562 32.757812 99.292969 33.003906 98.507812 33.328125 C 97.726562 33.652344 96.980469 34.050781 96.273438 34.523438 C 95.566406 34.996094 94.914062 35.53125 94.3125 36.132812 C 93.714844 36.734375 93.179688 37.386719 92.707031 38.09375 C 92.234375 38.800781 91.835938 39.546875 91.511719 40.332031 C 91.1875 41.113281 90.941406 41.925781 90.777344 42.757812 C 90.609375 43.589844 90.527344 44.433594 90.527344 45.28125 L 90.527344 122.90625 C 90.527344 123.753906 90.609375 124.597656 90.777344 125.429688 C 90.941406 126.261719 91.1875 127.074219 91.511719 127.855469 C 91.835938 128.640625 92.234375 129.386719 92.707031 130.09375 C 93.179688 130.800781 93.714844 131.453125 94.3125 132.054688 C 94.914062 132.65625 95.566406 133.191406 96.273438 133.664062 C 96.980469 134.136719 97.726562 134.535156 98.507812 134.859375 C 99.292969 135.183594 100.101562 135.429688 100.933594 135.59375 C 101.765625 135.761719 102.609375 135.84375 103.457031 135.84375 Z M 189.375 47.15625 L 198.554688 56.34375 L 179.160156 75.75 L 169.980469 66.5625 Z M 197.195312 119.671875 L 184.265625 119.671875 C 184.207031 118.984375 184.117188 118.304688 183.992188 117.625 C 183.867188 116.949219 183.707031 116.28125 183.519531 115.617188 C 183.328125 114.957031 183.105469 114.304688 182.851562 113.664062 C 182.597656 113.023438 182.316406 112.398438 182 111.785156 C 181.6875 111.171875 181.34375 110.574219 180.972656 109.996094 C 180.597656 109.414062 180.199219 108.855469 179.773438 108.316406 C 179.347656 107.773438 178.894531 107.253906 178.417969 106.757812 C 177.941406 106.261719 177.441406 105.789062 176.917969 105.339844 C 176.394531 104.890625 175.851562 104.46875 175.289062 104.074219 C 174.726562 103.679688 174.144531 103.3125 173.542969 102.972656 C 172.945312 102.632812 172.332031 102.324219 171.703125 102.046875 C 171.074219 101.765625 170.429688 101.519531 169.777344 101.300781 C 169.125 101.082031 168.460938 100.898438 167.792969 100.746094 C 167.121094 100.59375 166.441406 100.472656 165.757812 100.386719 C 165.078125 100.300781 164.390625 100.246094 163.703125 100.226562 C 163.015625 100.207031 162.328125 100.21875 161.640625 100.265625 C 160.953125 100.21875 160.265625 100.207031 159.578125 100.226562 C 158.890625 100.246094 158.203125 100.300781 157.523438 100.386719 C 156.839844 100.472656 156.160156 100.59375 155.488281 100.746094 C 154.820312 100.898438 154.15625 101.082031 153.503906 101.300781 C 152.851562 101.519531 152.207031 101.765625 151.578125 102.046875 C 150.949219 102.324219 150.335938 102.632812 149.738281 102.972656 C 149.136719 103.3125 148.554688 103.679688 147.992188 104.074219 C 147.429688 104.46875 146.886719 104.890625 146.363281 105.339844 C 145.839844 105.789062 145.339844 106.261719 144.863281 106.757812 C 144.386719 107.253906 143.933594 107.773438 143.507812 108.316406 C 143.082031 108.855469 142.683594 109.414062 142.308594 109.996094 C 141.9375 110.574219 141.59375 111.171875 141.28125 111.785156 C 140.964844 112.398438 140.683594 113.023438 140.429688 113.664062 C 140.175781 114.304688 139.953125 114.957031 139.761719 115.617188 C 139.574219 116.28125 139.414062 116.949219 139.289062 117.625 C 139.164062 118.304688 139.074219 118.984375 139.015625 119.671875 L 126.085938 119.671875 C 126.140625 118.5625 126.25 117.453125 126.414062 116.355469 C 126.578125 115.253906 126.796875 114.164062 127.066406 113.085938 C 127.335938 112.003906 127.660156 110.941406 128.035156 109.894531 C 128.410156 108.847656 128.835938 107.820312 129.308594 106.8125 C 129.785156 105.808594 130.308594 104.828125 130.878906 103.871094 C 131.449219 102.917969 132.066406 101.992188 132.730469 101.097656 C 133.390625 100.207031 134.09375 99.34375 134.839844 98.519531 C 135.585938 97.695312 136.371094 96.90625 137.191406 96.160156 C 138.015625 95.410156 138.875 94.703125 139.765625 94.039062 C 140.65625 93.375 141.578125 92.757812 142.53125 92.183594 C 143.484375 91.609375 144.464844 91.082031 145.46875 90.601562 C 146.472656 90.125 147.496094 89.695312 148.542969 89.320312 C 149.589844 88.941406 150.648438 88.617188 151.726562 88.339844 C 152.804688 88.066406 153.894531 87.847656 154.992188 87.679688 C 156.09375 87.511719 157.199219 87.398438 158.308594 87.339844 C 159.417969 87.28125 160.53125 87.277344 161.640625 87.328125 C 162.75 87.277344 163.863281 87.28125 164.972656 87.339844 C 166.082031 87.398438 167.1875 87.511719 168.289062 87.679688 C 169.386719 87.847656 170.476562 88.066406 171.554688 88.339844 C 172.632812 88.617188 173.691406 88.941406 174.738281 89.320312 C 175.785156 89.695312 176.808594 90.125 177.8125 90.601562 C 178.816406 91.082031 179.796875 91.609375 180.75 92.183594 C 181.703125 92.757812 182.625 93.375 183.515625 94.039062 C 184.40625 94.703125 185.265625 95.410156 186.089844 96.160156 C 186.910156 96.90625 187.695312 97.695312 188.441406 98.519531 C 189.1875 99.34375 189.890625 100.207031 190.550781 101.097656 C 191.214844 101.992188 191.832031 102.917969 192.402344 103.871094 C 192.972656 104.828125 193.496094 105.808594 193.972656 106.8125 C 194.445312 107.820312 194.871094 108.847656 195.246094 109.894531 C 195.621094 110.941406 195.945312 112.003906 196.214844 113.085938 C 196.484375 114.164062 196.703125 115.253906 196.867188 116.355469 C 197.03125 117.453125 197.140625 118.5625 197.195312 119.671875 Z M 133.90625 47.15625 L 153.300781 66.5625 L 144.121094 75.75 L 124.726562 56.34375 Z M 133.90625 47.15625 " fill-opacity="1" fill-rule="nonzero"/></g></svg>