<svg xmlns="http://www.w3.org/2000/svg" xmlns:xlink="http://www.w3.org/1999/xlink" width="500" zoomAndPan="magnify" viewBox="0 0 375 374.999991" height="500" preserveAspectRatio="xMidYMid meet" version="1.0"><path fill="#000000" d="M 107.675781 35.632812 L 136.433594 48.292969 C 136.796875 48.453125 137.171875 48.574219 137.558594 48.664062 C 137.945312 48.75 138.335938 48.796875 138.730469 48.804688 C 139.128906 48.816406 139.519531 48.785156 139.910156 48.71875 C 140.300781 48.652344 140.679688 48.546875 141.050781 48.402344 C 141.421875 48.261719 141.773438 48.082031 142.105469 47.871094 C 142.441406 47.660156 142.753906 47.414062 143.039062 47.140625 C 143.324219 46.867188 143.582031 46.570312 143.8125 46.246094 C 144.039062 45.921875 144.234375 45.578125 144.394531 45.21875 C 144.554688 44.855469 144.675781 44.480469 144.761719 44.09375 C 144.851562 43.707031 144.898438 43.316406 144.90625 42.921875 C 144.917969 42.523438 144.886719 42.132812 144.820312 41.742188 C 144.753906 41.351562 144.648438 40.96875 144.503906 40.601562 C 144.359375 40.230469 144.183594 39.878906 143.972656 39.546875 C 143.757812 39.210938 143.515625 38.898438 143.242188 38.613281 C 142.96875 38.328125 142.671875 38.070312 142.347656 37.839844 C 142.023438 37.613281 141.679688 37.417969 141.316406 37.257812 L 112.558594 24.71875 C 112.199219 24.558594 111.824219 24.433594 111.4375 24.347656 C 111.050781 24.261719 110.660156 24.210938 110.261719 24.203125 C 109.867188 24.195312 109.472656 24.222656 109.082031 24.289062 C 108.691406 24.359375 108.3125 24.464844 107.945312 24.605469 C 107.574219 24.75 107.222656 24.925781 106.886719 25.140625 C 106.554688 25.351562 106.242188 25.59375 105.957031 25.867188 C 105.667969 26.140625 105.410156 26.441406 105.183594 26.761719 C 104.957031 27.085938 104.761719 27.429688 104.601562 27.792969 C 104.449219 28.152344 104.335938 28.523438 104.253906 28.902344 C 104.175781 29.285156 104.132812 29.671875 104.128906 30.058594 C 104.125 30.449219 104.15625 30.835938 104.226562 31.21875 C 104.296875 31.601562 104.402344 31.976562 104.542969 32.335938 C 104.6875 32.699219 104.863281 33.046875 105.070312 33.375 C 105.28125 33.703125 105.519531 34.007812 105.789062 34.289062 C 106.058594 34.574219 106.351562 34.828125 106.667969 35.050781 C 106.984375 35.277344 107.320312 35.472656 107.675781 35.632812 Z M 107.675781 35.632812 " fill-opacity="1" fill-rule="nonzero"/><path fill="#000000" d="M 122.265625 73.554688 C 122.589844 73.785156 122.933594 73.980469 123.296875 74.144531 C 123.660156 74.308594 124.035156 74.433594 124.425781 74.523438 C 124.8125 74.613281 125.207031 74.660156 125.601562 74.671875 C 126 74.683594 126.394531 74.65625 126.789062 74.589844 C 127.179688 74.519531 127.5625 74.417969 127.933594 74.273438 C 128.304688 74.128906 128.660156 73.953125 128.996094 73.738281 C 129.332031 73.527344 129.644531 73.28125 129.933594 73.007812 C 130.222656 72.734375 130.480469 72.433594 130.707031 72.105469 C 130.9375 71.78125 131.136719 71.4375 131.300781 71.074219 C 131.460938 70.710938 131.589844 70.335938 131.675781 69.949219 C 131.765625 69.5625 131.816406 69.167969 131.828125 68.769531 C 131.839844 68.371094 131.808594 67.976562 131.742188 67.585938 C 131.675781 67.191406 131.570312 66.808594 131.425781 66.4375 C 131.285156 66.066406 131.105469 65.714844 130.894531 65.375 C 130.679688 65.039062 130.4375 64.726562 130.160156 64.441406 C 129.886719 64.152344 129.585938 63.894531 129.261719 63.664062 L 111.171875 51.003906 C 110.851562 50.773438 110.507812 50.578125 110.144531 50.414062 C 109.78125 50.25 109.40625 50.125 109.015625 50.035156 C 108.628906 49.945312 108.234375 49.894531 107.835938 49.886719 C 107.4375 49.875 107.042969 49.902344 106.652344 49.96875 C 106.257812 50.035156 105.878906 50.140625 105.507812 50.285156 C 105.132812 50.425781 104.78125 50.605469 104.445312 50.820312 C 104.109375 51.03125 103.796875 51.277344 103.507812 51.550781 C 103.21875 51.824219 102.960938 52.125 102.734375 52.453125 C 102.503906 52.777344 102.308594 53.121094 102.144531 53.488281 C 101.984375 53.851562 101.859375 54.230469 101.773438 54.617188 C 101.6875 55.007812 101.640625 55.402344 101.632812 55.800781 C 101.625 56.199219 101.65625 56.59375 101.726562 56.988281 C 101.792969 57.378906 101.902344 57.761719 102.046875 58.132812 C 102.195312 58.503906 102.375 58.855469 102.589844 59.191406 C 102.808594 59.527344 103.054688 59.835938 103.332031 60.125 C 103.609375 60.410156 103.910156 60.667969 104.242188 60.890625 Z M 122.265625 73.554688 " fill-opacity="1" fill-rule="nonzero"/><path fill="#000000" d="M 237.058594 48.292969 L 265.816406 35.632812 C 266.179688 35.472656 266.523438 35.277344 266.84375 35.050781 C 267.167969 34.820312 267.46875 34.5625 267.742188 34.277344 C 268.015625 33.992188 268.257812 33.679688 268.46875 33.34375 C 268.683594 33.011719 268.859375 32.660156 269.003906 32.289062 C 269.144531 31.917969 269.25 31.539062 269.320312 31.148438 C 269.386719 30.757812 269.414062 30.367188 269.40625 29.96875 C 269.398438 29.574219 269.347656 29.183594 269.261719 28.796875 C 269.175781 28.410156 269.050781 28.035156 268.890625 27.671875 C 268.726562 27.316406 268.527344 26.976562 268.292969 26.660156 C 268.0625 26.339844 267.800781 26.050781 267.511719 25.78125 C 267.222656 25.515625 266.910156 25.277344 266.578125 25.070312 C 266.242188 24.867188 265.886719 24.695312 265.519531 24.558594 C 265.152344 24.421875 264.773438 24.320312 264.382812 24.257812 C 263.996094 24.195312 263.601562 24.171875 263.210938 24.183594 C 262.816406 24.199219 262.429688 24.25 262.046875 24.339844 C 261.660156 24.429688 261.289062 24.554688 260.933594 24.71875 L 232.175781 37.378906 C 231.820312 37.539062 231.484375 37.734375 231.164062 37.957031 C 230.847656 38.183594 230.554688 38.4375 230.285156 38.71875 C 230.019531 39 229.777344 39.308594 229.570312 39.636719 C 229.359375 39.964844 229.183594 40.308594 229.042969 40.671875 C 228.898438 41.035156 228.792969 41.40625 228.722656 41.792969 C 228.652344 42.175781 228.621094 42.5625 228.625 42.949219 C 228.632812 43.339844 228.671875 43.726562 228.753906 44.105469 C 228.832031 44.488281 228.949219 44.859375 229.101562 45.21875 C 229.261719 45.578125 229.453125 45.921875 229.679688 46.246094 C 229.910156 46.570312 230.167969 46.871094 230.453125 47.144531 C 230.738281 47.417969 231.050781 47.660156 231.386719 47.871094 C 231.71875 48.082031 232.070312 48.261719 232.441406 48.402344 C 232.8125 48.546875 233.191406 48.652344 233.582031 48.71875 C 233.972656 48.789062 234.363281 48.816406 234.761719 48.808594 C 235.15625 48.796875 235.546875 48.75 235.933594 48.664062 C 236.320312 48.574219 236.695312 48.453125 237.058594 48.292969 Z M 237.058594 48.292969 " fill-opacity="1" fill-rule="nonzero"/><path fill="#000000" d="M 262.257812 51.003906 L 244.171875 63.664062 C 243.847656 63.894531 243.546875 64.152344 243.269531 64.441406 C 242.996094 64.726562 242.75 65.039062 242.539062 65.375 C 242.324219 65.714844 242.148438 66.066406 242.003906 66.4375 C 241.863281 66.808594 241.757812 67.191406 241.691406 67.585938 C 241.621094 67.976562 241.59375 68.371094 241.605469 68.769531 C 241.617188 69.167969 241.667969 69.5625 241.753906 69.949219 C 241.84375 70.335938 241.96875 70.710938 242.132812 71.074219 C 242.296875 71.4375 242.492188 71.78125 242.726562 72.105469 C 242.953125 72.429688 243.210938 72.722656 243.496094 72.996094 C 243.785156 73.265625 244.09375 73.507812 244.425781 73.71875 C 244.761719 73.929688 245.113281 74.105469 245.480469 74.246094 C 245.847656 74.386719 246.226562 74.492188 246.617188 74.558594 C 247.003906 74.625 247.398438 74.65625 247.792969 74.644531 C 248.1875 74.636719 248.574219 74.585938 248.960938 74.5 C 249.34375 74.414062 249.71875 74.292969 250.078125 74.132812 C 250.441406 73.972656 250.78125 73.78125 251.105469 73.554688 L 269.191406 60.832031 C 269.515625 60.605469 269.816406 60.351562 270.089844 60.066406 C 270.363281 59.78125 270.605469 59.472656 270.820312 59.140625 C 271.035156 58.808594 271.210938 58.457031 271.355469 58.089844 C 271.5 57.722656 271.609375 57.34375 271.679688 56.953125 C 271.746094 56.566406 271.78125 56.171875 271.773438 55.777344 C 271.765625 55.382812 271.71875 54.992188 271.636719 54.605469 C 271.550781 54.21875 271.429688 53.84375 271.273438 53.484375 C 271.117188 53.121094 270.925781 52.777344 270.699219 52.453125 C 270.472656 52.125 270.210938 51.824219 269.925781 51.550781 C 269.636719 51.277344 269.324219 51.03125 268.988281 50.820312 C 268.652344 50.605469 268.296875 50.425781 267.925781 50.285156 C 267.554688 50.140625 267.171875 50.035156 266.78125 49.96875 C 266.386719 49.902344 265.992188 49.875 265.59375 49.886719 C 265.195312 49.894531 264.804688 49.945312 264.417969 50.035156 C 264.027344 50.125 263.652344 50.25 263.289062 50.414062 C 262.925781 50.578125 262.582031 50.773438 262.257812 51.003906 Z M 262.257812 51.003906 " fill-opacity="1" fill-rule="nonzero"/><path fill="#000000" d="M 211.011719 106.109375 C 211.011719 106.898438 210.972656 107.6875 210.898438 108.472656 C 210.820312 109.257812 210.703125 110.039062 210.550781 110.8125 C 210.394531 111.589844 210.203125 112.355469 209.972656 113.109375 C 209.746094 113.867188 209.480469 114.609375 209.175781 115.339844 C 208.875 116.066406 208.539062 116.78125 208.164062 117.476562 C 207.792969 118.175781 207.386719 118.851562 206.949219 119.507812 C 206.511719 120.164062 206.039062 120.796875 205.539062 121.40625 C 205.039062 122.019531 204.507812 122.601562 203.949219 123.160156 C 203.390625 123.71875 202.804688 124.25 202.195312 124.75 C 201.585938 125.253906 200.953125 125.722656 200.296875 126.160156 C 199.636719 126.601562 198.960938 127.003906 198.265625 127.378906 C 197.570312 127.75 196.855469 128.085938 196.125 128.390625 C 195.394531 128.691406 194.652344 128.957031 193.898438 129.1875 C 193.140625 129.414062 192.375 129.609375 191.601562 129.761719 C 190.828125 129.914062 190.046875 130.03125 189.261719 130.109375 C 188.476562 130.1875 187.6875 130.226562 186.898438 130.226562 C 186.105469 130.226562 185.320312 130.1875 184.535156 130.109375 C 183.746094 130.03125 182.96875 129.914062 182.191406 129.761719 C 181.417969 129.609375 180.652344 129.414062 179.898438 129.1875 C 179.140625 128.957031 178.398438 128.691406 177.667969 128.390625 C 176.9375 128.085938 176.226562 127.75 175.527344 127.378906 C 174.832031 127.003906 174.15625 126.601562 173.5 126.160156 C 172.84375 125.722656 172.207031 125.253906 171.597656 124.75 C 170.988281 124.25 170.402344 123.71875 169.84375 123.160156 C 169.285156 122.601562 168.757812 122.019531 168.253906 121.40625 C 167.753906 120.796875 167.285156 120.164062 166.84375 119.507812 C 166.40625 118.851562 166 118.175781 165.628906 117.476562 C 165.257812 116.78125 164.917969 116.066406 164.617188 115.339844 C 164.316406 114.609375 164.050781 113.867188 163.820312 113.109375 C 163.589844 112.355469 163.398438 111.589844 163.246094 110.8125 C 163.089844 110.039062 162.976562 109.257812 162.898438 108.472656 C 162.820312 107.6875 162.78125 106.898438 162.78125 106.109375 C 162.78125 105.320312 162.820312 104.53125 162.898438 103.746094 C 162.976562 102.960938 163.089844 102.179688 163.246094 101.40625 C 163.398438 100.628906 163.589844 99.863281 163.820312 99.109375 C 164.050781 98.351562 164.316406 97.609375 164.617188 96.878906 C 164.917969 96.152344 165.257812 95.4375 165.628906 94.742188 C 166 94.042969 166.40625 93.367188 166.84375 92.710938 C 167.285156 92.054688 167.753906 91.421875 168.253906 90.808594 C 168.757812 90.199219 169.285156 89.617188 169.84375 89.058594 C 170.402344 88.5 170.988281 87.96875 171.597656 87.46875 C 172.207031 86.964844 172.84375 86.496094 173.5 86.058594 C 174.15625 85.617188 174.832031 85.214844 175.527344 84.839844 C 176.226562 84.46875 176.9375 84.132812 177.667969 83.828125 C 178.398438 83.527344 179.140625 83.261719 179.898438 83.03125 C 180.652344 82.800781 181.417969 82.609375 182.191406 82.457031 C 182.96875 82.304688 183.746094 82.1875 184.535156 82.109375 C 185.320312 82.03125 186.105469 81.992188 186.898438 81.992188 C 187.6875 81.992188 188.476562 82.03125 189.261719 82.109375 C 190.046875 82.1875 190.828125 82.304688 191.601562 82.457031 C 192.375 82.609375 193.140625 82.800781 193.898438 83.03125 C 194.652344 83.261719 195.394531 83.527344 196.125 83.828125 C 196.855469 84.132812 197.570312 84.46875 198.265625 84.839844 C 198.960938 85.214844 199.636719 85.617188 200.296875 86.058594 C 200.953125 86.496094 201.585938 86.964844 202.195312 87.46875 C 202.804688 87.96875 203.390625 88.5 203.949219 89.058594 C 204.507812 89.617188 205.039062 90.199219 205.539062 90.808594 C 206.039062 91.421875 206.511719 92.054688 206.949219 92.710938 C 207.386719 93.367188 207.792969 94.042969 208.164062 94.742188 C 208.539062 95.4375 208.875 96.152344 209.175781 96.878906 C 209.480469 97.609375 209.746094 98.351562 209.972656 99.109375 C 210.203125 99.863281 210.394531 100.628906 210.550781 101.40625 C 210.703125 102.179688 210.820312 102.960938 210.898438 103.746094 C 210.972656 104.53125 211.011719 105.320312 211.011719 106.109375 Z M 211.011719 106.109375 " fill-opacity="1" fill-rule="nonzero"/><path fill="#000000" d="M 208 356.308594 C 208.609375 356.308594 209.21875 356.253906 209.820312 356.140625 C 210.421875 356.027344 211.007812 355.859375 211.578125 355.640625 C 212.148438 355.417969 212.691406 355.148438 213.214844 354.824219 C 213.734375 354.503906 214.222656 354.136719 214.675781 353.726562 C 215.128906 353.3125 215.539062 352.863281 215.910156 352.375 C 216.277344 351.890625 216.601562 351.371094 216.875 350.824219 C 217.148438 350.277344 217.371094 349.710938 217.542969 349.121094 C 217.710938 348.535156 217.828125 347.9375 217.886719 347.328125 L 221.984375 302.050781 L 194.011719 302.050781 L 198.109375 347.328125 C 198.171875 347.9375 198.285156 348.535156 198.453125 349.121094 C 198.625 349.710938 198.847656 350.277344 199.121094 350.824219 C 199.394531 351.371094 199.71875 351.890625 200.089844 352.375 C 200.457031 352.863281 200.871094 353.3125 201.324219 353.726562 C 201.773438 354.136719 202.261719 354.503906 202.78125 354.824219 C 203.304688 355.148438 203.847656 355.417969 204.417969 355.640625 C 204.992188 355.859375 205.578125 356.027344 206.179688 356.140625 C 206.78125 356.253906 207.386719 356.308594 208 356.308594 Z M 208 356.308594 " fill-opacity="1" fill-rule="nonzero"/><path fill="#000000" d="M 165.796875 356.308594 C 166.40625 356.308594 167.015625 356.253906 167.617188 356.140625 C 168.21875 356.027344 168.804688 355.859375 169.375 355.640625 C 169.945312 355.417969 170.492188 355.148438 171.011719 354.824219 C 171.53125 354.503906 172.019531 354.136719 172.472656 353.726562 C 172.925781 353.3125 173.335938 352.863281 173.707031 352.375 C 174.078125 351.890625 174.398438 351.371094 174.671875 350.824219 C 174.949219 350.277344 175.167969 349.710938 175.339844 349.121094 C 175.507812 348.535156 175.625 347.9375 175.683594 347.328125 L 179.78125 302.050781 L 151.808594 302.050781 L 155.910156 347.328125 C 155.96875 347.9375 156.082031 348.535156 156.253906 349.121094 C 156.421875 349.710938 156.644531 350.277344 156.917969 350.824219 C 157.191406 351.371094 157.515625 351.890625 157.886719 352.375 C 158.253906 352.863281 158.667969 353.3125 159.121094 353.726562 C 159.574219 354.136719 160.058594 354.503906 160.582031 354.824219 C 161.101562 355.148438 161.648438 355.417969 162.21875 355.640625 C 162.789062 355.859375 163.375 356.027344 163.976562 356.140625 C 164.578125 356.253906 165.183594 356.308594 165.796875 356.308594 Z M 165.796875 356.308594 " fill-opacity="1" fill-rule="nonzero"/><path fill="#000000" d="M 126.609375 169.414062 L 126.609375 205.585938 L 135.289062 205.585938 C 138.277344 189.179688 142.515625 173.101562 148.011719 157.355469 L 138.664062 157.355469 C 137.875 157.355469 137.089844 157.433594 136.3125 157.585938 C 135.535156 157.742188 134.78125 157.96875 134.050781 158.273438 C 133.320312 158.574219 132.625 158.949219 131.964844 159.386719 C 131.308594 159.828125 130.699219 160.328125 130.140625 160.886719 C 129.578125 161.445312 129.078125 162.054688 128.640625 162.714844 C 128.199219 163.371094 127.828125 164.066406 127.527344 164.796875 C 127.222656 165.53125 126.992188 166.285156 126.839844 167.0625 C 126.683594 167.835938 126.609375 168.621094 126.609375 169.414062 Z M 126.609375 169.414062 " fill-opacity="1" fill-rule="nonzero"/><path fill="#000000" d="M 204.984375 211.617188 L 204.984375 217.644531 C 204.984375 218.007812 204.984375 218.308594 204.984375 218.667969 C 208.722656 258.28125 240.375 248.03125 234.464844 217.101562 C 223.3125 158.378906 213.726562 138.363281 200.703125 135.832031 L 172.910156 135.832031 C 159.886719 138.363281 150.300781 158.378906 139.148438 217.101562 C 133.117188 248.03125 164.890625 258.28125 168.628906 218.667969 C 168.628906 218.308594 168.628906 218.007812 168.628906 217.644531 L 168.628906 185.210938 C 168.585938 184.984375 168.566406 184.761719 168.570312 184.53125 C 168.574219 184.304688 168.605469 184.082031 168.660156 183.859375 C 168.714844 183.640625 168.792969 183.425781 168.894531 183.222656 C 168.996094 183.019531 169.121094 182.832031 169.265625 182.65625 C 169.410156 182.480469 169.570312 182.320312 169.75 182.179688 C 169.929688 182.039062 170.121094 181.921875 170.328125 181.824219 C 170.535156 181.726562 170.746094 181.652344 170.96875 181.601562 C 171.191406 181.554688 171.417969 181.527344 171.644531 181.527344 C 171.871094 181.527344 172.097656 181.554688 172.316406 181.601562 C 172.539062 181.652344 172.753906 181.726562 172.960938 181.824219 C 173.164062 181.921875 173.359375 182.039062 173.539062 182.179688 C 173.714844 182.320312 173.878906 182.480469 174.023438 182.65625 C 174.167969 182.832031 174.289062 183.019531 174.390625 183.222656 C 174.492188 183.425781 174.574219 183.640625 174.628906 183.859375 C 174.683594 184.082031 174.710938 184.304688 174.71875 184.53125 C 174.722656 184.761719 174.703125 184.984375 174.660156 185.210938 L 174.660156 205.585938 L 198.773438 205.585938 L 198.773438 185.210938 C 198.730469 184.984375 198.710938 184.761719 198.714844 184.53125 C 198.71875 184.304688 198.75 184.082031 198.804688 183.859375 C 198.859375 183.640625 198.9375 183.425781 199.039062 183.222656 C 199.140625 183.019531 199.265625 182.832031 199.410156 182.65625 C 199.554688 182.480469 199.714844 182.320312 199.894531 182.179688 C 200.074219 182.039062 200.265625 181.921875 200.472656 181.824219 C 200.679688 181.726562 200.890625 181.652344 201.113281 181.601562 C 201.335938 181.554688 201.5625 181.527344 201.789062 181.527344 C 202.015625 181.527344 202.242188 181.554688 202.464844 181.601562 C 202.683594 181.652344 202.898438 181.726562 203.105469 181.824219 C 203.308594 181.921875 203.503906 182.039062 203.683594 182.179688 C 203.863281 182.320312 204.023438 182.480469 204.167969 182.65625 C 204.3125 182.832031 204.433594 183.019531 204.535156 183.222656 C 204.640625 183.425781 204.71875 183.640625 204.773438 183.859375 C 204.828125 184.082031 204.855469 184.304688 204.863281 184.53125 C 204.867188 184.761719 204.847656 184.984375 204.804688 185.210938 Z M 204.984375 211.617188 " fill-opacity="1" fill-rule="nonzero"/><path fill="#000000" d="M 247.1875 205.585938 L 247.1875 169.414062 C 247.1875 168.621094 247.109375 167.835938 246.953125 167.0625 C 246.800781 166.285156 246.570312 165.53125 246.269531 164.796875 C 245.964844 164.066406 245.59375 163.371094 245.15625 162.714844 C 244.714844 162.054688 244.214844 161.445312 243.65625 160.886719 C 243.09375 160.328125 242.484375 159.828125 241.828125 159.386719 C 241.167969 158.949219 240.472656 158.574219 239.742188 158.273438 C 239.011719 157.96875 238.257812 157.742188 237.480469 157.585938 C 236.703125 157.433594 235.921875 157.355469 235.128906 157.355469 L 225.785156 157.355469 C 231.277344 173.101562 235.519531 189.179688 238.503906 205.585938 Z M 247.1875 205.585938 " fill-opacity="1" fill-rule="nonzero"/><path fill="#000000" d="M 78.375 368.367188 L 78.375 302.050781 L 66.316406 302.050781 L 66.316406 368.367188 C 66.316406 368.765625 66.355469 369.15625 66.433594 369.542969 C 66.511719 369.933594 66.625 370.308594 66.777344 370.675781 C 66.929688 371.039062 67.113281 371.386719 67.335938 371.71875 C 67.554688 372.046875 67.804688 372.351562 68.085938 372.632812 C 68.363281 372.910156 68.667969 373.160156 68.996094 373.382812 C 69.328125 373.601562 69.675781 373.785156 70.039062 373.9375 C 70.40625 374.089844 70.78125 374.203125 71.171875 374.28125 C 71.558594 374.359375 71.953125 374.398438 72.347656 374.398438 C 72.742188 374.398438 73.136719 374.359375 73.523438 374.28125 C 73.910156 374.203125 74.289062 374.089844 74.65625 373.9375 C 75.019531 373.785156 75.367188 373.601562 75.695312 373.382812 C 76.027344 373.160156 76.332031 372.910156 76.609375 372.632812 C 76.890625 372.351562 77.140625 372.046875 77.359375 371.71875 C 77.578125 371.386719 77.765625 371.039062 77.917969 370.675781 C 78.070312 370.308594 78.183594 369.933594 78.261719 369.542969 C 78.335938 369.15625 78.375 368.765625 78.375 368.367188 Z M 78.375 368.367188 " fill-opacity="1" fill-rule="nonzero"/><path fill="#000000" d="M 102.492188 344.253906 C 102.492188 344.648438 102.53125 345.039062 102.609375 345.429688 C 102.683594 345.816406 102.800781 346.195312 102.949219 346.558594 C 103.101562 346.925781 103.289062 347.273438 103.507812 347.601562 C 103.726562 347.929688 103.976562 348.234375 104.257812 348.515625 C 104.539062 348.796875 104.84375 349.046875 105.171875 349.265625 C 105.5 349.484375 105.847656 349.671875 106.214844 349.824219 C 106.578125 349.972656 106.957031 350.089844 107.34375 350.164062 C 107.734375 350.242188 108.125 350.28125 108.519531 350.28125 C 108.917969 350.28125 109.308594 350.242188 109.695312 350.164062 C 110.085938 350.089844 110.460938 349.972656 110.828125 349.824219 C 111.195312 349.671875 111.542969 349.484375 111.871094 349.265625 C 112.199219 349.046875 112.503906 348.796875 112.785156 348.515625 C 113.0625 348.234375 113.3125 347.929688 113.535156 347.601562 C 113.753906 347.273438 113.9375 346.925781 114.089844 346.558594 C 114.242188 346.195312 114.355469 345.816406 114.433594 345.429688 C 114.511719 345.039062 114.550781 344.648438 114.550781 344.253906 L 114.550781 302.050781 L 102.492188 302.050781 Z M 102.492188 344.253906 " fill-opacity="1" fill-rule="nonzero"/><path fill="#000000" d="M 283.359375 320.136719 L 283.359375 302.050781 L 271.300781 302.050781 L 271.300781 320.136719 C 271.300781 320.53125 271.339844 320.925781 271.417969 321.3125 C 271.496094 321.699219 271.609375 322.078125 271.761719 322.445312 C 271.914062 322.808594 272.097656 323.15625 272.316406 323.484375 C 272.539062 323.816406 272.789062 324.121094 273.066406 324.398438 C 273.347656 324.679688 273.652344 324.929688 273.980469 325.148438 C 274.3125 325.371094 274.660156 325.554688 275.023438 325.707031 C 275.390625 325.859375 275.765625 325.972656 276.15625 326.050781 C 276.542969 326.125 276.933594 326.164062 277.332031 326.164062 C 277.726562 326.164062 278.117188 326.125 278.507812 326.050781 C 278.894531 325.972656 279.273438 325.859375 279.636719 325.707031 C 280.003906 325.554688 280.351562 325.371094 280.679688 325.148438 C 281.007812 324.929688 281.3125 324.679688 281.59375 324.398438 C 281.875 324.121094 282.125 323.816406 282.34375 323.484375 C 282.5625 323.15625 282.75 322.808594 282.902344 322.445312 C 283.050781 322.078125 283.167969 321.699219 283.246094 321.3125 C 283.320312 320.925781 283.359375 320.53125 283.359375 320.136719 Z M 283.359375 320.136719 " fill-opacity="1" fill-rule="nonzero"/><path fill="#000000" d="M 307.476562 362.339844 L 307.476562 302.050781 L 295.417969 302.050781 L 295.417969 362.339844 C 295.417969 362.734375 295.457031 363.128906 295.535156 363.515625 C 295.609375 363.902344 295.726562 364.28125 295.875 364.644531 C 296.027344 365.011719 296.214844 365.359375 296.433594 365.6875 C 296.652344 366.019531 296.902344 366.324219 297.183594 366.601562 C 297.464844 366.882812 297.769531 367.132812 298.097656 367.351562 C 298.425781 367.570312 298.773438 367.757812 299.140625 367.910156 C 299.503906 368.0625 299.882812 368.175781 300.269531 368.253906 C 300.660156 368.328125 301.050781 368.367188 301.445312 368.367188 C 301.84375 368.367188 302.234375 368.328125 302.625 368.253906 C 303.011719 368.175781 303.386719 368.0625 303.753906 367.910156 C 304.121094 367.757812 304.46875 367.570312 304.796875 367.351562 C 305.125 367.132812 305.429688 366.882812 305.710938 366.601562 C 305.988281 366.324219 306.238281 366.019531 306.460938 365.6875 C 306.679688 365.359375 306.867188 365.011719 307.015625 364.644531 C 307.167969 364.28125 307.28125 363.902344 307.359375 363.515625 C 307.4375 363.128906 307.476562 362.734375 307.476562 362.339844 Z M 307.476562 362.339844 " fill-opacity="1" fill-rule="nonzero"/><path fill="#000000" d="M 276.304688 213.363281 C 276.054688 212.839844 275.6875 212.421875 275.199219 212.105469 C 274.710938 211.789062 274.175781 211.628906 273.59375 211.617188 L 239.710938 211.617188 C 240.011719 213.0625 240.253906 214.449219 240.554688 215.957031 C 243.027344 228.980469 239.953125 240.433594 232.355469 246.582031 C 230.839844 247.847656 229.152344 248.820312 227.300781 249.503906 C 225.449219 250.1875 223.539062 250.539062 221.5625 250.5625 C 219.464844 250.523438 217.457031 250.082031 215.535156 249.234375 C 210.410156 247.066406 201.425781 240.3125 199.4375 219.089844 C 199.4375 216.316406 199.4375 213.847656 199.4375 211.496094 L 174.839844 211.496094 C 174.839844 213.847656 174.839844 216.316406 174.839844 219.089844 C 172.851562 240.191406 163.867188 246.945312 158.742188 249.234375 C 156.726562 250.125 154.613281 250.566406 152.410156 250.5625 C 150.4375 250.539062 148.523438 250.1875 146.671875 249.503906 C 144.820312 248.820312 143.136719 247.847656 141.621094 246.582031 C 134.023438 240.554688 130.949219 228.980469 133.421875 215.957031 C 133.421875 214.449219 133.964844 213.0625 134.265625 211.617188 L 100.199219 211.617188 C 99.621094 211.628906 99.085938 211.789062 98.597656 212.105469 C 98.109375 212.421875 97.738281 212.839844 97.488281 213.363281 L 62.21875 291.742188 C 62.113281 291.96875 62.035156 292.207031 61.992188 292.457031 C 61.945312 292.703125 61.929688 292.953125 61.945312 293.203125 C 61.964844 293.457031 62.011719 293.703125 62.089844 293.941406 C 62.167969 294.179688 62.273438 294.40625 62.40625 294.621094 C 62.542969 294.832031 62.703125 295.027344 62.886719 295.199219 C 63.070312 295.371094 63.269531 295.519531 63.492188 295.640625 C 63.710938 295.765625 63.945312 295.859375 64.1875 295.921875 C 64.429688 295.984375 64.679688 296.019531 64.933594 296.019531 L 308.863281 296.019531 C 309.113281 296.019531 309.363281 295.984375 309.605469 295.921875 C 309.851562 295.859375 310.082031 295.765625 310.304688 295.640625 C 310.523438 295.519531 310.726562 295.371094 310.910156 295.199219 C 311.09375 295.027344 311.25 294.832031 311.386719 294.621094 C 311.519531 294.40625 311.628906 294.179688 311.707031 293.941406 C 311.785156 293.703125 311.832031 293.457031 311.847656 293.203125 C 311.863281 292.953125 311.851562 292.703125 311.804688 292.457031 C 311.757812 292.207031 311.679688 291.96875 311.574219 291.742188 Z M 138.664062 271.90625 C 138.386719 272.183594 138.082031 272.429688 137.753906 272.648438 C 137.425781 272.867188 137.078125 273.050781 136.714844 273.203125 C 136.347656 273.351562 135.972656 273.464844 135.585938 273.542969 C 135.199219 273.621094 134.808594 273.660156 134.414062 273.660156 C 134.019531 273.660156 133.628906 273.621094 133.242188 273.542969 C 132.855469 273.464844 132.480469 273.351562 132.117188 273.203125 C 131.75 273.050781 131.40625 272.867188 131.078125 272.648438 C 130.75 272.429688 130.445312 272.183594 130.164062 271.90625 L 114.550781 256.289062 C 114.234375 256.019531 113.949219 255.71875 113.695312 255.390625 C 113.441406 255.0625 113.226562 254.710938 113.042969 254.335938 C 112.863281 253.960938 112.722656 253.574219 112.621094 253.171875 C 112.519531 252.769531 112.464844 252.359375 112.445312 251.945312 C 112.429688 251.527344 112.457031 251.117188 112.527344 250.707031 C 112.597656 250.296875 112.707031 249.898438 112.859375 249.511719 C 113.007812 249.125 113.199219 248.757812 113.425781 248.410156 C 113.652344 248.0625 113.914062 247.742188 114.207031 247.449219 C 114.503906 247.152344 114.824219 246.894531 115.171875 246.664062 C 115.519531 246.4375 115.886719 246.25 116.273438 246.097656 C 116.660156 245.945312 117.058594 245.835938 117.46875 245.765625 C 117.875 245.695312 118.289062 245.671875 118.703125 245.6875 C 119.121094 245.703125 119.527344 245.761719 119.929688 245.863281 C 120.335938 245.960938 120.722656 246.101562 121.097656 246.285156 C 121.472656 246.464844 121.824219 246.683594 122.152344 246.9375 C 122.480469 247.1875 122.78125 247.472656 123.050781 247.789062 L 138.664062 263.40625 C 138.945312 263.683594 139.191406 263.988281 139.410156 264.316406 C 139.628906 264.644531 139.8125 264.992188 139.964844 265.355469 C 140.113281 265.71875 140.226562 266.097656 140.304688 266.484375 C 140.378906 266.871094 140.417969 267.261719 140.417969 267.65625 C 140.417969 268.050781 140.378906 268.441406 140.304688 268.828125 C 140.226562 269.214844 140.113281 269.589844 139.964844 269.953125 C 139.8125 270.316406 139.628906 270.664062 139.410156 270.992188 C 139.191406 271.320312 138.945312 271.625 138.664062 271.90625 Z M 188.585938 261.171875 L 176.164062 264.429688 C 175.773438 264.527344 175.375 264.585938 174.972656 264.601562 C 174.566406 264.621094 174.167969 264.597656 173.765625 264.535156 C 173.367188 264.472656 172.976562 264.371094 172.597656 264.230469 C 172.222656 264.089844 171.859375 263.910156 171.515625 263.695312 C 171.171875 263.484375 170.855469 263.238281 170.5625 262.960938 C 170.269531 262.683594 170.003906 262.378906 169.773438 262.046875 C 169.539062 261.714844 169.34375 261.367188 169.179688 260.996094 C 169.019531 260.625 168.894531 260.242188 168.808594 259.847656 C 168.710938 259.464844 168.648438 259.074219 168.625 258.675781 C 168.605469 258.28125 168.621094 257.886719 168.675781 257.492188 C 168.730469 257.101562 168.824219 256.71875 168.953125 256.34375 C 169.085938 255.96875 169.253906 255.609375 169.453125 255.269531 C 169.65625 254.925781 169.886719 254.609375 170.152344 254.3125 C 170.417969 254.015625 170.707031 253.75 171.027344 253.511719 C 171.34375 253.273438 171.679688 253.070312 172.039062 252.898438 C 172.394531 252.726562 172.765625 252.589844 173.152344 252.492188 L 185.570312 249.234375 C 185.964844 249.136719 186.359375 249.082031 186.765625 249.0625 C 187.167969 249.042969 187.570312 249.066406 187.96875 249.128906 C 188.367188 249.191406 188.757812 249.292969 189.136719 249.4375 C 189.515625 249.578125 189.875 249.753906 190.21875 249.96875 C 190.5625 250.183594 190.882812 250.429688 191.175781 250.707031 C 191.46875 250.984375 191.730469 251.289062 191.964844 251.617188 C 192.195312 251.949219 192.394531 252.300781 192.554688 252.667969 C 192.71875 253.039062 192.839844 253.421875 192.925781 253.816406 C 193.027344 254.203125 193.085938 254.59375 193.109375 254.988281 C 193.132812 255.382812 193.117188 255.777344 193.0625 256.171875 C 193.003906 256.566406 192.914062 256.949219 192.78125 257.324219 C 192.652344 257.699219 192.484375 258.054688 192.28125 258.398438 C 192.082031 258.738281 191.847656 259.058594 191.582031 259.351562 C 191.320312 259.648438 191.027344 259.914062 190.710938 260.152344 C 190.394531 260.390625 190.054688 260.597656 189.699219 260.769531 C 189.339844 260.941406 188.96875 261.074219 188.585938 261.171875 Z M 223.070312 271.90625 C 223.070312 272.300781 223.03125 272.691406 222.953125 273.082031 C 222.878906 273.46875 222.761719 273.847656 222.613281 274.210938 C 222.460938 274.578125 222.273438 274.925781 222.054688 275.253906 C 221.835938 275.582031 221.585938 275.886719 221.304688 276.167969 C 221.023438 276.449219 220.71875 276.699219 220.390625 276.917969 C 220.0625 277.136719 219.714844 277.324219 219.347656 277.476562 C 218.984375 277.625 218.605469 277.742188 218.21875 277.816406 C 217.828125 277.894531 217.4375 277.933594 217.042969 277.933594 C 216.644531 277.933594 216.253906 277.894531 215.867188 277.816406 C 215.476562 277.742188 215.101562 277.625 214.734375 277.476562 C 214.367188 277.324219 214.019531 277.136719 213.691406 276.917969 C 213.363281 276.699219 213.058594 276.449219 212.777344 276.167969 C 212.5 275.886719 212.25 275.582031 212.027344 275.253906 C 211.808594 274.925781 211.625 274.578125 211.472656 274.210938 C 211.320312 273.847656 211.207031 273.46875 211.128906 273.082031 C 211.050781 272.691406 211.011719 272.300781 211.011719 271.90625 C 211.011719 271.507812 211.050781 271.117188 211.128906 270.730469 C 211.207031 270.339844 211.320312 269.964844 211.472656 269.597656 C 211.625 269.230469 211.808594 268.882812 212.027344 268.554688 C 212.25 268.226562 212.5 267.921875 212.777344 267.640625 C 213.058594 267.363281 213.363281 267.113281 213.691406 266.890625 C 214.019531 266.671875 214.367188 266.488281 214.734375 266.335938 C 215.101562 266.183594 215.476562 266.070312 215.867188 265.992188 C 216.253906 265.914062 216.644531 265.875 217.042969 265.875 C 217.4375 265.875 217.828125 265.914062 218.21875 265.992188 C 218.605469 266.070312 218.984375 266.183594 219.347656 266.335938 C 219.714844 266.488281 220.0625 266.671875 220.390625 266.890625 C 220.71875 267.113281 221.023438 267.363281 221.304688 267.640625 C 221.585938 267.921875 221.835938 268.226562 222.054688 268.554688 C 222.273438 268.882812 222.460938 269.230469 222.613281 269.597656 C 222.761719 269.964844 222.878906 270.339844 222.953125 270.730469 C 223.03125 271.117188 223.070312 271.507812 223.070312 271.90625 Z M 265.273438 262.320312 L 261.714844 265.875 C 261.429688 266.121094 261.125 266.335938 260.796875 266.523438 C 260.472656 266.710938 260.132812 266.867188 259.777344 266.992188 C 259.421875 267.113281 259.054688 267.203125 258.683594 267.261719 C 258.3125 267.316406 257.9375 267.335938 257.5625 267.320312 C 257.1875 267.308594 256.816406 267.257812 256.449219 267.171875 C 256.082031 267.089844 255.726562 266.972656 255.378906 266.820312 C 255.035156 266.671875 254.707031 266.488281 254.398438 266.277344 C 254.085938 266.066406 253.796875 265.824219 253.53125 265.558594 C 253.265625 265.292969 253.027344 265.003906 252.8125 264.695312 C 252.601562 264.382812 252.421875 264.054688 252.269531 263.710938 C 252.121094 263.367188 252.003906 263.011719 251.917969 262.644531 C 251.835938 262.277344 251.785156 261.90625 251.769531 261.53125 C 251.753906 261.152344 251.777344 260.78125 251.832031 260.40625 C 251.886719 260.035156 251.976562 259.671875 252.101562 259.316406 C 252.222656 258.960938 252.378906 258.621094 252.566406 258.292969 C 252.753906 257.96875 252.96875 257.660156 253.214844 257.375 L 256.773438 253.816406 C 257.058594 253.574219 257.363281 253.359375 257.691406 253.171875 C 258.015625 252.984375 258.359375 252.828125 258.714844 252.703125 C 259.070312 252.578125 259.433594 252.488281 259.804688 252.433594 C 260.175781 252.378906 260.550781 252.359375 260.925781 252.375 C 261.300781 252.386719 261.675781 252.4375 262.039062 252.519531 C 262.40625 252.605469 262.761719 252.722656 263.109375 252.875 C 263.453125 253.023438 263.78125 253.207031 264.089844 253.417969 C 264.402344 253.628906 264.691406 253.867188 264.957031 254.132812 C 265.222656 254.402344 265.460938 254.6875 265.675781 255 C 265.886719 255.3125 266.066406 255.636719 266.21875 255.984375 C 266.371094 256.328125 266.488281 256.683594 266.570312 257.050781 C 266.65625 257.417969 266.703125 257.789062 266.71875 258.164062 C 266.734375 258.539062 266.710938 258.914062 266.65625 259.285156 C 266.601562 259.660156 266.511719 260.023438 266.386719 260.378906 C 266.265625 260.734375 266.109375 261.074219 265.921875 261.402344 C 265.734375 261.726562 265.519531 262.035156 265.273438 262.320312 Z M 265.273438 262.320312 " fill-opacity="1" fill-rule="nonzero"/><path fill="#000000" d="M 365.050781 30.746094 C 365.050781 31.734375 365.003906 32.71875 364.90625 33.703125 C 364.808594 34.683594 364.664062 35.660156 364.472656 36.628906 C 364.28125 37.597656 364.039062 38.554688 363.753906 39.5 C 363.46875 40.441406 363.136719 41.371094 362.757812 42.285156 C 362.378906 43.195312 361.957031 44.085938 361.492188 44.957031 C 361.027344 45.828125 360.519531 46.675781 359.972656 47.496094 C 359.421875 48.316406 358.835938 49.109375 358.210938 49.871094 C 357.582031 50.632812 356.921875 51.363281 356.222656 52.0625 C 355.523438 52.761719 354.792969 53.421875 354.03125 54.050781 C 353.269531 54.675781 352.476562 55.261719 351.65625 55.8125 C 350.835938 56.359375 349.988281 56.867188 349.117188 57.332031 C 348.246094 57.796875 347.355469 58.21875 346.441406 58.597656 C 345.53125 58.976562 344.601562 59.308594 343.65625 59.59375 C 342.714844 59.878906 341.757812 60.121094 340.789062 60.3125 C 339.820312 60.503906 338.84375 60.648438 337.863281 60.746094 C 336.878906 60.84375 335.894531 60.890625 334.90625 60.890625 C 333.921875 60.890625 332.933594 60.84375 331.953125 60.746094 C 330.96875 60.648438 329.996094 60.503906 329.027344 60.3125 C 328.058594 60.121094 327.101562 59.878906 326.15625 59.59375 C 325.210938 59.308594 324.285156 58.976562 323.371094 58.597656 C 322.460938 58.21875 321.566406 57.796875 320.699219 57.332031 C 319.828125 56.867188 318.980469 56.359375 318.160156 55.8125 C 317.339844 55.261719 316.546875 54.675781 315.785156 54.050781 C 315.019531 53.421875 314.289062 52.761719 313.59375 52.0625 C 312.894531 51.363281 312.230469 50.632812 311.605469 49.871094 C 310.980469 49.109375 310.390625 48.316406 309.84375 47.496094 C 309.292969 46.675781 308.789062 45.828125 308.320312 44.957031 C 307.855469 44.085938 307.433594 43.195312 307.058594 42.285156 C 306.679688 41.371094 306.347656 40.441406 306.0625 39.5 C 305.773438 38.554688 305.535156 37.597656 305.34375 36.628906 C 305.148438 35.660156 305.003906 34.683594 304.90625 33.703125 C 304.8125 32.71875 304.761719 31.734375 304.761719 30.746094 C 304.761719 29.761719 304.8125 28.777344 304.90625 27.792969 C 305.003906 26.808594 305.148438 25.835938 305.34375 24.867188 C 305.535156 23.898438 305.773438 22.941406 306.0625 21.996094 C 306.347656 21.050781 306.679688 20.125 307.058594 19.210938 C 307.433594 18.300781 307.855469 17.40625 308.320312 16.539062 C 308.789062 15.667969 309.292969 14.820312 309.84375 14 C 310.390625 13.179688 310.980469 12.386719 311.605469 11.625 C 312.230469 10.859375 312.894531 10.128906 313.59375 9.433594 C 314.289062 8.734375 315.019531 8.070312 315.785156 7.445312 C 316.546875 6.820312 317.339844 6.230469 318.160156 5.683594 C 318.980469 5.132812 319.828125 4.628906 320.699219 4.164062 C 321.566406 3.695312 322.460938 3.273438 323.371094 2.898438 C 324.285156 2.519531 325.210938 2.1875 326.15625 1.902344 C 327.101562 1.613281 328.058594 1.375 329.027344 1.183594 C 329.996094 0.988281 330.96875 0.84375 331.953125 0.75 C 332.933594 0.652344 333.921875 0.601562 334.90625 0.601562 C 335.894531 0.601562 336.878906 0.652344 337.863281 0.75 C 338.84375 0.84375 339.820312 0.988281 340.789062 1.183594 C 341.757812 1.375 342.714844 1.613281 343.65625 1.902344 C 344.601562 2.1875 345.53125 2.519531 346.441406 2.898438 C 347.355469 3.273438 348.246094 3.695312 349.117188 4.164062 C 349.988281 4.628906 350.835938 5.132812 351.65625 5.683594 C 352.476562 6.230469 353.269531 6.820312 354.03125 7.445312 C 354.792969 8.070312 355.523438 8.734375 356.222656 9.433594 C 356.921875 10.128906 357.582031 10.859375 358.210938 11.625 C 358.835938 12.386719 359.421875 13.179688 359.972656 14 C 360.519531 14.820312 361.027344 15.667969 361.492188 16.539062 C 361.957031 17.40625 362.378906 18.300781 362.757812 19.210938 C 363.136719 20.125 363.46875 21.050781 363.753906 21.996094 C 364.039062 22.941406 364.28125 23.898438 364.472656 24.867188 C 364.664062 25.835938 364.808594 26.808594 364.90625 27.792969 C 365.003906 28.777344 365.050781 29.761719 365.050781 30.746094 Z M 365.050781 30.746094 " fill-opacity="1" fill-rule="nonzero"/><path fill="#000000" d="M 357.214844 59.203125 C 356.390625 59.847656 355.542969 60.449219 354.667969 61.019531 C 353.796875 61.589844 352.898438 62.117188 351.976562 62.609375 C 351.058594 63.097656 350.117188 63.550781 349.15625 63.960938 C 348.199219 64.367188 347.222656 64.734375 346.230469 65.0625 C 345.242188 65.386719 344.238281 65.667969 343.222656 65.90625 C 342.207031 66.144531 341.183594 66.339844 340.152344 66.488281 C 339.117188 66.640625 338.082031 66.742188 337.039062 66.804688 C 336 66.863281 334.957031 66.878906 333.914062 66.847656 C 332.871094 66.820312 331.832031 66.746094 330.796875 66.625 C 329.761719 66.503906 328.730469 66.339844 327.710938 66.132812 C 326.6875 65.921875 325.675781 65.667969 324.675781 65.375 C 323.675781 65.078125 322.691406 64.738281 321.722656 64.355469 C 320.75 63.976562 319.796875 63.550781 318.863281 63.089844 C 317.929688 62.625 317.015625 62.121094 316.125 61.578125 C 315.234375 61.035156 314.371094 60.453125 313.53125 59.835938 C 312.6875 59.21875 311.878906 58.566406 311.09375 57.878906 C 310.882812 57.675781 310.632812 57.574219 310.339844 57.574219 C 310.046875 57.574219 309.796875 57.675781 309.585938 57.878906 C 296.984375 69.273438 282.15625 96.464844 275.28125 117.445312 C 271.421875 129.5 272.992188 135.53125 274.859375 136.617188 C 276.726562 137.699219 282.15625 136.195312 292.101562 124.917969 L 292.523438 124.4375 C 312.660156 101.347656 326.40625 87.902344 326.527344 87.78125 C 326.816406 87.5 327.144531 87.289062 327.519531 87.140625 C 327.890625 86.992188 328.277344 86.917969 328.679688 86.925781 C 329.082031 86.929688 329.464844 87.011719 329.835938 87.171875 C 330.203125 87.332031 330.527344 87.554688 330.808594 87.839844 C 331.085938 88.128906 331.300781 88.460938 331.449219 88.832031 C 331.597656 89.207031 331.667969 89.59375 331.664062 89.996094 C 331.660156 90.394531 331.578125 90.78125 331.417969 91.148438 C 331.257812 91.519531 331.035156 91.84375 330.746094 92.121094 C 330.746094 92.121094 317.242188 105.324219 297.589844 127.8125 C 297.515625 128.054688 297.515625 128.296875 297.589844 128.535156 L 294.210938 170.738281 C 292.585938 188.164062 293.851562 231.027344 299.878906 249.960938 C 300.09375 250.578125 300.402344 251.144531 300.800781 251.664062 C 301.203125 252.183594 301.675781 252.625 302.21875 252.988281 C 302.761719 253.351562 303.347656 253.621094 303.980469 253.792969 C 304.613281 253.96875 305.253906 254.035156 305.910156 254 L 306.691406 254 C 307.296875 254 307.886719 253.910156 308.464844 253.734375 C 309.039062 253.558594 309.578125 253.300781 310.078125 252.960938 C 310.578125 252.625 311.019531 252.21875 311.394531 251.746094 C 311.773438 251.277344 312.074219 250.761719 312.300781 250.199219 C 316.941406 238.144531 318.328125 214.027344 321.523438 187.621094 C 321.554688 187.238281 321.65625 186.878906 321.828125 186.535156 C 321.996094 186.195312 322.226562 185.898438 322.511719 185.644531 C 322.800781 185.390625 323.125 185.199219 323.484375 185.074219 C 323.84375 184.945312 324.214844 184.890625 324.597656 184.90625 C 324.976562 184.921875 325.335938 185 325.683594 185.148438 C 326.03125 185.296875 326.34375 185.5 326.613281 185.761719 C 326.886719 186.023438 327.105469 186.324219 327.265625 186.664062 C 327.425781 187.007812 327.523438 187.363281 327.550781 187.742188 C 328.277344 201.488281 329.902344 235.007812 337.378906 250.5625 C 337.625 251.082031 337.941406 251.554688 338.320312 251.980469 C 338.703125 252.410156 339.136719 252.777344 339.621094 253.078125 C 340.109375 253.382812 340.625 253.613281 341.179688 253.769531 C 341.730469 253.925781 342.292969 254.003906 342.867188 254 L 343.648438 254 C 344.347656 254.015625 345.027344 253.914062 345.6875 253.695312 C 346.347656 253.476562 346.957031 253.15625 347.503906 252.726562 C 348.054688 252.296875 348.515625 251.789062 348.890625 251.199219 C 349.261719 250.609375 349.523438 249.976562 349.679688 249.296875 C 352.332031 237.238281 356.308594 208.902344 354.742188 145.960938 C 352.148438 147.46875 349.496094 148.914062 346.90625 150.300781 L 344.433594 151.628906 C 339.859375 153.820312 335.035156 154.925781 329.964844 154.945312 C 328.925781 155.039062 327.890625 155.019531 326.859375 154.882812 C 325.828125 154.75 324.820312 154.507812 323.839844 154.152344 C 322.863281 153.800781 321.933594 153.34375 321.054688 152.785156 C 320.175781 152.226562 319.367188 151.578125 318.628906 150.84375 C 314.710938 146.019531 316.941406 138.785156 325.320312 128.597656 L 329.058594 124.074219 C 332.824219 119.117188 336.964844 114.496094 341.480469 110.207031 C 341.78125 109.949219 342.121094 109.753906 342.5 109.632812 C 342.878906 109.507812 343.269531 109.464844 343.664062 109.5 C 344.0625 109.53125 344.4375 109.644531 344.789062 109.828125 C 345.144531 110.015625 345.445312 110.261719 345.699219 110.570312 C 345.953125 110.878906 346.140625 111.226562 346.261719 111.609375 C 346.382812 111.992188 346.421875 112.382812 346.390625 112.785156 C 346.355469 113.183594 346.25 113.5625 346.066406 113.921875 C 345.882812 114.277344 345.640625 114.589844 345.335938 114.851562 C 341.152344 118.941406 337.273438 123.300781 333.703125 127.933594 L 329.902344 132.457031 C 323.03125 140.714844 322.003906 145.417969 323.332031 147.046875 C 325.742188 150 336.234375 149.15625 341.417969 146.324219 L 343.949219 144.9375 C 348.105469 142.902344 352.125 140.628906 356.007812 138.121094 C 357.246094 137.460938 358.4375 136.726562 359.582031 135.917969 C 360.730469 135.113281 361.824219 134.238281 362.863281 133.300781 C 363.90625 132.363281 364.882812 131.363281 365.804688 130.304688 C 366.722656 129.246094 367.574219 128.136719 368.359375 126.972656 C 369.144531 125.8125 369.859375 124.609375 370.496094 123.359375 C 371.136719 122.113281 371.695312 120.828125 372.179688 119.511719 C 372.664062 118.199219 373.0625 116.855469 373.386719 115.492188 C 373.707031 114.128906 373.941406 112.75 374.09375 111.355469 C 374.320312 106.792969 374.175781 102.242188 373.660156 97.703125 C 373.144531 93.164062 372.269531 88.695312 371.027344 84.296875 C 369.789062 79.902344 368.203125 75.632812 366.269531 71.496094 C 364.335938 67.355469 362.082031 63.398438 359.503906 59.625 C 359.535156 59.472656 359.53125 59.324219 359.5 59.171875 C 359.464844 59.019531 359.40625 58.882812 359.320312 58.753906 C 359.230469 58.628906 359.121094 58.523438 358.992188 58.4375 C 358.863281 58.355469 358.722656 58.296875 358.570312 58.269531 C 358.417969 58.242188 358.269531 58.242188 358.117188 58.277344 C 357.964844 58.308594 357.828125 58.367188 357.699219 58.457031 C 357.570312 58.542969 357.464844 58.652344 357.382812 58.78125 C 357.296875 58.910156 357.242188 59.050781 357.214844 59.203125 Z M 357.214844 59.203125 " fill-opacity="1" fill-rule="nonzero"/><path fill="#000000" d="M 69.03125 30.746094 C 69.03125 31.734375 68.984375 32.71875 68.886719 33.703125 C 68.789062 34.683594 68.644531 35.660156 68.453125 36.628906 C 68.257812 37.597656 68.019531 38.554688 67.734375 39.5 C 67.445312 40.441406 67.113281 41.371094 66.738281 42.285156 C 66.359375 43.195312 65.9375 44.085938 65.472656 44.957031 C 65.007812 45.828125 64.5 46.675781 63.949219 47.496094 C 63.402344 48.316406 62.816406 49.109375 62.1875 49.871094 C 61.5625 50.632812 60.898438 51.363281 60.203125 52.0625 C 59.503906 52.761719 58.773438 53.421875 58.011719 54.050781 C 57.246094 54.675781 56.453125 55.261719 55.632812 55.8125 C 54.8125 56.359375 53.96875 56.867188 53.097656 57.332031 C 52.226562 57.796875 51.335938 58.21875 50.421875 58.597656 C 49.511719 58.976562 48.582031 59.308594 47.636719 59.59375 C 46.691406 59.878906 45.734375 60.121094 44.769531 60.3125 C 43.800781 60.503906 42.824219 60.648438 41.839844 60.746094 C 40.859375 60.84375 39.875 60.890625 38.886719 60.890625 C 37.898438 60.890625 36.914062 60.84375 35.933594 60.746094 C 34.949219 60.648438 33.972656 60.503906 33.003906 60.3125 C 32.039062 60.121094 31.082031 59.878906 30.136719 59.59375 C 29.191406 59.308594 28.261719 58.976562 27.351562 58.597656 C 26.4375 58.21875 25.546875 57.796875 24.675781 57.332031 C 23.804688 56.867188 22.960938 56.359375 22.140625 55.8125 C 21.316406 55.261719 20.527344 54.675781 19.761719 54.050781 C 19 53.421875 18.269531 52.761719 17.570312 52.0625 C 16.871094 51.363281 16.210938 50.632812 15.585938 49.871094 C 14.957031 49.109375 14.371094 48.316406 13.820312 47.496094 C 13.273438 46.675781 12.765625 45.828125 12.300781 44.957031 C 11.835938 44.085938 11.414062 43.195312 11.035156 42.285156 C 10.660156 41.371094 10.328125 40.441406 10.039062 39.5 C 9.753906 38.554688 9.515625 37.597656 9.320312 36.628906 C 9.128906 35.660156 8.984375 34.683594 8.886719 33.703125 C 8.789062 32.71875 8.742188 31.734375 8.742188 30.746094 C 8.742188 29.761719 8.789062 28.777344 8.886719 27.792969 C 8.984375 26.808594 9.128906 25.835938 9.320312 24.867188 C 9.515625 23.898438 9.753906 22.941406 10.039062 21.996094 C 10.328125 21.050781 10.660156 20.125 11.035156 19.210938 C 11.414062 18.300781 11.835938 17.40625 12.300781 16.539062 C 12.765625 15.667969 13.273438 14.820312 13.820312 14 C 14.371094 13.179688 14.957031 12.386719 15.585938 11.625 C 16.210938 10.859375 16.871094 10.128906 17.570312 9.433594 C 18.269531 8.734375 19 8.070312 19.761719 7.445312 C 20.527344 6.820312 21.316406 6.230469 22.140625 5.683594 C 22.960938 5.132812 23.804688 4.628906 24.675781 4.164062 C 25.546875 3.695312 26.4375 3.273438 27.351562 2.898438 C 28.261719 2.519531 29.191406 2.1875 30.136719 1.902344 C 31.082031 1.613281 32.039062 1.375 33.003906 1.183594 C 33.972656 0.988281 34.949219 0.84375 35.933594 0.75 C 36.914062 0.652344 37.898438 0.601562 38.886719 0.601562 C 39.875 0.601562 40.859375 0.652344 41.839844 0.75 C 42.824219 0.84375 43.800781 0.988281 44.769531 1.183594 C 45.734375 1.375 46.691406 1.613281 47.636719 1.902344 C 48.582031 2.1875 49.511719 2.519531 50.421875 2.898438 C 51.335938 3.273438 52.226562 3.695312 53.097656 4.164062 C 53.96875 4.628906 54.8125 5.132812 55.632812 5.683594 C 56.453125 6.230469 57.246094 6.820312 58.011719 7.445312 C 58.773438 8.070312 59.503906 8.734375 60.203125 9.433594 C 60.898438 10.128906 61.5625 10.859375 62.1875 11.625 C 62.816406 12.386719 63.402344 13.179688 63.949219 14 C 64.5 14.820312 65.007812 15.667969 65.472656 16.539062 C 65.9375 17.40625 66.359375 18.300781 66.738281 19.210938 C 67.113281 20.125 67.445312 21.050781 67.734375 21.996094 C 68.019531 22.941406 68.257812 23.898438 68.453125 24.867188 C 68.644531 25.835938 68.789062 26.808594 68.886719 27.792969 C 68.984375 28.777344 69.03125 29.761719 69.03125 30.746094 Z M 69.03125 30.746094 " fill-opacity="1" fill-rule="nonzero"/><path fill="#000000" d="M 18.085938 137.941406 C 21.972656 140.449219 25.992188 142.71875 30.144531 144.753906 L 32.675781 146.140625 C 37.980469 148.976562 48.472656 149.820312 50.761719 146.863281 C 52.089844 145.238281 51.066406 140.535156 44.191406 132.273438 L 40.394531 127.753906 C 36.820312 123.121094 32.941406 118.761719 28.757812 114.671875 C 28.453125 114.40625 28.210938 114.097656 28.03125 113.738281 C 27.847656 113.382812 27.738281 113.003906 27.707031 112.605469 C 27.671875 112.203125 27.714844 111.8125 27.835938 111.429688 C 27.953125 111.046875 28.140625 110.699219 28.394531 110.390625 C 28.648438 110.082031 28.953125 109.832031 29.304688 109.648438 C 29.65625 109.460938 30.03125 109.351562 30.429688 109.316406 C 30.828125 109.285156 31.214844 109.328125 31.59375 109.453125 C 31.976562 109.574219 32.316406 109.765625 32.617188 110.027344 C 37.128906 114.316406 41.269531 118.9375 45.035156 123.894531 L 48.773438 128.417969 C 57.15625 138.363281 59.386719 145.839844 55.464844 150.664062 C 54.730469 151.398438 53.921875 152.046875 53.042969 152.605469 C 52.164062 153.160156 51.234375 153.617188 50.253906 153.972656 C 49.273438 154.328125 48.269531 154.570312 47.238281 154.703125 C 46.203125 154.835938 45.167969 154.855469 44.132812 154.761719 C 39.050781 154.707031 34.226562 153.5625 29.664062 151.328125 L 27.191406 150 C 24.597656 148.613281 21.945312 147.167969 19.351562 145.660156 C 17.785156 208.601562 21.765625 236.695312 24.417969 248.996094 C 24.554688 249.660156 24.792969 250.285156 25.140625 250.871094 C 25.488281 251.453125 25.921875 251.964844 26.441406 252.402344 C 26.960938 252.839844 27.539062 253.179688 28.171875 253.425781 C 28.808594 253.667969 29.464844 253.796875 30.144531 253.816406 L 31.351562 253.816406 C 31.921875 253.824219 32.484375 253.746094 33.039062 253.589844 C 33.589844 253.433594 34.109375 253.203125 34.59375 252.898438 C 35.078125 252.59375 35.511719 252.226562 35.894531 251.800781 C 36.277344 251.371094 36.589844 250.898438 36.835938 250.382812 C 44.492188 234.828125 46.121094 201.304688 46.84375 187.5 C 46.875 187.125 46.96875 186.765625 47.132812 186.421875 C 47.292969 186.082031 47.507812 185.78125 47.78125 185.519531 C 48.054688 185.257812 48.363281 185.054688 48.710938 184.90625 C 49.058594 184.761719 49.421875 184.679688 49.800781 184.667969 C 50.179688 184.648438 50.550781 184.703125 50.914062 184.832031 C 51.273438 184.960938 51.597656 185.148438 51.882812 185.402344 C 52.171875 185.65625 52.398438 185.953125 52.570312 186.292969 C 52.742188 186.636719 52.84375 187 52.875 187.378906 C 55.769531 213.785156 57.457031 237.839844 62.097656 249.960938 C 62.320312 250.519531 62.621094 251.035156 63 251.507812 C 63.378906 251.976562 63.816406 252.382812 64.316406 252.71875 C 64.816406 253.058594 65.355469 253.316406 65.933594 253.492188 C 66.511719 253.671875 67.101562 253.757812 67.703125 253.757812 L 68.488281 253.757812 C 69.140625 253.792969 69.785156 253.726562 70.417969 253.554688 C 71.046875 253.378906 71.636719 253.113281 72.179688 252.746094 C 72.722656 252.382812 73.195312 251.941406 73.59375 251.421875 C 73.996094 250.90625 74.300781 250.335938 74.519531 249.71875 C 80.546875 230.96875 81.8125 187.921875 80.183594 170.5 L 76.808594 128.296875 C 76.878906 128.054688 76.878906 127.8125 76.808594 127.574219 C 57.15625 105.085938 43.769531 92 43.648438 91.882812 C 43.363281 91.601562 43.136719 91.277344 42.980469 90.910156 C 42.820312 90.539062 42.738281 90.15625 42.734375 89.753906 C 42.726562 89.351562 42.796875 88.964844 42.945312 88.589844 C 43.09375 88.21875 43.308594 87.886719 43.589844 87.601562 C 43.867188 87.3125 44.191406 87.089844 44.5625 86.929688 C 44.929688 86.773438 45.316406 86.691406 45.71875 86.683594 C 46.117188 86.679688 46.503906 86.75 46.878906 86.898438 C 47.25 87.046875 47.582031 87.261719 47.871094 87.539062 C 47.871094 87.539062 61.738281 101.105469 81.871094 124.195312 L 82.296875 124.679688 C 92.242188 135.953125 97.851562 137.339844 99.539062 136.375 C 101.226562 135.410156 102.972656 129.140625 99.117188 117.203125 C 92.242188 96.222656 77.410156 68.972656 64.8125 57.636719 C 64.601562 57.433594 64.351562 57.332031 64.058594 57.332031 C 63.765625 57.332031 63.515625 57.433594 63.304688 57.636719 C 62.519531 58.324219 61.707031 58.976562 60.867188 59.59375 C 60.027344 60.214844 59.160156 60.792969 58.269531 61.335938 C 57.378906 61.878906 56.46875 62.382812 55.535156 62.847656 C 54.597656 63.3125 53.648438 63.734375 52.675781 64.113281 C 51.707031 64.496094 50.71875 64.835938 49.71875 65.132812 C 48.71875 65.429688 47.710938 65.679688 46.6875 65.890625 C 45.664062 66.097656 44.636719 66.261719 43.601562 66.382812 C 42.5625 66.503906 41.523438 66.578125 40.480469 66.609375 C 39.441406 66.636719 38.398438 66.621094 37.355469 66.5625 C 36.316406 66.503906 35.277344 66.398438 34.246094 66.246094 C 33.214844 66.097656 32.191406 65.902344 31.175781 65.664062 C 30.160156 65.425781 29.15625 65.144531 28.164062 64.820312 C 27.171875 64.496094 26.199219 64.128906 25.238281 63.71875 C 24.28125 63.308594 23.339844 62.859375 22.417969 62.367188 C 21.5 61.875 20.601562 61.347656 19.726562 60.777344 C 18.851562 60.210938 18.003906 59.605469 17.183594 58.964844 C 17.074219 58.84375 16.945312 58.753906 16.800781 58.6875 C 16.652344 58.625 16.5 58.59375 16.339844 58.59375 C 16.179688 58.59375 16.023438 58.625 15.878906 58.6875 C 15.730469 58.753906 15.601562 58.84375 15.496094 58.964844 C 12.917969 62.734375 10.664062 66.691406 8.730469 70.832031 C 6.796875 74.96875 5.210938 79.238281 3.972656 83.636719 C 2.730469 88.03125 1.855469 92.5 1.339844 97.039062 C 0.824219 101.578125 0.679688 106.128906 0.90625 110.691406 C 1.015625 112.085938 1.210938 113.464844 1.488281 114.835938 C 1.765625 116.207031 2.125 117.554688 2.566406 118.878906 C 3.007812 120.207031 3.527344 121.5 4.125 122.765625 C 4.722656 124.027344 5.390625 125.25 6.136719 126.433594 C 6.882812 127.617188 7.699219 128.75 8.578125 129.832031 C 9.460938 130.917969 10.40625 131.945312 11.414062 132.914062 C 12.421875 133.882812 13.480469 134.789062 14.597656 135.628906 C 15.714844 136.472656 16.878906 137.242188 18.085938 137.941406 Z M 18.085938 137.941406 " fill-opacity="1" fill-rule="nonzero"/></svg>