<svg xmlns="http://www.w3.org/2000/svg" xmlns:xlink="http://www.w3.org/1999/xlink" width="500" zoomAndPan="magnify" viewBox="0 0 375 374.999991" height="500" preserveAspectRatio="xMidYMid meet" version="1.0"><path fill="#000000" d="M 44.144531 114.695312 L 55.855469 110.320312 L 43.386719 77.074219 L 48.460938 80.117188 C 49.460938 80.71875 50.523438 81.167969 51.648438 81.472656 C 52.773438 81.773438 53.917969 81.917969 55.082031 81.898438 C 56.246094 81.882812 57.386719 81.707031 58.503906 81.371094 C 59.617188 81.03125 60.664062 80.550781 61.644531 79.921875 C 62.625 79.292969 63.503906 78.539062 64.273438 77.667969 C 65.042969 76.792969 65.679688 75.832031 66.179688 74.777344 C 66.679688 73.726562 67.027344 72.628906 67.222656 71.476562 C 67.414062 70.328125 67.449219 69.175781 67.320312 68.019531 L 64.125 39.304688 L 76.625 49.304688 C 77.015625 49.617188 77.425781 49.902344 77.851562 50.164062 C 78.277344 50.425781 78.71875 50.664062 79.175781 50.871094 C 79.628906 51.082031 80.09375 51.261719 80.570312 51.414062 C 81.046875 51.566406 81.53125 51.691406 82.023438 51.785156 C 82.511719 51.882812 83.007812 51.945312 83.507812 51.984375 C 84.007812 52.019531 84.507812 52.023438 85.003906 52 C 85.503906 51.972656 86.003906 51.921875 86.496094 51.835938 C 86.988281 51.753906 87.476562 51.640625 87.953125 51.496094 C 88.433594 51.355469 88.902344 51.183594 89.363281 50.984375 C 89.820312 50.785156 90.265625 50.558594 90.699219 50.308594 C 91.132812 50.054688 91.546875 49.777344 91.945312 49.476562 C 92.34375 49.171875 92.722656 48.847656 93.082031 48.5 C 93.441406 48.152344 93.78125 47.785156 94.097656 47.394531 C 94.410156 47.007812 94.703125 46.601562 94.96875 46.179688 C 95.234375 45.753906 95.476562 45.316406 95.691406 44.863281 C 95.90625 44.414062 96.089844 43.949219 96.25 43.476562 L 105.917969 14.476562 L 94.042969 10.523438 L 84.40625 39.519531 L 60.15625 20.144531 C 59.671875 19.757812 59.144531 19.449219 58.570312 19.21875 C 57.996094 18.988281 57.402344 18.847656 56.785156 18.796875 C 56.171875 18.742188 55.558594 18.78125 54.957031 18.90625 C 54.351562 19.035156 53.777344 19.25 53.234375 19.546875 C 52.695312 19.84375 52.207031 20.214844 51.777344 20.65625 C 51.34375 21.101562 50.984375 21.59375 50.703125 22.144531 C 50.417969 22.691406 50.21875 23.269531 50.105469 23.878906 C 49.992188 24.488281 49.96875 25.097656 50.039062 25.710938 L 54.894531 69.425781 L 34.46875 57.144531 C 33.914062 56.808594 33.320312 56.566406 32.6875 56.417969 C 32.058594 56.265625 31.417969 56.21875 30.769531 56.265625 C 30.125 56.316406 29.5 56.460938 28.898438 56.707031 C 28.296875 56.949219 27.746094 57.277344 27.25 57.695312 C 26.75 58.109375 26.324219 58.589844 25.976562 59.136719 C 25.628906 59.683594 25.371094 60.269531 25.203125 60.898438 C 25.039062 61.523438 24.972656 62.164062 25.003906 62.8125 C 25.035156 63.457031 25.164062 64.085938 25.394531 64.695312 Z M 44.144531 114.695312 " fill-opacity="1" fill-rule="nonzero"/><path fill="#000000" d="M 287.054688 51.507812 C 288.019531 51.792969 289.007812 51.960938 290.011719 52.011719 C 291.019531 52.058594 292.015625 51.984375 293.003906 51.792969 C 293.992188 51.597656 294.941406 51.289062 295.855469 50.863281 C 296.765625 50.441406 297.617188 49.914062 298.398438 49.28125 L 310.898438 39.28125 L 307.707031 67.988281 C 307.578125 69.144531 307.609375 70.300781 307.800781 71.449219 C 307.996094 72.597656 308.339844 73.699219 308.84375 74.75 C 309.34375 75.800781 309.980469 76.765625 310.75 77.640625 C 311.519531 78.515625 312.394531 79.265625 313.375 79.894531 C 314.355469 80.523438 315.402344 81.007812 316.519531 81.34375 C 317.636719 81.679688 318.777344 81.859375 319.941406 81.875 C 321.105469 81.894531 322.25 81.75 323.375 81.449219 C 324.5 81.144531 325.5625 80.695312 326.5625 80.09375 L 331.636719 77.050781 L 319.167969 110.28125 L 330.882812 114.65625 L 349.632812 64.65625 C 349.859375 64.046875 349.988281 63.421875 350.023438 62.773438 C 350.054688 62.125 349.988281 61.488281 349.820312 60.859375 C 349.65625 60.234375 349.398438 59.644531 349.046875 59.097656 C 348.699219 58.550781 348.277344 58.070312 347.777344 57.65625 C 347.277344 57.242188 346.726562 56.914062 346.125 56.667969 C 345.523438 56.425781 344.902344 56.277344 344.253906 56.230469 C 343.605469 56.179688 342.96875 56.230469 342.335938 56.378906 C 341.707031 56.53125 341.113281 56.773438 340.554688 57.105469 L 320.105469 69.375 L 324.960938 25.664062 C 325.03125 25.046875 325.007812 24.4375 324.894531 23.828125 C 324.78125 23.222656 324.582031 22.644531 324.296875 22.09375 C 324.015625 21.546875 323.65625 21.050781 323.222656 20.605469 C 322.792969 20.164062 322.304688 19.792969 321.765625 19.496094 C 321.222656 19.199219 320.648438 18.984375 320.042969 18.855469 C 319.441406 18.730469 318.828125 18.691406 318.214844 18.746094 C 317.597656 18.796875 317.003906 18.941406 316.429688 19.167969 C 315.855469 19.398438 315.328125 19.707031 314.84375 20.09375 L 290.59375 39.46875 L 280.929688 10.523438 L 269.054688 14.476562 L 278.75 43.480469 C 279.070312 44.433594 279.496094 45.335938 280.03125 46.1875 C 280.566406 47.039062 281.199219 47.8125 281.921875 48.511719 C 282.644531 49.210938 283.4375 49.8125 284.308594 50.316406 C 285.175781 50.824219 286.09375 51.222656 287.054688 51.507812 Z M 287.054688 51.507812 " fill-opacity="1" fill-rule="nonzero"/><path fill="#000000" d="M 303.273438 334.460938 C 305.1875 326.039062 306.527344 317.523438 307.292969 308.917969 L 312.5 305.445312 C 314.875 303.867188 317.132812 302.132812 319.269531 300.242188 C 321.40625 298.355469 323.40625 296.328125 325.265625 294.167969 C 327.125 292.003906 328.828125 289.726562 330.371094 287.328125 C 331.917969 284.933594 333.292969 282.441406 334.496094 279.855469 C 335.703125 277.269531 336.722656 274.613281 337.5625 271.886719 C 338.402344 269.164062 339.050781 266.390625 339.507812 263.578125 C 339.96875 260.761719 340.230469 257.929688 340.300781 255.078125 C 340.371094 252.226562 340.246094 249.382812 339.925781 246.550781 L 338.207031 231.082031 C 339.042969 231.003906 339.828125 230.769531 340.566406 230.371094 C 341.304688 229.972656 341.9375 229.449219 342.460938 228.792969 C 343.054688 228.019531 343.441406 227.15625 343.628906 226.199219 C 343.816406 225.242188 343.78125 224.296875 343.523438 223.355469 L 336.144531 196.28125 C 335.683594 194.613281 335.15625 192.960938 334.570312 191.332031 C 333.988281 189.703125 333.339844 188.097656 332.632812 186.515625 C 331.925781 184.933594 331.160156 183.382812 330.339844 181.855469 C 329.515625 180.332031 328.636719 178.84375 327.699219 177.386719 C 326.765625 175.925781 325.777344 174.507812 324.734375 173.125 C 323.691406 171.738281 322.597656 170.398438 321.457031 169.097656 C 320.3125 167.792969 319.121094 166.539062 317.886719 165.328125 C 316.648438 164.113281 315.367188 162.949219 314.042969 161.835938 C 312.714844 160.71875 311.351562 159.65625 309.945312 158.644531 C 308.542969 157.628906 307.101562 156.671875 305.621094 155.765625 C 304.144531 154.863281 302.636719 154.015625 301.097656 153.222656 C 299.554688 152.433594 297.988281 151.699219 296.390625 151.027344 C 294.792969 150.355469 293.175781 149.742188 291.535156 149.191406 C 289.890625 148.640625 288.230469 148.152344 286.554688 147.722656 C 284.875 147.296875 283.183594 146.933594 281.476562 146.636719 C 279.769531 146.335938 278.054688 146.101562 276.332031 145.929688 L 223.300781 140.882812 C 224.511719 140.222656 225.703125 139.535156 226.875 138.808594 C 228.046875 138.085938 229.199219 137.332031 230.328125 136.546875 C 231.457031 135.757812 232.566406 134.941406 233.652344 134.09375 C 234.738281 133.246094 235.800781 132.367188 236.835938 131.464844 C 237.875 130.558594 238.886719 129.621094 239.871094 128.660156 C 240.855469 127.699219 241.816406 126.710938 242.746094 125.695312 C 243.679688 124.679688 244.582031 123.640625 245.457031 122.578125 C 246.328125 121.511719 247.171875 120.425781 247.988281 119.3125 C 248.800781 118.203125 249.585938 117.070312 250.335938 115.917969 C 251.089844 114.761719 251.808594 113.589844 252.496094 112.394531 C 253.183594 111.199219 253.835938 109.988281 254.457031 108.757812 C 255.078125 107.53125 255.664062 106.285156 256.214844 105.023438 C 256.765625 103.757812 257.28125 102.484375 257.765625 101.191406 C 258.246094 99.902344 258.691406 98.597656 259.101562 97.285156 C 259.511719 95.96875 259.882812 94.644531 260.21875 93.308594 C 260.554688 91.972656 260.855469 90.628906 261.117188 89.277344 C 261.382812 87.925781 261.605469 86.566406 261.792969 85.203125 C 261.980469 83.835938 262.132812 82.46875 262.242188 81.097656 C 262.355469 79.722656 262.429688 78.347656 262.46875 76.972656 C 262.503906 75.59375 262.503906 74.21875 262.464844 72.839844 C 262.425781 71.464844 262.347656 70.089844 262.230469 68.714844 C 262.117188 67.34375 261.964844 65.976562 261.773438 64.613281 C 261.582031 63.246094 261.355469 61.890625 261.089844 60.539062 C 260.824219 59.1875 260.523438 57.84375 260.183594 56.507812 C 259.84375 55.171875 259.46875 53.847656 259.054688 52.535156 C 258.644531 51.21875 258.195312 49.917969 257.710938 48.628906 C 257.226562 47.339844 256.707031 46.0625 256.15625 44.804688 C 255.601562 43.542969 255.011719 42.296875 254.390625 41.070312 C 253.765625 39.839844 253.109375 38.628906 252.421875 37.4375 C 251.730469 36.246094 251.007812 35.074219 250.253906 33.921875 C 249.5 32.765625 248.714844 31.636719 247.898438 30.527344 C 247.082031 29.417969 246.238281 28.332031 245.359375 27.269531 C 244.484375 26.207031 243.578125 25.167969 242.644531 24.15625 C 241.714844 23.144531 240.753906 22.15625 239.765625 21.195312 C 238.777344 20.238281 237.761719 19.304688 236.722656 18.398438 C 235.683594 17.496094 234.621094 16.621094 233.535156 15.777344 C 232.449219 14.929688 231.335938 14.113281 230.207031 13.332031 C 229.074219 12.546875 227.921875 11.792969 226.746094 11.074219 C 225.574219 10.351562 224.378906 9.664062 223.167969 9.007812 C 221.957031 8.355469 220.730469 7.730469 219.484375 7.144531 C 218.238281 6.558594 216.976562 6.003906 215.699219 5.488281 C 214.421875 4.96875 213.132812 4.484375 211.832031 4.039062 C 210.527344 3.59375 209.214844 3.179688 207.890625 2.808594 C 206.5625 2.433594 205.230469 2.09375 203.882812 1.792969 C 202.539062 1.492188 201.1875 1.230469 199.832031 1.003906 C 198.472656 0.777344 197.109375 0.585938 195.738281 0.433594 C 194.371094 0.285156 192.996094 0.171875 191.621094 0.09375 C 190.246094 0.0195312 188.871094 -0.0195312 187.492188 -0.0195312 C 186.117188 -0.0195312 184.738281 0.0195312 183.363281 0.09375 C 181.988281 0.171875 180.617188 0.285156 179.25 0.433594 C 177.878906 0.585938 176.515625 0.777344 175.15625 1.003906 C 173.796875 1.230469 172.445312 1.492188 171.101562 1.792969 C 169.757812 2.09375 168.425781 2.433594 167.097656 2.808594 C 165.773438 3.179688 164.457031 3.59375 163.15625 4.039062 C 161.851562 4.484375 160.5625 4.96875 159.289062 5.488281 C 158.011719 6.003906 156.75 6.558594 155.503906 7.144531 C 154.257812 7.730469 153.03125 8.355469 151.816406 9.007812 C 150.605469 9.664062 149.414062 10.351562 148.242188 11.074219 C 147.066406 11.792969 145.914062 12.546875 144.78125 13.332031 C 143.648438 14.113281 142.539062 14.929688 141.453125 15.777344 C 140.363281 16.621094 139.300781 17.496094 138.261719 18.398438 C 137.222656 19.304688 136.210938 20.238281 135.222656 21.195312 C 134.234375 22.15625 133.273438 23.144531 132.339844 24.15625 C 131.40625 25.167969 130.503906 26.207031 129.625 27.269531 C 128.75 28.332031 127.902344 29.417969 127.085938 30.527344 C 126.269531 31.636719 125.484375 32.765625 124.730469 33.921875 C 123.976562 35.074219 123.257812 36.246094 122.566406 37.4375 C 121.878906 38.628906 121.222656 39.839844 120.597656 41.070312 C 119.976562 42.296875 119.386719 43.542969 118.832031 44.804688 C 118.277344 46.0625 117.757812 47.339844 117.277344 48.628906 C 116.792969 49.917969 116.34375 51.21875 115.929688 52.535156 C 115.519531 53.847656 115.144531 55.171875 114.804688 56.507812 C 114.464844 57.84375 114.164062 59.1875 113.898438 60.539062 C 113.632812 61.890625 113.40625 63.246094 113.214844 64.613281 C 113.023438 65.976562 112.871094 67.34375 112.753906 68.714844 C 112.640625 70.089844 112.5625 71.464844 112.523438 72.839844 C 112.484375 74.21875 112.484375 75.59375 112.519531 76.972656 C 112.558594 78.347656 112.632812 79.722656 112.742188 81.097656 C 112.855469 82.46875 113.003906 83.835938 113.195312 85.203125 C 113.382812 86.566406 113.605469 87.925781 113.867188 89.277344 C 114.132812 90.628906 114.429688 91.972656 114.769531 93.308594 C 115.105469 94.644531 115.476562 95.96875 115.886719 97.285156 C 116.296875 98.597656 116.742188 99.902344 117.222656 101.191406 C 117.703125 102.484375 118.222656 103.757812 118.773438 105.023438 C 119.324219 106.285156 119.910156 107.53125 120.53125 108.757812 C 121.152344 109.988281 121.804688 111.199219 122.492188 112.394531 C 123.179688 113.589844 123.898438 114.761719 124.652344 115.917969 C 125.402344 117.070312 126.183594 118.203125 127 119.3125 C 127.8125 120.425781 128.65625 121.511719 129.53125 122.578125 C 130.40625 123.640625 131.308594 124.679688 132.238281 125.695312 C 133.171875 126.710938 134.128906 127.699219 135.117188 128.660156 C 136.101562 129.621094 137.113281 130.558594 138.152344 131.464844 C 139.1875 132.367188 140.25 133.246094 141.335938 134.09375 C 142.421875 134.941406 143.527344 135.757812 144.660156 136.546875 C 145.789062 137.332031 146.941406 138.085938 148.113281 138.808594 C 149.285156 139.535156 150.476562 140.222656 151.6875 140.882812 L 98.65625 145.929688 C 96.933594 146.101562 95.21875 146.335938 93.511719 146.636719 C 91.804688 146.933594 90.113281 147.296875 88.433594 147.722656 C 86.757812 148.152344 85.09375 148.640625 83.453125 149.191406 C 81.8125 149.742188 80.191406 150.355469 78.597656 151.027344 C 77 151.699219 75.433594 152.433594 73.890625 153.222656 C 72.351562 154.015625 70.839844 154.863281 69.363281 155.765625 C 67.886719 156.671875 66.445312 157.628906 65.042969 158.644531 C 63.636719 159.65625 62.269531 160.71875 60.945312 161.835938 C 59.621094 162.949219 58.339844 164.113281 57.101562 165.328125 C 55.863281 166.539062 54.675781 167.792969 53.53125 169.097656 C 52.386719 170.398438 51.296875 171.738281 50.253906 173.125 C 49.210938 174.507812 48.222656 175.925781 47.285156 177.386719 C 46.351562 178.84375 45.472656 180.332031 44.648438 181.855469 C 43.824219 183.382812 43.058594 184.933594 42.355469 186.515625 C 41.648438 188.097656 41 189.703125 40.414062 191.332031 C 39.828125 192.960938 39.304688 194.613281 38.84375 196.28125 L 31.46875 223.355469 C 31.210938 224.296875 31.179688 225.242188 31.363281 226.199219 C 31.550781 227.15625 31.941406 228.019531 32.53125 228.792969 C 33.054688 229.449219 33.6875 229.972656 34.425781 230.371094 C 35.164062 230.769531 35.953125 231.003906 36.789062 231.082031 L 35.0625 246.550781 C 34.742188 249.382812 34.617188 252.226562 34.6875 255.078125 C 34.757812 257.929688 35.023438 260.761719 35.484375 263.578125 C 35.941406 266.390625 36.589844 269.160156 37.429688 271.886719 C 38.269531 274.613281 39.292969 277.269531 40.496094 279.851562 C 41.703125 282.4375 43.078125 284.929688 44.625 287.324219 C 46.171875 289.722656 47.875 292 49.734375 294.164062 C 51.59375 296.324219 53.59375 298.351562 55.730469 300.238281 C 57.867188 302.125 60.125 303.859375 62.5 305.4375 L 67.71875 308.917969 C 68.488281 317.523438 69.824219 326.042969 71.730469 334.46875 L 78.207031 362.5 L 0 362.5 L 0 375 L 375 375 L 375 362.5 L 296.792969 362.5 Z M 308.164062 293.042969 C 308.316406 279.550781 307.066406 266.191406 304.414062 252.960938 L 300.105469 231.25 L 325.65625 231.25 L 327.53125 247.929688 C 327.765625 250.058594 327.867188 252.195312 327.824219 254.335938 C 327.785156 256.480469 327.609375 258.609375 327.292969 260.730469 C 326.980469 262.847656 326.527344 264.9375 325.945312 267 C 325.359375 269.058594 324.644531 271.074219 323.800781 273.042969 C 322.953125 275.011719 321.984375 276.917969 320.894531 278.761719 C 319.804688 280.605469 318.597656 282.371094 317.277344 284.058594 C 315.957031 285.746094 314.535156 287.339844 313.011719 288.84375 C 311.484375 290.347656 309.867188 291.75 308.164062 293.042969 Z M 125 75 C 125 72.953125 125.101562 70.910156 125.300781 68.875 C 125.5 66.835938 125.800781 64.816406 126.199219 62.808594 C 126.601562 60.800781 127.097656 58.816406 127.691406 56.855469 C 128.285156 54.898438 128.972656 52.972656 129.757812 51.082031 C 130.539062 49.191406 131.414062 47.34375 132.378906 45.539062 C 133.34375 43.734375 134.394531 41.980469 135.53125 40.277344 C 136.671875 38.574219 137.886719 36.933594 139.1875 35.351562 C 140.484375 33.769531 141.859375 32.253906 143.304688 30.804688 C 144.753906 29.359375 146.269531 27.984375 147.851562 26.6875 C 149.433594 25.386719 151.074219 24.171875 152.777344 23.03125 C 154.480469 21.894531 156.234375 20.84375 158.039062 19.878906 C 159.84375 18.914062 161.691406 18.039062 163.582031 17.257812 C 165.472656 16.472656 167.398438 15.785156 169.355469 15.191406 C 171.316406 14.597656 173.300781 14.101562 175.308594 13.699219 C 177.316406 13.300781 179.335938 13 181.375 12.800781 C 183.410156 12.601562 185.453125 12.5 187.5 12.5 C 189.546875 12.5 191.589844 12.601562 193.625 12.800781 C 195.664062 13 197.683594 13.300781 199.691406 13.699219 C 201.699219 14.101562 203.683594 14.597656 205.644531 15.191406 C 207.601562 15.785156 209.527344 16.472656 211.417969 17.257812 C 213.308594 18.039062 215.15625 18.914062 216.960938 19.878906 C 218.765625 20.84375 220.519531 21.894531 222.222656 23.03125 C 223.925781 24.171875 225.566406 25.386719 227.148438 26.6875 C 228.730469 27.984375 230.246094 29.359375 231.695312 30.804688 C 233.140625 32.253906 234.515625 33.769531 235.8125 35.351562 C 237.113281 36.933594 238.328125 38.574219 239.46875 40.277344 C 240.605469 41.980469 241.65625 43.734375 242.621094 45.539062 C 243.585938 47.34375 244.460938 49.191406 245.242188 51.082031 C 246.027344 52.972656 246.714844 54.898438 247.308594 56.855469 C 247.902344 58.816406 248.398438 60.800781 248.800781 62.808594 C 249.199219 64.816406 249.5 66.835938 249.699219 68.875 C 249.898438 70.910156 250 72.953125 250 75 C 250 77.046875 249.898438 79.089844 249.699219 81.125 C 249.5 83.164062 249.199219 85.183594 248.800781 87.191406 C 248.398438 89.199219 247.902344 91.183594 247.308594 93.144531 C 246.714844 95.101562 246.027344 97.027344 245.242188 98.917969 C 244.460938 100.808594 243.585938 102.65625 242.621094 104.460938 C 241.65625 106.265625 240.605469 108.019531 239.46875 109.722656 C 238.328125 111.425781 237.113281 113.066406 235.8125 114.648438 C 234.515625 116.230469 233.140625 117.746094 231.695312 119.195312 C 230.246094 120.640625 228.730469 122.015625 227.148438 123.3125 C 225.566406 124.613281 223.925781 125.828125 222.222656 126.96875 C 220.519531 128.105469 218.765625 129.15625 216.960938 130.121094 C 215.15625 131.085938 213.308594 131.960938 211.417969 132.742188 C 209.527344 133.527344 207.601562 134.214844 205.644531 134.808594 C 203.683594 135.402344 201.699219 135.898438 199.691406 136.300781 C 197.683594 136.699219 195.664062 137 193.625 137.199219 C 191.589844 137.398438 189.546875 137.5 187.5 137.5 C 185.453125 137.496094 183.414062 137.394531 181.375 137.191406 C 179.339844 136.992188 177.316406 136.6875 175.3125 136.289062 C 173.304688 135.886719 171.324219 135.390625 169.363281 134.792969 C 167.40625 134.199219 165.484375 133.507812 163.59375 132.722656 C 161.703125 131.941406 159.855469 131.066406 158.050781 130.101562 C 156.246094 129.132812 154.496094 128.082031 152.792969 126.945312 C 151.09375 125.808594 149.449219 124.589844 147.867188 123.292969 C 146.289062 121.992188 144.773438 120.621094 143.324219 119.175781 C 141.878906 117.726562 140.507812 116.210938 139.207031 114.632812 C 137.910156 113.050781 136.691406 111.40625 135.554688 109.707031 C 134.417969 108.003906 133.367188 106.253906 132.398438 104.449219 C 131.433594 102.644531 130.558594 100.796875 129.777344 98.90625 C 128.992188 97.015625 128.300781 95.09375 127.707031 93.136719 C 127.109375 91.175781 126.613281 89.195312 126.210938 87.1875 C 125.8125 85.183594 125.507812 83.160156 125.308594 81.125 C 125.105469 79.085938 125.003906 77.046875 125 75 Z M 70.5625 252.957031 C 67.910156 266.1875 66.660156 279.550781 66.8125 293.042969 C 65.105469 291.75 63.488281 290.347656 61.964844 288.84375 C 60.4375 287.339844 59.015625 285.746094 57.695312 284.058594 C 56.375 282.371094 55.167969 280.605469 54.078125 278.761719 C 52.988281 276.917969 52.019531 275.011719 51.171875 273.042969 C 50.328125 271.074219 49.613281 269.0625 49.027344 267 C 48.441406 264.9375 47.992188 262.847656 47.675781 260.730469 C 47.359375 258.609375 47.183594 256.480469 47.144531 254.339844 C 47.101562 252.195312 47.203125 250.0625 47.4375 247.929688 L 49.375 231.25 L 74.925781 231.25 Z M 123 362.5 L 150.539062 311.71875 L 162.210938 316.648438 L 138.976562 362.5 Z M 236.023438 362.5 L 212.789062 316.648438 L 224.460938 311.71875 L 252 362.5 Z M 256.25 344.117188 L 232.742188 300.773438 C 232.558594 300.4375 232.347656 300.117188 232.105469 299.816406 C 231.863281 299.519531 231.59375 299.242188 231.300781 298.992188 C 231.007812 298.742188 230.695312 298.523438 230.363281 298.332031 C 230.027344 298.140625 229.679688 297.980469 229.316406 297.851562 C 228.953125 297.722656 228.578125 297.632812 228.199219 297.574219 C 227.820312 297.515625 227.4375 297.492188 227.050781 297.503906 C 226.664062 297.515625 226.285156 297.5625 225.910156 297.644531 C 225.53125 297.726562 225.167969 297.84375 224.8125 297.992188 L 201.75 307.742188 C 201.355469 307.910156 200.984375 308.117188 200.632812 308.363281 C 200.28125 308.605469 199.957031 308.882812 199.664062 309.195312 C 199.367188 309.503906 199.109375 309.84375 198.882812 310.207031 C 198.65625 310.570312 198.472656 310.953125 198.324219 311.355469 C 198.179688 311.757812 198.074219 312.171875 198.011719 312.59375 C 197.949219 313.019531 197.933594 313.445312 197.957031 313.871094 C 197.984375 314.300781 198.054688 314.71875 198.164062 315.132812 C 198.277344 315.546875 198.429688 315.941406 198.625 316.324219 L 222.011719 362.5 L 152.988281 362.5 L 176.386719 316.324219 C 176.582031 315.941406 176.734375 315.546875 176.847656 315.132812 C 176.957031 314.71875 177.027344 314.300781 177.054688 313.871094 C 177.078125 313.445312 177.0625 313.019531 177 312.59375 C 176.9375 312.171875 176.835938 311.757812 176.6875 311.355469 C 176.542969 310.953125 176.355469 310.570312 176.128906 310.207031 C 175.90625 309.84375 175.644531 309.503906 175.351562 309.195312 C 175.054688 308.882812 174.734375 308.605469 174.382812 308.363281 C 174.027344 308.117188 173.65625 307.910156 173.261719 307.742188 L 150.199219 297.992188 C 149.84375 297.84375 149.480469 297.726562 149.105469 297.644531 C 148.726562 297.5625 148.347656 297.515625 147.960938 297.503906 C 147.578125 297.492188 147.195312 297.515625 146.8125 297.574219 C 146.433594 297.632812 146.058594 297.722656 145.695312 297.851562 C 145.332031 297.980469 144.984375 298.140625 144.652344 298.332031 C 144.316406 298.523438 144.003906 298.742188 143.710938 298.992188 C 143.417969 299.242188 143.148438 299.519531 142.90625 299.816406 C 142.664062 300.117188 142.453125 300.4375 142.269531 300.773438 L 118.75 344.117188 L 118.75 306.25 C 118.746094 304.058594 118.910156 301.882812 119.238281 299.71875 C 119.5625 297.550781 120.050781 295.421875 120.699219 293.332031 C 121.34375 291.238281 122.144531 289.207031 123.101562 287.234375 C 124.054688 285.265625 125.148438 283.375 126.386719 281.570312 C 127.628906 279.765625 128.996094 278.0625 130.488281 276.460938 C 131.984375 274.863281 133.59375 273.382812 135.3125 272.027344 C 137.03125 270.667969 138.839844 269.445312 140.742188 268.363281 C 142.644531 267.277344 144.617188 266.34375 146.664062 265.554688 C 147.445312 267.617188 148.375 269.605469 149.457031 271.523438 C 150.539062 273.445312 151.761719 275.269531 153.117188 277.003906 C 154.476562 278.738281 155.957031 280.359375 157.5625 281.871094 C 159.167969 283.382812 160.875 284.761719 162.6875 286.015625 C 164.503906 287.265625 166.398438 288.375 168.378906 289.339844 C 170.359375 290.300781 172.402344 291.113281 174.507812 291.769531 C 176.609375 292.421875 178.75 292.917969 180.929688 293.25 C 183.105469 293.578125 185.296875 293.746094 187.5 293.746094 C 189.703125 293.746094 191.894531 293.578125 194.070312 293.25 C 196.25 292.917969 198.390625 292.421875 200.492188 291.769531 C 202.597656 291.113281 204.640625 290.300781 206.621094 289.339844 C 208.601562 288.375 210.496094 287.265625 212.3125 286.015625 C 214.125 284.761719 215.832031 283.382812 217.4375 281.871094 C 219.042969 280.359375 220.523438 278.738281 221.882812 277.003906 C 223.238281 275.269531 224.460938 273.445312 225.542969 271.523438 C 226.625 269.605469 227.554688 267.617188 228.335938 265.554688 C 230.382812 266.34375 232.355469 267.277344 234.257812 268.363281 C 236.160156 269.445312 237.96875 270.667969 239.6875 272.027344 C 241.40625 273.382812 243.015625 274.863281 244.511719 276.460938 C 246.003906 278.0625 247.371094 279.765625 248.613281 281.570312 C 249.851562 283.375 250.945312 285.265625 251.898438 287.234375 C 252.855469 289.207031 253.65625 291.238281 254.300781 293.332031 C 254.949219 295.421875 255.4375 297.550781 255.761719 299.71875 C 256.089844 301.882812 256.253906 304.058594 256.25 306.25 Z M 156.25 250 C 156.25 248.976562 156.300781 247.957031 156.402344 246.9375 C 156.5 245.917969 156.652344 244.90625 156.851562 243.902344 C 157.050781 242.898438 157.296875 241.90625 157.59375 240.929688 C 157.894531 239.949219 158.238281 238.988281 158.628906 238.042969 C 159.019531 237.09375 159.457031 236.171875 159.941406 235.269531 C 160.421875 234.367188 160.949219 233.488281 161.515625 232.636719 C 162.085938 231.789062 162.695312 230.964844 163.34375 230.175781 C 163.992188 229.382812 164.679688 228.625 165.402344 227.902344 C 166.125 227.179688 166.882812 226.492188 167.675781 225.84375 C 168.464844 225.195312 169.289062 224.585938 170.136719 224.015625 C 170.988281 223.449219 171.867188 222.921875 172.769531 222.441406 C 173.671875 221.957031 174.59375 221.519531 175.542969 221.128906 C 176.488281 220.738281 177.449219 220.394531 178.429688 220.09375 C 179.40625 219.796875 180.398438 219.550781 181.402344 219.351562 C 182.40625 219.152344 183.417969 219 184.4375 218.902344 C 185.457031 218.800781 186.476562 218.75 187.5 218.75 C 188.523438 218.75 189.542969 218.800781 190.5625 218.902344 C 191.582031 219 192.59375 219.152344 193.597656 219.351562 C 194.601562 219.550781 195.59375 219.796875 196.570312 220.09375 C 197.550781 220.394531 198.511719 220.738281 199.457031 221.128906 C 200.40625 221.519531 201.328125 221.957031 202.230469 222.441406 C 203.132812 222.921875 204.011719 223.449219 204.863281 224.015625 C 205.710938 224.585938 206.535156 225.195312 207.324219 225.84375 C 208.117188 226.492188 208.875 227.179688 209.597656 227.902344 C 210.320312 228.625 211.007812 229.382812 211.65625 230.175781 C 212.304688 230.964844 212.914062 231.789062 213.484375 232.636719 C 214.050781 233.488281 214.578125 234.367188 215.058594 235.269531 C 215.542969 236.171875 215.980469 237.09375 216.371094 238.042969 C 216.761719 238.988281 217.105469 239.949219 217.40625 240.929688 C 217.703125 241.90625 217.949219 242.898438 218.148438 243.902344 C 218.347656 244.90625 218.5 245.917969 218.597656 246.9375 C 218.699219 247.957031 218.75 248.976562 218.75 250 C 218.75 251.023438 218.699219 252.042969 218.597656 253.0625 C 218.5 254.082031 218.347656 255.09375 218.148438 256.097656 C 217.949219 257.101562 217.703125 258.09375 217.40625 259.070312 C 217.105469 260.050781 216.761719 261.011719 216.371094 261.957031 C 215.980469 262.90625 215.542969 263.828125 215.058594 264.730469 C 214.578125 265.632812 214.050781 266.511719 213.484375 267.363281 C 212.914062 268.210938 212.304688 269.035156 211.65625 269.824219 C 211.007812 270.617188 210.320312 271.375 209.597656 272.097656 C 208.875 272.820312 208.117188 273.507812 207.324219 274.15625 C 206.535156 274.804688 205.710938 275.414062 204.863281 275.984375 C 204.011719 276.550781 203.132812 277.078125 202.230469 277.558594 C 201.328125 278.042969 200.40625 278.480469 199.457031 278.871094 C 198.511719 279.261719 197.550781 279.605469 196.570312 279.90625 C 195.59375 280.203125 194.601562 280.449219 193.597656 280.648438 C 192.59375 280.847656 191.582031 281 190.5625 281.097656 C 189.542969 281.199219 188.523438 281.25 187.5 281.25 C 186.476562 281.25 185.457031 281.199219 184.4375 281.097656 C 183.421875 280.996094 182.410156 280.84375 181.40625 280.644531 C 180.402344 280.441406 179.410156 280.195312 178.433594 279.894531 C 177.453125 279.597656 176.492188 279.253906 175.546875 278.859375 C 174.601562 278.46875 173.679688 278.03125 172.777344 277.550781 C 171.875 277.066406 170.996094 276.539062 170.148438 275.972656 C 169.296875 275.402344 168.476562 274.792969 167.683594 274.144531 C 166.894531 273.496094 166.136719 272.808594 165.414062 272.085938 C 164.691406 271.363281 164.003906 270.605469 163.355469 269.816406 C 162.707031 269.023438 162.097656 268.203125 161.527344 267.351562 C 160.960938 266.503906 160.433594 265.625 159.949219 264.722656 C 159.46875 263.820312 159.03125 262.898438 158.640625 261.953125 C 158.246094 261.007812 157.902344 260.046875 157.605469 259.066406 C 157.304688 258.089844 157.058594 257.097656 156.855469 256.09375 C 156.65625 255.089844 156.503906 254.078125 156.402344 253.0625 C 156.300781 252.042969 156.25 251.023438 156.25 250 Z M 291.101562 331.65625 L 283.96875 362.5 L 268.75 362.5 L 268.75 306.25 C 268.753906 304.800781 268.699219 303.355469 268.589844 301.914062 C 268.480469 300.46875 268.316406 299.035156 268.097656 297.601562 C 267.878906 296.171875 267.601562 294.753906 267.273438 293.34375 C 266.941406 291.933594 266.558594 290.539062 266.121094 289.160156 C 265.683594 287.78125 265.191406 286.417969 264.648438 285.078125 C 264.105469 283.738281 263.511719 282.417969 262.863281 281.121094 C 262.21875 279.828125 261.523438 278.558594 260.78125 277.316406 C 260.035156 276.074219 259.246094 274.863281 258.410156 273.683594 C 257.570312 272.503906 256.6875 271.355469 255.761719 270.242188 C 254.835938 269.132812 253.867188 268.058594 252.859375 267.019531 C 251.851562 265.980469 250.800781 264.984375 249.714844 264.03125 C 248.628906 263.074219 247.507812 262.160156 246.347656 261.292969 C 245.191406 260.421875 244.003906 259.597656 242.78125 258.820312 C 241.558594 258.042969 240.3125 257.316406 239.035156 256.636719 C 237.753906 255.953125 236.453125 255.324219 235.128906 254.746094 C 233.800781 254.164062 232.453125 253.636719 231.085938 253.164062 C 231.164062 252.113281 231.25 251.070312 231.25 250 C 231.25 248.566406 231.179688 247.136719 231.039062 245.710938 C 230.898438 244.285156 230.6875 242.871094 230.410156 241.464844 C 230.128906 240.058594 229.78125 238.671875 229.367188 237.300781 C 228.949219 235.929688 228.46875 234.582031 227.917969 233.257812 C 227.371094 231.933594 226.757812 230.640625 226.085938 229.375 C 225.410156 228.113281 224.671875 226.886719 223.875 225.695312 C 223.082031 224.503906 222.226562 223.351562 221.320312 222.246094 C 220.410156 221.136719 219.449219 220.078125 218.4375 219.0625 C 217.421875 218.050781 216.363281 217.089844 215.253906 216.179688 C 214.148438 215.273438 212.996094 214.417969 211.804688 213.625 C 210.613281 212.828125 209.386719 212.089844 208.125 211.414062 C 206.859375 210.742188 205.566406 210.128906 204.242188 209.582031 C 202.917969 209.03125 201.570312 208.550781 200.199219 208.132812 C 198.828125 207.71875 197.441406 207.371094 196.035156 207.089844 C 194.628906 206.8125 193.214844 206.601562 191.789062 206.460938 C 190.363281 206.320312 188.933594 206.25 187.5 206.25 C 186.066406 206.25 184.636719 206.320312 183.210938 206.460938 C 181.785156 206.601562 180.371094 206.8125 178.964844 207.089844 C 177.558594 207.371094 176.171875 207.71875 174.800781 208.132812 C 173.429688 208.550781 172.082031 209.03125 170.757812 209.582031 C 169.433594 210.128906 168.140625 210.742188 166.875 211.414062 C 165.613281 212.089844 164.386719 212.828125 163.195312 213.625 C 162.003906 214.417969 160.851562 215.273438 159.746094 216.179688 C 158.636719 217.089844 157.578125 218.050781 156.5625 219.0625 C 155.550781 220.078125 154.589844 221.136719 153.679688 222.246094 C 152.773438 223.351562 151.917969 224.503906 151.125 225.695312 C 150.328125 226.886719 149.589844 228.113281 148.914062 229.375 C 148.242188 230.640625 147.628906 231.933594 147.082031 233.257812 C 146.53125 234.582031 146.050781 235.929688 145.632812 237.300781 C 145.21875 238.671875 144.871094 240.058594 144.589844 241.464844 C 144.3125 242.871094 144.101562 244.285156 143.960938 245.710938 C 143.820312 247.136719 143.75 248.566406 143.75 250 C 143.75 251.070312 143.835938 252.113281 143.914062 253.164062 C 142.546875 253.636719 141.199219 254.164062 139.871094 254.746094 C 138.546875 255.324219 137.242188 255.953125 135.964844 256.636719 C 134.6875 257.316406 133.441406 258.042969 132.21875 258.820312 C 130.996094 259.597656 129.808594 260.421875 128.652344 261.292969 C 127.492188 262.160156 126.371094 263.074219 125.285156 264.03125 C 124.199219 264.984375 123.148438 265.980469 122.140625 267.019531 C 121.132812 268.058594 120.164062 269.132812 119.238281 270.242188 C 118.3125 271.355469 117.429688 272.503906 116.589844 273.683594 C 115.753906 274.863281 114.964844 276.074219 114.21875 277.316406 C 113.476562 278.558594 112.78125 279.828125 112.136719 281.121094 C 111.488281 282.417969 110.894531 283.738281 110.351562 285.078125 C 109.808594 286.417969 109.316406 287.78125 108.878906 289.160156 C 108.441406 290.539062 108.058594 291.933594 107.726562 293.34375 C 107.398438 294.753906 107.121094 296.171875 106.902344 297.601562 C 106.683594 299.035156 106.519531 300.46875 106.410156 301.914062 C 106.300781 303.355469 106.246094 304.800781 106.25 306.25 L 106.25 362.5 L 91.03125 362.5 L 83.90625 331.664062 C 81.042969 319.132812 79.515625 306.445312 79.332031 293.59375 C 79.148438 280.746094 80.308594 268.015625 82.8125 255.414062 L 93.625 201.226562 L 81.375 198.75 L 77.386719 218.75 L 45.679688 218.75 L 50.914062 199.574219 C 51.289062 198.207031 51.71875 196.859375 52.199219 195.523438 C 52.675781 194.191406 53.203125 192.878906 53.78125 191.582031 C 54.359375 190.289062 54.984375 189.019531 55.660156 187.769531 C 56.332031 186.523438 57.050781 185.304688 57.816406 184.113281 C 58.582031 182.917969 59.390625 181.757812 60.246094 180.625 C 61.097656 179.492188 61.992188 178.394531 62.925781 177.328125 C 63.863281 176.261719 64.835938 175.234375 65.847656 174.242188 C 66.859375 173.253906 67.910156 172.300781 68.992188 171.386719 C 70.078125 170.472656 71.195312 169.601562 72.34375 168.773438 C 73.492188 167.945312 74.671875 167.160156 75.882812 166.421875 C 77.089844 165.679688 78.324219 164.988281 79.585938 164.339844 C 80.847656 163.691406 82.128906 163.09375 83.4375 162.542969 C 84.742188 161.992188 86.066406 161.492188 87.410156 161.042969 C 88.753906 160.589844 90.113281 160.191406 91.484375 159.839844 C 92.859375 159.492188 94.246094 159.195312 95.640625 158.949219 C 97.035156 158.707031 98.441406 158.515625 99.851562 158.375 L 187.5 150 L 275.148438 158.375 C 276.558594 158.515625 277.964844 158.707031 279.359375 158.949219 C 280.753906 159.195312 282.140625 159.492188 283.515625 159.839844 C 284.886719 160.191406 286.246094 160.589844 287.589844 161.042969 C 288.933594 161.492188 290.257812 161.992188 291.5625 162.542969 C 292.871094 163.09375 294.152344 163.691406 295.414062 164.339844 C 296.675781 164.988281 297.910156 165.679688 299.117188 166.421875 C 300.328125 167.160156 301.507812 167.945312 302.65625 168.773438 C 303.804688 169.601562 304.921875 170.472656 306.007812 171.386719 C 307.089844 172.300781 308.140625 173.253906 309.152344 174.242188 C 310.164062 175.234375 311.136719 176.261719 312.074219 177.328125 C 313.007812 178.394531 313.902344 179.492188 314.753906 180.625 C 315.609375 181.757812 316.417969 182.917969 317.183594 184.113281 C 317.949219 185.304688 318.667969 186.523438 319.339844 187.769531 C 320.015625 189.019531 320.640625 190.289062 321.21875 191.582031 C 321.796875 192.878906 322.324219 194.191406 322.800781 195.523438 C 323.28125 196.859375 323.710938 198.207031 324.085938 199.574219 L 329.320312 218.75 L 297.613281 218.75 L 293.625 198.75 L 281.375 201.199219 L 292.1875 255.394531 C 294.695312 268 295.855469 280.730469 295.671875 293.582031 C 295.488281 306.433594 293.964844 319.125 291.101562 331.65625 Z M 291.101562 331.65625 " fill-opacity="1" fill-rule="nonzero"/><path fill="#000000" d="M 225 87.5 L 225 87.125 C 225 86.859375 224.984375 86.589844 224.949219 86.328125 C 224.914062 86.0625 224.863281 85.800781 224.796875 85.542969 C 224.726562 85.28125 224.644531 85.03125 224.542969 84.78125 C 224.441406 84.535156 224.328125 84.292969 224.195312 84.0625 C 224.066406 83.828125 223.917969 83.605469 223.761719 83.390625 C 223.601562 83.175781 223.425781 82.972656 223.242188 82.78125 C 223.054688 82.589844 222.859375 82.410156 222.648438 82.242188 C 222.441406 82.078125 222.222656 81.921875 221.992188 81.785156 C 221.765625 81.644531 221.527344 81.523438 221.285156 81.414062 C 221.039062 81.304688 220.789062 81.214844 220.535156 81.136719 C 220.277344 81.0625 220.019531 81 219.753906 80.957031 C 219.492188 80.914062 219.226562 80.890625 218.957031 80.882812 C 218.691406 80.871094 218.425781 80.878906 218.15625 80.90625 C 217.890625 80.929688 217.628906 80.972656 217.367188 81.03125 C 217.109375 81.089844 216.851562 81.167969 216.601562 81.257812 C 216.351562 81.351562 216.105469 81.457031 215.867188 81.582031 C 211.429688 83.636719 206.8125 85.167969 202.023438 86.167969 C 197.234375 87.164062 192.390625 87.609375 187.5 87.5 C 182.609375 87.609375 177.765625 87.164062 172.976562 86.167969 C 168.1875 85.167969 163.570312 83.636719 159.132812 81.582031 C 158.148438 81.105469 157.109375 80.902344 156.019531 80.972656 C 154.925781 81.039062 153.921875 81.371094 153.007812 81.96875 C 152.066406 82.574219 151.328125 83.367188 150.796875 84.351562 C 150.261719 85.332031 149.996094 86.382812 150 87.5 C 150 88.726562 150.058594 89.953125 150.179688 91.175781 C 150.300781 92.398438 150.480469 93.609375 150.71875 94.816406 C 150.960938 96.019531 151.257812 97.210938 151.613281 98.386719 C 151.972656 99.5625 152.382812 100.714844 152.855469 101.851562 C 153.324219 102.984375 153.847656 104.09375 154.429688 105.175781 C 155.007812 106.261719 155.636719 107.3125 156.320312 108.332031 C 157.003906 109.355469 157.734375 110.339844 158.511719 111.289062 C 159.292969 112.238281 160.113281 113.148438 160.984375 114.015625 C 161.851562 114.886719 162.761719 115.707031 163.710938 116.488281 C 164.660156 117.265625 165.644531 117.996094 166.667969 118.679688 C 167.6875 119.363281 168.738281 119.992188 169.824219 120.570312 C 170.90625 121.152344 172.015625 121.675781 173.148438 122.144531 C 174.285156 122.617188 175.4375 123.027344 176.613281 123.386719 C 177.789062 123.742188 178.980469 124.039062 180.183594 124.28125 C 181.386719 124.519531 182.601562 124.699219 183.824219 124.820312 C 185.046875 124.941406 186.273438 125 187.5 125 C 188.726562 125 189.953125 124.941406 191.175781 124.820312 C 192.398438 124.699219 193.609375 124.519531 194.816406 124.28125 C 196.019531 124.039062 197.210938 123.742188 198.386719 123.386719 C 199.5625 123.027344 200.714844 122.617188 201.851562 122.144531 C 202.984375 121.675781 204.09375 121.152344 205.175781 120.570312 C 206.261719 119.992188 207.3125 119.363281 208.332031 118.679688 C 209.355469 117.996094 210.339844 117.265625 211.289062 116.488281 C 212.238281 115.707031 213.148438 114.886719 214.015625 114.015625 C 214.886719 113.148438 215.707031 112.238281 216.488281 111.289062 C 217.265625 110.339844 217.996094 109.355469 218.679688 108.332031 C 219.363281 107.3125 219.992188 106.261719 220.570312 105.175781 C 221.152344 104.09375 221.675781 102.984375 222.144531 101.851562 C 222.617188 100.714844 223.027344 99.5625 223.386719 98.386719 C 223.742188 97.210938 224.039062 96.019531 224.28125 94.816406 C 224.519531 93.609375 224.699219 92.398438 224.820312 91.175781 C 224.941406 89.953125 225 88.726562 225 87.5 Z M 164.429688 96.976562 C 172.007812 98.953125 179.707031 99.945312 187.539062 99.945312 C 195.367188 99.945312 203.070312 98.953125 210.644531 96.976562 C 210.179688 98.117188 209.632812 99.21875 209.003906 100.277344 C 208.375 101.339844 207.671875 102.347656 206.894531 103.304688 C 206.117188 104.261719 205.269531 105.15625 204.359375 105.988281 C 203.449219 106.820312 202.484375 107.578125 201.460938 108.265625 C 200.4375 108.953125 199.367188 109.5625 198.253906 110.09375 C 197.140625 110.621094 195.996094 111.066406 194.816406 111.425781 C 193.636719 111.785156 192.4375 112.058594 191.214844 112.238281 C 189.996094 112.421875 188.769531 112.511719 187.539062 112.511719 C 186.304688 112.511719 185.078125 112.421875 183.859375 112.238281 C 182.640625 112.058594 181.4375 111.785156 180.261719 111.425781 C 179.082031 111.066406 177.933594 110.621094 176.820312 110.09375 C 175.707031 109.5625 174.636719 108.953125 173.617188 108.265625 C 172.59375 107.578125 171.625 106.820312 170.714844 105.988281 C 169.804688 105.15625 168.960938 104.261719 168.179688 103.304688 C 167.402344 102.347656 166.699219 101.339844 166.070312 100.277344 C 165.441406 99.21875 164.894531 98.117188 164.429688 96.976562 Z M 164.429688 96.976562 " fill-opacity="1" fill-rule="nonzero"/><path fill="#000000" d="M 225 43.75 L 225 31.25 C 223.976562 31.25 222.957031 31.300781 221.9375 31.402344 C 220.921875 31.503906 219.910156 31.65625 218.90625 31.855469 C 217.902344 32.058594 216.910156 32.304688 215.933594 32.605469 C 214.953125 32.902344 213.992188 33.246094 213.046875 33.640625 C 212.101562 34.03125 211.179688 34.46875 210.277344 34.949219 C 209.375 35.433594 208.496094 35.960938 207.648438 36.527344 C 206.796875 37.097656 205.976562 37.707031 205.183594 38.355469 C 204.394531 39.003906 203.636719 39.691406 202.914062 40.414062 C 202.191406 41.136719 201.503906 41.894531 200.855469 42.683594 C 200.207031 43.476562 199.597656 44.296875 199.027344 45.148438 C 198.460938 45.996094 197.933594 46.875 197.449219 47.777344 C 196.96875 48.679688 196.53125 49.601562 196.140625 50.546875 C 195.746094 51.492188 195.402344 52.453125 195.105469 53.433594 C 194.804688 54.410156 194.558594 55.402344 194.355469 56.40625 C 194.15625 57.410156 194.003906 58.421875 193.902344 59.4375 C 193.800781 60.457031 193.75 61.476562 193.75 62.5 L 206.25 62.5 C 206.25 61.886719 206.28125 61.273438 206.339844 60.664062 C 206.402344 60.050781 206.492188 59.445312 206.609375 58.84375 C 206.730469 58.238281 206.878906 57.644531 207.058594 57.058594 C 207.234375 56.46875 207.441406 55.890625 207.675781 55.324219 C 207.914062 54.757812 208.175781 54.203125 208.464844 53.660156 C 208.753906 53.121094 209.070312 52.59375 209.410156 52.082031 C 209.75 51.574219 210.117188 51.078125 210.507812 50.605469 C 210.894531 50.128906 211.308594 49.675781 211.742188 49.242188 C 212.175781 48.808594 212.628906 48.394531 213.105469 48.007812 C 213.578125 47.617188 214.074219 47.25 214.582031 46.910156 C 215.09375 46.570312 215.621094 46.253906 216.160156 45.964844 C 216.703125 45.675781 217.257812 45.414062 217.824219 45.175781 C 218.390625 44.941406 218.96875 44.734375 219.558594 44.558594 C 220.144531 44.378906 220.738281 44.230469 221.34375 44.109375 C 221.945312 43.992188 222.550781 43.902344 223.164062 43.839844 C 223.773438 43.78125 224.386719 43.75 225 43.75 Z M 225 43.75 " fill-opacity="1" fill-rule="nonzero"/><path fill="#000000" d="M 168.75 62.5 L 181.25 62.5 C 181.25 61.476562 181.199219 60.457031 181.097656 59.4375 C 180.996094 58.421875 180.84375 57.410156 180.644531 56.40625 C 180.441406 55.402344 180.195312 54.410156 179.894531 53.433594 C 179.597656 52.453125 179.253906 51.492188 178.859375 50.546875 C 178.46875 49.601562 178.03125 48.679688 177.550781 47.777344 C 177.066406 46.875 176.539062 45.996094 175.972656 45.148438 C 175.402344 44.296875 174.792969 43.476562 174.144531 42.683594 C 173.496094 41.894531 172.808594 41.136719 172.085938 40.414062 C 171.363281 39.691406 170.605469 39.003906 169.816406 38.355469 C 169.023438 37.707031 168.203125 37.097656 167.351562 36.527344 C 166.503906 35.960938 165.625 35.433594 164.722656 34.949219 C 163.820312 34.46875 162.898438 34.03125 161.953125 33.640625 C 161.007812 33.246094 160.046875 32.902344 159.066406 32.605469 C 158.089844 32.304688 157.097656 32.058594 156.09375 31.855469 C 155.089844 31.65625 154.078125 31.503906 153.0625 31.402344 C 152.042969 31.300781 151.023438 31.25 150 31.25 L 150 43.75 C 150.613281 43.75 151.226562 43.78125 151.835938 43.839844 C 152.449219 43.902344 153.054688 43.992188 153.65625 44.109375 C 154.261719 44.230469 154.855469 44.378906 155.441406 44.558594 C 156.03125 44.734375 156.609375 44.941406 157.175781 45.175781 C 157.742188 45.414062 158.296875 45.675781 158.839844 45.964844 C 159.378906 46.253906 159.90625 46.570312 160.417969 46.910156 C 160.925781 47.25 161.421875 47.617188 161.894531 48.007812 C 162.371094 48.394531 162.824219 48.808594 163.257812 49.242188 C 163.691406 49.675781 164.105469 50.128906 164.492188 50.605469 C 164.882812 51.078125 165.25 51.574219 165.589844 52.082031 C 165.929688 52.59375 166.246094 53.121094 166.535156 53.660156 C 166.824219 54.203125 167.085938 54.757812 167.324219 55.324219 C 167.558594 55.890625 167.765625 56.46875 167.941406 57.058594 C 168.121094 57.644531 168.269531 58.238281 168.390625 58.84375 C 168.507812 59.445312 168.597656 60.050781 168.660156 60.664062 C 168.71875 61.273438 168.75 61.886719 168.75 62.5 Z M 168.75 62.5 " fill-opacity="1" fill-rule="nonzero"/></svg>