<svg xmlns="http://www.w3.org/2000/svg" xmlns:xlink="http://www.w3.org/1999/xlink" width="500" zoomAndPan="magnify" viewBox="0 0 375 374.999991" height="500" preserveAspectRatio="xMidYMid meet" version="1.0"><defs><clipPath id="fa95a381d0"><path d="M 185 211 L 358.707031 211 L 358.707031 306 L 185 306 Z M 185 211 " clip-rule="nonzero"/></clipPath><clipPath id="6e2991a04c"><path d="M 152 280 L 358.707031 280 L 358.707031 343 L 152 343 Z M 152 280 " clip-rule="nonzero"/></clipPath></defs><path fill="#1b1919" d="M 335.714844 81.042969 C 334.804688 73.941406 332.949219 66.945312 330.175781 60.269531 C 324.9375 47.6875 316.460938 36.234375 304.894531 27.308594 C 269.539062 0.015625 218.769531 6.566406 191.488281 41.953125 L 113.589844 143.027344 C 136.101562 146.335938 162.992188 158.417969 188.625 178.195312 C 193.972656 182.324219 198.992188 186.589844 203.699219 190.953125 C 209.515625 189.285156 215.640625 187.882812 222.011719 186.792969 C 214.835938 179.457031 206.871094 172.398438 198.234375 165.738281 C 179.53125 151.28125 159.734375 140.320312 140.664062 133.675781 L 203.945312 51.574219 C 214.566406 37.796875 229.925781 28.976562 247.167969 26.742188 C 264.425781 24.519531 281.515625 29.152344 295.28125 39.78125 C 304.28125 46.726562 311.3125 55.90625 315.640625 66.316406 C 317.859375 71.671875 319.371094 77.3125 320.109375 83.058594 C 322.34375 100.335938 317.703125 117.4375 307.082031 131.21875 L 266.171875 184.292969 C 272.5 184.621094 278.683594 185.238281 284.644531 186.101562 L 319.542969 140.839844 C 333.167969 123.136719 338.359375 101.59375 335.714844 81.042969 " fill-opacity="1" fill-rule="nonzero"/><path fill="#1b1919" d="M 171.09375 333.429688 C 143.765625 368.566406 93.183594 375.007812 57.90625 347.78125 C 22.554688 320.472656 16.007812 269.648438 43.273438 234.261719 L 103.472656 156.148438 C 123.296875 156.761719 151.335938 167.316406 179.96875 189.425781 C 182.898438 191.679688 185.695312 193.960938 188.386719 196.261719 C 159.3125 208.230469 140.664062 227.945312 140.664062 250.65625 L 140.664062 287.824219 C 140.664062 305.621094 152.136719 321.589844 171.09375 333.429688 " fill-opacity="1" fill-rule="nonzero"/><g clip-path="url(#fa95a381d0)"><path fill="#1b1919" d="M 218.578125 271.804688 L 327.1875 211.570312 C 346.492188 221.601562 358.671875 235.535156 358.671875 250.65625 C 358.671875 280.453125 311.425781 305.636719 255.492188 305.636719 C 235.035156 305.636719 215.777344 302.265625 199.542969 296.535156 C 194.382812 294.722656 189.535156 292.660156 185.050781 290.40625 L 218.578125 271.804688 " fill-opacity="1" fill-rule="nonzero"/></g><path fill="#1b1919" d="M 152.324219 250.65625 C 152.324219 250.152344 152.339844 249.648438 152.371094 249.144531 C 152.386719 248.878906 152.402344 248.609375 152.433594 248.339844 C 152.449219 248.058594 152.464844 247.777344 152.515625 247.503906 C 152.542969 247.0625 152.609375 246.640625 152.6875 246.214844 C 152.734375 245.851562 152.796875 245.492188 152.875 245.125 C 152.953125 244.671875 153.0625 244.214844 153.175781 243.773438 C 153.316406 243.207031 153.472656 242.640625 153.644531 242.089844 C 153.789062 241.601562 153.945312 241.128906 154.132812 240.640625 C 154.179688 240.484375 154.246094 240.308594 154.308594 240.152344 C 154.449219 239.773438 154.605469 239.382812 154.78125 238.984375 C 154.9375 238.609375 155.09375 238.246094 155.265625 237.886719 C 155.550781 237.285156 155.832031 236.703125 156.164062 236.121094 C 156.589844 235.289062 157.078125 234.449219 157.613281 233.628906 C 157.816406 233.300781 158.035156 232.953125 158.273438 232.625 C 159.453125 230.875 160.804688 229.160156 162.316406 227.472656 C 162.679688 227.066406 163.070312 226.65625 163.480469 226.230469 C 163.480469 226.214844 163.496094 226.199219 163.527344 226.167969 C 164 225.679688 164.472656 225.207031 164.976562 224.71875 C 165.382812 224.324219 165.792969 223.929688 166.234375 223.539062 C 166.546875 223.253906 166.863281 222.96875 167.191406 222.6875 C 167.539062 222.371094 167.902344 222.058594 168.277344 221.742188 C 168.765625 221.332031 169.253906 220.925781 169.773438 220.527344 C 171.613281 219.0625 173.597656 217.644531 175.6875 216.277344 C 176.238281 215.898438 176.824219 215.535156 177.40625 215.1875 C 178.082031 214.765625 178.757812 214.355469 179.464844 213.945312 C 180.160156 213.535156 180.867188 213.125 181.589844 212.734375 C 182.3125 212.339844 183.035156 211.945312 183.792969 211.554688 C 184.53125 211.171875 185.289062 210.78125 186.042969 210.421875 C 186.4375 210.214844 186.828125 210.023438 187.238281 209.835938 C 187.992188 209.472656 188.765625 209.109375 189.550781 208.761719 C 189.960938 208.574219 190.382812 208.386719 190.808594 208.199219 C 191.582031 207.867188 192.382812 207.539062 193.1875 207.207031 C 194.824219 206.527344 196.507812 205.882812 198.21875 205.253906 C 203.035156 203.492188 208.132812 201.945312 213.464844 200.636719 C 213.671875 200.589844 213.875 200.542969 214.09375 200.496094 C 215.339844 200.179688 216.597656 199.898438 217.855469 199.632812 C 218.722656 199.441406 219.585938 199.269531 220.449219 199.09375 C 220.65625 199.046875 220.878906 199 221.097656 198.96875 C 221.664062 198.84375 222.230469 198.730469 222.8125 198.640625 C 222.953125 198.605469 223.09375 198.574219 223.238281 198.558594 C 224.289062 198.371094 225.34375 198.183594 226.414062 198.023438 C 226.808594 197.945312 227.214844 197.882812 227.625 197.820312 C 228.902344 197.613281 230.175781 197.441406 231.464844 197.265625 C 231.496094 197.253906 231.542969 197.253906 231.578125 197.253906 C 239.285156 196.230469 247.292969 195.691406 255.492188 195.691406 C 256.121094 195.691406 256.734375 195.691406 257.363281 195.710938 C 257.550781 195.710938 257.738281 195.710938 257.929688 195.726562 C 259.109375 195.726562 260.273438 195.757812 261.4375 195.804688 C 261.8125 195.804688 262.195312 195.816406 262.570312 195.832031 C 264.035156 195.882812 265.511719 195.960938 266.960938 196.054688 C 268.425781 196.148438 269.871094 196.246094 271.304688 196.371094 C 271.710938 196.402344 272.105469 196.433594 272.5 196.480469 C 273.789062 196.605469 275.0625 196.75 276.339844 196.890625 C 289.949219 198.433594 302.660156 201.472656 313.832031 205.648438 L 230.488281 251.867188 L 173.441406 283.507812 C 160.238281 274.28125 152.324219 262.84375 152.324219 250.65625 " fill-opacity="1" fill-rule="nonzero"/><g clip-path="url(#6e2991a04c)"><path fill="#1b1919" d="M 358.671875 280.359375 L 358.671875 287.824219 C 358.671875 317.617188 311.425781 342.785156 255.492188 342.785156 C 225.234375 342.785156 197.5 335.417969 178.441406 323.933594 C 176.585938 322.816406 174.808594 321.652344 173.140625 320.472656 C 172.636719 320.125 172.148438 319.761719 171.660156 319.398438 C 171.175781 319.039062 170.703125 318.675781 170.230469 318.3125 C 167.351562 316.0625 164.769531 313.699219 162.535156 311.257812 C 162.222656 310.914062 161.90625 310.566406 161.609375 310.203125 C 161.105469 309.636719 160.632812 309.066406 160.191406 308.488281 C 159.894531 308.105469 159.609375 307.730469 159.324219 307.351562 C 157.1875 304.472656 155.519531 301.476562 154.339844 298.40625 C 154.210938 298.074219 154.085938 297.742188 153.976562 297.414062 C 153.835938 297.007812 153.691406 296.578125 153.566406 296.171875 C 153.550781 296.089844 153.519531 295.996094 153.488281 295.902344 C 153.378906 295.507812 153.269531 295.113281 153.175781 294.703125 C 153.0625 294.265625 152.953125 293.808594 152.875 293.351562 C 152.78125 292.894531 152.703125 292.4375 152.640625 291.980469 C 152.5625 291.527344 152.515625 291.066406 152.464844 290.597656 C 152.433594 290.265625 152.402344 289.933594 152.386719 289.589844 C 152.339844 289.003906 152.324219 288.40625 152.324219 287.824219 L 152.324219 280.359375 C 153.535156 281.808594 154.839844 283.226562 156.226562 284.609375 C 156.824219 285.191406 157.421875 285.789062 158.050781 286.359375 C 159.34375 287.554688 160.679688 288.71875 162.097656 289.867188 C 162.519531 290.203125 162.945312 290.550781 163.371094 290.863281 C 163.828125 291.242188 164.28125 291.585938 164.753906 291.933594 C 164.785156 291.949219 164.816406 291.980469 164.847656 291.996094 C 165.636719 292.59375 166.421875 293.164062 167.242188 293.710938 C 168.074219 294.296875 168.921875 294.863281 169.789062 295.414062 C 169.804688 295.429688 169.820312 295.445312 169.835938 295.445312 C 170.636719 295.964844 171.441406 296.484375 172.273438 296.972656 C 172.527344 297.128906 172.761719 297.269531 173.015625 297.414062 C 173.566406 297.757812 174.132812 298.074219 174.699219 298.390625 C 175.25 298.71875 175.816406 299.035156 176.382812 299.335938 C 177.121094 299.746094 177.878906 300.152344 178.628906 300.515625 C 179.324219 300.894531 180.035156 301.257812 180.742188 301.601562 C 180.945312 301.699219 181.132812 301.808594 181.339844 301.886719 C 182.046875 302.234375 182.769531 302.578125 183.507812 302.925781 C 184.234375 303.253906 184.972656 303.585938 185.710938 303.902344 C 186.453125 304.230469 187.191406 304.546875 187.945312 304.863281 C 188.542969 305.117188 189.15625 305.367188 189.789062 305.605469 C 190.496094 305.902344 191.203125 306.167969 191.910156 306.4375 C 210.003906 313.320312 231.796875 317.289062 255.492188 317.289062 C 301.386719 317.289062 340.171875 302.40625 358.671875 280.359375 " fill-opacity="1" fill-rule="nonzero"/></g></svg>