<svg xmlns="http://www.w3.org/2000/svg" xmlns:xlink="http://www.w3.org/1999/xlink" width="500" zoomAndPan="magnify" viewBox="0 0 375 374.999991" height="500" preserveAspectRatio="xMidYMid meet" version="1.0"><path fill="#000000" d="M 128.917969 316.703125 C 128.917969 348.957031 155.160156 375.195312 187.410156 375.195312 C 219.65625 375.195312 245.902344 348.957031 245.902344 316.703125 L 245.902344 258.210938 L 128.917969 258.210938 Z M 219.90625 316.703125 L 219.90625 284.207031 L 232.902344 284.207031 L 232.902344 316.703125 C 232.902344 329.597656 227.378906 341.953125 217.742188 350.589844 L 209.0625 340.90625 C 215.953125 334.738281 219.90625 325.910156 219.90625 316.703125 Z M 187.410156 349.199219 C 191.121094 349.199219 194.765625 348.574219 198.238281 347.347656 L 202.578125 359.597656 C 197.710938 361.324219 192.601562 362.195312 187.410156 362.195312 Z M 187.410156 349.199219 " fill-opacity="1" fill-rule="nonzero"/><path fill="#000000" d="M 115.917969 275.863281 C 104.855469 289.183594 98.085938 305.550781 96.695312 322.921875 C 103.238281 322.390625 109.707031 321.03125 116.035156 318.953125 C 116.007812 318.199219 115.917969 317.457031 115.917969 316.703125 Z M 115.917969 275.863281 " fill-opacity="1" fill-rule="nonzero"/><path fill="#000000" d="M 115.917969 257.253906 L 115.917969 245.210938 C 93.035156 245.210938 74.050781 262.1875 70.886719 284.207031 L 94.863281 284.1875 C 100.183594 274.152344 107.253906 265.027344 115.917969 257.253906 Z M 115.917969 257.253906 " fill-opacity="1" fill-rule="nonzero"/><path fill="#000000" d="M 176.347656 116.179688 L 151.566406 101.308594 L 158.253906 90.164062 L 180.902344 103.753906 L 180.902344 86.414062 L 151.558594 68.804688 L 158.253906 57.667969 L 180.902344 71.257812 L 180.902344 24.242188 L 193.902344 24.242188 L 193.902344 71.257812 L 216.550781 57.667969 L 223.238281 68.8125 L 193.894531 86.417969 L 193.894531 103.757812 L 216.542969 90.167969 L 223.230469 101.316406 L 198.449219 116.183594 C 213.164062 118.484375 226.398438 125.246094 236.703125 135.097656 C 238.445312 126.265625 239.390625 117.335938 239.390625 108.40625 C 239.390625 65.914062 220.464844 26.523438 187.394531 0.0078125 C 154.328125 26.523438 135.402344 65.90625 135.402344 108.40625 C 135.402344 117.335938 136.34375 126.265625 138.085938 135.097656 C 148.40625 125.238281 161.632812 118.480469 176.347656 116.179688 Z M 176.347656 116.179688 " fill-opacity="1" fill-rule="nonzero"/><path fill="#000000" d="M 0.324219 128.226562 C 12.875 183.984375 58.984375 225.007812 115.917969 231.179688 L 115.917969 209.121094 C 104.804688 204.457031 94.109375 199.179688 84.066406 193.667969 L 60.332031 205.527344 L 54.515625 193.902344 L 70.484375 185.914062 C 38.214844 166.597656 15.558594 147.324219 14.195312 146.152344 L 22.648438 136.28125 C 22.941406 136.535156 41.074219 151.929688 67.65625 168.820312 L 58.167969 150.746094 L 69.675781 144.703125 L 89.011719 181.515625 C 97.570312 186.265625 106.585938 190.859375 115.917969 194.992188 L 115.917969 186.71875 C 115.917969 175.105469 118.765625 164.160156 123.699219 154.453125 C 99.460938 137.347656 71.222656 128.226562 41.574219 128.226562 Z M 0.324219 128.226562 " fill-opacity="1" fill-rule="nonzero"/><path fill="#000000" d="M 258.898438 316.703125 C 258.898438 317.464844 258.808594 318.199219 258.78125 318.953125 C 265.113281 321.03125 271.578125 322.382812 278.125 322.921875 C 276.734375 305.550781 269.953125 289.183594 258.898438 275.863281 Z M 258.898438 316.703125 " fill-opacity="1" fill-rule="nonzero"/><path fill="#000000" d="M 187.410156 128.226562 C 155.160156 128.226562 128.917969 154.464844 128.917969 186.71875 L 128.917969 245.210938 L 245.902344 245.210938 L 245.902344 186.71875 C 245.902344 154.472656 219.65625 128.226562 187.410156 128.226562 Z M 187.410156 128.226562 " fill-opacity="1" fill-rule="nonzero"/><path fill="#000000" d="M 258.898438 245.210938 L 258.898438 257.25 C 267.5625 265.023438 274.628906 274.144531 279.957031 284.1875 L 303.933594 284.207031 C 300.765625 262.195312 281.777344 245.210938 258.898438 245.210938 Z M 258.898438 245.210938 " fill-opacity="1" fill-rule="nonzero"/><path fill="#000000" d="M 333.242188 128.226562 C 303.59375 128.226562 275.355469 137.347656 251.121094 154.453125 C 256.058594 164.160156 258.898438 175.105469 258.898438 186.71875 L 258.898438 194.992188 C 268.152344 190.890625 277.101562 186.335938 285.597656 181.625 L 305.148438 144.683594 L 316.636719 150.765625 L 307.046875 168.898438 C 333.691406 151.980469 351.871094 136.539062 352.160156 136.292969 L 360.617188 146.164062 C 359.253906 147.335938 336.539062 166.65625 304.203125 186 L 320.257812 193.886719 L 314.519531 205.554688 L 290.5625 193.773438 C 280.574219 199.242188 269.933594 204.480469 258.894531 209.121094 L 258.894531 231.179688 C 315.824219 225.007812 361.9375 183.976562 374.488281 128.226562 Z M 333.242188 128.226562 " fill-opacity="1" fill-rule="nonzero"/></svg>