<svg xmlns="http://www.w3.org/2000/svg" xmlns:xlink="http://www.w3.org/1999/xlink" width="500" zoomAndPan="magnify" viewBox="0 0 375 374.999991" height="500" preserveAspectRatio="xMidYMid meet" version="1.0"><defs><g/><clipPath id="4c66c33d60"><path d="M 119.003906 95.105469 L 256.253906 95.105469 L 256.253906 171 L 119.003906 171 Z M 119.003906 95.105469 " clip-rule="nonzero"/></clipPath><clipPath id="a0e3b4fdea"><path d="M 127 158 L 248 158 L 248 234.605469 L 127 234.605469 Z M 127 158 " clip-rule="nonzero"/></clipPath><clipPath id="44e6e597a2"><path d="M 145 133.105469 L 186 133.105469 L 186 217.855469 L 145 217.855469 Z M 145 133.105469 " clip-rule="nonzero"/></clipPath><clipPath id="7ba61b4ed4"><path d="M 189 133.105469 L 229.710938 133.105469 L 229.710938 217.855469 L 189 217.855469 Z M 189 133.105469 " clip-rule="nonzero"/></clipPath><clipPath id="cd17cef0dc"><path d="M 164 133.105469 L 211 133.105469 L 211 166 L 164 166 Z M 164 133.105469 " clip-rule="nonzero"/></clipPath></defs><g clip-path="url(#4c66c33d60)"><path fill="#7db56e" d="M 133.785156 151.460938 C 131.925781 145.28125 130.496094 138.839844 129.53125 132.285156 C 134.070312 131.613281 139.320312 130.171875 145.164062 127.996094 C 151.523438 125.628906 158.691406 122.359375 166.46875 118.28125 C 175.734375 113.421875 183.765625 108.496094 187.609375 106.070312 C 187.617188 106.074219 187.621094 106.078125 187.628906 106.082031 C 187.636719 106.078125 187.644531 106.074219 187.648438 106.070312 C 191.496094 108.496094 199.523438 113.421875 208.792969 118.28125 C 216.570312 122.359375 223.734375 125.628906 230.09375 127.996094 C 235.9375 130.171875 241.1875 131.613281 245.730469 132.285156 C 244.765625 138.839844 243.335938 145.28125 241.476562 151.460938 C 239.46875 158.117188 236.914062 164.636719 233.875 170.851562 C 251.308594 152.007812 256.253906 123.808594 256.253906 123.808594 L 251.066406 123.746094 C 242.839844 123.652344 229.808594 119.050781 213.386719 110.441406 C 200.671875 103.777344 190.441406 97.039062 190.339844 96.96875 L 187.648438 95.191406 L 187.628906 95.207031 L 187.609375 95.191406 L 184.917969 96.96875 C 184.816406 97.039062 174.585938 103.777344 161.871094 110.441406 C 145.449219 119.050781 132.421875 123.652344 124.191406 123.746094 L 119.003906 123.808594 C 119.003906 123.808594 123.949219 152.007812 141.382812 170.851562 C 138.34375 164.636719 135.789062 158.117188 133.785156 151.460938 " fill-opacity="1" fill-rule="nonzero"/></g><g clip-path="url(#a0e3b4fdea)"><path fill="#7db56e" d="M 187.648438 223.429688 C 187.644531 223.425781 187.636719 223.421875 187.628906 223.417969 C 187.621094 223.421875 187.617188 223.425781 187.609375 223.429688 C 157.871094 204.425781 132.488281 166.277344 127.628906 158.976562 C 129.289062 163.699219 131.175781 168.328125 133.273438 172.816406 C 139.046875 185.175781 146.484375 196.695312 155.382812 207.054688 C 163.304688 216.277344 170.949219 222.863281 175.972656 226.761719 C 181.492188 231.054688 185.148438 233.148438 185.300781 233.234375 L 187.609375 234.546875 L 187.628906 234.535156 L 187.648438 234.546875 L 189.957031 233.234375 C 190.109375 233.148438 193.765625 231.054688 199.289062 226.761719 C 204.308594 222.863281 211.953125 216.277344 219.875 207.054688 C 228.773438 196.695312 236.214844 185.175781 241.988281 172.816406 C 244.082031 168.328125 245.96875 163.699219 247.628906 158.976562 C 242.769531 166.277344 217.390625 204.425781 187.648438 223.429688 " fill-opacity="1" fill-rule="nonzero"/></g><g clip-path="url(#44e6e597a2)"><path fill="#336f29" d="M 179.105469 174.28125 C 187.613281 186.785156 185.324219 217.851562 185.324219 217.851562 C 179.105469 174.28125 151.625 173.128906 145.855469 145.300781 C 145.019531 141.269531 144.957031 137.25 145.453125 133.378906 C 145.539062 135.082031 145.742188 136.796875 146.082031 138.519531 C 149.035156 153.589844 169.628906 160.347656 179.105469 174.28125 " fill-opacity="1" fill-rule="nonzero"/></g><g clip-path="url(#7ba61b4ed4)"><path fill="#336f29" d="M 195.5625 174.28125 C 187.054688 186.785156 189.34375 217.851562 189.34375 217.851562 C 195.5625 174.28125 223.042969 173.128906 228.8125 145.300781 C 229.648438 141.269531 229.710938 137.25 229.214844 133.378906 C 229.128906 135.082031 228.925781 136.796875 228.589844 138.519531 C 225.636719 153.589844 205.039062 160.347656 195.5625 174.28125 " fill-opacity="1" fill-rule="nonzero"/></g><g clip-path="url(#cd17cef0dc)"><path fill="#336f29" d="M 208.695312 135.425781 L 186.398438 133.292969 C 184.519531 133.113281 181.53125 133.488281 179.753906 134.125 L 165.785156 139.140625 C 164.011719 139.777344 164.09375 140.445312 165.972656 140.625 L 177.113281 141.691406 L 177.113281 149.265625 C 177.183594 149.253906 177.257812 149.238281 177.332031 149.222656 C 176.78125 150.625 176.476562 152.164062 176.476562 153.777344 C 176.476562 160.238281 181.335938 165.476562 187.335938 165.476562 C 193.332031 165.476562 198.191406 160.238281 198.191406 153.777344 C 198.191406 152.164062 197.890625 150.625 197.339844 149.222656 C 197.410156 149.238281 197.484375 149.253906 197.554688 149.265625 L 197.554688 141.863281 C 195.367188 141.109375 188.539062 140.398438 188.539062 140.398438 C 192.164062 139.890625 197.554688 140.980469 197.554688 140.980469 L 205.085938 138.277344 L 205.085938 144.0625 C 204.519531 144.148438 204.109375 144.390625 204.109375 144.679688 C 204.109375 144.9375 204.445312 145.160156 204.933594 145.265625 C 204.667969 145.832031 204.5 146.753906 204.5 147.796875 C 204.5 149.519531 205.539062 150.914062 205.539062 150.914062 C 205.539062 150.914062 206.578125 149.519531 206.578125 147.796875 C 206.578125 146.753906 206.410156 145.832031 206.148438 145.265625 C 206.632812 145.160156 206.96875 144.9375 206.96875 144.679688 C 206.96875 144.390625 206.558594 144.148438 205.992188 144.0625 L 205.992188 137.949219 L 208.882812 136.914062 C 210.660156 136.273438 210.574219 135.605469 208.695312 135.425781 " fill-opacity="1" fill-rule="nonzero"/></g><g fill="#14444c" fill-opacity="1"><g transform="translate(100.597131, 260.149895)"><g><path d="M 10.140625 -19.5625 C 12.597656 -19.5625 14.617188 -19.0625 16.203125 -18.0625 C 17.785156 -17.0625 18.597656 -15.585938 18.640625 -13.640625 L 18.640625 -13.296875 L 12.84375 -13.296875 L 12.84375 -13.40625 C 12.84375 -13.96875 12.640625 -14.429688 12.234375 -14.796875 C 11.828125 -15.171875 11.203125 -15.359375 10.359375 -15.359375 C 9.546875 -15.359375 8.921875 -15.238281 8.484375 -15 C 8.046875 -14.757812 7.828125 -14.460938 7.828125 -14.109375 C 7.828125 -13.609375 8.125 -13.234375 8.71875 -12.984375 C 9.3125 -12.742188 10.269531 -12.492188 11.59375 -12.234375 C 13.132812 -11.921875 14.40625 -11.59375 15.40625 -11.25 C 16.40625 -10.90625 17.273438 -10.335938 18.015625 -9.546875 C 18.765625 -8.765625 19.148438 -7.707031 19.171875 -6.375 C 19.171875 -4.101562 18.398438 -2.414062 16.859375 -1.3125 C 15.328125 -0.21875 13.273438 0.328125 10.703125 0.328125 C 7.703125 0.328125 5.367188 -0.171875 3.703125 -1.171875 C 2.035156 -2.179688 1.203125 -3.960938 1.203125 -6.515625 L 7.046875 -6.515625 C 7.046875 -5.546875 7.296875 -4.894531 7.796875 -4.5625 C 8.296875 -4.238281 9.078125 -4.078125 10.140625 -4.078125 C 10.921875 -4.078125 11.566406 -4.160156 12.078125 -4.328125 C 12.585938 -4.492188 12.84375 -4.835938 12.84375 -5.359375 C 12.84375 -5.828125 12.554688 -6.175781 11.984375 -6.40625 C 11.421875 -6.644531 10.5 -6.894531 9.21875 -7.15625 C 7.65625 -7.488281 6.359375 -7.835938 5.328125 -8.203125 C 4.304688 -8.566406 3.414062 -9.164062 2.65625 -10 C 1.894531 -10.84375 1.515625 -11.976562 1.515625 -13.40625 C 1.515625 -15.507812 2.328125 -17.0625 3.953125 -18.0625 C 5.578125 -19.0625 7.640625 -19.5625 10.140625 -19.5625 Z M 10.140625 -19.5625 "/></g></g></g><g fill="#14444c" fill-opacity="1"><g transform="translate(120.764365, 260.149895)"><g><path d="M 11.234375 -19.5625 C 14.078125 -19.5625 16.328125 -18.847656 17.984375 -17.421875 C 19.648438 -15.992188 20.484375 -13.957031 20.484375 -11.3125 L 14.578125 -11.3125 C 14.578125 -12.425781 14.285156 -13.3125 13.703125 -13.96875 C 13.117188 -14.625 12.285156 -14.953125 11.203125 -14.953125 C 9.953125 -14.953125 9.035156 -14.554688 8.453125 -13.765625 C 7.867188 -12.984375 7.578125 -11.894531 7.578125 -10.5 L 7.578125 -8.71875 C 7.578125 -7.34375 7.867188 -6.257812 8.453125 -5.46875 C 9.035156 -4.675781 9.929688 -4.28125 11.140625 -4.28125 C 12.335938 -4.28125 13.242188 -4.585938 13.859375 -5.203125 C 14.472656 -5.816406 14.78125 -6.679688 14.78125 -7.796875 L 20.484375 -7.796875 C 20.484375 -5.171875 19.675781 -3.160156 18.0625 -1.765625 C 16.445312 -0.367188 14.171875 0.328125 11.234375 0.328125 C 7.953125 0.328125 5.46875 -0.503906 3.78125 -2.171875 C 2.09375 -3.847656 1.25 -6.328125 1.25 -9.609375 C 1.25 -12.890625 2.09375 -15.367188 3.78125 -17.046875 C 5.46875 -18.722656 7.953125 -19.5625 11.234375 -19.5625 Z M 11.234375 -19.5625 "/></g></g></g><g fill="#14444c" fill-opacity="1"><g transform="translate(142.495826, 260.149895)"><g><path d="M 15.03125 0 L 15.03125 -7.296875 L 8.234375 -7.296875 L 8.234375 0 L 2.0625 0 L 2.0625 -19.21875 L 8.234375 -19.21875 L 8.234375 -12.203125 L 15.03125 -12.203125 L 15.03125 -19.21875 L 21.203125 -19.21875 L 21.203125 0 Z M 15.03125 0 "/></g></g></g><g fill="#14444c" fill-opacity="1"><g transform="translate(165.763564, 260.149895)"><g><path d="M 11.625 -19.5625 C 14.9375 -19.5625 17.492188 -18.710938 19.296875 -17.015625 C 21.109375 -15.316406 22.015625 -12.847656 22.015625 -9.609375 C 22.015625 -6.367188 21.109375 -3.898438 19.296875 -2.203125 C 17.492188 -0.515625 14.9375 0.328125 11.625 0.328125 C 8.3125 0.328125 5.753906 -0.507812 3.953125 -2.1875 C 2.148438 -3.875 1.25 -6.347656 1.25 -9.609375 C 1.25 -12.867188 2.148438 -15.34375 3.953125 -17.03125 C 5.753906 -18.71875 8.3125 -19.5625 11.625 -19.5625 Z M 11.625 -14.953125 C 10.300781 -14.953125 9.296875 -14.550781 8.609375 -13.75 C 7.921875 -12.945312 7.578125 -11.863281 7.578125 -10.5 L 7.578125 -8.71875 C 7.578125 -7.351562 7.921875 -6.269531 8.609375 -5.46875 C 9.296875 -4.675781 10.300781 -4.28125 11.625 -4.28125 C 12.945312 -4.28125 13.957031 -4.675781 14.65625 -5.46875 C 15.351562 -6.269531 15.703125 -7.351562 15.703125 -8.71875 L 15.703125 -10.5 C 15.703125 -11.863281 15.351562 -12.945312 14.65625 -13.75 C 13.957031 -14.550781 12.945312 -14.953125 11.625 -14.953125 Z M 11.625 -14.953125 "/></g></g></g><g fill="#14444c" fill-opacity="1"><g transform="translate(189.031302, 260.149895)"><g><path d="M 11.625 -19.5625 C 14.9375 -19.5625 17.492188 -18.710938 19.296875 -17.015625 C 21.109375 -15.316406 22.015625 -12.847656 22.015625 -9.609375 C 22.015625 -6.367188 21.109375 -3.898438 19.296875 -2.203125 C 17.492188 -0.515625 14.9375 0.328125 11.625 0.328125 C 8.3125 0.328125 5.753906 -0.507812 3.953125 -2.1875 C 2.148438 -3.875 1.25 -6.347656 1.25 -9.609375 C 1.25 -12.867188 2.148438 -15.34375 3.953125 -17.03125 C 5.753906 -18.71875 8.3125 -19.5625 11.625 -19.5625 Z M 11.625 -14.953125 C 10.300781 -14.953125 9.296875 -14.550781 8.609375 -13.75 C 7.921875 -12.945312 7.578125 -11.863281 7.578125 -10.5 L 7.578125 -8.71875 C 7.578125 -7.351562 7.921875 -6.269531 8.609375 -5.46875 C 9.296875 -4.675781 10.300781 -4.28125 11.625 -4.28125 C 12.945312 -4.28125 13.957031 -4.675781 14.65625 -5.46875 C 15.351562 -6.269531 15.703125 -7.351562 15.703125 -8.71875 L 15.703125 -10.5 C 15.703125 -11.863281 15.351562 -12.945312 14.65625 -13.75 C 13.957031 -14.550781 12.945312 -14.953125 11.625 -14.953125 Z M 11.625 -14.953125 "/></g></g></g><g fill="#14444c" fill-opacity="1"><g transform="translate(212.299041, 260.149895)"><g><path d="M 2.0625 -19.21875 L 8.234375 -19.21875 L 8.234375 -4.921875 L 18.109375 -4.921875 L 18.109375 0 L 2.0625 0 Z M 2.0625 -19.21875 "/></g></g></g><g fill="#14444c" fill-opacity="1"><g transform="translate(230.929996, 260.149895)"><g><path d="M 14.953125 0 L 14.140625 -2.703125 L 7.40625 -2.703125 L 6.59375 0 L 0.28125 0 L 7.296875 -19.21875 L 14.46875 -19.21875 L 21.484375 0 Z M 8.6875 -7.015625 L 12.84375 -7.015625 L 10.84375 -13.859375 L 10.734375 -13.859375 Z M 8.6875 -7.015625 "/></g></g></g><g fill="#14444c" fill-opacity="1"><g transform="translate(252.661457, 260.149895)"><g><path d="M 20.3125 -13.328125 C 20.3125 -12.148438 19.992188 -11.085938 19.359375 -10.140625 C 18.722656 -9.191406 17.800781 -8.492188 16.59375 -8.046875 L 20.875 0 L 13.9375 0 L 10.53125 -7.015625 L 8.234375 -7.015625 L 8.234375 0 L 2.0625 0 L 2.0625 -19.21875 L 13.828125 -19.21875 C 15.203125 -19.21875 16.378906 -18.953125 17.359375 -18.421875 C 18.335938 -17.890625 19.070312 -17.171875 19.5625 -16.265625 C 20.0625 -15.367188 20.3125 -14.390625 20.3125 -13.328125 Z M 14.03125 -13.078125 C 14.03125 -13.578125 13.859375 -13.992188 13.515625 -14.328125 C 13.179688 -14.660156 12.773438 -14.828125 12.296875 -14.828125 L 8.234375 -14.828125 L 8.234375 -11.28125 L 12.296875 -11.28125 C 12.773438 -11.28125 13.179688 -11.453125 13.515625 -11.796875 C 13.859375 -12.148438 14.03125 -12.578125 14.03125 -13.078125 Z M 14.03125 -13.078125 "/></g></g></g><g fill="#336f29" fill-opacity="1"><g transform="translate(127.650715, 280.896982)"><g><path d="M 4.734375 0.15625 C 4.046875 0.15625 3.429688 0.0625 2.890625 -0.125 C 2.359375 -0.3125 1.910156 -0.550781 1.546875 -0.84375 C 1.179688 -1.144531 0.910156 -1.476562 0.734375 -1.84375 L 1.4375 -2.6875 L 1.625 -2.6875 C 2.289062 -1.550781 3.328125 -0.984375 4.734375 -0.984375 C 5.546875 -0.984375 6.148438 -1.15625 6.546875 -1.5 C 6.941406 -1.84375 7.140625 -2.316406 7.140625 -2.921875 C 7.140625 -3.273438 7.070312 -3.578125 6.9375 -3.828125 C 6.8125 -4.078125 6.597656 -4.285156 6.296875 -4.453125 C 5.992188 -4.628906 5.582031 -4.78125 5.0625 -4.90625 L 3.796875 -5.21875 C 2.859375 -5.445312 2.164062 -5.804688 1.71875 -6.296875 C 1.269531 -6.796875 1.046875 -7.425781 1.046875 -8.1875 C 1.046875 -8.726562 1.179688 -9.207031 1.453125 -9.625 C 1.734375 -10.050781 2.140625 -10.378906 2.671875 -10.609375 C 3.210938 -10.847656 3.851562 -10.96875 4.59375 -10.96875 C 5.40625 -10.96875 6.085938 -10.851562 6.640625 -10.625 C 7.203125 -10.394531 7.65625 -10.050781 8 -9.59375 L 7.375 -8.765625 L 7.1875 -8.765625 C 6.875 -9.140625 6.503906 -9.414062 6.078125 -9.59375 C 5.660156 -9.769531 5.164062 -9.859375 4.59375 -9.859375 C 3.84375 -9.859375 3.273438 -9.710938 2.890625 -9.421875 C 2.503906 -9.128906 2.3125 -8.726562 2.3125 -8.21875 C 2.3125 -7.726562 2.453125 -7.335938 2.734375 -7.046875 C 3.015625 -6.765625 3.488281 -6.546875 4.15625 -6.390625 L 5.453125 -6.078125 C 6.503906 -5.828125 7.265625 -5.445312 7.734375 -4.9375 C 8.203125 -4.425781 8.4375 -3.773438 8.4375 -2.984375 C 8.4375 -2.367188 8.300781 -1.828125 8.03125 -1.359375 C 7.757812 -0.890625 7.34375 -0.519531 6.78125 -0.25 C 6.226562 0.0195312 5.546875 0.15625 4.734375 0.15625 Z M 4.734375 0.15625 "/></g></g></g><g fill="#336f29" fill-opacity="1"><g transform="translate(143.607383, 280.896982)"><g><path d="M 2.90625 -5.09375 L 2.90625 -1.046875 L 8.421875 -1.046875 L 8.421875 0 L 1.640625 0 L 1.640625 -10.8125 L 8.296875 -10.8125 L 8.296875 -9.765625 L 2.90625 -9.765625 L 2.90625 -6.15625 L 7.671875 -6.15625 L 7.671875 -5.09375 Z M 2.90625 -5.09375 "/></g></g></g><g fill="#336f29" fill-opacity="1"><g transform="translate(159.430875, 280.896982)"><g><path d="M 5.984375 0.15625 C 5.035156 0.15625 4.191406 -0.0546875 3.453125 -0.484375 C 2.710938 -0.921875 2.128906 -1.554688 1.703125 -2.390625 C 1.285156 -3.234375 1.078125 -4.238281 1.078125 -5.40625 C 1.078125 -6.570312 1.285156 -7.570312 1.703125 -8.40625 C 2.128906 -9.25 2.710938 -9.882812 3.453125 -10.3125 C 4.191406 -10.75 5.035156 -10.96875 5.984375 -10.96875 C 6.992188 -10.96875 7.832031 -10.773438 8.5 -10.390625 C 9.175781 -10.015625 9.660156 -9.441406 9.953125 -8.671875 L 9.140625 -8.140625 L 8.953125 -8.140625 C 8.660156 -8.753906 8.273438 -9.1875 7.796875 -9.4375 C 7.328125 -9.695312 6.722656 -9.828125 5.984375 -9.828125 C 5.296875 -9.828125 4.6875 -9.675781 4.15625 -9.375 C 3.632812 -9.070312 3.21875 -8.59375 2.90625 -7.9375 C 2.59375 -7.28125 2.4375 -6.4375 2.4375 -5.40625 C 2.4375 -4.382812 2.59375 -3.546875 2.90625 -2.890625 C 3.21875 -2.234375 3.632812 -1.75 4.15625 -1.4375 C 4.6875 -1.132812 5.296875 -0.984375 5.984375 -0.984375 C 6.765625 -0.984375 7.40625 -1.160156 7.90625 -1.515625 C 8.40625 -1.867188 8.773438 -2.441406 9.015625 -3.234375 L 9.203125 -3.234375 L 10.046875 -2.8125 C 9.796875 -1.851562 9.320312 -1.117188 8.625 -0.609375 C 7.925781 -0.0976562 7.046875 0.15625 5.984375 0.15625 Z M 5.984375 0.15625 "/></g></g></g><g fill="#336f29" fill-opacity="1"><g transform="translate(176.726685, 280.896982)"><g><path d="M 5.578125 0.15625 C 4.253906 0.15625 3.25 -0.175781 2.5625 -0.84375 C 1.882812 -1.519531 1.546875 -2.519531 1.546875 -3.84375 L 1.546875 -10.8125 L 2.8125 -10.8125 L 2.8125 -3.859375 C 2.8125 -2.910156 3.039062 -2.195312 3.5 -1.71875 C 3.957031 -1.25 4.648438 -1.015625 5.578125 -1.015625 C 7.421875 -1.015625 8.34375 -1.960938 8.34375 -3.859375 L 8.34375 -10.8125 L 9.609375 -10.8125 L 9.609375 -3.84375 C 9.609375 -2.519531 9.269531 -1.519531 8.59375 -0.84375 C 7.914062 -0.175781 6.910156 0.15625 5.578125 0.15625 Z M 5.578125 0.15625 "/></g></g></g><g fill="#336f29" fill-opacity="1"><g transform="translate(194.562598, 280.896982)"><g><path d="M 1.640625 0 L 1.640625 -10.8125 L 5.5625 -10.8125 C 6.289062 -10.8125 6.898438 -10.691406 7.390625 -10.453125 C 7.890625 -10.222656 8.257812 -9.890625 8.5 -9.453125 C 8.75 -9.015625 8.875 -8.492188 8.875 -7.890625 C 8.875 -7.222656 8.703125 -6.671875 8.359375 -6.234375 C 8.023438 -5.796875 7.503906 -5.46875 6.796875 -5.25 L 6.796875 -5.09375 C 7.148438 -4.957031 7.4375 -4.738281 7.65625 -4.4375 C 7.882812 -4.144531 8.09375 -3.707031 8.28125 -3.125 L 9.265625 0 L 7.96875 0 L 6.875 -3.3125 C 6.75 -3.695312 6.601562 -4 6.4375 -4.21875 C 6.269531 -4.445312 6.054688 -4.609375 5.796875 -4.703125 C 5.546875 -4.804688 5.222656 -4.859375 4.828125 -4.859375 L 2.90625 -4.859375 L 2.90625 0 Z M 5.53125 -5.9375 C 6.207031 -5.9375 6.710938 -6.09375 7.046875 -6.40625 C 7.378906 -6.71875 7.546875 -7.195312 7.546875 -7.84375 C 7.546875 -8.476562 7.378906 -8.953125 7.046875 -9.265625 C 6.710938 -9.578125 6.207031 -9.734375 5.53125 -9.734375 L 2.90625 -9.734375 L 2.90625 -5.9375 Z M 5.53125 -5.9375 "/></g></g></g><g fill="#336f29" fill-opacity="1"><g transform="translate(211.266519, 280.896982)"><g><path d="M 2.90625 0 L 1.640625 0 L 1.640625 -10.8125 L 2.90625 -10.8125 Z M 2.90625 0 "/></g></g></g><g fill="#336f29" fill-opacity="1"><g transform="translate(222.502877, 280.896982)"><g><path d="M 8.4375 -10.8125 L 8.4375 -9.734375 L 5.046875 -9.734375 L 5.046875 0 L 3.796875 0 L 3.796875 -9.734375 L 0.40625 -9.734375 L 0.40625 -10.8125 Z M 8.4375 -10.8125 "/></g></g></g><g fill="#336f29" fill-opacity="1"><g transform="translate(238.023021, 280.896982)"><g><path d="M 5.28125 0 L 4.015625 0 L 4.015625 -4.25 L 0.28125 -10.8125 L 1.671875 -10.8125 L 4.59375 -5.75 L 4.765625 -5.75 L 7.671875 -10.8125 L 9.03125 -10.8125 L 5.28125 -4.25 Z M 5.28125 0 "/></g></g></g><g fill="#336f29" fill-opacity="1"><g transform="translate(98.481832, 297.407793)"><g><path d="M 3.6875 -7.25 C 4.1875 -7.25 4.613281 -7.160156 4.96875 -6.984375 C 5.332031 -6.804688 5.601562 -6.550781 5.78125 -6.21875 C 5.96875 -5.882812 6.0625 -5.492188 6.0625 -5.046875 C 6.0625 -4.597656 5.96875 -4.207031 5.78125 -3.875 C 5.601562 -3.539062 5.332031 -3.285156 4.96875 -3.109375 C 4.613281 -2.929688 4.1875 -2.84375 3.6875 -2.84375 L 1.953125 -2.84375 L 1.953125 0 L 1.09375 0 L 1.09375 -7.25 Z M 3.671875 -3.5625 C 4.671875 -3.5625 5.171875 -4.054688 5.171875 -5.046875 C 5.171875 -6.035156 4.671875 -6.53125 3.671875 -6.53125 L 1.953125 -6.53125 L 1.953125 -3.5625 Z M 3.671875 -3.5625 "/></g></g></g><g fill="#336f29" fill-opacity="1"><g transform="translate(109.568502, 297.407793)"><g><path d="M 3.140625 0.109375 C 2.617188 0.109375 2.164062 0 1.78125 -0.21875 C 1.40625 -0.4375 1.113281 -0.757812 0.90625 -1.1875 C 0.695312 -1.613281 0.59375 -2.128906 0.59375 -2.734375 C 0.59375 -3.335938 0.695312 -3.851562 0.90625 -4.28125 C 1.113281 -4.707031 1.40625 -5.03125 1.78125 -5.25 C 2.164062 -5.46875 2.617188 -5.578125 3.140625 -5.578125 C 3.648438 -5.578125 4.097656 -5.46875 4.484375 -5.25 C 4.867188 -5.03125 5.160156 -4.707031 5.359375 -4.28125 C 5.566406 -3.851562 5.671875 -3.335938 5.671875 -2.734375 C 5.671875 -2.128906 5.566406 -1.613281 5.359375 -1.1875 C 5.160156 -0.757812 4.867188 -0.4375 4.484375 -0.21875 C 4.097656 0 3.648438 0.109375 3.140625 0.109375 Z M 3.140625 -0.625 C 3.679688 -0.625 4.097656 -0.796875 4.390625 -1.140625 C 4.679688 -1.484375 4.828125 -2.015625 4.828125 -2.734375 C 4.828125 -3.453125 4.679688 -3.984375 4.390625 -4.328125 C 4.097656 -4.671875 3.679688 -4.84375 3.140625 -4.84375 C 2.597656 -4.84375 2.179688 -4.671875 1.890625 -4.328125 C 1.597656 -3.984375 1.453125 -3.453125 1.453125 -2.734375 C 1.453125 -2.015625 1.597656 -1.484375 1.890625 -1.140625 C 2.179688 -0.796875 2.597656 -0.625 3.140625 -0.625 Z M 3.140625 -0.625 "/></g></g></g><g fill="#336f29" fill-opacity="1"><g transform="translate(120.323166, 297.407793)"><g><path d="M 2.71875 0 L 1.6875 0 L 0.359375 -5.46875 L 1.15625 -5.46875 L 2.1875 -0.9375 L 2.296875 -0.9375 L 3.5625 -5.46875 L 4.40625 -5.46875 L 5.734375 -0.9375 L 5.828125 -0.9375 L 6.84375 -5.46875 L 7.625 -5.46875 L 6.296875 0 L 5.265625 0 L 4.015625 -4.25 L 3.921875 -4.25 Z M 2.71875 0 "/></g></g></g><g fill="#336f29" fill-opacity="1"><g transform="translate(132.772541, 297.407793)"><g><path d="M 5.21875 -2.546875 L 1.453125 -2.546875 C 1.472656 -1.878906 1.628906 -1.390625 1.921875 -1.078125 C 2.222656 -0.773438 2.632812 -0.625 3.15625 -0.625 C 3.539062 -0.625 3.851562 -0.691406 4.09375 -0.828125 C 4.332031 -0.960938 4.519531 -1.179688 4.65625 -1.484375 L 4.75 -1.484375 L 5.28125 -1.171875 C 5.125 -0.773438 4.867188 -0.460938 4.515625 -0.234375 C 4.171875 -0.00390625 3.71875 0.109375 3.15625 0.109375 C 2.625 0.109375 2.164062 0.00390625 1.78125 -0.203125 C 1.40625 -0.410156 1.113281 -0.726562 0.90625 -1.15625 C 0.695312 -1.582031 0.59375 -2.109375 0.59375 -2.734375 C 0.59375 -3.359375 0.703125 -3.878906 0.921875 -4.296875 C 1.140625 -4.722656 1.4375 -5.039062 1.8125 -5.25 C 2.1875 -5.46875 2.613281 -5.578125 3.09375 -5.578125 C 3.800781 -5.578125 4.347656 -5.378906 4.734375 -4.984375 C 5.128906 -4.585938 5.332031 -4 5.34375 -3.21875 C 5.34375 -2.914062 5.332031 -2.710938 5.3125 -2.609375 Z M 4.53125 -3.21875 C 4.519531 -3.800781 4.390625 -4.222656 4.140625 -4.484375 C 3.898438 -4.753906 3.550781 -4.890625 3.09375 -4.890625 C 2.613281 -4.890625 2.238281 -4.753906 1.96875 -4.484375 C 1.695312 -4.222656 1.53125 -3.800781 1.46875 -3.21875 Z M 4.53125 -3.21875 "/></g></g></g><g fill="#336f29" fill-opacity="1"><g transform="translate(143.081229, 297.407793)"><g><path d="M 0.953125 0 L 0.953125 -5.46875 L 1.71875 -5.46875 L 1.71875 -4.609375 L 1.828125 -4.59375 C 2.078125 -5.207031 2.554688 -5.515625 3.265625 -5.515625 C 3.640625 -5.515625 3.914062 -5.445312 4.09375 -5.3125 L 3.890625 -4.625 L 3.796875 -4.609375 C 3.585938 -4.710938 3.363281 -4.765625 3.125 -4.765625 C 2.6875 -4.765625 2.347656 -4.597656 2.109375 -4.265625 C 1.878906 -3.941406 1.765625 -3.414062 1.765625 -2.6875 L 1.765625 0 Z M 0.953125 0 "/></g></g></g><g fill="#336f29" fill-opacity="1"><g transform="translate(151.784403, 297.407793)"><g><path d="M 5.21875 -2.546875 L 1.453125 -2.546875 C 1.472656 -1.878906 1.628906 -1.390625 1.921875 -1.078125 C 2.222656 -0.773438 2.632812 -0.625 3.15625 -0.625 C 3.539062 -0.625 3.851562 -0.691406 4.09375 -0.828125 C 4.332031 -0.960938 4.519531 -1.179688 4.65625 -1.484375 L 4.75 -1.484375 L 5.28125 -1.171875 C 5.125 -0.773438 4.867188 -0.460938 4.515625 -0.234375 C 4.171875 -0.00390625 3.71875 0.109375 3.15625 0.109375 C 2.625 0.109375 2.164062 0.00390625 1.78125 -0.203125 C 1.40625 -0.410156 1.113281 -0.726562 0.90625 -1.15625 C 0.695312 -1.582031 0.59375 -2.109375 0.59375 -2.734375 C 0.59375 -3.359375 0.703125 -3.878906 0.921875 -4.296875 C 1.140625 -4.722656 1.4375 -5.039062 1.8125 -5.25 C 2.1875 -5.46875 2.613281 -5.578125 3.09375 -5.578125 C 3.800781 -5.578125 4.347656 -5.378906 4.734375 -4.984375 C 5.128906 -4.585938 5.332031 -4 5.34375 -3.21875 C 5.34375 -2.914062 5.332031 -2.710938 5.3125 -2.609375 Z M 4.53125 -3.21875 C 4.519531 -3.800781 4.390625 -4.222656 4.140625 -4.484375 C 3.898438 -4.753906 3.550781 -4.890625 3.09375 -4.890625 C 2.613281 -4.890625 2.238281 -4.753906 1.96875 -4.484375 C 1.695312 -4.222656 1.53125 -3.800781 1.46875 -3.21875 Z M 4.53125 -3.21875 "/></g></g></g><g fill="#336f29" fill-opacity="1"><g transform="translate(162.093091, 297.407793)"><g><path d="M 2.84375 0.109375 C 2.394531 0.109375 2.003906 0.00390625 1.671875 -0.203125 C 1.335938 -0.421875 1.070312 -0.738281 0.875 -1.15625 C 0.6875 -1.582031 0.59375 -2.109375 0.59375 -2.734375 C 0.59375 -3.359375 0.691406 -3.878906 0.890625 -4.296875 C 1.085938 -4.722656 1.359375 -5.039062 1.703125 -5.25 C 2.054688 -5.46875 2.46875 -5.578125 2.9375 -5.578125 C 3.289062 -5.578125 3.613281 -5.503906 3.90625 -5.359375 C 4.195312 -5.222656 4.445312 -5 4.65625 -4.6875 L 4.765625 -4.71875 L 4.765625 -7.671875 L 5.578125 -7.671875 L 5.578125 0 L 4.765625 0 L 4.765625 -0.796875 L 4.65625 -0.8125 C 4.476562 -0.539062 4.234375 -0.316406 3.921875 -0.140625 C 3.617188 0.0234375 3.257812 0.109375 2.84375 0.109375 Z M 3.09375 -0.625 C 3.601562 -0.625 4.007812 -0.796875 4.3125 -1.140625 C 4.613281 -1.492188 4.765625 -2.023438 4.765625 -2.734375 C 4.765625 -3.441406 4.613281 -3.96875 4.3125 -4.3125 C 4.007812 -4.664062 3.601562 -4.84375 3.09375 -4.84375 C 2.5625 -4.84375 2.15625 -4.671875 1.875 -4.328125 C 1.59375 -3.992188 1.453125 -3.460938 1.453125 -2.734375 C 1.453125 -1.328125 2 -0.625 3.09375 -0.625 Z M 3.09375 -0.625 "/></g></g></g><g fill="#336f29" fill-opacity="1"><g transform="translate(173.100476, 297.407793)"><g/></g></g><g fill="#336f29" fill-opacity="1"><g transform="translate(180.069298, 297.407793)"><g><path d="M 3.640625 0.109375 C 3.234375 0.109375 2.878906 0.03125 2.578125 -0.125 C 2.273438 -0.28125 2.035156 -0.488281 1.859375 -0.75 L 1.765625 -0.734375 L 1.765625 0 L 0.953125 0 L 0.953125 -7.671875 L 1.765625 -7.671875 L 1.765625 -4.65625 L 1.859375 -4.625 C 2.273438 -5.257812 2.878906 -5.578125 3.671875 -5.578125 C 4.128906 -5.578125 4.523438 -5.472656 4.859375 -5.265625 C 5.191406 -5.054688 5.453125 -4.738281 5.640625 -4.3125 C 5.828125 -3.882812 5.921875 -3.359375 5.921875 -2.734375 C 5.921875 -2.109375 5.820312 -1.582031 5.625 -1.15625 C 5.4375 -0.738281 5.164062 -0.421875 4.8125 -0.203125 C 4.46875 0.00390625 4.078125 0.109375 3.640625 0.109375 Z M 3.4375 -0.625 C 4.53125 -0.625 5.078125 -1.328125 5.078125 -2.734375 C 5.078125 -3.460938 4.929688 -3.992188 4.640625 -4.328125 C 4.359375 -4.671875 3.957031 -4.84375 3.4375 -4.84375 C 2.925781 -4.84375 2.519531 -4.664062 2.21875 -4.3125 C 1.914062 -3.96875 1.765625 -3.441406 1.765625 -2.734375 C 1.765625 -2.023438 1.914062 -1.492188 2.21875 -1.140625 C 2.519531 -0.796875 2.925781 -0.625 3.4375 -0.625 Z M 3.4375 -0.625 "/></g></g></g><g fill="#336f29" fill-opacity="1"><g transform="translate(191.071727, 297.407793)"><g><path d="M 1.09375 2.328125 C 0.90625 2.328125 0.734375 2.3125 0.578125 2.28125 C 0.421875 2.25 0.28125 2.203125 0.15625 2.140625 L 0.3125 1.5 L 0.40625 1.46875 C 0.476562 1.507812 0.570312 1.539062 0.6875 1.5625 C 0.8125 1.59375 0.9375 1.609375 1.0625 1.609375 C 1.289062 1.609375 1.472656 1.578125 1.609375 1.515625 C 1.753906 1.460938 1.878906 1.367188 1.984375 1.234375 C 2.085938 1.097656 2.1875 0.910156 2.28125 0.671875 L 2.46875 0.125 L 0.28125 -5.46875 L 1.15625 -5.46875 L 2.875 -1 L 2.96875 -1 L 4.625 -5.46875 L 5.453125 -5.46875 L 3.015625 0.859375 C 2.878906 1.210938 2.722656 1.492188 2.546875 1.703125 C 2.378906 1.910156 2.175781 2.066406 1.9375 2.171875 C 1.707031 2.273438 1.425781 2.328125 1.09375 2.328125 Z M 1.09375 2.328125 "/></g></g></g><g fill="#336f29" fill-opacity="1"><g transform="translate(201.315997, 297.407793)"><g/></g></g><g fill="#336f29" fill-opacity="1"><g transform="translate(208.284819, 297.407793)"><g><path d="M 1.953125 -3.421875 L 1.953125 -0.703125 L 5.640625 -0.703125 L 5.640625 0 L 1.09375 0 L 1.09375 -7.25 L 5.5625 -7.25 L 5.5625 -6.546875 L 1.953125 -6.546875 L 1.953125 -4.125 L 5.140625 -4.125 L 5.140625 -3.421875 Z M 1.953125 -3.421875 "/></g></g></g><g fill="#336f29" fill-opacity="1"><g transform="translate(218.88587, 297.407793)"><g><path d="M 3.171875 0.109375 C 2.710938 0.109375 2.300781 0.046875 1.9375 -0.078125 C 1.582031 -0.203125 1.28125 -0.363281 1.03125 -0.5625 C 0.789062 -0.769531 0.613281 -0.992188 0.5 -1.234375 L 0.96875 -1.796875 L 1.09375 -1.796875 C 1.539062 -1.046875 2.234375 -0.671875 3.171875 -0.671875 C 3.710938 -0.671875 4.113281 -0.78125 4.375 -1 C 4.644531 -1.226562 4.78125 -1.546875 4.78125 -1.953125 C 4.78125 -2.191406 4.734375 -2.394531 4.640625 -2.5625 C 4.554688 -2.726562 4.414062 -2.867188 4.21875 -2.984375 C 4.019531 -3.097656 3.742188 -3.203125 3.390625 -3.296875 L 2.546875 -3.5 C 1.921875 -3.65625 1.457031 -3.894531 1.15625 -4.21875 C 0.851562 -4.550781 0.703125 -4.972656 0.703125 -5.484375 C 0.703125 -5.847656 0.796875 -6.171875 0.984375 -6.453125 C 1.171875 -6.734375 1.441406 -6.953125 1.796875 -7.109375 C 2.148438 -7.273438 2.578125 -7.359375 3.078125 -7.359375 C 3.617188 -7.359375 4.078125 -7.28125 4.453125 -7.125 C 4.828125 -6.96875 5.128906 -6.738281 5.359375 -6.4375 L 4.9375 -5.875 L 4.8125 -5.875 C 4.601562 -6.125 4.359375 -6.304688 4.078125 -6.421875 C 3.796875 -6.546875 3.460938 -6.609375 3.078125 -6.609375 C 2.578125 -6.609375 2.195312 -6.507812 1.9375 -6.3125 C 1.675781 -6.125 1.546875 -5.859375 1.546875 -5.515625 C 1.546875 -5.179688 1.640625 -4.914062 1.828125 -4.71875 C 2.023438 -4.53125 2.34375 -4.382812 2.78125 -4.28125 L 3.65625 -4.078125 C 4.363281 -3.910156 4.875 -3.65625 5.1875 -3.3125 C 5.5 -2.96875 5.65625 -2.53125 5.65625 -2 C 5.65625 -1.59375 5.5625 -1.226562 5.375 -0.90625 C 5.195312 -0.59375 4.921875 -0.34375 4.546875 -0.15625 C 4.171875 0.0195312 3.710938 0.109375 3.171875 0.109375 Z M 3.171875 0.109375 "/></g></g></g><g fill="#336f29" fill-opacity="1"><g transform="translate(229.576115, 297.407793)"><g><path d="M 3.6875 -7.25 C 4.1875 -7.25 4.613281 -7.160156 4.96875 -6.984375 C 5.332031 -6.804688 5.601562 -6.550781 5.78125 -6.21875 C 5.96875 -5.882812 6.0625 -5.492188 6.0625 -5.046875 C 6.0625 -4.597656 5.96875 -4.207031 5.78125 -3.875 C 5.601562 -3.539062 5.332031 -3.285156 4.96875 -3.109375 C 4.613281 -2.929688 4.1875 -2.84375 3.6875 -2.84375 L 1.953125 -2.84375 L 1.953125 0 L 1.09375 0 L 1.09375 -7.25 Z M 3.671875 -3.5625 C 4.671875 -3.5625 5.171875 -4.054688 5.171875 -5.046875 C 5.171875 -6.035156 4.671875 -6.53125 3.671875 -6.53125 L 1.953125 -6.53125 L 1.953125 -3.5625 Z M 3.671875 -3.5625 "/></g></g></g><g fill="#336f29" fill-opacity="1"><g transform="translate(240.662785, 297.407793)"><g><path d="M 1.953125 -3.421875 L 1.953125 -0.703125 L 5.640625 -0.703125 L 5.640625 0 L 1.09375 0 L 1.09375 -7.25 L 5.5625 -7.25 L 5.5625 -6.546875 L 1.953125 -6.546875 L 1.953125 -4.125 L 5.140625 -4.125 L 5.140625 -3.421875 Z M 1.953125 -3.421875 "/></g></g></g><g fill="#336f29" fill-opacity="1"><g transform="translate(251.263835, 297.407793)"><g><path d="M 3.34375 -3.15625 L 0.515625 -3.15625 L 0.515625 -3.890625 L 3.34375 -3.890625 Z M 3.34375 -3.15625 "/></g></g></g><g fill="#336f29" fill-opacity="1"><g transform="translate(259.590407, 297.407793)"><g><path d="M 3.171875 0.109375 C 2.710938 0.109375 2.300781 0.046875 1.9375 -0.078125 C 1.582031 -0.203125 1.28125 -0.363281 1.03125 -0.5625 C 0.789062 -0.769531 0.613281 -0.992188 0.5 -1.234375 L 0.96875 -1.796875 L 1.09375 -1.796875 C 1.539062 -1.046875 2.234375 -0.671875 3.171875 -0.671875 C 3.710938 -0.671875 4.113281 -0.78125 4.375 -1 C 4.644531 -1.226562 4.78125 -1.546875 4.78125 -1.953125 C 4.78125 -2.191406 4.734375 -2.394531 4.640625 -2.5625 C 4.554688 -2.726562 4.414062 -2.867188 4.21875 -2.984375 C 4.019531 -3.097656 3.742188 -3.203125 3.390625 -3.296875 L 2.546875 -3.5 C 1.921875 -3.65625 1.457031 -3.894531 1.15625 -4.21875 C 0.851562 -4.550781 0.703125 -4.972656 0.703125 -5.484375 C 0.703125 -5.847656 0.796875 -6.171875 0.984375 -6.453125 C 1.171875 -6.734375 1.441406 -6.953125 1.796875 -7.109375 C 2.148438 -7.273438 2.578125 -7.359375 3.078125 -7.359375 C 3.617188 -7.359375 4.078125 -7.28125 4.453125 -7.125 C 4.828125 -6.96875 5.128906 -6.738281 5.359375 -6.4375 L 4.9375 -5.875 L 4.8125 -5.875 C 4.601562 -6.125 4.359375 -6.304688 4.078125 -6.421875 C 3.796875 -6.546875 3.460938 -6.609375 3.078125 -6.609375 C 2.578125 -6.609375 2.195312 -6.507812 1.9375 -6.3125 C 1.675781 -6.125 1.546875 -5.859375 1.546875 -5.515625 C 1.546875 -5.179688 1.640625 -4.914062 1.828125 -4.71875 C 2.023438 -4.53125 2.34375 -4.382812 2.78125 -4.28125 L 3.65625 -4.078125 C 4.363281 -3.910156 4.875 -3.65625 5.1875 -3.3125 C 5.5 -2.96875 5.65625 -2.53125 5.65625 -2 C 5.65625 -1.59375 5.5625 -1.226562 5.375 -0.90625 C 5.195312 -0.59375 4.921875 -0.34375 4.546875 -0.15625 C 4.171875 0.0195312 3.710938 0.109375 3.171875 0.109375 Z M 3.171875 0.109375 "/></g></g></g><g fill="#336f29" fill-opacity="1"><g transform="translate(270.280653, 297.407793)"><g><path d="M 3.171875 0.109375 C 2.710938 0.109375 2.300781 0.046875 1.9375 -0.078125 C 1.582031 -0.203125 1.28125 -0.363281 1.03125 -0.5625 C 0.789062 -0.769531 0.613281 -0.992188 0.5 -1.234375 L 0.96875 -1.796875 L 1.09375 -1.796875 C 1.539062 -1.046875 2.234375 -0.671875 3.171875 -0.671875 C 3.710938 -0.671875 4.113281 -0.78125 4.375 -1 C 4.644531 -1.226562 4.78125 -1.546875 4.78125 -1.953125 C 4.78125 -2.191406 4.734375 -2.394531 4.640625 -2.5625 C 4.554688 -2.726562 4.414062 -2.867188 4.21875 -2.984375 C 4.019531 -3.097656 3.742188 -3.203125 3.390625 -3.296875 L 2.546875 -3.5 C 1.921875 -3.65625 1.457031 -3.894531 1.15625 -4.21875 C 0.851562 -4.550781 0.703125 -4.972656 0.703125 -5.484375 C 0.703125 -5.847656 0.796875 -6.171875 0.984375 -6.453125 C 1.171875 -6.734375 1.441406 -6.953125 1.796875 -7.109375 C 2.148438 -7.273438 2.578125 -7.359375 3.078125 -7.359375 C 3.617188 -7.359375 4.078125 -7.28125 4.453125 -7.125 C 4.828125 -6.96875 5.128906 -6.738281 5.359375 -6.4375 L 4.9375 -5.875 L 4.8125 -5.875 C 4.601562 -6.125 4.359375 -6.304688 4.078125 -6.421875 C 3.796875 -6.546875 3.460938 -6.609375 3.078125 -6.609375 C 2.578125 -6.609375 2.195312 -6.507812 1.9375 -6.3125 C 1.675781 -6.125 1.546875 -5.859375 1.546875 -5.515625 C 1.546875 -5.179688 1.640625 -4.914062 1.828125 -4.71875 C 2.023438 -4.53125 2.34375 -4.382812 2.78125 -4.28125 L 3.65625 -4.078125 C 4.363281 -3.910156 4.875 -3.65625 5.1875 -3.3125 C 5.5 -2.96875 5.65625 -2.53125 5.65625 -2 C 5.65625 -1.59375 5.5625 -1.226562 5.375 -0.90625 C 5.195312 -0.59375 4.921875 -0.34375 4.546875 -0.15625 C 4.171875 0.0195312 3.710938 0.109375 3.171875 0.109375 Z M 3.171875 0.109375 "/></g></g></g></svg>