<svg xmlns="http://www.w3.org/2000/svg" xmlns:xlink="http://www.w3.org/1999/xlink" width="500" zoomAndPan="magnify" viewBox="0 0 375 374.999991" height="500" preserveAspectRatio="xMidYMid meet" version="1.0"><path fill="#000000" d="M 340.355469 78.179688 C 340.355469 79.457031 340.324219 80.734375 340.261719 82.015625 C 340.199219 83.292969 340.105469 84.566406 339.980469 85.839844 C 339.855469 87.113281 339.699219 88.382812 339.511719 89.648438 C 339.324219 90.914062 339.105469 92.175781 338.855469 93.429688 C 338.605469 94.683594 338.324219 95.933594 338.011719 97.171875 C 337.703125 98.414062 337.363281 99.648438 336.988281 100.871094 C 336.617188 102.097656 336.21875 103.3125 335.785156 104.515625 C 335.355469 105.71875 334.894531 106.914062 334.40625 108.09375 C 333.914062 109.277344 333.398438 110.445312 332.851562 111.601562 C 332.304688 112.761719 331.726562 113.902344 331.125 115.03125 C 330.523438 116.160156 329.890625 117.273438 329.234375 118.371094 C 328.574219 119.46875 327.890625 120.546875 327.179688 121.609375 C 326.46875 122.675781 325.734375 123.722656 324.972656 124.75 C 324.210938 125.777344 323.421875 126.785156 322.609375 127.773438 C 321.800781 128.761719 320.964844 129.730469 320.105469 130.679688 C 319.246094 131.628906 318.363281 132.554688 317.457031 133.457031 C 316.554688 134.363281 315.628906 135.246094 314.679688 136.105469 C 313.730469 136.964844 312.761719 137.796875 311.773438 138.609375 C 310.785156 139.421875 309.777344 140.207031 308.75 140.972656 C 307.722656 141.734375 306.675781 142.46875 305.613281 143.179688 C 304.546875 143.890625 303.46875 144.574219 302.371094 145.234375 C 301.273438 145.890625 300.160156 146.523438 299.03125 147.125 C 297.902344 147.726562 296.761719 148.304688 295.605469 148.851562 C 294.445312 149.398438 293.277344 149.914062 292.097656 150.40625 C 290.914062 150.894531 289.71875 151.355469 288.515625 151.785156 C 287.3125 152.21875 286.097656 152.617188 284.871094 152.988281 C 283.648438 153.359375 282.414062 153.703125 281.175781 154.011719 C 279.933594 154.324219 278.683594 154.605469 277.429688 154.855469 C 276.175781 155.101562 274.914062 155.320312 273.648438 155.507812 C 272.382812 155.699219 271.113281 155.855469 269.839844 155.980469 C 268.566406 156.105469 267.292969 156.199219 266.015625 156.261719 C 264.738281 156.324219 263.457031 156.355469 262.179688 156.355469 C 260.898438 156.355469 259.621094 156.324219 258.34375 156.261719 C 257.066406 156.199219 255.789062 156.105469 254.515625 155.980469 C 253.242188 155.855469 251.972656 155.699219 250.707031 155.507812 C 249.441406 155.320312 248.179688 155.101562 246.925781 154.855469 C 245.671875 154.605469 244.421875 154.324219 243.183594 154.011719 C 241.941406 153.703125 240.707031 153.359375 239.484375 152.988281 C 238.261719 152.617188 237.046875 152.21875 235.839844 151.785156 C 234.636719 151.355469 233.441406 150.894531 232.261719 150.40625 C 231.078125 149.914062 229.910156 149.398438 228.753906 148.851562 C 227.597656 148.304688 226.453125 147.726562 225.324219 147.125 C 224.195312 146.523438 223.085938 145.890625 221.988281 145.234375 C 220.890625 144.574219 219.808594 143.890625 218.746094 143.179688 C 217.679688 142.46875 216.636719 141.734375 215.609375 140.972656 C 214.582031 140.207031 213.570312 139.421875 212.582031 138.609375 C 211.59375 137.796875 210.625 136.964844 209.675781 136.105469 C 208.730469 135.246094 207.804688 134.363281 206.898438 133.457031 C 205.992188 132.554688 205.113281 131.628906 204.253906 130.679688 C 203.394531 129.730469 202.558594 128.761719 201.746094 127.773438 C 200.933594 126.785156 200.148438 125.777344 199.386719 124.75 C 198.625 123.722656 197.886719 122.675781 197.175781 121.609375 C 196.464844 120.546875 195.78125 119.46875 195.121094 118.371094 C 194.464844 117.273438 193.835938 116.160156 193.230469 115.03125 C 192.628906 113.902344 192.054688 112.761719 191.507812 111.601562 C 190.960938 110.445312 190.441406 109.277344 189.953125 108.09375 C 189.460938 106.914062 189 105.71875 188.570312 104.515625 C 188.140625 103.3125 187.738281 102.097656 187.367188 100.871094 C 186.996094 99.648438 186.652344 98.414062 186.34375 97.171875 C 186.03125 95.933594 185.753906 94.683594 185.503906 93.429688 C 185.253906 92.175781 185.035156 90.914062 184.847656 89.648438 C 184.660156 88.382812 184.503906 87.113281 184.375 85.839844 C 184.25 84.566406 184.15625 83.292969 184.09375 82.015625 C 184.03125 80.734375 184 79.457031 184 78.179688 C 184 76.898438 184.03125 75.621094 184.09375 74.34375 C 184.15625 73.0625 184.25 71.789062 184.375 70.515625 C 184.503906 69.242188 184.660156 67.972656 184.847656 66.707031 C 185.035156 65.441406 185.253906 64.179688 185.503906 62.925781 C 185.753906 61.671875 186.03125 60.421875 186.34375 59.183594 C 186.652344 57.941406 186.996094 56.707031 187.367188 55.484375 C 187.738281 54.257812 188.140625 53.046875 188.570312 51.839844 C 189 50.636719 189.460938 49.441406 189.953125 48.261719 C 190.441406 47.078125 190.960938 45.910156 191.507812 44.753906 C 192.054688 43.597656 192.628906 42.453125 193.230469 41.324219 C 193.835938 40.195312 194.464844 39.082031 195.121094 37.988281 C 195.78125 36.890625 196.464844 35.808594 197.175781 34.746094 C 197.886719 33.679688 198.625 32.636719 199.386719 31.605469 C 200.148438 30.578125 200.933594 29.570312 201.746094 28.582031 C 202.558594 27.59375 203.394531 26.625 204.253906 25.675781 C 205.113281 24.730469 205.992188 23.800781 206.898438 22.898438 C 207.804688 21.992188 208.730469 21.109375 209.675781 20.25 C 210.625 19.394531 211.59375 18.558594 212.582031 17.746094 C 213.570312 16.933594 214.582031 16.148438 215.609375 15.386719 C 216.636719 14.621094 217.679688 13.886719 218.746094 13.175781 C 219.808594 12.464844 220.890625 11.78125 221.988281 11.121094 C 223.085938 10.464844 224.195312 9.835938 225.324219 9.230469 C 226.453125 8.628906 227.597656 8.054688 228.753906 7.507812 C 229.910156 6.957031 231.078125 6.441406 232.261719 5.949219 C 233.441406 5.460938 234.636719 5 235.839844 4.570312 C 237.046875 4.140625 238.261719 3.738281 239.484375 3.367188 C 240.707031 2.996094 241.941406 2.652344 243.183594 2.34375 C 244.421875 2.03125 245.671875 1.75 246.925781 1.503906 C 248.179688 1.253906 249.441406 1.035156 250.707031 0.847656 C 251.972656 0.660156 253.242188 0.5 254.515625 0.375 C 255.789062 0.25 257.066406 0.15625 258.34375 0.09375 C 259.621094 0.03125 260.898438 0 262.179688 0 C 263.457031 0 264.738281 0.03125 266.015625 0.09375 C 267.292969 0.15625 268.566406 0.25 269.839844 0.375 C 271.113281 0.5 272.382812 0.660156 273.648438 0.847656 C 274.914062 1.035156 276.175781 1.253906 277.429688 1.503906 C 278.683594 1.75 279.933594 2.03125 281.175781 2.34375 C 282.414062 2.652344 283.648438 2.996094 284.871094 3.367188 C 286.097656 3.738281 287.3125 4.140625 288.515625 4.570312 C 289.71875 5 290.914062 5.460938 292.097656 5.949219 C 293.277344 6.441406 294.445312 6.957031 295.605469 7.507812 C 296.761719 8.054688 297.902344 8.628906 299.03125 9.230469 C 300.160156 9.835938 301.273438 10.464844 302.371094 11.121094 C 303.46875 11.78125 304.546875 12.464844 305.613281 13.175781 C 306.675781 13.886719 307.722656 14.621094 308.75 15.386719 C 309.777344 16.148438 310.785156 16.933594 311.773438 17.746094 C 312.761719 18.558594 313.730469 19.394531 314.679688 20.25 C 315.628906 21.109375 316.554688 21.992188 317.457031 22.898438 C 318.363281 23.800781 319.246094 24.730469 320.105469 25.675781 C 320.964844 26.625 321.800781 27.59375 322.609375 28.582031 C 323.421875 29.570312 324.210938 30.578125 324.972656 31.605469 C 325.734375 32.636719 326.46875 33.679688 327.179688 34.746094 C 327.890625 35.808594 328.574219 36.890625 329.234375 37.988281 C 329.890625 39.082031 330.523438 40.195312 331.125 41.324219 C 331.726562 42.453125 332.304688 43.597656 332.851562 44.753906 C 333.398438 45.910156 333.914062 47.078125 334.40625 48.261719 C 334.894531 49.441406 335.355469 50.636719 335.785156 51.839844 C 336.21875 53.046875 336.617188 54.257812 336.988281 55.484375 C 337.363281 56.707031 337.703125 57.941406 338.011719 59.183594 C 338.324219 60.421875 338.605469 61.671875 338.855469 62.925781 C 339.105469 64.179688 339.324219 65.441406 339.511719 66.707031 C 339.699219 67.972656 339.855469 69.242188 339.980469 70.515625 C 340.105469 71.789062 340.199219 73.0625 340.261719 74.34375 C 340.324219 75.621094 340.355469 76.898438 340.355469 78.179688 Z M 340.355469 78.179688 " fill-opacity="1" fill-rule="nonzero"/><path fill="#000000" d="M 152.1875 275.730469 L 152.144531 275.730469 C 137.59375 275.730469 125.160156 265.828125 121.902344 251.644531 L 100.132812 156.8125 C 98.277344 148.734375 99.679688 140.414062 104.082031 133.390625 C 108.480469 126.367188 115.355469 121.472656 123.433594 119.617188 C 125.722656 119.089844 128.066406 118.824219 130.402344 118.824219 C 144.9375 118.824219 157.367188 128.734375 160.617188 142.917969 L 173.660156 199.71875 C 176.433594 187.8125 179.21875 176.574219 181.578125 166.417969 C 191.636719 136.304688 179.683594 100.601562 151.296875 94.613281 C 122.910156 88.625 81.390625 103.179688 63.878906 147.515625 C 40.195312 208.605469 34.671875 248.222656 42.230469 315.007812 C 51.894531 363.347656 88.644531 367.796875 119.234375 367 C 125.40625 366.839844 130.878906 366.574219 135.6875 365.921875 C 136.046875 365.871094 136.410156 365.835938 136.769531 365.773438 C 144.421875 364.609375 150.273438 362.324219 154.375 357.652344 C 156.757812 355.671875 158.949219 353.402344 160.847656 350.769531 L 208.792969 284.164062 L 229.648438 349.179688 C 234.734375 365.042969 249.425781 375.15625 265.246094 375.15625 C 269.027344 375.15625 272.875 374.578125 276.671875 373.363281 C 296.335938 367.050781 307.160156 346 300.855469 326.339844 L 284.472656 275.265625 C 283.125 275.445312 281.757812 275.566406 280.375 275.566406 Z M 152.1875 275.730469 " fill-opacity="1" fill-rule="nonzero"/><path fill="#000000" d="M 264.660156 213.527344 L 257.351562 190.746094 C 253.039062 177.304688 241.527344 167.441406 227.585938 165.238281 C 213.644531 163.023438 199.652344 168.871094 191.402344 180.320312 L 174.566406 203.707031 L 176.847656 213.640625 Z M 264.660156 213.527344 " fill-opacity="1" fill-rule="nonzero"/><path fill="#000000" d="M 280.328125 222.105469 C 280.320312 222.105469 280.308594 222.105469 280.296875 222.105469 L 170.007812 222.25 L 152.234375 144.847656 C 149.464844 132.777344 137.449219 125.230469 125.355469 128.003906 C 113.28125 130.773438 105.742188 142.8125 108.511719 154.886719 L 130.28125 249.722656 C 132.621094 259.914062 141.691406 267.132812 152.144531 267.132812 C 152.15625 267.132812 152.164062 267.132812 152.175781 267.132812 L 280.355469 266.96875 C 292.742188 266.953125 302.773438 256.894531 302.757812 244.503906 C 302.746094 232.125 292.707031 222.105469 280.328125 222.105469 Z M 280.328125 222.105469 " fill-opacity="1" fill-rule="nonzero"/></svg>