<svg xmlns="http://www.w3.org/2000/svg" xmlns:xlink="http://www.w3.org/1999/xlink" width="500" zoomAndPan="magnify" viewBox="0 0 375 374.999991" height="500" preserveAspectRatio="xMidYMid meet" version="1.0"><defs><clipPath id="e5e977bf68"><path d="M 2 151.289062 L 373 151.289062 L 373 239.039062 L 2 239.039062 Z M 2 151.289062 " clip-rule="nonzero"/></clipPath></defs><g clip-path="url(#e5e977bf68)"><path fill="#000000" d="M 187.503906 151.292969 C 211.691406 151.292969 231.332031 170.953125 231.332031 195.167969 C 231.332031 219.382812 211.691406 239.042969 187.503906 239.042969 C 163.3125 239.042969 143.675781 219.382812 143.675781 195.167969 C 143.675781 170.953125 163.3125 151.292969 187.503906 151.292969 Z M 45.902344 151.292969 C 70.09375 151.292969 89.730469 170.953125 89.730469 195.167969 C 89.730469 219.382812 70.09375 239.042969 45.902344 239.042969 C 21.714844 239.042969 2.074219 219.382812 2.074219 195.167969 C 2.074219 170.953125 21.714844 151.292969 45.902344 151.292969 Z M 329.101562 151.292969 C 353.292969 151.292969 372.929688 170.953125 372.929688 195.167969 C 372.929688 219.382812 353.292969 239.042969 329.101562 239.042969 C 304.910156 239.042969 285.273438 219.382812 285.273438 195.167969 C 285.273438 170.953125 304.910156 151.292969 329.101562 151.292969 Z M 329.101562 151.292969 " fill-opacity="1" fill-rule="evenodd"/></g></svg>