<svg xmlns="http://www.w3.org/2000/svg" xmlns:xlink="http://www.w3.org/1999/xlink" width="500" zoomAndPan="magnify" viewBox="0 0 375 374.999991" height="500" preserveAspectRatio="xMidYMid meet" version="1.0"><defs><clipPath id="6e7a7d2d11"><path d="M 294 19.921875 L 354 19.921875 L 354 80 L 294 80 Z M 294 19.921875 " clip-rule="nonzero"/></clipPath><clipPath id="8fc6418276"><path d="M 224 91 L 374 91 L 374 355.171875 L 224 355.171875 Z M 224 91 " clip-rule="nonzero"/></clipPath></defs><path fill="#100f0d" d="M 104.480469 83.714844 C 107.035156 83.300781 109.847656 82.957031 113.070312 82.707031 C 124.070312 81.855469 134.832031 81.007812 145.117188 80.171875 C 149.839844 74.886719 152.796875 67.988281 152.796875 60.34375 C 152.796875 43.832031 139.414062 30.445312 122.90625 30.445312 C 106.402344 30.445312 93.019531 43.832031 93.019531 60.34375 C 93.019531 69.859375 97.550781 78.238281 104.480469 83.714844 " fill-opacity="1" fill-rule="nonzero"/><g clip-path="url(#6e7a7d2d11)"><path fill="#100f0d" d="M 323.988281 79.730469 C 340.492188 79.730469 353.871094 66.34375 353.871094 49.832031 C 353.871094 33.320312 340.492188 19.9375 323.988281 19.9375 C 307.480469 19.9375 294.097656 33.320312 294.097656 49.832031 C 294.097656 66.34375 307.480469 79.730469 323.988281 79.730469 " fill-opacity="1" fill-rule="nonzero"/></g><g clip-path="url(#8fc6418276)"><path fill="#100f0d" d="M 368.8125 329.019531 L 334.449219 295.328125 L 360.808594 228.097656 C 360.808594 228.097656 362.226562 223.863281 362.226562 219.292969 L 362.226562 113.441406 C 362.226562 101.414062 352.476562 91.660156 340.453125 91.660156 C 333.90625 91.660156 328.070312 94.570312 324.09375 99.152344 L 323.796875 99.585938 C 322.609375 101.023438 321.546875 102.582031 320.75 104.296875 L 312.039062 116.929688 L 311.976562 116.878906 L 291.363281 147.035156 C 291.308594 147.117188 291.214844 147.140625 291.15625 147.21875 L 287.363281 152.71875 L 248.246094 125.210938 C 245.582031 123.34375 242.523438 122.445312 239.492188 122.445312 C 234.699219 122.445312 229.980469 124.695312 227.007812 128.917969 C 222.167969 135.804688 223.828125 145.320312 230.714844 150.160156 L 282.414062 186.519531 C 284.996094 188.332031 288.066406 189.289062 291.179688 189.289062 C 292.074219 189.289062 292.972656 189.210938 293.863281 189.050781 C 297.871094 188.339844 301.417969 186.046875 303.726562 182.699219 L 318.675781 161.019531 L 318.675781 215.5 L 255.144531 245.066406 C 249.773438 247.574219 246.335938 252.964844 246.335938 258.894531 L 246.335938 328.371094 C 246.335938 336.792969 253.160156 343.617188 261.578125 343.617188 C 270 343.617188 276.820312 336.792969 276.820312 328.371094 L 276.820312 268.617188 L 319.359375 248.816406 L 302.417969 293.898438 C 300.300781 299.546875 301.707031 305.925781 306.019531 310.152344 L 347.472656 350.800781 C 350.441406 353.707031 354.296875 355.15625 358.144531 355.15625 C 362.09375 355.15625 366.042969 353.628906 369.03125 350.582031 C 374.921875 344.570312 374.824219 334.917969 368.8125 329.019531 " fill-opacity="1" fill-rule="nonzero"/></g><path fill="#100f0d" d="M 286.328125 135.113281 L 303.628906 109.800781 L 289.910156 98.171875 C 287.050781 95.75 283.546875 94.566406 280.0625 94.566406 C 275.742188 94.566406 271.441406 96.390625 268.421875 99.945312 C 262.984375 106.378906 263.773438 115.996094 270.195312 121.441406 L 286.328125 135.113281 " fill-opacity="1" fill-rule="nonzero"/><path fill="#100f0d" d="M 186.964844 138.53125 C 184.484375 138.53125 181.96875 139.136719 179.636719 140.414062 L 154.507812 154.222656 L 141.050781 135.78125 L 134.875 179.042969 L 137.789062 183.035156 C 140.753906 187.089844 145.382812 189.289062 150.113281 189.289062 C 152.605469 189.289062 155.125 188.679688 157.445312 187.40625 L 194.316406 167.144531 C 201.695312 163.085938 204.386719 153.816406 200.335938 146.433594 C 197.558594 141.386719 192.351562 138.53125 186.964844 138.53125 " fill-opacity="1" fill-rule="nonzero"/><path fill="#100f0d" d="M 193.339844 237.753906 L 119.988281 204.050781 L 125.597656 166.332031 L 125.671875 166.4375 L 131.902344 122.78125 L 132.046875 122.800781 C 132.046875 122.78125 132.046875 122.761719 132.046875 122.742188 C 242.78125 114.078125 244.433594 112.875 248.722656 109.601562 C 255.417969 104.496094 256.703125 94.925781 251.601562 88.234375 C 248.601562 84.296875 244.066406 82.226562 239.480469 82.226562 C 237.964844 82.226562 236.4375 82.453125 234.964844 82.914062 C 225.84375 84.453125 166.476562 89.496094 113.910156 93.5625 C 109.476562 93.910156 99.953125 94.796875 96.347656 97.742188 C 90.070312 103.378906 90.179688 108.402344 88.964844 116.589844 L 75.722656 214.1875 L 4.851562 315.589844 C 0.0273438 322.492188 1.707031 332.003906 8.609375 336.824219 C 11.265625 338.683594 14.308594 339.578125 17.320312 339.578125 C 22.132812 339.578125 26.863281 337.304688 29.835938 333.066406 L 100.648438 231.746094 L 100.652344 231.75 L 100.65625 231.75 L 100.652344 231.75 L 168.03125 259.6875 L 145.921875 323.367188 C 143.160156 331.324219 147.363281 340.011719 155.316406 342.773438 C 156.972656 343.351562 158.660156 343.625 160.320312 343.625 C 166.632812 343.625 172.53125 339.671875 174.714844 333.375 L 201.375 256.613281 C 203.949219 249.195312 200.472656 241.03125 193.339844 237.753906 " fill-opacity="1" fill-rule="nonzero"/></svg>