<?xml version="1.0" encoding="utf-8"?>
<!-- Generator: Adobe Illustrator 25.0.0, SVG Export Plug-In . SVG Version: 6.00 Build 0)  -->
<svg version="1.1" id="Capa_1" xmlns="http://www.w3.org/2000/svg" xmlns:xlink="http://www.w3.org/1999/xlink" x="0px" y="0px"
	 viewBox="0 0 566.93 566.93" style="enable-background:new 0 0 566.93 566.93;" xml:space="preserve">
<style type="text/css">
	.st0{fill:#6165FA;}
	.st1{fill:#044CBB;}
	.st2{fill:#004AAD;}
</style>
<g>
	<g>
		<g>
			<path class="st0" d="M387.3,384.88h16.38c0.87,0,1.39,0,1.74,0s0.87,0.17,1.39,0.52c0.87,0.52,1.39,1.92,1.39,4.18
				c0,2.44-0.7,4.01-1.92,4.36c-0.52,0.17-1.57,0.35-2.79,0.35h-20.91c-2.44,0-4.01-0.7-4.36-2.09c-0.17-0.52-0.35-1.39-0.35-2.79
				v-29.27c0-1.74,0.35-2.96,1.05-3.66c0.7-0.7,1.92-1.05,3.83-1.05h20.91c0.87,0,1.39,0,1.74,0s0.87,0.17,1.39,0.52
				c0.87,0.52,1.39,1.92,1.39,4.18c0,2.44-0.7,4.01-1.92,4.36c-0.52,0.17-1.57,0.35-2.79,0.35h-16.2v5.4h10.45c0.87,0,1.39,0,1.74,0
				s0.87,0.17,1.39,0.52c0.87,0.52,1.39,1.92,1.39,4.18c0,2.44-0.7,4.01-2.09,4.36c-0.52,0.17-1.57,0.35-2.79,0.35h-10.45v5.23
				H387.3z"/>
			<path class="st0" d="M412.39,388.88c-0.87-1.05-1.39-2.09-1.39-3.14c0-0.87,0.7-2.09,2.26-3.66c0.87-0.87,1.74-1.22,2.79-1.22
				s2.44,0.87,4.18,2.61c0.52,0.52,1.22,1.22,2.09,1.74c0.87,0.52,1.74,0.87,2.61,0.87c3.31,0,4.88-1.39,4.88-4.01
				c0-0.87-0.35-1.57-1.39-2.09c-0.87-0.52-2.09-0.87-3.31-1.22c-1.39-0.17-2.79-0.7-4.36-1.22c-1.57-0.52-2.96-1.22-4.36-1.92
				c-1.39-0.7-2.44-1.92-3.31-3.48c-0.87-1.57-1.39-3.48-1.39-5.75c0-3.14,1.22-5.75,3.48-8.19c2.26-2.26,5.4-3.48,9.41-3.48
				c2.09,0,4.01,0.17,5.75,0.87c1.74,0.7,2.96,1.05,3.66,1.74l1.39,1.05c1.05,1.05,1.57,1.92,1.57,2.61c0,0.7-0.35,1.74-1.22,2.96
				c-1.22,1.74-2.44,2.61-3.66,2.61c-0.7,0-1.74-0.35-2.79-1.05c0,0-0.35-0.17-0.52-0.52c-0.35-0.35-0.52-0.52-0.87-0.7
				c-0.7-0.52-1.74-0.7-2.79-0.7s-2.09,0.17-2.79,0.87c-0.7,0.52-1.05,1.22-1.05,2.26c0,1.05,0.35,1.74,1.39,2.44
				c0.87,0.52,2.09,1.05,3.31,1.22c1.39,0.17,2.79,0.52,4.36,1.05c1.57,0.35,3.14,1.05,4.36,1.57c1.39,0.7,2.44,1.74,3.31,3.31
				c0.87,1.57,1.39,3.48,1.39,5.75c0,2.26-0.52,4.36-1.39,6.1c-0.87,1.74-2.09,3.14-3.66,4.01c-2.79,1.92-5.92,2.79-9.23,2.79
				c-1.74,0-3.31-0.17-4.7-0.52c-1.39-0.35-2.61-0.87-3.66-1.57c-1.92-1.05-3.14-2.26-4.01-3.31L412.39,388.88z"/>
			<path class="st0" d="M471.27,363.27c0.87,1.92,1.39,4.01,1.39,6.27c0,2.26-0.52,4.36-1.39,6.27c-0.87,1.92-2.09,3.31-3.48,4.36
				c-2.96,2.26-5.92,3.48-9.06,3.48h-6.62v5.92c0,0.87,0,1.39,0,1.74s-0.17,0.87-0.52,1.39c-0.52,0.87-1.92,1.39-4.18,1.39
				c-2.44,0-4.01-0.7-4.36-1.92c-0.17-0.52-0.35-1.57-0.35-2.79v-29.27c0-0.87,0-1.39,0-1.74s0.17-0.87,0.52-1.39
				c0.52-0.87,1.92-1.39,4.18-1.39h11.32c3.14,0,6.1,1.05,9.06,3.48C469.18,359.96,470.4,361.36,471.27,363.27z M461.87,373.03
				c1.05-0.7,1.57-1.92,1.57-3.48c0-1.57-0.52-2.79-1.57-3.48c-1.05-0.7-2.09-1.22-3.14-1.22h-6.62v9.41h6.62
				C459.78,374.25,460.82,373.9,461.87,373.03z"/>
			<path class="st0" d="M485.56,384.88h16.38c0.87,0,1.39,0,1.74,0s0.87,0.17,1.39,0.52c0.87,0.52,1.39,1.92,1.39,4.18
				c0,2.44-0.7,4.01-1.92,4.36c-0.52,0.17-1.57,0.35-2.79,0.35h-21.08c-2.44,0-4.01-0.7-4.36-2.09c-0.17-0.52-0.35-1.39-0.35-2.79
				v-29.27c0-1.74,0.35-2.96,1.05-3.66s1.92-1.05,3.83-1.05h20.91c0.87,0,1.39,0,1.74,0c0.35,0,0.87,0.17,1.39,0.52
				c0.87,0.52,1.39,1.92,1.39,4.18c0,2.44-0.7,4.01-1.92,4.36c-0.52,0.17-1.57,0.35-2.79,0.35h-16.2v5.4h10.45c0.87,0,1.39,0,1.74,0
				s0.87,0.17,1.39,0.52c0.87,0.52,1.39,1.92,1.39,4.18c0,2.44-0.7,4.01-2.09,4.36c-0.52,0.17-1.57,0.35-2.79,0.35h-10.45
				L485.56,384.88L485.56,384.88z"/>
		</g>
		<path class="st1" d="M104.18,384.88h16.38c0.87,0,1.39,0,1.74,0s0.87,0.17,1.39,0.52c0.87,0.52,1.39,1.92,1.39,4.18
			c0,2.44-0.7,4.01-1.92,4.36c-0.52,0.17-1.57,0.35-2.79,0.35H99.47c-2.44,0-4.01-0.7-4.36-2.09c-0.17-0.52-0.35-1.39-0.35-2.79
			v-29.27c0-1.74,0.35-2.96,1.05-3.66c0.7-0.7,1.92-1.05,3.83-1.05h20.91c0.87,0,1.39,0,1.74,0s0.87,0.17,1.39,0.52
			c0.87,0.52,1.39,1.92,1.39,4.18c0,2.44-0.7,4.01-1.92,4.36c-0.52,0.35-1.39,0.35-2.79,0.35h-16.2v5.4h10.45c0.87,0,1.39,0,1.74,0
			s0.87,0.17,1.39,0.52c0.87,0.52,1.39,1.92,1.39,4.18c0,2.44-0.7,4.01-2.09,4.36c-0.52,0.17-1.57,0.35-2.79,0.35h-10.45
			L104.18,384.88L104.18,384.88z"/>
		<path class="st1" d="M148.78,370.94h9.23c1.92,0,3.14,0.52,3.48,1.39c0.35,0.7,0.52,1.74,0.52,2.96v11.67
			c0,1.05-0.52,2.26-1.39,3.31c-2.96,3.14-7.49,4.53-13.42,4.53c-5.23,0-9.76-1.92-13.76-5.92c-3.83-4.01-5.75-8.71-5.75-14.46
			c0-5.58,1.92-10.28,5.92-14.11c4.01-3.83,8.71-5.58,13.94-5.58c4.18,0,8.19,1.39,11.85,4.18c0.87,0.7,1.39,1.57,1.39,2.44
			c0,0.87-0.35,1.92-1.22,2.96c-1.39,1.92-2.61,2.79-3.83,2.79c-0.7,0-1.74-0.52-3.31-1.39c-1.39-1.05-3.31-1.39-5.23-1.39
			c-2.61,0-5.05,0.87-7.14,2.79s-3.14,4.36-3.14,7.49c0,3.14,1.05,5.58,3.14,7.84c2.09,2.09,4.53,3.14,7.14,3.14
			c1.92,0,3.66-0.35,5.23-0.87v-5.75h-4.18c-1.05,0-1.92-0.17-2.26-0.35c-0.52-0.35-0.7-0.7-0.87-1.22s-0.17-1.22-0.17-2.26
			c0-0.87,0-1.74,0.17-2.26c0.17-0.52,0.35-0.87,0.87-1.22C146.86,371.11,147.73,370.94,148.78,370.94z"/>
		<path class="st1" d="M191.81,356.83c0.35-0.52,0.87-0.87,1.57-1.22c0.7-0.17,1.57-0.35,2.44-0.35c1.05,0,1.74,0,2.44,0.17
			c0.52,0.17,1.05,0.35,1.39,0.7s0.52,0.52,0.7,1.05c0.17,0.52,0.35,1.57,0.35,2.79v16.03c0,4.7-1.39,8.89-4.36,12.72
			c-1.39,1.74-3.31,3.31-5.4,4.36c-2.26,1.05-4.7,1.74-7.32,1.74s-5.23-0.52-7.32-1.74c-2.26-1.05-4.01-2.61-5.4-4.36
			c-2.79-3.83-4.36-8.01-4.36-12.72v-16.03c0-0.87,0-1.39,0-1.92c0-0.35,0.17-0.87,0.52-1.39c0.35-0.52,0.7-0.87,1.39-1.05
			c0.7-0.17,1.57-0.35,2.79-0.35c1.05,0,2.09,0,2.79,0.35c0.7,0.17,1.05,0.52,1.39,1.05c0.35,0.87,0.7,1.92,0.7,3.31v15.85
			c0,2.09,0.52,4.18,1.57,6.1c0.52,1.05,1.39,1.74,2.44,2.44c1.05,0.52,2.26,0.87,3.83,0.87c2.61,0,4.53-0.87,5.75-2.79
			s1.92-4.18,1.92-6.62v-16.2C191.29,358.39,191.46,357.52,191.81,356.83z"/>
		<path class="st1" d="M234.67,387.66c0.52,1.22,0.7,2.26,0.7,2.79c0,1.39-1.05,2.44-3.31,3.48c-1.05,0.52-2.09,0.7-2.79,0.7
			c-0.7,0-1.22-0.17-1.74-0.52c-0.35-0.35-0.7-0.7-1.05-1.05c-0.35-0.7-1.74-3.83-4.18-9.58h-1.57h-6.62v6.1c0,0.87,0,1.39,0,1.74
			s-0.17,0.87-0.52,1.39c-0.52,0.87-1.92,1.39-4.18,1.39c-2.44,0-4.01-0.7-4.36-1.92c-0.17-0.52-0.35-1.57-0.35-2.79v-29.27
			c0-0.87,0-1.39,0-1.74s0.17-0.87,0.52-1.39c0.52-0.87,1.92-1.39,4.18-1.39h11.5c3.14,0,6.1,1.05,9.06,3.48
			c1.39,1.05,2.61,2.61,3.48,4.36c0.87,1.92,1.39,4.01,1.39,6.27c0,4.01-1.39,7.32-4.01,9.93
			C231.89,381.39,233.11,384.01,234.67,387.66z M214.29,374.25h6.79c1.05,0,2.09-0.35,3.14-1.22c1.05-0.7,1.57-1.92,1.57-3.48
			s-0.52-2.79-1.57-3.48c-1.05-0.7-2.09-1.22-3.14-1.22h-6.62L214.29,374.25L214.29,374.25L214.29,374.25z"/>
		<path class="st1" d="M238.33,360.14c0-0.87,0-1.39,0-1.74s0.17-0.87,0.52-1.39c0.52-0.87,1.92-1.39,4.18-1.39
			c2.44,0,4.01,0.7,4.36,1.92c0.17,0.52,0.17,1.57,0.17,2.79v29.44c0,0.87,0,1.39,0,1.92s-0.17,0.87-0.52,1.39
			c-0.52,0.87-1.92,1.39-4.18,1.39c-2.44,0-4.01-0.7-4.36-2.09c-0.17-0.52-0.35-1.39-0.35-2.79v-29.44H238.33z"/>
		<path class="st1" d="M256.63,355.43h9.76c5.05,0,9.58,1.92,13.42,5.58c3.83,3.66,5.75,8.19,5.75,13.59c0,5.4-1.92,9.93-5.75,13.76
			c-3.83,3.83-8.36,5.75-13.76,5.75h-9.76c-2.09,0-3.48-0.35-4.01-1.39c-0.35-0.7-0.7-1.92-0.7-3.48v-29.27c0-0.87,0-1.39,0-1.92
			c0-0.35,0.17-0.87,0.52-1.39C252.97,355.95,254.36,355.43,256.63,355.43z M273.35,382.09c2.09-1.92,3.14-4.36,3.14-7.14
			c0-2.79-1.05-5.23-2.96-7.14s-4.36-2.96-6.97-2.96h-5.05v20.04h5.05C269,384.88,271.26,384.01,273.35,382.09z"/>
		<path class="st1" d="M309.07,358.22l14.29,29.62c0.52,1.22,0.87,2.09,0.87,2.79c0,1.22-1.05,2.44-3.14,3.48
			c-1.22,0.52-2.09,0.87-2.79,0.87s-1.22-0.17-1.74-0.52c-0.35-0.35-0.7-0.7-0.87-1.05c-0.17-0.35-0.52-0.87-0.87-1.57l-2.79-5.75
			H297.4l-2.79,5.75c-0.35,0.7-0.7,1.22-0.87,1.57c-0.17,0.35-0.52,0.7-0.87,1.05s-1.05,0.52-1.74,0.52s-1.57-0.35-2.79-0.87
			c-2.09-1.05-3.14-2.09-3.14-3.48c0-0.52,0.35-1.57,0.87-2.79l14.29-29.62c0.35-0.87,1.05-1.39,1.74-1.92s1.57-0.7,2.44-0.7
			C306.8,355.43,308.2,356.48,309.07,358.22z M304.71,370.94l-3.48,7.32h6.97L304.71,370.94z"/>
		<path class="st1" d="M331.89,355.43h9.76c5.05,0,9.58,1.92,13.42,5.58c3.83,3.66,5.75,8.19,5.75,13.59c0,5.4-1.92,9.93-5.75,13.76
			c-3.83,3.83-8.36,5.75-13.76,5.75h-9.58c-2.09,0-3.48-0.35-4.01-1.39c-0.35-0.7-0.7-1.92-0.7-3.48v-29.27c0-0.87,0-1.39,0-1.92
			c0-0.35,0.17-0.87,0.52-1.39C328.23,355.95,329.63,355.43,331.89,355.43z M348.62,382.09c2.09-1.92,3.14-4.36,3.14-7.14
			c0-2.79-1.05-5.23-2.96-7.14s-4.36-2.96-6.97-2.96h-5.05v20.04h5.05C344.26,384.88,346.53,384.01,348.62,382.09z"/>
		<path class="st1" d="M61.85,388.88c-0.87-1.05-1.39-2.09-1.39-3.14c0-0.87,0.7-2.09,2.26-3.66c0.87-0.87,1.74-1.22,2.79-1.22
			s2.44,0.87,4.18,2.61c0.52,0.52,1.22,1.22,2.09,1.74s1.74,0.87,2.61,0.87c3.31,0,4.88-1.39,4.88-4.01c0-0.87-0.35-1.57-1.39-2.09
			c-0.87-0.52-2.09-0.87-3.31-1.22c-1.39-0.17-2.79-0.7-4.36-1.22c-1.57-0.52-2.96-1.22-4.36-1.92c-1.39-0.7-2.44-1.92-3.31-3.48
			c-0.87-1.57-1.39-3.48-1.39-5.75c0-3.14,1.22-5.75,3.48-8.19c2.26-2.26,5.4-3.48,9.41-3.48c2.09,0,4.01,0.17,5.75,0.87
			c1.74,0.7,2.96,1.05,3.66,1.74l1.39,1.05c1.05,1.05,1.57,1.92,1.57,2.61c0,0.7-0.35,1.74-1.22,2.96
			c-1.22,1.74-2.44,2.61-3.66,2.61c-0.7,0-1.74-0.35-2.79-1.05c0,0-0.35-0.17-0.52-0.52c-0.35-0.35-0.52-0.52-0.87-0.7
			c-0.7-0.52-1.74-0.7-2.79-0.7c-1.05,0-2.09,0.17-2.79,0.87c-0.7,0.52-1.05,1.22-1.05,2.26c0,1.05,0.35,1.74,1.39,2.44
			c0.87,0.52,2.09,1.05,3.31,1.22c1.39,0.17,2.79,0.52,4.36,1.05c1.57,0.35,3.14,1.05,4.36,1.57c1.39,0.7,2.44,1.74,3.31,3.31
			s1.39,3.48,1.39,5.75c0,2.26-0.52,4.36-1.39,6.1s-2.09,3.14-3.66,4.01c-2.79,1.92-5.92,2.79-9.23,2.79c-1.74,0-3.31-0.17-4.7-0.52
			c-1.39-0.35-2.61-0.87-3.66-1.57c-1.92-1.05-3.14-2.26-4.01-3.31L61.85,388.88z"/>
	</g>
	<g>
		<g>
			<path class="st1" d="M110.36,430.66v-20.85h7.86c1.38,0,2.44,0.07,3.17,0.2c1.02,0.17,1.88,0.5,2.57,0.97s1.25,1.15,1.67,2.01
				s0.63,1.81,0.63,2.84c0,1.77-0.56,3.27-1.69,4.5c-1.13,1.23-3.17,1.84-6.11,1.84h-5.35v8.47H110.36z M113.12,419.72h5.39
				c1.78,0,3.05-0.33,3.8-1c0.75-0.66,1.12-1.6,1.12-2.8c0-0.87-0.22-1.62-0.66-2.24c-0.44-0.62-1.02-1.03-1.74-1.23
				c-0.46-0.12-1.32-0.19-2.57-0.19h-5.33V419.72z"/>
			<path class="st1" d="M128.5,423.11c0-2.8,0.78-4.87,2.33-6.21c1.3-1.12,2.88-1.68,4.75-1.68c2.08,0,3.77,0.68,5.09,2.04
				c1.32,1.36,1.98,3.24,1.98,5.64c0,1.94-0.29,3.47-0.87,4.59c-0.58,1.11-1.43,1.98-2.55,2.59s-2.33,0.92-3.65,0.92
				c-2.11,0-3.82-0.68-5.13-2.03C129.15,427.61,128.5,425.66,128.5,423.11z M131.13,423.11c0,1.93,0.42,3.38,1.27,4.34
				c0.84,0.96,1.91,1.44,3.19,1.44c1.27,0,2.33-0.48,3.17-1.45c0.84-0.97,1.27-2.44,1.27-4.42c0-1.87-0.42-3.28-1.27-4.25
				c-0.85-0.96-1.9-1.44-3.16-1.44c-1.28,0-2.34,0.48-3.19,1.44C131.56,419.73,131.13,421.17,131.13,423.11z"/>
			<path class="st1" d="M145.62,430.66v-15.1h2.3v2.29c0.59-1.07,1.13-1.78,1.63-2.12c0.5-0.34,1.04-0.51,1.64-0.51
				c0.86,0,1.74,0.27,2.63,0.82l-0.88,2.38c-0.63-0.37-1.25-0.55-1.88-0.55c-0.56,0-1.06,0.17-1.51,0.5s-0.76,0.8-0.95,1.4
				c-0.28,0.91-0.43,1.91-0.43,2.99v7.91H145.62z"/>
			<path class="st1" d="M173.34,430.66v-2.22c-1.18,1.71-2.77,2.56-4.79,2.56c-0.89,0-1.72-0.17-2.5-0.51
				c-0.77-0.34-1.35-0.77-1.72-1.29c-0.38-0.52-0.64-1.15-0.79-1.9c-0.1-0.5-0.16-1.3-0.16-2.39v-9.36h2.56v8.38
				c0,1.34,0.05,2.24,0.16,2.7c0.16,0.67,0.5,1.2,1.02,1.59s1.17,0.58,1.93,0.58c0.77,0,1.49-0.2,2.16-0.59
				c0.67-0.39,1.15-0.93,1.43-1.61s0.42-1.66,0.42-2.95v-8.09h2.56v15.1H173.34z"/>
			<path class="st1" d="M179.64,430.66v-15.1h2.3v2.15c1.11-1.66,2.71-2.49,4.81-2.49c0.91,0,1.75,0.16,2.51,0.49
				c0.76,0.33,1.33,0.76,1.71,1.29c0.38,0.53,0.64,1.16,0.8,1.89c0.09,0.47,0.14,1.3,0.14,2.49v9.29h-2.56v-9.19
				c0-1.04-0.1-1.82-0.3-2.34c-0.2-0.52-0.55-0.93-1.06-1.24c-0.51-0.31-1.1-0.46-1.78-0.46c-1.09,0-2.03,0.35-2.82,1.04
				c-0.79,0.69-1.19,2-1.19,3.94v8.25H179.64z"/>
			<path class="st1" d="M205.69,428.79c-0.95,0.81-1.86,1.38-2.74,1.71s-1.82,0.5-2.82,0.5c-1.66,0-2.93-0.41-3.82-1.22
				c-0.89-0.81-1.34-1.85-1.34-3.11c0-0.74,0.17-1.42,0.5-2.03s0.78-1.1,1.32-1.47c0.54-0.37,1.16-0.65,1.84-0.84
				c0.5-0.13,1.26-0.26,2.27-0.38c2.07-0.25,3.59-0.54,4.56-0.88c0.01-0.35,0.01-0.57,0.01-0.67c0-1.04-0.24-1.78-0.73-2.2
				c-0.65-0.58-1.63-0.87-2.92-0.87c-1.2,0-2.09,0.21-2.67,0.63c-0.57,0.42-1,1.17-1.27,2.24l-2.5-0.34
				c0.23-1.07,0.6-1.94,1.12-2.59c0.52-0.66,1.27-1.17,2.26-1.52s2.13-0.53,3.43-0.53c1.29,0,2.34,0.15,3.14,0.46
				c0.81,0.3,1.4,0.68,1.78,1.14c0.38,0.46,0.64,1.04,0.8,1.74c0.08,0.44,0.13,1.22,0.13,2.36v3.41c0,2.38,0.05,3.88,0.16,4.51
				c0.11,0.63,0.32,1.24,0.65,1.81h-2.67C205.94,430.13,205.76,429.51,205.69,428.79z M205.48,423.08c-0.93,0.38-2.32,0.7-4.18,0.97
				c-1.05,0.15-1.8,0.32-2.23,0.51c-0.44,0.19-0.77,0.47-1.01,0.83c-0.24,0.37-0.36,0.77-0.36,1.22c0,0.68,0.26,1.25,0.77,1.71
				c0.52,0.46,1.27,0.68,2.27,0.68c0.99,0,1.86-0.21,2.63-0.65c0.77-0.43,1.33-1.02,1.69-1.77c0.27-0.58,0.41-1.43,0.41-2.56V423.08
				z"/>
			<path class="st1" d="M229.98,425.13l2.52,0.33c-0.27,1.73-0.98,3.09-2.11,4.07c-1.13,0.98-2.52,1.47-4.17,1.47
				c-2.07,0-3.73-0.67-4.98-2.03c-1.26-1.35-1.88-3.29-1.88-5.81c0-1.63,0.27-3.06,0.81-4.28c0.54-1.22,1.36-2.14,2.47-2.75
				c1.1-0.61,2.31-0.92,3.6-0.92c1.64,0,2.98,0.41,4.02,1.24c1.04,0.83,1.71,2.01,2,3.53l-2.49,0.38c-0.24-1.01-0.66-1.78-1.26-2.29
				s-1.33-0.77-2.18-0.77c-1.29,0-2.34,0.46-3.14,1.39c-0.81,0.92-1.21,2.39-1.21,4.39c0,2.03,0.39,3.5,1.17,4.42
				c0.78,0.92,1.79,1.38,3.04,1.38c1,0,1.84-0.31,2.52-0.92C229.37,427.35,229.8,426.41,229.98,425.13z"/>
			<path class="st1" d="M233.73,423.11c0-2.8,0.78-4.87,2.33-6.21c1.3-1.12,2.88-1.68,4.75-1.68c2.08,0,3.77,0.68,5.09,2.04
				c1.32,1.36,1.98,3.24,1.98,5.64c0,1.94-0.29,3.47-0.87,4.59c-0.58,1.11-1.43,1.98-2.55,2.59s-2.33,0.92-3.65,0.92
				c-2.11,0-3.82-0.68-5.13-2.03C234.38,427.61,233.73,425.66,233.73,423.11z M236.36,423.11c0,1.93,0.42,3.38,1.27,4.34
				c0.84,0.96,1.91,1.44,3.19,1.44c1.27,0,2.33-0.48,3.17-1.45c0.84-0.97,1.27-2.44,1.27-4.42c0-1.87-0.42-3.28-1.27-4.25
				c-0.85-0.96-1.9-1.44-3.16-1.44c-1.28,0-2.34,0.48-3.19,1.44C236.78,419.73,236.36,421.17,236.36,423.11z"/>
			<path class="st1" d="M250.88,430.66v-15.1h2.29v2.12c0.47-0.74,1.1-1.33,1.89-1.79c0.79-0.45,1.68-0.67,2.69-0.67
				c1.12,0,2.04,0.23,2.75,0.7c0.72,0.46,1.22,1.11,1.51,1.95c1.19-1.76,2.75-2.64,4.66-2.64c1.5,0,2.65,0.41,3.46,1.24
				c0.81,0.83,1.21,2.11,1.21,3.83v10.37h-2.55v-9.51c0-1.02-0.08-1.76-0.25-2.21s-0.47-0.81-0.9-1.09
				c-0.44-0.27-0.95-0.41-1.54-0.41c-1.06,0-1.94,0.35-2.65,1.06c-0.7,0.71-1.05,1.84-1.05,3.39v8.77h-2.56v-9.81
				c0-1.14-0.21-1.99-0.63-2.56c-0.42-0.57-1.1-0.85-2.05-0.85c-0.72,0-1.39,0.19-2,0.57c-0.61,0.38-1.05,0.93-1.33,1.66
				c-0.27,0.73-0.41,1.78-0.41,3.16v7.83H250.88z"/>
			<path class="st1" d="M285.04,430.66v-2.22c-1.18,1.71-2.77,2.56-4.79,2.56c-0.89,0-1.72-0.17-2.5-0.51
				c-0.77-0.34-1.35-0.77-1.72-1.29c-0.38-0.52-0.64-1.15-0.79-1.9c-0.1-0.5-0.16-1.3-0.16-2.39v-9.36h2.56v8.38
				c0,1.34,0.05,2.24,0.16,2.7c0.16,0.67,0.5,1.2,1.02,1.59s1.17,0.58,1.93,0.58c0.77,0,1.49-0.2,2.16-0.59
				c0.67-0.39,1.15-0.93,1.43-1.61c0.28-0.68,0.42-1.66,0.42-2.95v-8.09h2.56v15.1H285.04z"/>
			<path class="st1" d="M291.34,430.66v-15.1h2.3v2.15c1.11-1.66,2.71-2.49,4.81-2.49c0.91,0,1.75,0.16,2.51,0.49
				c0.76,0.33,1.34,0.76,1.71,1.29c0.38,0.53,0.64,1.16,0.79,1.89c0.1,0.47,0.14,1.3,0.14,2.49v9.29h-2.56v-9.19
				c0-1.04-0.1-1.82-0.3-2.34s-0.55-0.93-1.06-1.24c-0.51-0.31-1.1-0.46-1.78-0.46c-1.09,0-2.03,0.35-2.82,1.04
				c-0.79,0.69-1.19,2-1.19,3.94v8.25H291.34z"/>
			<path class="st1" d="M307.55,412.75v-2.94h2.56v2.94H307.55z M307.55,430.66v-15.1h2.56v15.1H307.55z"/>
			<path class="st1" d="M323.8,430.66v-1.91c-0.96,1.5-2.37,2.25-4.22,2.25c-1.2,0-2.31-0.33-3.32-1c-1.01-0.66-1.79-1.59-2.35-2.78
				c-0.55-1.19-0.83-2.56-0.83-4.1c0-1.51,0.25-2.88,0.75-4.1c0.5-1.23,1.26-2.17,2.26-2.82s2.13-0.98,3.37-0.98
				c0.91,0,1.72,0.19,2.43,0.58s1.29,0.88,1.74,1.5v-7.48h2.54v20.85H323.8z M315.71,423.12c0,1.93,0.41,3.38,1.22,4.34
				c0.82,0.96,1.78,1.44,2.89,1.44c1.12,0,2.07-0.46,2.85-1.37c0.78-0.91,1.17-2.31,1.17-4.19c0-2.07-0.4-3.58-1.19-4.55
				c-0.8-0.97-1.78-1.45-2.94-1.45c-1.14,0-2.09,0.46-2.85,1.39C316.09,419.66,315.71,421.12,315.71,423.12z"/>
			<path class="st1" d="M340.05,428.79c-0.95,0.81-1.86,1.38-2.74,1.71c-0.88,0.33-1.82,0.5-2.82,0.5c-1.66,0-2.93-0.41-3.83-1.22
				c-0.89-0.81-1.34-1.85-1.34-3.11c0-0.74,0.17-1.42,0.5-2.03c0.34-0.61,0.78-1.1,1.32-1.47c0.54-0.37,1.16-0.65,1.84-0.84
				c0.5-0.13,1.26-0.26,2.28-0.38c2.07-0.25,3.59-0.54,4.56-0.88c0.01-0.35,0.01-0.57,0.01-0.67c0-1.04-0.24-1.78-0.73-2.2
				c-0.65-0.58-1.63-0.87-2.92-0.87c-1.2,0-2.09,0.21-2.67,0.63c-0.57,0.42-1,1.17-1.27,2.24l-2.5-0.34
				c0.23-1.07,0.6-1.94,1.12-2.59c0.52-0.66,1.28-1.17,2.26-1.52c0.99-0.36,2.13-0.53,3.43-0.53c1.29,0,2.34,0.15,3.14,0.46
				c0.81,0.3,1.4,0.68,1.78,1.14s0.64,1.04,0.8,1.74c0.09,0.44,0.13,1.22,0.13,2.36v3.41c0,2.38,0.05,3.88,0.16,4.51
				c0.11,0.63,0.32,1.24,0.65,1.81h-2.67C340.3,430.13,340.13,429.51,340.05,428.79z M339.84,423.08c-0.93,0.38-2.32,0.7-4.18,0.97
				c-1.05,0.15-1.8,0.32-2.23,0.51c-0.44,0.19-0.77,0.47-1.01,0.83c-0.24,0.37-0.36,0.77-0.36,1.22c0,0.68,0.26,1.25,0.78,1.71
				s1.27,0.68,2.27,0.68c0.99,0,1.86-0.21,2.63-0.65s1.33-1.02,1.69-1.77c0.27-0.58,0.41-1.43,0.41-2.56V423.08z"/>
			<path class="st1" d="M356.19,430.66v-1.91c-0.96,1.5-2.37,2.25-4.22,2.25c-1.2,0-2.31-0.33-3.32-1
				c-1.01-0.66-1.79-1.59-2.35-2.78c-0.55-1.19-0.83-2.56-0.83-4.1c0-1.51,0.25-2.88,0.75-4.1c0.5-1.23,1.26-2.17,2.26-2.82
				s2.13-0.98,3.37-0.98c0.91,0,1.72,0.19,2.43,0.58s1.29,0.88,1.74,1.5v-7.48h2.54v20.85H356.19z M348.1,423.12
				c0,1.93,0.41,3.38,1.22,4.34c0.82,0.96,1.78,1.44,2.89,1.44c1.12,0,2.07-0.46,2.85-1.37c0.78-0.91,1.17-2.31,1.17-4.19
				c0-2.07-0.4-3.58-1.19-4.55c-0.8-0.97-1.78-1.45-2.94-1.45c-1.14,0-2.09,0.46-2.85,1.39C348.48,419.66,348.1,421.12,348.1,423.12
				z"/>
			<path class="st1" d="M369.66,426.15l2.53-0.4c0.14,1.01,0.54,1.79,1.19,2.33c0.65,0.54,1.56,0.81,2.72,0.81
				c1.17,0,2.05-0.24,2.62-0.72c0.57-0.48,0.85-1.04,0.85-1.68c0-0.58-0.25-1.03-0.75-1.37c-0.35-0.23-1.22-0.52-2.62-0.87
				c-1.88-0.47-3.18-0.88-3.9-1.23c-0.72-0.35-1.27-0.83-1.65-1.44c-0.37-0.61-0.56-1.29-0.56-2.03c0-0.67,0.15-1.3,0.46-1.87
				c0.31-0.57,0.73-1.05,1.26-1.43c0.4-0.29,0.94-0.54,1.63-0.75c0.69-0.2,1.42-0.31,2.21-0.31c1.18,0,2.22,0.17,3.12,0.51
				c0.9,0.34,1.56,0.8,1.98,1.39s0.72,1.36,0.88,2.34l-2.5,0.34c-0.11-0.78-0.44-1.38-0.99-1.82c-0.54-0.44-1.32-0.65-2.31-0.65
				c-1.18,0-2.01,0.19-2.52,0.58c-0.5,0.39-0.75,0.84-0.75,1.36c0,0.33,0.1,0.63,0.31,0.9c0.21,0.28,0.54,0.5,0.98,0.68
				c0.26,0.09,1.01,0.31,2.26,0.65c1.81,0.48,3.07,0.88,3.79,1.19c0.72,0.31,1.28,0.76,1.68,1.34c0.41,0.59,0.61,1.32,0.61,2.19
				c0,0.85-0.25,1.66-0.75,2.41c-0.5,0.75-1.22,1.34-2.15,1.75s-2,0.62-3.19,0.62c-1.96,0-3.46-0.41-4.49-1.22
				S369.94,427.75,369.66,426.15z"/>
			<path class="st1" d="M395.58,425.79l2.64,0.33c-0.42,1.54-1.19,2.74-2.32,3.6c-1.13,0.85-2.57,1.28-4.32,1.28
				c-2.21,0-3.96-0.68-5.25-2.04s-1.94-3.27-1.94-5.72c0-2.54,0.65-4.51,1.96-5.92c1.31-1.4,3-2.1,5.09-2.1
				c2.02,0,3.67,0.69,4.95,2.06c1.28,1.38,1.92,3.31,1.92,5.8c0,0.15,0,0.38-0.01,0.68h-11.26c0.09,1.66,0.56,2.93,1.41,3.81
				s1.9,1.32,3.16,1.32c0.94,0,1.74-0.25,2.4-0.74C394.67,427.66,395.19,426.88,395.58,425.79z M387.18,421.66h8.43
				c-0.11-1.27-0.44-2.22-0.97-2.86c-0.82-0.99-1.87-1.48-3.17-1.48c-1.18,0-2.16,0.39-2.96,1.18
				C387.71,419.29,387.26,420.34,387.18,421.66z"/>
			<path class="st1" d="M400.97,431.91l2.49,0.37c0.1,0.77,0.39,1.33,0.87,1.68c0.63,0.47,1.5,0.71,2.6,0.71
				c1.19,0,2.1-0.24,2.75-0.71c0.64-0.47,1.08-1.14,1.31-1.99c0.13-0.52,0.19-1.62,0.19-3.29c-1.12,1.32-2.51,1.98-4.18,1.98
				c-2.08,0-3.68-0.75-4.82-2.25c-1.14-1.5-1.71-3.29-1.71-5.39c0-1.44,0.26-2.77,0.78-3.99c0.52-1.22,1.28-2.16,2.27-2.82
				c0.99-0.66,2.15-1,3.49-1c1.78,0,3.25,0.72,4.41,2.16v-1.82h2.36v13.05c0,2.35-0.24,4.02-0.72,5c-0.48,0.98-1.24,1.76-2.28,2.33
				c-1.04,0.57-2.32,0.85-3.83,0.85c-1.8,0-3.26-0.41-4.37-1.22C401.47,434.76,400.93,433.54,400.97,431.91z M403.09,422.84
				c0,1.98,0.39,3.43,1.18,4.34c0.79,0.91,1.77,1.36,2.96,1.36c1.18,0,2.16-0.45,2.96-1.36c0.8-0.91,1.19-2.33,1.19-4.26
				c0-1.85-0.41-3.24-1.23-4.18c-0.82-0.94-1.81-1.41-2.96-1.41c-1.14,0-2.1,0.46-2.9,1.39
				C403.49,419.64,403.09,421.02,403.09,422.84z"/>
			<path class="st1" d="M427.53,430.66v-2.22c-1.17,1.71-2.77,2.56-4.79,2.56c-0.89,0-1.72-0.17-2.5-0.51
				c-0.77-0.34-1.35-0.77-1.72-1.29c-0.38-0.52-0.64-1.15-0.79-1.9c-0.1-0.5-0.16-1.3-0.16-2.39v-9.36h2.56v8.38
				c0,1.34,0.05,2.24,0.16,2.7c0.16,0.67,0.5,1.2,1.02,1.59s1.17,0.58,1.93,0.58c0.77,0,1.49-0.2,2.16-0.59
				c0.67-0.39,1.15-0.93,1.43-1.61s0.42-1.66,0.42-2.95v-8.09h2.56v15.1H427.53z"/>
			<path class="st1" d="M433.8,430.66v-15.1h2.3v2.29c0.59-1.07,1.13-1.78,1.63-2.12c0.5-0.34,1.04-0.51,1.64-0.51
				c0.86,0,1.74,0.27,2.63,0.82l-0.88,2.38c-0.63-0.37-1.25-0.55-1.88-0.55c-0.56,0-1.06,0.17-1.51,0.5s-0.76,0.8-0.95,1.4
				c-0.28,0.91-0.43,1.91-0.43,2.99v7.91H433.8z"/>
			<path class="st1" d="M453.39,428.79c-0.95,0.81-1.86,1.38-2.74,1.71c-0.88,0.33-1.82,0.5-2.82,0.5c-1.66,0-2.93-0.41-3.83-1.22
				c-0.89-0.81-1.34-1.85-1.34-3.11c0-0.74,0.17-1.42,0.5-2.03c0.34-0.61,0.78-1.1,1.32-1.47c0.54-0.37,1.16-0.65,1.84-0.84
				c0.5-0.13,1.26-0.26,2.28-0.38c2.07-0.25,3.59-0.54,4.56-0.88c0.01-0.35,0.01-0.57,0.01-0.67c0-1.04-0.24-1.78-0.73-2.2
				c-0.65-0.58-1.63-0.87-2.92-0.87c-1.2,0-2.09,0.21-2.67,0.63c-0.57,0.42-1,1.17-1.27,2.24l-2.5-0.34
				c0.23-1.07,0.6-1.94,1.12-2.59c0.52-0.66,1.28-1.17,2.26-1.52c0.99-0.36,2.13-0.53,3.43-0.53c1.29,0,2.34,0.15,3.14,0.46
				c0.81,0.3,1.4,0.68,1.78,1.14s0.64,1.04,0.8,1.74c0.09,0.44,0.13,1.22,0.13,2.36v3.41c0,2.38,0.05,3.88,0.16,4.51
				c0.11,0.63,0.32,1.24,0.65,1.81h-2.67C453.63,430.13,453.46,429.51,453.39,428.79z M453.17,423.08c-0.93,0.38-2.32,0.7-4.18,0.97
				c-1.05,0.15-1.8,0.32-2.23,0.51c-0.44,0.19-0.77,0.47-1.01,0.83c-0.24,0.37-0.36,0.77-0.36,1.22c0,0.68,0.26,1.25,0.78,1.71
				s1.27,0.68,2.27,0.68c0.99,0,1.86-0.21,2.63-0.65s1.33-1.02,1.69-1.77c0.27-0.58,0.41-1.43,0.41-2.56V423.08z"/>
		</g>
	</g>
	<g>
		<g>
			<path class="st2" d="M248.83,248.79h68.76c0.72,0,1.43,0.05,2.15,0.14c0.71,0.09,1.42,0.22,2.11,0.4c0.7,0.18,1.38,0.4,2.05,0.66
				c0.67,0.26,1.32,0.57,1.95,0.91c0.63,0.34,1.24,0.73,1.82,1.15c0.58,0.42,1.14,0.88,1.66,1.37c0.52,0.49,1.02,1.01,1.48,1.56
				c0.46,0.55,0.88,1.13,1.27,1.73c-0.34,0.34-0.65,0.69-0.95,1.07c-0.3,0.37-0.57,0.76-0.83,1.16c-0.25,0.4-0.49,0.82-0.69,1.25
				c-0.21,0.43-0.39,0.86-0.56,1.31s-0.3,0.9-0.41,1.37c-0.11,0.46-0.2,0.93-0.26,1.4c-0.06,0.47-0.1,0.95-0.11,1.42
				c-0.01,0.48,0,0.95,0.04,1.43c0.04,0.47,0.11,0.95,0.2,1.41c0.09,0.47,0.21,0.93,0.35,1.38c0.14,0.45,0.31,0.9,0.5,1.34
				c0.19,0.44,0.4,0.86,0.64,1.27c0.24,0.41,0.49,0.81,0.77,1.2c0.28,0.38,0.58,0.75,0.9,1.11s0.66,0.69,1.01,1.01
				c0.36,0.32,0.73,0.61,1.11,0.89c0.39,0.28,0.79,0.53,1.2,0.77c0.41,0.23,0.84,0.44,1.28,0.63c0.44,0.19,0.89,0.35,1.34,0.49
				c0.46,0.14,0.92,0.25,1.39,0.34c0.47,0.09,0.94,0.15,1.41,0.19c0.48,0.04,0.95,0.05,1.43,0.03s0.95-0.05,1.42-0.12
				s0.94-0.15,1.4-0.27c0.46-0.12,0.92-0.26,1.36-0.42c0.45-0.17,0.88-0.35,1.31-0.57c0.43-0.21,0.84-0.45,1.24-0.7
				c0.4-0.26,0.79-0.53,1.16-0.83c0.37-0.3,0.72-0.62,1.06-0.95c0.34-0.34,0.65-0.69,0.95-1.06c0.3-0.37,0.58-0.76,0.83-1.16
				c0.25-0.4,0.49-0.81,0.7-1.24c0.21-0.43,0.4-0.86,0.56-1.31c0.16-0.45,0.31-0.9,0.42-1.36c0.11-0.46,0.2-0.93,0.27-1.4
				s0.1-0.95,0.12-1.42c0.01-0.48,0-0.95-0.04-1.43c-0.04-0.47-0.1-0.95-0.19-1.41c-0.09-0.47-0.2-0.93-0.34-1.39
				c-0.14-0.46-0.3-0.9-0.49-1.34c-0.19-0.44-0.4-0.86-0.63-1.28c-0.23-0.41-0.49-0.82-0.77-1.2c-0.28-0.39-0.57-0.76-0.89-1.11
				c-0.32-0.36-0.65-0.69-1.01-1.01c-0.35-0.32-0.72-0.62-1.11-0.9c-0.39-0.28-0.79-0.54-1.2-0.77c-0.41-0.24-0.84-0.45-1.27-0.64
				c-0.44-0.19-0.88-0.36-1.34-0.5c-0.6-1.33-1.3-2.61-2.09-3.83s-1.66-2.39-2.61-3.5c-0.95-1.1-1.98-2.13-3.08-3.09
				c-1.1-0.96-2.26-1.83-3.49-2.62c-1.23-0.79-2.5-1.49-3.83-2.1c-1.33-0.61-2.69-1.12-4.09-1.53c-1.4-0.41-2.82-0.72-4.26-0.93
				c-1.44-0.21-2.9-0.31-4.35-0.31h-68.74c-0.7,0-1.4-0.02-2.1-0.05s-1.39-0.09-2.09-0.15c-0.7-0.07-1.39-0.15-2.08-0.26
				c-0.69-0.1-1.38-0.22-2.07-0.36c-0.68-0.14-1.37-0.29-2.04-0.46c-0.68-0.17-1.35-0.36-2.02-0.56c-0.67-0.2-1.33-0.42-1.99-0.66
				c-0.66-0.24-1.31-0.49-1.96-0.75s-1.29-0.55-1.92-0.85c-0.63-0.3-1.26-0.61-1.87-0.94c-0.62-0.33-1.23-0.68-1.82-1.03
				c-0.6-0.36-1.19-0.73-1.77-1.12s-1.15-0.79-1.71-1.21c-0.56-0.42-1.11-0.85-1.65-1.29s-1.07-0.9-1.59-1.37
				c-0.52-0.47-1.02-0.95-1.52-1.45c-0.49-0.49-0.98-1-1.45-1.52c-0.47-0.52-0.93-1.05-1.37-1.59c-0.44-0.54-0.87-1.09-1.29-1.65
				c-0.42-0.56-0.82-1.13-1.21-1.71s-0.76-1.17-1.12-1.77c-0.36-0.6-0.7-1.21-1.03-1.82c-0.33-0.62-0.64-1.24-0.94-1.87
				c-0.3-0.63-0.58-1.27-0.85-1.92c-0.27-0.65-0.52-1.3-0.75-1.96c-0.24-0.66-0.46-1.32-0.66-1.99c-0.2-0.67-0.39-1.34-0.56-2.02
				c-0.17-0.68-0.32-1.36-0.46-2.05c-0.14-0.69-0.26-1.37-0.36-2.07c-0.1-0.69-0.19-1.39-0.26-2.08c-0.07-0.7-0.12-1.39-0.15-2.09
				c-0.03-0.7-0.05-1.4-0.05-2.1c0-0.7,0.02-1.4,0.05-2.1c0.03-0.7,0.09-1.4,0.15-2.09c0.07-0.7,0.15-1.39,0.26-2.08
				c0.1-0.69,0.22-1.38,0.36-2.07c0.14-0.68,0.29-1.37,0.46-2.05c0.17-0.68,0.36-1.35,0.56-2.02c0.2-0.67,0.42-1.33,0.66-1.99
				c0.24-0.66,0.49-1.31,0.75-1.96c0.27-0.65,0.55-1.29,0.85-1.92c0.3-0.63,0.62-1.26,0.94-1.87c0.33-0.62,0.68-1.23,1.03-1.82
				c0.36-0.6,0.73-1.19,1.12-1.77s0.79-1.15,1.21-1.71c0.42-0.56,0.85-1.11,1.29-1.65c0.44-0.54,0.9-1.07,1.37-1.59
				c0.47-0.52,0.95-1.02,1.45-1.52c0.49-0.49,1-0.98,1.52-1.45c0.52-0.47,1.05-0.93,1.59-1.37c0.54-0.44,1.09-0.87,1.65-1.29
				c0.56-0.42,1.13-0.82,1.71-1.21c0.58-0.39,1.17-0.76,1.77-1.12c0.6-0.36,1.21-0.7,1.82-1.03c0.62-0.33,1.24-0.64,1.87-0.94
				c0.63-0.3,1.27-0.58,1.92-0.85s1.3-0.52,1.96-0.75c0.66-0.24,1.32-0.46,1.99-0.66c0.67-0.2,1.34-0.39,2.02-0.56
				c0.68-0.17,1.36-0.32,2.04-0.46c0.69-0.14,1.38-0.26,2.07-0.36c0.69-0.1,1.39-0.19,2.08-0.26c0.7-0.07,1.39-0.12,2.09-0.15
				c0.7-0.03,1.4-0.05,2.1-0.05h54.07c0.24,0.41,0.51,0.81,0.79,1.2c0.28,0.38,0.59,0.75,0.92,1.11c0.32,0.35,0.67,0.69,1.03,1
				c0.36,0.31,0.74,0.61,1.13,0.88c0.4,0.28,0.8,0.53,1.22,0.75c0.42,0.23,0.86,0.43,1.3,0.62c0.44,0.18,0.9,0.34,1.36,0.47
				c0.46,0.13,0.93,0.24,1.4,0.32c0.47,0.08,0.95,0.14,1.43,0.17c0.48,0.03,0.96,0.03,1.44,0.01c0.48-0.02,0.96-0.07,1.43-0.14
				c0.47-0.07,0.94-0.18,1.41-0.3c0.46-0.12,0.92-0.28,1.36-0.45c0.45-0.17,0.88-0.37,1.31-0.59c0.43-0.22,0.84-0.47,1.24-0.74
				c0.4-0.27,0.78-0.56,1.15-0.86c0.37-0.31,0.71-0.64,1.05-0.98c0.33-0.35,0.64-0.71,0.93-1.09c0.29-0.38,0.56-0.78,0.81-1.19
				c0.25-0.41,0.47-0.83,0.68-1.27c0.2-0.43,0.38-0.88,0.53-1.33c0.15-0.45,0.28-0.92,0.39-1.39c0.1-0.47,0.18-0.94,0.23-1.42
				c0.05-0.48,0.08-0.96,0.08-1.43c0-0.48-0.03-0.96-0.08-1.44c-0.05-0.48-0.13-0.95-0.23-1.42c-0.1-0.47-0.23-0.93-0.39-1.38
				c-0.15-0.46-0.33-0.9-0.53-1.33c-0.2-0.43-0.43-0.86-0.68-1.27c-0.25-0.41-0.52-0.8-0.81-1.19c-0.29-0.38-0.6-0.74-0.93-1.09
				c-0.33-0.35-0.68-0.68-1.05-0.99c-0.37-0.31-0.75-0.6-1.15-0.86c-0.4-0.27-0.81-0.51-1.24-0.73c-0.43-0.22-0.86-0.42-1.31-0.6
				c-0.45-0.18-0.9-0.32-1.36-0.45c-0.46-0.12-0.93-0.22-1.41-0.3s-0.95-0.12-1.43-0.15c-0.48-0.02-0.96-0.02-1.44,0.01
				c-0.48,0.03-0.96,0.09-1.43,0.17c-0.47,0.08-0.94,0.19-1.4,0.32c-0.46,0.13-0.91,0.29-1.36,0.47c-0.44,0.18-0.88,0.39-1.3,0.62
				c-0.42,0.23-0.83,0.48-1.22,0.75c-0.39,0.27-0.77,0.57-1.13,0.88c-0.36,0.31-0.71,0.65-1.03,1c-0.33,0.35-0.63,0.72-0.92,1.11
				c-0.28,0.39-0.55,0.78-0.79,1.2h-54.07c-0.92,0-1.84,0.02-2.75,0.07c-0.92,0.04-1.83,0.11-2.75,0.2
				c-0.91,0.09-1.82,0.2-2.73,0.34c-0.91,0.13-1.81,0.29-2.71,0.47c-0.9,0.18-1.79,0.38-2.69,0.6c-0.89,0.22-1.77,0.47-2.65,0.74
				c-0.88,0.27-1.75,0.55-2.61,0.86c-0.86,0.31-1.72,0.64-2.57,0.99c-0.85,0.35-1.69,0.72-2.52,1.11c-0.83,0.39-1.65,0.8-2.46,1.24
				c-0.81,0.43-1.61,0.89-2.4,1.36c-0.79,0.47-1.56,0.96-2.32,1.47c-0.76,0.51-1.51,1.04-2.25,1.58c-0.74,0.55-1.46,1.11-2.17,1.69
				s-1.4,1.18-2.08,1.8c-0.68,0.62-1.35,1.25-1.99,1.9c-0.65,0.65-1.28,1.31-1.9,1.99c-0.62,0.68-1.21,1.37-1.8,2.08
				s-1.15,1.43-1.69,2.17c-0.55,0.74-1.08,1.49-1.59,2.25c-0.51,0.76-1,1.54-1.47,2.32c-0.47,0.79-0.93,1.59-1.36,2.4
				c-0.43,0.81-0.84,1.63-1.24,2.46c-0.39,0.83-0.76,1.67-1.11,2.52c-0.35,0.85-0.68,1.7-0.99,2.57c-0.31,0.86-0.6,1.73-0.86,2.61
				c-0.27,0.88-0.51,1.76-0.73,2.65c-0.22,0.89-0.43,1.79-0.6,2.69s-0.34,1.8-0.47,2.71c-0.14,0.91-0.25,1.82-0.34,2.73
				c-0.09,0.91-0.16,1.83-0.2,2.75c-0.04,0.92-0.07,1.83-0.07,2.75c0,0.92,0.02,1.83,0.07,2.75c0.05,0.92,0.11,1.83,0.2,2.74
				c0.09,0.91,0.2,1.82,0.34,2.73c0.13,0.91,0.29,1.81,0.47,2.71s0.38,1.79,0.6,2.69c0.22,0.89,0.47,1.77,0.73,2.65
				c0.27,0.88,0.56,1.75,0.86,2.61c0.31,0.86,0.64,1.72,0.99,2.57c0.35,0.85,0.72,1.69,1.11,2.52c0.39,0.83,0.8,1.65,1.24,2.46
				c0.43,0.81,0.89,1.61,1.36,2.39c0.47,0.79,0.96,1.56,1.47,2.33c0.51,0.76,1.04,1.51,1.59,2.25c0.55,0.74,1.11,1.46,1.69,2.17
				s1.18,1.4,1.8,2.08c0.62,0.68,1.25,1.34,1.9,1.99c0.65,0.65,1.31,1.28,1.99,1.9c0.68,0.62,1.37,1.21,2.08,1.8
				c0.71,0.58,1.43,1.15,2.17,1.69c0.74,0.55,1.49,1.08,2.25,1.58c0.76,0.51,1.54,1,2.32,1.47c0.79,0.47,1.59,0.92,2.4,1.36
				c0.81,0.43,1.63,0.85,2.46,1.24c0.83,0.39,1.67,0.77,2.52,1.12c0.85,0.35,1.7,0.68,2.57,0.99c0.86,0.31,1.73,0.6,2.61,0.86
				c0.88,0.27,1.76,0.51,2.65,0.74c0.89,0.22,1.79,0.42,2.69,0.6c0.9,0.18,1.8,0.34,2.71,0.47c0.91,0.13,1.82,0.25,2.73,0.34
				c0.91,0.09,1.83,0.16,2.75,0.2c0.92,0.05,1.83,0.07,2.75,0.07V248.79z"/>
		</g>
		<path class="st0" d="M260.27,162.17c-0.24-0.42-0.5-0.82-0.79-1.2c-0.28-0.39-0.59-0.76-0.91-1.11c-0.32-0.36-0.67-0.69-1.03-1.01
			c-0.36-0.31-0.74-0.61-1.13-0.89c-0.39-0.28-0.8-0.53-1.22-0.76s-0.85-0.44-1.3-0.62c-0.44-0.19-0.9-0.34-1.36-0.48
			c-0.46-0.13-0.93-0.25-1.4-0.33c-0.47-0.08-0.95-0.14-1.42-0.18s-0.96-0.04-1.44-0.02c-0.48,0.02-0.96,0.06-1.43,0.14
			c-0.48,0.07-0.94,0.17-1.41,0.29c-0.46,0.12-0.92,0.27-1.37,0.44c-0.45,0.17-0.89,0.37-1.31,0.59c-0.43,0.22-0.84,0.46-1.24,0.73
			c-0.4,0.27-0.78,0.55-1.15,0.86c-0.37,0.31-0.72,0.63-1.05,0.98s-0.65,0.71-0.94,1.09c-0.29,0.38-0.57,0.77-0.82,1.18
			c-0.25,0.41-0.48,0.83-0.68,1.27c-0.21,0.43-0.39,0.88-0.54,1.33c-0.16,0.45-0.29,0.91-0.4,1.38c-0.11,0.47-0.19,0.94-0.24,1.42
			c-0.06,0.48-0.08,0.96-0.09,1.43c0,0.48,0.02,0.96,0.07,1.44c0.05,0.48,0.12,0.95,0.23,1.42c0.1,0.47,0.23,0.93,0.38,1.39
			c0.15,0.46,0.33,0.9,0.53,1.34c0.2,0.44,0.42,0.86,0.67,1.27c0.25,0.41,0.51,0.81,0.8,1.19c0.29,0.38,0.6,0.75,0.93,1.1
			c0.33,0.35,0.68,0.68,1.04,0.99c0.37,0.31,0.75,0.6,1.14,0.87c0.4,0.27,0.81,0.52,1.23,0.74c0.42,0.22,0.86,0.43,1.3,0.6
			s0.9,0.33,1.36,0.46c0.46,0.13,0.93,0.23,1.4,0.31c0.47,0.08,0.95,0.13,1.43,0.15c0.48,0.03,0.96,0.02,1.44,0
			c0.48-0.03,0.96-0.08,1.43-0.16c0.47-0.08,0.94-0.18,1.4-0.31c0.46-0.13,0.92-0.28,1.36-0.46c0.44-0.18,0.88-0.38,1.3-0.61
			c0.42-0.23,0.83-0.47,1.23-0.75c0.4-0.27,0.77-0.56,1.14-0.87c0.37-0.31,0.71-0.65,1.04-1c0.33-0.35,0.64-0.72,0.92-1.1
			c0.29-0.38,0.55-0.78,0.8-1.2h83.84c0.25,0.41,0.51,0.81,0.8,1.2c0.29,0.38,0.6,0.75,0.93,1.1c0.33,0.35,0.67,0.68,1.04,1
			c0.36,0.31,0.74,0.6,1.14,0.87c0.4,0.27,0.8,0.52,1.23,0.75c0.42,0.23,0.86,0.43,1.3,0.61c0.45,0.18,0.9,0.34,1.36,0.46
			c0.46,0.13,0.93,0.23,1.4,0.31c0.47,0.08,0.95,0.13,1.43,0.16c0.48,0.03,0.96,0.03,1.44,0c0.48-0.03,0.96-0.08,1.43-0.15
			c0.47-0.08,0.94-0.18,1.4-0.31c0.46-0.13,0.92-0.28,1.36-0.46c0.45-0.18,0.88-0.38,1.3-0.6c0.43-0.22,0.83-0.47,1.23-0.74
			c0.4-0.27,0.78-0.56,1.14-0.87c0.37-0.31,0.71-0.64,1.04-0.99c0.33-0.35,0.64-0.71,0.93-1.1c0.29-0.38,0.56-0.78,0.8-1.19
			c0.25-0.41,0.47-0.83,0.67-1.27c0.2-0.43,0.37-0.88,0.53-1.34c0.15-0.46,0.28-0.92,0.38-1.39c0.1-0.47,0.18-0.94,0.22-1.42
			c0.05-0.48,0.07-0.96,0.07-1.44c0-0.48-0.03-0.96-0.09-1.43c-0.05-0.48-0.13-0.95-0.24-1.42c-0.11-0.47-0.24-0.93-0.39-1.38
			c-0.16-0.45-0.34-0.9-0.54-1.33c-0.2-0.43-0.43-0.86-0.68-1.27c-0.25-0.41-0.52-0.8-0.82-1.18c-0.29-0.38-0.61-0.74-0.94-1.09
			s-0.68-0.67-1.05-0.98c-0.37-0.31-0.75-0.59-1.15-0.86c-0.4-0.27-0.81-0.51-1.24-0.73c-0.43-0.22-0.86-0.42-1.31-0.59
			c-0.45-0.17-0.9-0.32-1.37-0.44c-0.46-0.12-0.93-0.22-1.41-0.29c-0.47-0.07-0.95-0.12-1.43-0.14c-0.48-0.02-0.96-0.01-1.44,0.02
			c-0.48,0.03-0.96,0.09-1.43,0.18c-0.47,0.08-0.94,0.19-1.4,0.33c-0.46,0.14-0.91,0.3-1.36,0.48c-0.44,0.18-0.87,0.39-1.3,0.62
			s-0.83,0.49-1.22,0.76s-0.77,0.57-1.13,0.89c-0.36,0.32-0.7,0.65-1.03,1.01c-0.32,0.35-0.63,0.72-0.91,1.11
			c-0.28,0.39-0.55,0.79-0.78,1.2H260.27z"/>
		<g>
			<path class="st0" d="M317.59,209.91h-68.76c-0.72,0-1.43-0.05-2.15-0.14c-0.71-0.09-1.42-0.22-2.11-0.4
				c-0.69-0.18-1.38-0.4-2.04-0.66c-0.67-0.26-1.32-0.57-1.95-0.91s-1.24-0.73-1.82-1.15c-0.58-0.42-1.13-0.88-1.66-1.37
				c-0.53-0.49-1.02-1.01-1.48-1.56c-0.46-0.55-0.88-1.13-1.27-1.73c0.34-0.34,0.65-0.69,0.95-1.07c0.3-0.37,0.57-0.76,0.83-1.17
				s0.49-0.82,0.69-1.25c0.21-0.43,0.39-0.86,0.56-1.31c0.16-0.45,0.3-0.9,0.41-1.37c0.11-0.46,0.2-0.93,0.26-1.4
				c0.06-0.47,0.1-0.95,0.11-1.42c0.01-0.48,0-0.95-0.04-1.43c-0.04-0.47-0.11-0.94-0.2-1.41c-0.09-0.47-0.21-0.93-0.35-1.38
				c-0.14-0.46-0.31-0.9-0.5-1.34c-0.19-0.44-0.4-0.86-0.64-1.28s-0.49-0.81-0.77-1.2c-0.28-0.39-0.58-0.76-0.9-1.11
				c-0.32-0.35-0.66-0.69-1.01-1c-0.36-0.32-0.73-0.61-1.11-0.89c-0.39-0.28-0.79-0.53-1.2-0.77c-0.41-0.23-0.84-0.44-1.28-0.63
				c-0.44-0.19-0.89-0.35-1.34-0.49s-0.92-0.25-1.39-0.34c-0.47-0.09-0.94-0.15-1.42-0.19c-0.47-0.04-0.95-0.05-1.42-0.04
				c-0.48,0.01-0.95,0.05-1.42,0.12c-0.47,0.07-0.94,0.16-1.4,0.27c-0.46,0.12-0.92,0.25-1.36,0.42c-0.45,0.16-0.88,0.35-1.31,0.56
				c-0.43,0.21-0.84,0.45-1.24,0.7c-0.4,0.26-0.79,0.53-1.16,0.83c-0.37,0.3-0.72,0.62-1.06,0.95c-0.34,0.34-0.65,0.69-0.95,1.06
				c-0.3,0.37-0.58,0.76-0.83,1.16c-0.25,0.4-0.49,0.82-0.7,1.24c-0.21,0.43-0.4,0.86-0.56,1.31c-0.16,0.45-0.31,0.9-0.42,1.36
				c-0.11,0.46-0.2,0.93-0.27,1.4c-0.06,0.47-0.1,0.95-0.12,1.42c-0.01,0.48,0,0.95,0.04,1.42c0.04,0.48,0.1,0.95,0.19,1.42
				c0.09,0.47,0.2,0.93,0.34,1.39c0.14,0.46,0.3,0.9,0.49,1.34c0.19,0.44,0.4,0.86,0.63,1.28c0.23,0.42,0.49,0.82,0.77,1.2
				c0.28,0.39,0.57,0.76,0.89,1.11c0.32,0.35,0.65,0.69,1.01,1.01c0.35,0.32,0.72,0.62,1.11,0.9s0.79,0.54,1.2,0.77
				s0.84,0.45,1.27,0.64s0.88,0.35,1.34,0.5c0.6,1.33,1.3,2.6,2.08,3.83c0.79,1.23,1.66,2.4,2.61,3.5c0.96,1.1,1.98,2.13,3.08,3.09
				c1.1,0.96,2.26,1.83,3.49,2.62c1.23,0.79,2.5,1.49,3.83,2.1c1.33,0.61,2.69,1.12,4.09,1.53c1.4,0.41,2.82,0.72,4.26,0.93
				c1.44,0.21,2.9,0.31,4.35,0.31h68.74c0.7,0,1.4,0.02,2.1,0.05c0.7,0.03,1.39,0.09,2.09,0.15c0.7,0.07,1.39,0.15,2.08,0.26
				c0.69,0.1,1.38,0.22,2.07,0.36c0.68,0.14,1.37,0.29,2.04,0.46c0.68,0.17,1.35,0.36,2.02,0.56s1.33,0.42,1.99,0.66
				c0.66,0.24,1.31,0.49,1.96,0.75c0.65,0.27,1.29,0.55,1.92,0.85c0.63,0.3,1.26,0.61,1.87,0.94c0.62,0.33,1.23,0.67,1.82,1.03
				c0.6,0.36,1.19,0.73,1.77,1.12c0.58,0.39,1.15,0.79,1.71,1.21s1.11,0.85,1.65,1.29c0.54,0.44,1.07,0.9,1.59,1.37
				c0.52,0.47,1.02,0.95,1.52,1.45c0.49,0.49,0.98,1,1.45,1.52c0.47,0.52,0.93,1.05,1.37,1.59c0.44,0.54,0.87,1.09,1.29,1.65
				c0.42,0.56,0.82,1.13,1.21,1.71c0.39,0.58,0.76,1.17,1.12,1.77c0.36,0.6,0.7,1.21,1.03,1.82c0.33,0.62,0.64,1.24,0.94,1.87
				c0.3,0.63,0.58,1.27,0.85,1.92s0.52,1.3,0.75,1.96c0.24,0.66,0.46,1.32,0.66,1.99c0.2,0.67,0.39,1.34,0.56,2.02
				c0.17,0.68,0.32,1.36,0.46,2.04c0.14,0.69,0.26,1.38,0.36,2.07c0.1,0.69,0.19,1.39,0.26,2.08c0.07,0.7,0.12,1.39,0.15,2.09
				c0.03,0.7,0.05,1.4,0.05,2.1c0,0.7-0.02,1.4-0.05,2.1c-0.03,0.7-0.09,1.39-0.15,2.09c-0.07,0.7-0.15,1.39-0.26,2.08
				c-0.1,0.69-0.22,1.38-0.36,2.07c-0.14,0.69-0.29,1.37-0.46,2.05c-0.17,0.68-0.36,1.35-0.56,2.02c-0.2,0.67-0.42,1.33-0.66,1.99
				c-0.24,0.66-0.49,1.31-0.75,1.96c-0.27,0.65-0.55,1.28-0.85,1.92c-0.3,0.63-0.62,1.26-0.94,1.87c-0.33,0.62-0.68,1.23-1.03,1.82
				c-0.36,0.6-0.73,1.19-1.12,1.77c-0.39,0.58-0.79,1.15-1.21,1.72s-0.85,1.11-1.29,1.65c-0.44,0.54-0.9,1.07-1.37,1.59
				s-0.95,1.02-1.45,1.52c-0.49,0.49-1,0.98-1.52,1.45c-0.52,0.47-1.05,0.93-1.59,1.37c-0.54,0.44-1.09,0.87-1.65,1.29
				c-0.56,0.42-1.13,0.82-1.71,1.21s-1.17,0.76-1.77,1.12c-0.6,0.36-1.21,0.71-1.82,1.03c-0.62,0.33-1.24,0.64-1.87,0.94
				c-0.63,0.3-1.27,0.58-1.92,0.85s-1.3,0.52-1.96,0.75c-0.66,0.24-1.32,0.46-1.99,0.66s-1.34,0.39-2.02,0.56
				c-0.68,0.17-1.36,0.32-2.04,0.46c-0.69,0.14-1.38,0.26-2.07,0.36c-0.69,0.1-1.39,0.19-2.08,0.26c-0.7,0.07-1.39,0.12-2.09,0.15
				c-0.7,0.03-1.4,0.05-2.1,0.05h-54.54c-0.24-0.41-0.51-0.81-0.79-1.2c-0.29-0.38-0.59-0.75-0.92-1.11s-0.67-0.68-1.03-1
				c-0.36-0.31-0.74-0.61-1.14-0.88c-0.39-0.27-0.8-0.52-1.22-0.75c-0.42-0.23-0.85-0.43-1.3-0.62c-0.44-0.18-0.9-0.34-1.36-0.47
				c-0.46-0.13-0.93-0.24-1.4-0.32c-0.47-0.08-0.95-0.14-1.43-0.17c-0.48-0.03-0.96-0.03-1.44-0.01s-0.96,0.07-1.43,0.15
				s-0.94,0.18-1.41,0.3c-0.46,0.12-0.92,0.28-1.36,0.45c-0.45,0.17-0.88,0.37-1.31,0.6c-0.42,0.22-0.83,0.47-1.24,0.73
				c-0.4,0.27-0.78,0.56-1.15,0.86c-0.37,0.31-0.71,0.64-1.05,0.99c-0.33,0.35-0.64,0.71-0.93,1.09c-0.29,0.38-0.56,0.78-0.81,1.19
				s-0.47,0.83-0.68,1.27c-0.2,0.43-0.38,0.88-0.53,1.33c-0.15,0.45-0.28,0.92-0.39,1.38c-0.1,0.47-0.18,0.94-0.23,1.42
				c-0.05,0.48-0.08,0.96-0.08,1.43c0,0.48,0.03,0.96,0.08,1.44c0.05,0.48,0.13,0.95,0.23,1.42c0.1,0.47,0.23,0.93,0.39,1.38
				c0.15,0.45,0.33,0.9,0.53,1.33c0.2,0.43,0.43,0.86,0.68,1.27s0.52,0.8,0.81,1.19c0.29,0.38,0.6,0.74,0.93,1.09
				c0.33,0.35,0.68,0.68,1.05,0.99c0.37,0.31,0.75,0.6,1.15,0.86c0.4,0.27,0.81,0.51,1.24,0.73c0.43,0.22,0.86,0.42,1.31,0.6
				c0.45,0.18,0.9,0.33,1.36,0.45c0.46,0.12,0.93,0.23,1.41,0.3s0.95,0.12,1.43,0.15s0.96,0.02,1.44-0.01
				c0.48-0.03,0.96-0.08,1.43-0.17c0.47-0.08,0.94-0.19,1.4-0.32c0.46-0.13,0.91-0.29,1.36-0.47c0.44-0.18,0.88-0.39,1.3-0.62
				s0.83-0.48,1.22-0.75c0.4-0.27,0.77-0.57,1.14-0.88c0.36-0.31,0.71-0.65,1.03-1c0.33-0.35,0.63-0.72,0.92-1.11
				c0.29-0.39,0.55-0.78,0.79-1.2h54.54c0.92,0,1.84-0.02,2.75-0.07c0.92-0.04,1.83-0.11,2.75-0.2c0.91-0.09,1.82-0.2,2.73-0.34
				c0.91-0.13,1.81-0.29,2.71-0.47c0.9-0.18,1.79-0.38,2.69-0.6c0.89-0.22,1.77-0.47,2.65-0.73c0.88-0.27,1.75-0.56,2.61-0.86
				c0.86-0.31,1.72-0.64,2.57-0.99c0.85-0.35,1.69-0.72,2.52-1.11c0.83-0.39,1.65-0.8,2.46-1.24c0.81-0.43,1.61-0.89,2.4-1.36
				c0.79-0.47,1.56-0.96,2.32-1.47c0.76-0.51,1.51-1.04,2.25-1.59c0.74-0.55,1.46-1.11,2.17-1.69c0.71-0.58,1.4-1.18,2.08-1.8
				c0.68-0.62,1.35-1.25,1.99-1.9c0.65-0.65,1.28-1.31,1.9-1.99c0.62-0.68,1.21-1.38,1.8-2.09c0.58-0.71,1.15-1.43,1.69-2.17
				c0.55-0.74,1.08-1.49,1.59-2.25c0.51-0.76,1-1.54,1.47-2.32s0.93-1.59,1.36-2.39c0.43-0.81,0.84-1.63,1.24-2.46
				c0.39-0.83,0.76-1.67,1.11-2.52c0.35-0.85,0.68-1.7,0.99-2.57c0.31-0.86,0.6-1.73,0.86-2.61c0.27-0.88,0.51-1.76,0.73-2.65
				c0.22-0.89,0.43-1.78,0.6-2.69c0.18-0.9,0.34-1.8,0.47-2.71c0.14-0.91,0.25-1.82,0.34-2.73s0.16-1.83,0.2-2.75
				c0.04-0.92,0.07-1.83,0.07-2.75c0-0.92-0.02-1.83-0.07-2.75c-0.05-0.92-0.11-1.83-0.2-2.75s-0.2-1.82-0.34-2.73
				c-0.13-0.91-0.29-1.81-0.47-2.71s-0.38-1.79-0.6-2.69c-0.22-0.89-0.47-1.77-0.73-2.65c-0.27-0.88-0.56-1.75-0.86-2.61
				c-0.31-0.86-0.64-1.72-0.99-2.57c-0.35-0.85-0.72-1.69-1.11-2.52c-0.39-0.83-0.8-1.65-1.24-2.46c-0.43-0.81-0.89-1.61-1.36-2.39
				c-0.47-0.79-0.96-1.56-1.47-2.33c-0.51-0.76-1.04-1.51-1.59-2.25c-0.55-0.74-1.11-1.46-1.69-2.17c-0.58-0.71-1.18-1.4-1.8-2.08
				c-0.62-0.68-1.25-1.34-1.9-1.99c-0.65-0.65-1.31-1.28-1.99-1.9c-0.68-0.62-1.37-1.22-2.08-1.8c-0.71-0.58-1.43-1.14-2.17-1.69
				c-0.74-0.55-1.49-1.07-2.25-1.58c-0.76-0.51-1.54-1-2.32-1.47c-0.79-0.47-1.59-0.92-2.4-1.36c-0.81-0.43-1.63-0.85-2.46-1.24
				c-0.83-0.39-1.67-0.77-2.52-1.11c-0.85-0.35-1.7-0.68-2.57-0.99c-0.86-0.31-1.73-0.6-2.61-0.86c-0.88-0.27-1.76-0.51-2.65-0.73
				c-0.89-0.22-1.79-0.43-2.69-0.6c-0.9-0.18-1.8-0.34-2.71-0.47c-0.91-0.13-1.82-0.25-2.73-0.34c-0.91-0.09-1.83-0.16-2.75-0.2
				c-0.92-0.04-1.83-0.07-2.75-0.07V209.91z"/>
		</g>
		<path class="st2" d="M306.19,296.53c0.24,0.42,0.51,0.82,0.79,1.2c0.29,0.38,0.59,0.75,0.92,1.11c0.33,0.35,0.67,0.69,1.03,1
			c0.36,0.31,0.74,0.61,1.14,0.88c0.39,0.27,0.8,0.52,1.22,0.75s0.86,0.43,1.3,0.62s0.9,0.34,1.36,0.47
			c0.46,0.13,0.93,0.24,1.4,0.32c0.47,0.08,0.95,0.14,1.43,0.17c0.48,0.03,0.96,0.03,1.44,0.01c0.48-0.02,0.96-0.07,1.43-0.15
			c0.47-0.07,0.94-0.17,1.41-0.3c0.46-0.12,0.92-0.28,1.36-0.45c0.45-0.18,0.88-0.37,1.31-0.6c0.43-0.22,0.84-0.47,1.24-0.74
			c0.4-0.27,0.78-0.56,1.15-0.86c0.37-0.31,0.72-0.64,1.05-0.99c0.33-0.35,0.64-0.71,0.93-1.09c0.29-0.38,0.56-0.77,0.81-1.19
			c0.25-0.41,0.47-0.83,0.68-1.27c0.2-0.43,0.38-0.88,0.53-1.33c0.15-0.45,0.28-0.92,0.39-1.39c0.1-0.47,0.18-0.94,0.23-1.42
			c0.05-0.48,0.08-0.96,0.08-1.44c0-0.48-0.03-0.96-0.08-1.44c-0.05-0.48-0.13-0.95-0.23-1.42s-0.23-0.93-0.39-1.39
			c-0.15-0.45-0.33-0.9-0.53-1.33c-0.2-0.43-0.43-0.86-0.68-1.27c-0.25-0.41-0.52-0.81-0.81-1.19c-0.29-0.38-0.6-0.74-0.93-1.09
			c-0.33-0.35-0.68-0.68-1.05-0.99c-0.37-0.31-0.75-0.6-1.15-0.86c-0.4-0.27-0.81-0.51-1.24-0.74c-0.43-0.22-0.86-0.42-1.31-0.59
			c-0.45-0.18-0.9-0.33-1.36-0.45c-0.46-0.12-0.93-0.23-1.41-0.3s-0.95-0.12-1.43-0.14c-0.48-0.02-0.96-0.02-1.44,0.01
			c-0.48,0.03-0.96,0.09-1.43,0.17c-0.47,0.08-0.94,0.19-1.4,0.32c-0.46,0.13-0.91,0.29-1.36,0.47c-0.44,0.18-0.88,0.39-1.3,0.62
			c-0.42,0.23-0.83,0.48-1.22,0.76c-0.4,0.27-0.77,0.57-1.14,0.88c-0.36,0.32-0.71,0.65-1.03,1c-0.33,0.35-0.63,0.72-0.92,1.11
			c-0.28,0.39-0.55,0.79-0.79,1.2h-83.76c-0.24-0.41-0.51-0.81-0.79-1.2c-0.28-0.38-0.59-0.75-0.92-1.11
			c-0.33-0.35-0.67-0.69-1.03-1c-0.36-0.31-0.74-0.61-1.14-0.88c-0.39-0.28-0.8-0.52-1.22-0.75c-0.42-0.23-0.85-0.43-1.3-0.62
			c-0.44-0.18-0.9-0.34-1.36-0.47c-0.46-0.13-0.93-0.24-1.4-0.32c-0.47-0.08-0.95-0.14-1.43-0.17c-0.48-0.03-0.96-0.03-1.44-0.01
			c-0.48,0.02-0.96,0.07-1.43,0.14c-0.47,0.08-0.94,0.18-1.41,0.3c-0.46,0.12-0.92,0.28-1.36,0.45c-0.45,0.17-0.88,0.37-1.31,0.59
			c-0.42,0.22-0.83,0.47-1.24,0.74c-0.4,0.27-0.78,0.56-1.15,0.86c-0.37,0.31-0.72,0.64-1.05,0.98c-0.33,0.35-0.64,0.71-0.93,1.09
			c-0.29,0.38-0.56,0.78-0.81,1.19c-0.25,0.41-0.47,0.83-0.68,1.27c-0.2,0.43-0.38,0.88-0.53,1.33c-0.15,0.46-0.28,0.92-0.39,1.39
			c-0.1,0.47-0.18,0.94-0.23,1.42c-0.05,0.48-0.08,0.96-0.08,1.43c0,0.48,0.03,0.96,0.08,1.44c0.05,0.48,0.13,0.95,0.23,1.42
			c0.1,0.47,0.23,0.93,0.39,1.39c0.15,0.45,0.33,0.9,0.53,1.33c0.2,0.43,0.43,0.86,0.68,1.27c0.25,0.41,0.52,0.8,0.81,1.19
			c0.29,0.38,0.6,0.74,0.93,1.09c0.33,0.35,0.68,0.68,1.05,0.99c0.37,0.31,0.75,0.6,1.15,0.86c0.4,0.27,0.81,0.51,1.24,0.73
			c0.43,0.22,0.86,0.42,1.31,0.6c0.45,0.18,0.9,0.32,1.36,0.45c0.46,0.12,0.93,0.22,1.41,0.3c0.47,0.07,0.95,0.12,1.43,0.15
			c0.48,0.02,0.96,0.02,1.44-0.01c0.48-0.03,0.95-0.09,1.43-0.17c0.47-0.08,0.94-0.19,1.4-0.32c0.46-0.13,0.91-0.29,1.36-0.47
			c0.44-0.18,0.88-0.39,1.3-0.62c0.42-0.23,0.83-0.48,1.22-0.75c0.4-0.27,0.77-0.57,1.14-0.88c0.36-0.31,0.71-0.65,1.03-1
			c0.33-0.35,0.63-0.72,0.92-1.11c0.29-0.38,0.55-0.78,0.79-1.2H306.19z"/>
	</g>
</g>
</svg>
