<svg xmlns="http://www.w3.org/2000/svg" xmlns:xlink="http://www.w3.org/1999/xlink" width="500" zoomAndPan="magnify" viewBox="0 0 375 374.999991" height="500" preserveAspectRatio="xMidYMid meet" version="1.0"><defs><clipPath id="dc36c1fbca"><path d="M 37.5 19.8125 L 312 19.8125 L 312 272 L 37.5 272 Z M 37.5 19.8125 " clip-rule="nonzero"/></clipPath><clipPath id="fc16ab7376"><path d="M 69 103 L 343.5 103 L 343.5 355.0625 L 69 355.0625 Z M 69 103 " clip-rule="nonzero"/></clipPath></defs><rect x="-37.5" width="450" fill="#ffffff" y="-37.499999" height="449.999989" fill-opacity="1"/><rect x="-37.5" width="450" fill="#ffffff" y="-37.499999" height="449.999989" fill-opacity="1"/><rect x="-37.5" width="450" fill="#ffffff" y="-37.499999" height="449.999989" fill-opacity="1"/><g clip-path="url(#dc36c1fbca)"><path fill="#004aad" d="M 132.429688 220.269531 L 248.5625 220.269531 C 249.777344 220.273438 250.984375 220.347656 252.1875 220.5 C 253.390625 220.652344 254.582031 220.878906 255.753906 221.179688 C 256.929688 221.480469 258.082031 221.851562 259.210938 222.296875 C 260.335938 222.742188 261.433594 223.257812 262.496094 223.839844 C 263.558594 224.421875 264.582031 225.066406 265.566406 225.777344 C 266.546875 226.488281 267.484375 227.257812 268.371094 228.085938 C 269.253906 228.914062 270.085938 229.792969 270.863281 230.726562 C 271.636719 231.65625 272.351562 232.632812 273.007812 233.65625 C 272.441406 234.226562 271.910156 234.828125 271.410156 235.460938 C 270.910156 236.089844 270.445312 236.746094 270.015625 237.425781 C 269.585938 238.105469 269.195312 238.808594 268.84375 239.53125 C 268.492188 240.253906 268.179688 240.992188 267.90625 241.75 C 267.632812 242.507812 267.402344 243.277344 267.210938 244.058594 C 267.023438 244.839844 266.875 245.628906 266.769531 246.425781 C 266.667969 247.226562 266.605469 248.027344 266.589844 248.828125 C 266.570312 249.632812 266.597656 250.4375 266.664062 251.238281 C 266.734375 252.039062 266.847656 252.835938 267.003906 253.625 C 267.160156 254.414062 267.355469 255.191406 267.597656 255.960938 C 267.835938 256.726562 268.117188 257.480469 268.4375 258.21875 C 268.757812 258.957031 269.117188 259.671875 269.515625 260.371094 C 269.914062 261.070312 270.351562 261.746094 270.824219 262.398438 C 271.296875 263.046875 271.800781 263.671875 272.339844 264.269531 C 272.878906 264.867188 273.449219 265.433594 274.050781 265.96875 C 274.652344 266.503906 275.277344 267.003906 275.933594 267.46875 C 276.589844 267.9375 277.265625 268.367188 277.96875 268.761719 C 278.667969 269.15625 279.390625 269.511719 280.128906 269.824219 C 280.871094 270.140625 281.625 270.417969 282.394531 270.648438 C 283.164062 270.882812 283.945312 271.074219 284.734375 271.226562 C 285.523438 271.375 286.320312 271.480469 287.121094 271.546875 C 287.925781 271.609375 288.726562 271.628906 289.53125 271.605469 C 290.335938 271.582031 291.136719 271.515625 291.933594 271.40625 C 292.730469 271.296875 293.519531 271.144531 294.300781 270.949219 C 295.078125 270.753906 295.847656 270.515625 296.601562 270.238281 C 297.355469 269.957031 298.09375 269.640625 298.8125 269.28125 C 299.535156 268.921875 300.234375 268.527344 300.910156 268.09375 C 301.589844 267.660156 302.242188 267.191406 302.867188 266.6875 C 303.492188 266.183594 304.089844 265.644531 304.660156 265.078125 C 305.226562 264.507812 305.765625 263.910156 306.269531 263.28125 C 306.773438 262.65625 307.242188 262.003906 307.675781 261.324219 C 308.105469 260.648438 308.503906 259.949219 308.859375 259.226562 C 309.21875 258.507812 309.535156 257.769531 309.8125 257.015625 C 310.089844 256.257812 310.328125 255.492188 310.523438 254.710938 C 310.714844 253.929688 310.867188 253.140625 310.976562 252.34375 C 311.085938 251.546875 311.152344 250.746094 311.175781 249.945312 C 311.199219 249.140625 311.175781 248.335938 311.113281 247.535156 C 311.050781 246.734375 310.941406 245.9375 310.792969 245.148438 C 310.640625 244.355469 310.449219 243.578125 310.214844 242.808594 C 309.980469 242.039062 309.703125 241.285156 309.386719 240.542969 C 309.070312 239.804688 308.714844 239.085938 308.320312 238.382812 C 307.925781 237.683594 307.496094 237.003906 307.027344 236.347656 C 306.558594 235.695312 306.058594 235.066406 305.523438 234.46875 C 304.988281 233.867188 304.421875 233.296875 303.824219 232.757812 C 303.226562 232.21875 302.601562 231.714844 301.949219 231.242188 C 301.296875 230.773438 300.621094 230.335938 299.921875 229.941406 C 299.222656 229.542969 298.507812 229.183594 297.769531 228.863281 C 297.03125 228.542969 296.277344 228.261719 295.507812 228.023438 C 294.488281 225.78125 293.3125 223.621094 291.984375 221.546875 C 290.65625 219.472656 289.1875 217.503906 287.574219 215.636719 C 285.964844 213.773438 284.226562 212.035156 282.367188 210.417969 C 280.507812 208.800781 278.542969 207.328125 276.46875 205.992188 C 274.398438 204.660156 272.242188 203.476562 270.003906 202.453125 C 267.761719 201.425781 265.460938 200.566406 263.097656 199.867188 C 260.734375 199.171875 258.332031 198.648438 255.894531 198.292969 C 253.457031 197.941406 251.003906 197.765625 248.539062 197.761719 L 132.429688 197.761719 C 131.246094 197.761719 130.066406 197.734375 128.886719 197.675781 C 127.707031 197.617188 126.53125 197.53125 125.355469 197.414062 C 124.179688 197.296875 123.007812 197.152344 121.839844 196.980469 C 120.671875 196.808594 119.507812 196.605469 118.347656 196.375 C 117.191406 196.144531 116.039062 195.886719 114.894531 195.597656 C 113.75 195.3125 112.609375 194.996094 111.480469 194.65625 C 110.351562 194.3125 109.230469 193.941406 108.117188 193.542969 C 107.003906 193.144531 105.902344 192.722656 104.8125 192.269531 C 103.722656 191.816406 102.640625 191.339844 101.574219 190.832031 C 100.507812 190.328125 99.453125 189.796875 98.410156 189.242188 C 97.367188 188.683594 96.339844 188.101562 95.328125 187.496094 C 94.316406 186.886719 93.316406 186.257812 92.335938 185.601562 C 91.355469 184.945312 90.390625 184.265625 89.441406 183.5625 C 88.492188 182.859375 87.5625 182.132812 86.648438 181.382812 C 85.734375 180.632812 84.839844 179.863281 83.964844 179.070312 C 83.089844 178.277344 82.234375 177.460938 81.402344 176.625 C 80.566406 175.792969 79.75 174.9375 78.957031 174.0625 C 78.164062 173.1875 77.394531 172.292969 76.644531 171.378906 C 75.894531 170.464844 75.167969 169.535156 74.464844 168.585938 C 73.761719 167.640625 73.082031 166.671875 72.425781 165.691406 C 71.769531 164.710938 71.136719 163.710938 70.53125 162.699219 C 69.925781 161.6875 69.34375 160.660156 68.785156 159.617188 C 68.230469 158.574219 67.699219 157.523438 67.191406 156.453125 C 66.6875 155.386719 66.210938 154.308594 65.757812 153.214844 C 65.304688 152.125 64.882812 151.023438 64.484375 149.910156 C 64.085938 148.800781 63.714844 147.679688 63.371094 146.546875 C 63.027344 145.417969 62.714844 144.28125 62.425781 143.136719 C 62.140625 141.988281 61.882812 140.835938 61.652344 139.679688 C 61.421875 138.519531 61.21875 137.359375 61.046875 136.191406 C 60.871094 135.019531 60.726562 133.851562 60.613281 132.675781 C 60.496094 131.5 60.410156 130.320312 60.351562 129.140625 C 60.292969 127.960938 60.265625 126.78125 60.265625 125.601562 C 60.265625 124.421875 60.292969 123.242188 60.351562 122.0625 C 60.410156 120.882812 60.496094 119.703125 60.613281 118.527344 C 60.726562 117.351562 60.871094 116.179688 61.046875 115.011719 C 61.21875 113.84375 61.421875 112.683594 61.652344 111.523438 C 61.882812 110.367188 62.140625 109.214844 62.425781 108.066406 C 62.714844 106.921875 63.027344 105.785156 63.371094 104.65625 C 63.714844 103.523438 64.085938 102.402344 64.484375 101.292969 C 64.882812 100.179688 65.304688 99.078125 65.757812 97.988281 C 66.210938 96.894531 66.6875 95.816406 67.191406 94.75 C 67.699219 93.679688 68.230469 92.628906 68.785156 91.585938 C 69.34375 90.542969 69.925781 89.515625 70.53125 88.503906 C 71.136719 87.492188 71.769531 86.492188 72.425781 85.511719 C 73.082031 84.53125 73.761719 83.5625 74.464844 82.617188 C 75.167969 81.667969 75.894531 80.738281 76.644531 79.824219 C 77.394531 78.910156 78.164062 78.015625 78.957031 77.140625 C 79.75 76.265625 80.566406 75.410156 81.402344 74.578125 C 82.234375 73.742188 83.089844 72.925781 83.964844 72.132812 C 84.839844 71.339844 85.734375 70.570312 86.648438 69.820312 C 87.5625 69.070312 88.492188 68.34375 89.441406 67.640625 C 90.390625 66.9375 91.355469 66.257812 92.335938 65.601562 C 93.316406 64.945312 94.316406 64.316406 95.328125 63.707031 C 96.339844 63.101562 97.367188 62.519531 98.410156 61.960938 C 99.453125 61.40625 100.507812 60.875 101.574219 60.371094 C 102.640625 59.863281 103.722656 59.386719 104.8125 58.933594 C 105.902344 58.480469 107.003906 58.058594 108.117188 57.660156 C 109.230469 57.261719 110.351562 56.890625 111.480469 56.546875 C 112.609375 56.207031 113.75 55.890625 114.894531 55.605469 C 116.039062 55.316406 117.191406 55.058594 118.347656 54.828125 C 119.507812 54.597656 120.671875 54.394531 121.839844 54.222656 C 123.007812 54.050781 124.179688 53.90625 125.355469 53.789062 C 126.53125 53.671875 127.707031 53.585938 128.886719 53.527344 C 130.066406 53.46875 131.246094 53.441406 132.429688 53.441406 L 223.757812 53.441406 C 224.164062 54.140625 224.613281 54.816406 225.09375 55.46875 C 225.574219 56.117188 226.09375 56.742188 226.644531 57.335938 C 227.191406 57.933594 227.773438 58.496094 228.386719 59.027344 C 228.996094 59.558594 229.636719 60.054688 230.300781 60.515625 C 230.96875 60.980469 231.65625 61.402344 232.367188 61.789062 C 233.082031 62.179688 233.8125 62.523438 234.5625 62.832031 C 235.3125 63.140625 236.074219 63.40625 236.855469 63.628906 C 237.632812 63.851562 238.421875 64.035156 239.21875 64.171875 C 240.019531 64.308594 240.824219 64.40625 241.632812 64.453125 C 242.441406 64.503906 243.25 64.511719 244.058594 64.472656 C 244.867188 64.4375 245.671875 64.355469 246.472656 64.230469 C 247.273438 64.105469 248.066406 63.933594 248.847656 63.722656 C 249.632812 63.511719 250.398438 63.257812 251.152344 62.960938 C 251.910156 62.667969 252.644531 62.332031 253.363281 61.957031 C 254.082031 61.582031 254.777344 61.167969 255.449219 60.714844 C 256.121094 60.265625 256.769531 59.777344 257.390625 59.253906 C 258.007812 58.734375 258.597656 58.179688 259.15625 57.59375 C 259.71875 57.007812 260.242188 56.390625 260.734375 55.75 C 261.230469 55.105469 261.683594 54.4375 262.105469 53.742188 C 262.523438 53.050781 262.90625 52.335938 263.246094 51.601562 C 263.589844 50.867188 263.890625 50.117188 264.148438 49.347656 C 264.410156 48.582031 264.628906 47.800781 264.800781 47.007812 C 264.976562 46.21875 265.109375 45.421875 265.195312 44.613281 C 265.285156 43.808594 265.328125 43 265.328125 42.191406 C 265.328125 41.378906 265.285156 40.570312 265.195312 39.765625 C 265.109375 38.960938 264.976562 38.164062 264.800781 37.371094 C 264.628906 36.582031 264.410156 35.800781 264.148438 35.035156 C 263.890625 34.265625 263.589844 33.515625 263.246094 32.78125 C 262.90625 32.046875 262.523438 31.332031 262.105469 30.636719 C 261.683594 29.945312 261.230469 29.277344 260.734375 28.632812 C 260.242188 27.988281 259.71875 27.375 259.15625 26.789062 C 258.597656 26.203125 258.007812 25.648438 257.390625 25.125 C 256.769531 24.605469 256.121094 24.117188 255.449219 23.664062 C 254.777344 23.214844 254.082031 22.800781 253.363281 22.425781 C 252.644531 22.050781 251.910156 21.714844 251.152344 21.417969 C 250.398438 21.121094 249.632812 20.871094 248.847656 20.65625 C 248.066406 20.445312 247.273438 20.277344 246.472656 20.152344 C 245.671875 20.027344 244.867188 19.945312 244.058594 19.90625 C 243.25 19.871094 242.441406 19.875 241.632812 19.925781 C 240.824219 19.976562 240.019531 20.070312 239.21875 20.210938 C 238.421875 20.347656 237.632812 20.527344 236.855469 20.753906 C 236.074219 20.976562 235.3125 21.242188 234.5625 21.550781 C 233.8125 21.855469 233.082031 22.203125 232.367188 22.589844 C 231.65625 22.976562 230.96875 23.402344 230.300781 23.863281 C 229.636719 24.324219 228.996094 24.824219 228.386719 25.355469 C 227.773438 25.886719 227.191406 26.449219 226.644531 27.042969 C 226.09375 27.640625 225.574219 28.261719 225.09375 28.914062 C 224.613281 29.566406 224.164062 30.238281 223.757812 30.941406 L 132.429688 30.941406 C 130.878906 30.941406 129.328125 30.976562 127.78125 31.054688 C 126.234375 31.128906 124.6875 31.242188 123.144531 31.394531 C 121.601562 31.546875 120.0625 31.738281 118.53125 31.964844 C 116.996094 32.191406 115.472656 32.457031 113.949219 32.757812 C 112.429688 33.0625 110.917969 33.402344 109.414062 33.777344 C 107.910156 34.15625 106.417969 34.566406 104.933594 35.019531 C 103.449219 35.46875 101.980469 35.953125 100.519531 36.476562 C 99.0625 37 97.613281 37.554688 96.183594 38.148438 C 94.75 38.742188 93.335938 39.371094 91.933594 40.03125 C 90.53125 40.695312 89.148438 41.390625 87.78125 42.121094 C 86.414062 42.851562 85.066406 43.617188 83.734375 44.414062 C 82.40625 45.210938 81.097656 46.039062 79.808594 46.902344 C 78.519531 47.761719 77.253906 48.65625 76.007812 49.578125 C 74.761719 50.5 73.542969 51.453125 72.34375 52.4375 C 71.144531 53.421875 69.972656 54.433594 68.824219 55.472656 C 67.675781 56.515625 66.550781 57.582031 65.457031 58.679688 C 64.359375 59.773438 63.292969 60.898438 62.25 62.046875 C 61.210938 63.195312 60.199219 64.367188 59.214844 65.566406 C 58.230469 66.765625 57.277344 67.984375 56.355469 69.230469 C 55.429688 70.476562 54.539062 71.742188 53.675781 73.03125 C 52.816406 74.320312 51.988281 75.628906 51.191406 76.957031 C 50.394531 78.289062 49.628906 79.636719 48.898438 81.003906 C 48.167969 82.371094 47.472656 83.753906 46.808594 85.15625 C 46.144531 86.554688 45.519531 87.972656 44.925781 89.40625 C 44.332031 90.835938 43.773438 92.28125 43.253906 93.742188 C 42.730469 95.203125 42.242188 96.671875 41.792969 98.15625 C 41.34375 99.640625 40.929688 101.132812 40.554688 102.636719 C 40.175781 104.140625 39.835938 105.652344 39.535156 107.171875 C 39.234375 108.691406 38.96875 110.21875 38.742188 111.75 C 38.511719 113.285156 38.324219 114.824219 38.171875 116.363281 C 38.019531 117.90625 37.90625 119.453125 37.828125 121 C 37.753906 122.550781 37.714844 124.097656 37.714844 125.648438 C 37.714844 127.199219 37.753906 128.746094 37.828125 130.296875 C 37.90625 131.84375 38.019531 133.386719 38.171875 134.929688 C 38.324219 136.472656 38.511719 138.011719 38.742188 139.542969 C 38.96875 141.078125 39.234375 142.605469 39.535156 144.125 C 39.835938 145.644531 40.175781 147.15625 40.554688 148.660156 C 40.929688 150.164062 41.34375 151.65625 41.792969 153.140625 C 42.242188 154.625 42.730469 156.09375 43.253906 157.554688 C 43.773438 159.015625 44.332031 160.460938 44.925781 161.890625 C 45.519531 163.324219 46.144531 164.738281 46.808594 166.140625 C 47.472656 167.542969 48.167969 168.925781 48.898438 170.292969 C 49.628906 171.660156 50.394531 173.007812 51.191406 174.335938 C 51.988281 175.667969 52.816406 176.976562 53.675781 178.265625 C 54.539062 179.554688 55.429688 180.820312 56.355469 182.066406 C 57.277344 183.3125 58.230469 184.53125 59.214844 185.730469 C 60.199219 186.929688 61.210938 188.101562 62.25 189.25 C 63.292969 190.398438 64.359375 191.519531 65.457031 192.617188 C 66.550781 193.714844 67.675781 194.78125 68.824219 195.824219 C 69.972656 196.863281 71.144531 197.875 72.34375 198.859375 C 73.542969 199.84375 74.761719 200.796875 76.007812 201.71875 C 77.253906 202.640625 78.519531 203.535156 79.808594 204.394531 C 81.097656 205.257812 82.40625 206.085938 83.734375 206.882812 C 85.066406 207.679688 86.414062 208.441406 87.78125 209.171875 C 89.148438 209.902344 90.53125 210.601562 91.933594 211.261719 C 93.335938 211.925781 94.75 212.554688 96.183594 213.148438 C 97.613281 213.742188 99.0625 214.296875 100.519531 214.820312 C 101.980469 215.34375 103.449219 215.828125 104.933594 216.277344 C 106.417969 216.726562 107.910156 217.140625 109.414062 217.519531 C 110.917969 217.894531 112.429688 218.234375 113.949219 218.535156 C 115.472656 218.839844 116.996094 219.105469 118.53125 219.332031 C 120.0625 219.558594 121.601562 219.75 123.144531 219.898438 C 124.6875 220.050781 126.234375 220.167969 127.78125 220.242188 C 129.328125 220.320312 130.878906 220.355469 132.429688 220.355469 Z M 132.429688 220.269531 " fill-opacity="1" fill-rule="nonzero"/></g><path fill="#6165fa" d="M 151.742188 73.972656 C 151.335938 73.269531 150.894531 72.59375 150.414062 71.9375 C 149.9375 71.285156 149.425781 70.660156 148.878906 70.0625 C 148.332031 69.460938 147.753906 68.894531 147.144531 68.359375 C 146.535156 67.828125 145.898438 67.324219 145.234375 66.859375 C 144.574219 66.394531 143.886719 65.964844 143.175781 65.574219 C 142.464844 65.183594 141.738281 64.832031 140.988281 64.523438 C 140.242188 64.210938 139.476562 63.941406 138.699219 63.710938 C 137.921875 63.484375 137.136719 63.296875 136.335938 63.15625 C 135.539062 63.015625 134.738281 62.914062 133.929688 62.859375 C 133.121094 62.804688 132.308594 62.792969 131.5 62.828125 C 130.691406 62.859375 129.886719 62.9375 129.085938 63.058594 C 128.28125 63.179688 127.492188 63.34375 126.707031 63.550781 C 125.921875 63.757812 125.152344 64.007812 124.398438 64.300781 C 123.640625 64.589844 122.902344 64.921875 122.183594 65.292969 C 121.460938 65.667969 120.765625 66.074219 120.089844 66.523438 C 119.414062 66.972656 118.765625 67.453125 118.140625 67.972656 C 117.519531 68.492188 116.925781 69.042969 116.363281 69.625 C 115.800781 70.207031 115.273438 70.820312 114.777344 71.460938 C 114.28125 72.101562 113.820312 72.769531 113.394531 73.457031 C 112.972656 74.148438 112.589844 74.863281 112.242188 75.59375 C 111.894531 76.328125 111.589844 77.078125 111.328125 77.84375 C 111.0625 78.609375 110.839844 79.386719 110.660156 80.175781 C 110.480469 80.96875 110.347656 81.765625 110.253906 82.570312 C 110.160156 83.375 110.113281 84.183594 110.109375 84.992188 C 110.101562 85.804688 110.144531 86.613281 110.226562 87.417969 C 110.308594 88.222656 110.4375 89.023438 110.609375 89.816406 C 110.777344 90.609375 110.992188 91.386719 111.246094 92.15625 C 111.503906 92.925781 111.800781 93.679688 112.136719 94.414062 C 112.476562 95.152344 112.851562 95.867188 113.269531 96.5625 C 113.683594 97.257812 114.136719 97.929688 114.625 98.578125 C 115.113281 99.222656 115.636719 99.839844 116.195312 100.429688 C 116.75 101.019531 117.335938 101.578125 117.953125 102.101562 C 118.570312 102.625 119.214844 103.117188 119.886719 103.574219 C 120.554688 104.027344 121.25 104.445312 121.964844 104.824219 C 122.679688 105.203125 123.414062 105.542969 124.167969 105.84375 C 124.921875 106.144531 125.6875 106.402344 126.46875 106.617188 C 127.25 106.832031 128.039062 107.007812 128.839844 107.136719 C 129.640625 107.265625 130.445312 107.351562 131.253906 107.394531 C 132.0625 107.4375 132.875 107.433594 133.683594 107.386719 C 134.492188 107.34375 135.296875 107.253906 136.09375 107.117188 C 136.894531 106.984375 137.683594 106.808594 138.464844 106.589844 C 139.242188 106.371094 140.011719 106.109375 140.761719 105.804688 C 141.511719 105.5 142.246094 105.160156 142.960938 104.773438 C 143.675781 104.390625 144.367188 103.972656 145.035156 103.511719 C 145.703125 103.054688 146.34375 102.5625 146.957031 102.035156 C 147.574219 101.503906 148.15625 100.945312 148.710938 100.351562 C 149.265625 99.761719 149.785156 99.140625 150.269531 98.492188 C 150.753906 97.84375 151.203125 97.171875 151.617188 96.472656 L 293.21875 96.472656 C 293.632812 97.171875 294.082031 97.84375 294.566406 98.492188 C 295.054688 99.140625 295.574219 99.761719 296.128906 100.351562 C 296.679688 100.945312 297.265625 101.503906 297.878906 102.035156 C 298.492188 102.5625 299.136719 103.054688 299.804688 103.511719 C 300.472656 103.972656 301.164062 104.390625 301.878906 104.773438 C 302.589844 105.160156 303.324219 105.5 304.074219 105.804688 C 304.828125 106.109375 305.59375 106.371094 306.375 106.589844 C 307.152344 106.808594 307.941406 106.984375 308.742188 107.117188 C 309.542969 107.253906 310.347656 107.34375 311.15625 107.386719 C 311.964844 107.433594 312.773438 107.4375 313.582031 107.394531 C 314.390625 107.351562 315.195312 107.265625 315.996094 107.136719 C 316.796875 107.007812 317.585938 106.832031 318.367188 106.617188 C 319.148438 106.402344 319.917969 106.144531 320.667969 105.84375 C 321.421875 105.542969 322.15625 105.203125 322.871094 104.824219 C 323.589844 104.445312 324.28125 104.027344 324.953125 103.574219 C 325.621094 103.117188 326.265625 102.628906 326.882812 102.101562 C 327.5 101.578125 328.085938 101.019531 328.644531 100.429688 C 329.199219 99.839844 329.722656 99.222656 330.210938 98.578125 C 330.699219 97.929688 331.152344 97.257812 331.570312 96.5625 C 331.984375 95.867188 332.359375 95.152344 332.699219 94.414062 C 333.035156 93.679688 333.332031 92.925781 333.589844 92.15625 C 333.84375 91.386719 334.058594 90.609375 334.230469 89.816406 C 334.398438 89.023438 334.527344 88.222656 334.609375 87.417969 C 334.695312 86.613281 334.734375 85.804688 334.730469 84.992188 C 334.726562 84.183594 334.675781 83.375 334.582031 82.570312 C 334.492188 81.765625 334.355469 80.96875 334.175781 80.175781 C 333.996094 79.386719 333.773438 78.609375 333.511719 77.84375 C 333.246094 77.078125 332.941406 76.328125 332.59375 75.59375 C 332.25 74.863281 331.863281 74.148438 331.441406 73.457031 C 331.015625 72.769531 330.558594 72.101562 330.0625 71.460938 C 329.566406 70.820312 329.035156 70.207031 328.472656 69.625 C 327.910156 69.042969 327.316406 68.492188 326.695312 67.972656 C 326.074219 67.453125 325.421875 66.972656 324.746094 66.523438 C 324.074219 66.074219 323.375 65.667969 322.65625 65.292969 C 321.933594 64.921875 321.195312 64.589844 320.441406 64.300781 C 319.683594 64.007812 318.914062 63.757812 318.128906 63.550781 C 317.347656 63.34375 316.554688 63.179688 315.753906 63.058594 C 314.953125 62.9375 314.144531 62.859375 313.335938 62.828125 C 312.527344 62.792969 311.71875 62.804688 310.910156 62.859375 C 310.101562 62.914062 309.296875 63.015625 308.5 63.15625 C 307.703125 63.296875 306.914062 63.484375 306.136719 63.710938 C 305.359375 63.941406 304.597656 64.210938 303.847656 64.523438 C 303.101562 64.832031 302.371094 65.183594 301.660156 65.574219 C 300.949219 65.964844 300.265625 66.394531 299.601562 66.859375 C 298.9375 67.324219 298.300781 67.828125 297.695312 68.359375 C 297.085938 68.894531 296.507812 69.460938 295.960938 70.0625 C 295.414062 70.660156 294.898438 71.285156 294.421875 71.9375 C 293.941406 72.59375 293.5 73.269531 293.097656 73.972656 Z M 151.742188 73.972656 " fill-opacity="1" fill-rule="nonzero"/><g clip-path="url(#fc16ab7376)"><path fill="#6165fa" d="M 248.5625 154.613281 L 132.429688 154.613281 C 131.214844 154.613281 130.007812 154.535156 128.804688 154.382812 C 127.601562 154.230469 126.414062 154.003906 125.238281 153.703125 C 124.066406 153.402344 122.914062 153.03125 121.785156 152.585938 C 120.660156 152.140625 119.5625 151.625 118.5 151.042969 C 117.4375 150.460938 116.414062 149.816406 115.429688 149.105469 C 114.449219 148.394531 113.515625 147.625 112.628906 146.796875 C 111.742188 145.96875 110.914062 145.089844 110.136719 144.15625 C 109.359375 143.226562 108.648438 142.25 107.992188 141.226562 C 108.558594 140.65625 109.089844 140.054688 109.589844 139.425781 C 110.089844 138.792969 110.554688 138.136719 110.984375 137.457031 C 111.414062 136.777344 111.804688 136.074219 112.15625 135.351562 C 112.507812 134.628906 112.820312 133.890625 113.09375 133.132812 C 113.367188 132.375 113.597656 131.609375 113.789062 130.824219 C 113.976562 130.042969 114.125 129.253906 114.230469 128.457031 C 114.332031 127.660156 114.394531 126.859375 114.410156 126.054688 C 114.429688 125.25 114.402344 124.445312 114.335938 123.644531 C 114.265625 122.84375 114.152344 122.050781 113.996094 121.257812 C 113.839844 120.46875 113.644531 119.691406 113.402344 118.925781 C 113.164062 118.15625 112.882812 117.402344 112.5625 116.667969 C 112.242188 115.929688 111.882812 115.210938 111.484375 114.511719 C 111.085938 113.8125 110.648438 113.136719 110.175781 112.488281 C 109.703125 111.835938 109.199219 111.210938 108.660156 110.613281 C 108.121094 110.019531 107.550781 109.453125 106.949219 108.917969 C 106.347656 108.382812 105.722656 107.882812 105.066406 107.414062 C 104.410156 106.945312 103.734375 106.515625 103.03125 106.121094 C 102.332031 105.730469 101.609375 105.375 100.871094 105.058594 C 100.128906 104.742188 99.375 104.46875 98.605469 104.234375 C 97.835938 104 97.054688 103.808594 96.265625 103.660156 C 95.476562 103.507812 94.679688 103.402344 93.875 103.339844 C 93.074219 103.273438 92.273438 103.253906 91.46875 103.277344 C 90.664062 103.300781 89.863281 103.367188 89.066406 103.476562 C 88.269531 103.589844 87.480469 103.742188 86.699219 103.9375 C 85.921875 104.132812 85.152344 104.367188 84.398438 104.648438 C 83.644531 104.925781 82.90625 105.242188 82.1875 105.601562 C 81.464844 105.960938 80.765625 106.355469 80.089844 106.789062 C 79.410156 107.222656 78.757812 107.691406 78.132812 108.199219 C 77.507812 108.703125 76.910156 109.238281 76.339844 109.808594 C 75.773438 110.375 75.234375 110.976562 74.730469 111.601562 C 74.226562 112.230469 73.757812 112.882812 73.324219 113.558594 C 72.894531 114.238281 72.496094 114.9375 72.140625 115.65625 C 71.78125 116.378906 71.464844 117.113281 71.1875 117.871094 C 70.910156 118.625 70.671875 119.390625 70.476562 120.171875 C 70.285156 120.953125 70.132812 121.742188 70.023438 122.539062 C 69.914062 123.335938 69.847656 124.136719 69.824219 124.941406 C 69.800781 125.746094 69.824219 126.546875 69.886719 127.347656 C 69.949219 128.152344 70.058594 128.945312 70.207031 129.738281 C 70.359375 130.527344 70.550781 131.308594 70.785156 132.078125 C 71.019531 132.847656 71.296875 133.601562 71.613281 134.339844 C 71.929688 135.078125 72.285156 135.800781 72.679688 136.5 C 73.074219 137.203125 73.503906 137.878906 73.972656 138.535156 C 74.441406 139.1875 74.941406 139.816406 75.476562 140.417969 C 76.011719 141.015625 76.578125 141.585938 77.175781 142.125 C 77.773438 142.664062 78.398438 143.167969 79.050781 143.640625 C 79.703125 144.113281 80.378906 144.546875 81.078125 144.945312 C 81.777344 145.34375 82.492188 145.703125 83.230469 146.023438 C 83.96875 146.34375 84.722656 146.621094 85.492188 146.863281 C 86.511719 149.105469 87.683594 151.261719 89.011719 153.335938 C 90.34375 155.414062 91.8125 157.382812 93.421875 159.246094 C 95.035156 161.109375 96.769531 162.851562 98.628906 164.464844 C 100.488281 166.082031 102.453125 167.558594 104.523438 168.890625 C 106.59375 170.226562 108.75 171.40625 110.992188 172.433594 C 113.230469 173.457031 115.53125 174.320312 117.894531 175.015625 C 120.257812 175.710938 122.660156 176.238281 125.097656 176.589844 C 127.535156 176.941406 129.988281 177.121094 132.453125 177.121094 L 248.5625 177.121094 C 249.746094 177.121094 250.925781 177.152344 252.105469 177.210938 C 253.285156 177.265625 254.460938 177.355469 255.636719 177.46875 C 256.8125 177.585938 257.984375 177.730469 259.152344 177.902344 C 260.320312 178.078125 261.484375 178.277344 262.644531 178.507812 C 263.800781 178.738281 264.953125 178.996094 266.097656 179.285156 C 267.242188 179.570312 268.382812 179.886719 269.511719 180.230469 C 270.640625 180.574219 271.761719 180.941406 272.875 181.339844 C 273.988281 181.738281 275.089844 182.164062 276.179688 182.613281 C 277.269531 183.066406 278.351562 183.546875 279.417969 184.050781 C 280.484375 184.554688 281.539062 185.085938 282.582031 185.644531 C 283.625 186.199219 284.652344 186.78125 285.664062 187.390625 C 286.675781 187.996094 287.675781 188.628906 288.65625 189.285156 C 289.636719 189.941406 290.601562 190.621094 291.550781 191.324219 C 292.5 192.027344 293.429688 192.753906 294.34375 193.503906 C 295.257812 194.25 296.152344 195.023438 297.027344 195.816406 C 297.902344 196.609375 298.757812 197.421875 299.589844 198.257812 C 300.425781 199.09375 301.242188 199.949219 302.035156 200.824219 C 302.828125 201.699219 303.597656 202.589844 304.347656 203.503906 C 305.097656 204.417969 305.824219 205.347656 306.527344 206.296875 C 307.230469 207.246094 307.910156 208.210938 308.566406 209.191406 C 309.222656 210.175781 309.855469 211.171875 310.460938 212.183594 C 311.066406 213.199219 311.648438 214.226562 312.207031 215.265625 C 312.761719 216.308594 313.292969 217.363281 313.800781 218.429688 C 314.304688 219.496094 314.78125 220.578125 315.234375 221.667969 C 315.6875 222.757812 316.109375 223.859375 316.507812 224.972656 C 316.90625 226.085938 317.277344 227.207031 317.621094 228.335938 C 317.964844 229.464844 318.277344 230.601562 318.566406 231.75 C 318.851562 232.894531 319.109375 234.046875 319.339844 235.203125 C 319.570312 236.363281 319.773438 237.527344 319.945312 238.695312 C 320.121094 239.863281 320.265625 241.035156 320.378906 242.210938 C 320.496094 243.386719 320.582031 244.5625 320.640625 245.742188 C 320.699219 246.921875 320.726562 248.101562 320.726562 249.28125 C 320.726562 250.464844 320.699219 251.644531 320.640625 252.824219 C 320.582031 254.003906 320.496094 255.179688 320.378906 256.355469 C 320.265625 257.53125 320.121094 258.703125 319.945312 259.871094 C 319.773438 261.039062 319.570312 262.203125 319.339844 263.359375 C 319.109375 264.519531 318.851562 265.671875 318.566406 266.816406 C 318.277344 267.960938 317.964844 269.097656 317.621094 270.230469 C 317.277344 271.359375 316.90625 272.480469 316.507812 273.59375 C 316.109375 274.703125 315.6875 275.804688 315.234375 276.898438 C 314.78125 277.988281 314.304688 279.066406 313.800781 280.136719 C 313.292969 281.203125 312.761719 282.257812 312.207031 283.296875 C 311.648438 284.339844 311.066406 285.367188 310.460938 286.378906 C 309.855469 287.394531 309.222656 288.390625 308.566406 289.371094 C 307.910156 290.355469 307.230469 291.320312 306.527344 292.269531 C 305.824219 293.21875 305.097656 294.148438 304.347656 295.058594 C 303.597656 295.972656 302.828125 296.867188 302.035156 297.742188 C 301.242188 298.617188 300.425781 299.472656 299.589844 300.308594 C 298.757812 301.140625 297.902344 301.957031 297.027344 302.75 C 296.152344 303.542969 295.257812 304.3125 294.34375 305.0625 C 293.429688 305.8125 292.5 306.539062 291.550781 307.242188 C 290.601562 307.945312 289.636719 308.625 288.65625 309.28125 C 287.675781 309.9375 286.675781 310.570312 285.664062 311.175781 C 284.652344 311.785156 283.625 312.367188 282.582031 312.921875 C 281.539062 313.480469 280.484375 314.007812 279.417969 314.515625 C 278.351562 315.019531 277.269531 315.496094 276.179688 315.949219 C 275.089844 316.402344 273.988281 316.828125 272.875 317.222656 C 271.761719 317.621094 270.640625 317.992188 269.511719 318.335938 C 268.382812 318.679688 267.242188 318.992188 266.097656 319.28125 C 264.953125 319.566406 263.800781 319.824219 262.644531 320.054688 C 261.484375 320.285156 260.320312 320.488281 259.152344 320.660156 C 257.984375 320.835938 256.8125 320.980469 255.636719 321.09375 C 254.460938 321.210938 253.285156 321.296875 252.105469 321.355469 C 250.925781 321.414062 249.746094 321.441406 248.5625 321.441406 L 156.445312 321.441406 C 156.035156 320.742188 155.589844 320.070312 155.105469 319.417969 C 154.621094 318.769531 154.105469 318.144531 153.554688 317.550781 C 153.003906 316.957031 152.421875 316.394531 151.8125 315.863281 C 151.199219 315.332031 150.5625 314.835938 149.894531 314.375 C 149.230469 313.914062 148.539062 313.492188 147.828125 313.105469 C 147.117188 312.71875 146.386719 312.371094 145.636719 312.066406 C 144.886719 311.757812 144.121094 311.492188 143.34375 311.269531 C 142.5625 311.046875 141.773438 310.867188 140.976562 310.730469 C 140.179688 310.589844 139.375 310.496094 138.566406 310.449219 C 137.757812 310.398438 136.949219 310.390625 136.140625 310.429688 C 135.332031 310.46875 134.527344 310.550781 133.726562 310.675781 C 132.925781 310.800781 132.132812 310.972656 131.351562 311.183594 C 130.570312 311.394531 129.800781 311.648438 129.046875 311.945312 C 128.292969 312.238281 127.558594 312.574219 126.839844 312.953125 C 126.125 313.328125 125.429688 313.742188 124.753906 314.191406 C 124.082031 314.644531 123.4375 315.132812 122.816406 315.652344 C 122.199219 316.175781 121.609375 316.730469 121.050781 317.316406 C 120.492188 317.902344 119.964844 318.515625 119.472656 319.160156 C 118.980469 319.804688 118.523438 320.472656 118.105469 321.164062 C 117.6875 321.855469 117.304688 322.570312 116.964844 323.304688 C 116.621094 324.039062 116.320312 324.792969 116.0625 325.558594 C 115.800781 326.324219 115.585938 327.105469 115.410156 327.894531 C 115.234375 328.6875 115.101562 329.484375 115.015625 330.289062 C 114.925781 331.09375 114.882812 331.902344 114.882812 332.710938 C 114.882812 333.523438 114.925781 334.332031 115.015625 335.136719 C 115.101562 335.941406 115.234375 336.738281 115.410156 337.53125 C 115.585938 338.320312 115.800781 339.101562 116.0625 339.867188 C 116.320312 340.632812 116.621094 341.386719 116.964844 342.121094 C 117.304688 342.855469 117.6875 343.570312 118.105469 344.261719 C 118.523438 344.953125 118.980469 345.621094 119.472656 346.265625 C 119.964844 346.910156 120.492188 347.523438 121.050781 348.109375 C 121.609375 348.695312 122.199219 349.25 122.816406 349.773438 C 123.4375 350.292969 124.082031 350.78125 124.753906 351.234375 C 125.429688 351.683594 126.125 352.097656 126.839844 352.472656 C 127.558594 352.851562 128.292969 353.1875 129.046875 353.480469 C 129.804688 353.777344 130.570312 354.03125 131.351562 354.242188 C 132.132812 354.453125 132.925781 354.625 133.726562 354.75 C 134.527344 354.875 135.332031 354.957031 136.140625 354.996094 C 136.949219 355.035156 137.757812 355.027344 138.566406 354.976562 C 139.375 354.929688 140.179688 354.835938 140.976562 354.695312 C 141.773438 354.558594 142.5625 354.378906 143.34375 354.15625 C 144.121094 353.933594 144.886719 353.667969 145.636719 353.359375 C 146.386719 353.054688 147.117188 352.707031 147.828125 352.320312 C 148.539062 351.933594 149.230469 351.511719 149.894531 351.050781 C 150.5625 350.589844 151.199219 350.09375 151.8125 349.5625 C 152.421875 349.03125 153.003906 348.46875 153.554688 347.875 C 154.105469 347.28125 154.621094 346.65625 155.105469 346.007812 C 155.589844 345.355469 156.035156 344.683594 156.445312 343.984375 L 248.5625 343.984375 C 250.113281 343.984375 251.664062 343.945312 253.210938 343.867188 C 254.757812 343.792969 256.304688 343.679688 257.847656 343.527344 C 259.390625 343.375 260.929688 343.183594 262.460938 342.957031 C 263.996094 342.730469 265.519531 342.464844 267.042969 342.164062 C 268.5625 341.859375 270.074219 341.519531 271.578125 341.144531 C 273.082031 340.769531 274.574219 340.355469 276.058594 339.90625 C 277.542969 339.453125 279.011719 338.96875 280.472656 338.445312 C 281.929688 337.925781 283.378906 337.367188 284.808594 336.773438 C 286.242188 336.179688 287.65625 335.550781 289.058594 334.890625 C 290.460938 334.226562 291.84375 333.53125 293.210938 332.800781 C 294.578125 332.070312 295.925781 331.304688 297.257812 330.507812 C 298.585938 329.710938 299.894531 328.882812 301.183594 328.023438 C 302.472656 327.160156 303.738281 326.269531 304.984375 325.34375 C 306.230469 324.421875 307.449219 323.46875 308.648438 322.484375 C 309.847656 321.5 311.019531 320.488281 312.167969 319.449219 C 313.316406 318.40625 314.441406 317.339844 315.535156 316.242188 C 316.632812 315.148438 317.699219 314.027344 318.742188 312.878906 C 319.78125 311.730469 320.792969 310.554688 321.777344 309.355469 C 322.761719 308.160156 323.714844 306.9375 324.636719 305.691406 C 325.5625 304.449219 326.453125 303.179688 327.316406 301.890625 C 328.175781 300.601562 329.003906 299.292969 329.800781 297.964844 C 330.597656 296.636719 331.363281 295.285156 332.09375 293.921875 C 332.824219 292.554688 333.519531 291.167969 334.183594 289.769531 C 334.847656 288.367188 335.472656 286.949219 336.066406 285.519531 C 336.660156 284.085938 337.21875 282.640625 337.738281 281.179688 C 338.261719 279.722656 338.75 278.25 339.199219 276.765625 C 339.648438 275.285156 340.0625 273.789062 340.4375 272.285156 C 340.816406 270.785156 341.15625 269.273438 341.457031 267.75 C 341.757812 266.230469 342.023438 264.703125 342.25 263.171875 C 342.480469 261.636719 342.667969 260.101562 342.820312 258.558594 C 342.972656 257.015625 343.085938 255.46875 343.164062 253.921875 C 343.238281 252.375 343.277344 250.824219 343.277344 249.273438 C 343.277344 247.726562 343.238281 246.175781 343.164062 244.628906 C 343.085938 243.078125 342.972656 241.535156 342.820312 239.992188 C 342.667969 238.449219 342.480469 236.910156 342.25 235.378906 C 342.023438 233.84375 341.757812 232.316406 341.457031 230.796875 C 341.15625 229.277344 340.816406 227.765625 340.4375 226.261719 C 340.0625 224.757812 339.648438 223.265625 339.199219 221.78125 C 338.75 220.300781 338.261719 218.828125 337.738281 217.367188 C 337.21875 215.910156 336.660156 214.464844 336.066406 213.03125 C 335.472656 211.597656 334.847656 210.183594 334.183594 208.78125 C 333.519531 207.378906 332.824219 205.996094 332.09375 204.628906 C 331.363281 203.261719 330.597656 201.914062 329.800781 200.585938 C 329.003906 199.253906 328.175781 197.945312 327.316406 196.65625 C 326.453125 195.367188 325.5625 194.101562 324.636719 192.855469 C 323.714844 191.613281 322.761719 190.390625 321.777344 189.191406 C 320.792969 187.996094 319.78125 186.820312 318.742188 185.671875 C 317.699219 184.523438 316.632812 183.402344 315.535156 182.304688 C 314.441406 181.210938 313.316406 180.140625 312.167969 179.101562 C 311.019531 178.058594 309.847656 177.046875 308.648438 176.0625 C 307.449219 175.082031 306.230469 174.128906 304.984375 173.203125 C 303.738281 172.28125 302.472656 171.390625 301.183594 170.527344 C 299.894531 169.667969 298.585938 168.835938 297.257812 168.039062 C 295.925781 167.242188 294.578125 166.480469 293.210938 165.75 C 291.84375 165.019531 290.460938 164.320312 289.058594 163.660156 C 287.65625 162.996094 286.242188 162.367188 284.808594 161.777344 C 283.378906 161.183594 281.929688 160.625 280.472656 160.101562 C 279.011719 159.582031 277.542969 159.09375 276.058594 158.644531 C 274.574219 158.195312 273.082031 157.78125 271.578125 157.40625 C 270.074219 157.027344 268.5625 156.6875 267.042969 156.386719 C 265.519531 156.082031 263.996094 155.820312 262.460938 155.589844 C 260.929688 155.363281 259.390625 155.175781 257.847656 155.023438 C 256.304688 154.871094 254.757812 154.757812 253.210938 154.679688 C 251.664062 154.605469 250.113281 154.566406 248.5625 154.566406 Z M 248.5625 154.613281 " fill-opacity="1" fill-rule="nonzero"/></g><path fill="#004aad" d="M 229.3125 300.910156 C 229.722656 301.613281 230.167969 302.289062 230.648438 302.941406 C 231.132812 303.589844 231.648438 304.214844 232.199219 304.808594 C 232.75 305.40625 233.332031 305.96875 233.941406 306.5 C 234.554688 307.03125 235.191406 307.53125 235.859375 307.992188 C 236.523438 308.453125 237.214844 308.878906 237.925781 309.265625 C 238.636719 309.652344 239.371094 310 240.121094 310.308594 C 240.871094 310.617188 241.636719 310.882812 242.414062 311.105469 C 243.191406 311.332031 243.980469 311.511719 244.78125 311.648438 C 245.578125 311.789062 246.382812 311.882812 247.191406 311.933594 C 248.003906 311.984375 248.8125 311.988281 249.621094 311.953125 C 250.429688 311.914062 251.238281 311.832031 252.039062 311.707031 C 252.839844 311.582031 253.628906 311.414062 254.414062 311.203125 C 255.195312 310.992188 255.964844 310.738281 256.71875 310.441406 C 257.476562 310.144531 258.210938 309.808594 258.929688 309.433594 C 259.648438 309.058594 260.34375 308.644531 261.015625 308.191406 C 261.691406 307.742188 262.335938 307.253906 262.957031 306.734375 C 263.578125 306.210938 264.167969 305.65625 264.726562 305.070312 C 265.289062 304.484375 265.8125 303.867188 266.304688 303.222656 C 266.800781 302.582031 267.253906 301.914062 267.675781 301.21875 C 268.09375 300.523438 268.476562 299.8125 268.820312 299.074219 C 269.160156 298.339844 269.460938 297.589844 269.722656 296.820312 C 269.980469 296.054688 270.199219 295.273438 270.375 294.480469 C 270.550781 293.691406 270.679688 292.890625 270.769531 292.085938 C 270.859375 291.28125 270.902344 290.472656 270.902344 289.660156 C 270.902344 288.851562 270.859375 288.042969 270.769531 287.234375 C 270.679688 286.429688 270.550781 285.632812 270.375 284.839844 C 270.199219 284.046875 269.980469 283.269531 269.722656 282.5 C 269.460938 281.734375 269.160156 280.980469 268.820312 280.246094 C 268.476562 279.511719 268.09375 278.796875 267.675781 278.105469 C 267.253906 277.410156 266.800781 276.742188 266.304688 276.097656 C 265.8125 275.453125 265.289062 274.839844 264.726562 274.253906 C 264.167969 273.667969 263.578125 273.113281 262.957031 272.589844 C 262.335938 272.066406 261.691406 271.582031 261.015625 271.128906 C 260.34375 270.675781 259.648438 270.265625 258.929688 269.886719 C 258.210938 269.511719 257.476562 269.175781 256.71875 268.882812 C 255.964844 268.585938 255.195312 268.332031 254.414062 268.121094 C 253.628906 267.910156 252.839844 267.738281 252.039062 267.613281 C 251.238281 267.488281 250.429688 267.40625 249.621094 267.371094 C 248.8125 267.332031 248.003906 267.339844 247.191406 267.390625 C 246.382812 267.441406 245.578125 267.535156 244.78125 267.671875 C 243.980469 267.8125 243.191406 267.992188 242.414062 268.214844 C 241.636719 268.441406 240.871094 268.707031 240.121094 269.015625 C 239.371094 269.320312 238.636719 269.667969 237.925781 270.054688 C 237.214844 270.441406 236.523438 270.867188 235.859375 271.332031 C 235.191406 271.792969 234.554688 272.289062 233.941406 272.820312 C 233.332031 273.355469 232.75 273.917969 232.199219 274.511719 C 231.648438 275.109375 231.132812 275.730469 230.648438 276.382812 C 230.167969 277.035156 229.722656 277.710938 229.3125 278.410156 L 87.84375 278.410156 C 87.433594 277.710938 86.988281 277.035156 86.503906 276.382812 C 86.023438 275.734375 85.507812 275.109375 84.957031 274.515625 C 84.40625 273.917969 83.824219 273.355469 83.214844 272.824219 C 82.601562 272.292969 81.964844 271.796875 81.296875 271.335938 C 80.632812 270.871094 79.941406 270.449219 79.230469 270.0625 C 78.519531 269.675781 77.789062 269.328125 77.039062 269.019531 C 76.289062 268.710938 75.523438 268.445312 74.746094 268.222656 C 73.964844 268 73.175781 267.816406 72.378906 267.679688 C 71.578125 267.542969 70.777344 267.449219 69.96875 267.398438 C 69.160156 267.347656 68.347656 267.339844 67.539062 267.378906 C 66.730469 267.414062 65.925781 267.496094 65.125 267.621094 C 64.324219 267.75 63.53125 267.917969 62.75 268.128906 C 61.96875 268.339844 61.199219 268.59375 60.445312 268.890625 C 59.691406 269.183594 58.953125 269.519531 58.234375 269.894531 C 57.519531 270.269531 56.824219 270.683594 56.148438 271.136719 C 55.476562 271.589844 54.832031 272.074219 54.210938 272.597656 C 53.589844 273.117188 53 273.671875 52.441406 274.257812 C 51.882812 274.84375 51.355469 275.460938 50.863281 276.101562 C 50.371094 276.746094 49.914062 277.414062 49.496094 278.109375 C 49.074219 278.800781 48.695312 279.515625 48.351562 280.25 C 48.011719 280.984375 47.710938 281.738281 47.449219 282.503906 C 47.1875 283.273438 46.972656 284.050781 46.796875 284.84375 C 46.621094 285.632812 46.488281 286.433594 46.402344 287.238281 C 46.3125 288.042969 46.269531 288.851562 46.269531 289.660156 C 46.269531 290.472656 46.3125 291.28125 46.402344 292.085938 C 46.488281 292.890625 46.621094 293.6875 46.796875 294.480469 C 46.972656 295.273438 47.1875 296.050781 47.449219 296.820312 C 47.710938 297.585938 48.011719 298.335938 48.351562 299.070312 C 48.695312 299.804688 49.074219 300.519531 49.496094 301.214844 C 49.914062 301.90625 50.371094 302.574219 50.863281 303.21875 C 51.355469 303.863281 51.882812 304.476562 52.441406 305.0625 C 53 305.648438 53.589844 306.203125 54.210938 306.726562 C 54.832031 307.246094 55.476562 307.734375 56.148438 308.1875 C 56.824219 308.636719 57.519531 309.050781 58.234375 309.425781 C 58.953125 309.800781 59.691406 310.136719 60.445312 310.433594 C 61.199219 310.730469 61.96875 310.980469 62.75 311.195312 C 63.53125 311.40625 64.324219 311.574219 65.125 311.699219 C 65.925781 311.824219 66.730469 311.90625 67.539062 311.945312 C 68.347656 311.980469 69.160156 311.976562 69.96875 311.925781 C 70.777344 311.875 71.578125 311.78125 72.378906 311.644531 C 73.175781 311.503906 73.964844 311.324219 74.746094 311.101562 C 75.523438 310.875 76.289062 310.609375 77.039062 310.304688 C 77.789062 309.996094 78.519531 309.648438 79.230469 309.261719 C 79.941406 308.875 80.632812 308.449219 81.296875 307.988281 C 81.964844 307.527344 82.601562 307.027344 83.214844 306.496094 C 83.824219 305.964844 84.40625 305.402344 84.957031 304.808594 C 85.507812 304.210938 86.023438 303.589844 86.503906 302.9375 C 86.988281 302.289062 87.433594 301.613281 87.84375 300.910156 Z M 229.3125 300.910156 " fill-opacity="1" fill-rule="nonzero"/></svg>