<svg xmlns="http://www.w3.org/2000/svg" viewBox="0 0 500 500"><g id="freepik--Floor--inject-3"><g id="freepik--floor--inject-3"><ellipse cx="250.18" cy="339.43" rx="242.49" ry="137.64" style="fill:#f5f5f5"></ellipse></g></g><g id="freepik--Shadow--inject-3"><path d="M30.57,306.21l274.35,158.4a11.78,11.78,0,0,0,10.66,0l149.35-86.23c2.94-1.7,2.94-4.45,0-6.15L190.58,213.83a11.78,11.78,0,0,0-10.66,0L30.57,300.06C27.63,301.76,27.63,304.51,30.57,306.21Z" style="fill:#e0e0e0"></path></g><g id="freepik--Plants--inject-3"><g id="freepik--plants--inject-3"><path d="M438.77,354.62l-7.51-5.07s-3.3-19.66-.23-36.94c4.32-24.29,21.07-32.37,27-29.83s7.26,9.78-3.89,23.65C447.6,314.61,439,332,438.77,354.62Z" style="fill:#6165FA"></path><g style="opacity:0.15"><path d="M438.77,354.62l-7.51-5.07s-3.3-19.66-.23-36.94c4.32-24.29,21.07-32.37,27-29.83s7.26,9.78-3.89,23.65C447.6,314.61,439,332,438.77,354.62Z"></path></g><path d="M436.19,344.89h.08a.54.54,0,0,0,.47-.61c-2.71-22.87,6.95-47.68,17.45-57.55a.54.54,0,0,0,0-.77.55.55,0,0,0-.77,0c-10.69,10.05-20.53,35.27-17.78,58.47A.55.55,0,0,0,436.19,344.89Z" style="fill:#fff"></path><path d="M458.29,368a12.25,12.25,0,0,0,6.58-5.6,20.41,20.41,0,0,0,2.32-9.1c.15-2.94-.63-6-.2-8.87.34-2.28,2.39-3.84,4.26-5.19,2.07-1.48,4.24-3.46,4.28-6.21a9.68,9.68,0,0,0-2.32-5.81c-2-2.69-4.12-4.81-3.55-8.48a30.28,30.28,0,0,1,2.26-6.4,10.16,10.16,0,0,0,.8-2.78,6,6,0,0,0-6.3-6.54,10.94,10.94,0,0,0-4.43,1.46c-4.26,2.26-6.85,8.16-11.78,8.77-1.61.2-3.24.13-4.85.34a7.1,7.1,0,0,0-4.36,1.93c-3.76,4,.6,9.31-1,13.74-1.12,3.18-4.25,4.34-6,7.18a6.82,6.82,0,0,0-.9,4.16,20,20,0,0,0,1.63,7.1,37.67,37.67,0,0,0,2.92,5.09c1.15,1.91,1.52,4,3,5.77a55.29,55.29,0,0,0,6.3,5.83c2.13,1.88,4.56,3.67,7.46,4A8.8,8.8,0,0,0,458.29,368Z" style="fill:#6165FA"></path><g style="opacity:0.2"><path d="M458.29,368a12.25,12.25,0,0,0,6.58-5.6,20.41,20.41,0,0,0,2.32-9.1c.15-2.94-.63-6-.2-8.87.34-2.28,2.39-3.84,4.26-5.19,2.07-1.48,4.24-3.46,4.28-6.21a9.68,9.68,0,0,0-2.32-5.81c-2-2.69-4.12-4.81-3.55-8.48a30.28,30.28,0,0,1,2.26-6.4,10.16,10.16,0,0,0,.8-2.78,6,6,0,0,0-6.3-6.54,10.94,10.94,0,0,0-4.43,1.46c-4.26,2.26-6.85,8.16-11.78,8.77-1.61.2-3.24.13-4.85.34a7.1,7.1,0,0,0-4.36,1.93c-3.76,4,.6,9.31-1,13.74-1.12,3.18-4.25,4.34-6,7.18a6.82,6.82,0,0,0-.9,4.16,20,20,0,0,0,1.63,7.1,37.67,37.67,0,0,0,2.92,5.09c1.15,1.91,1.52,4,3,5.77a55.29,55.29,0,0,0,6.3,5.83c2.13,1.88,4.56,3.67,7.46,4A8.8,8.8,0,0,0,458.29,368Z" style="fill:#fff"></path></g><path d="M446.9,360.81h0a.55.55,0,0,0,.54-.56c-.48-21.6,10.15-45.24,17.68-52a.55.55,0,0,0-.73-.81c-7.68,6.92-18.53,30.95-18,52.85A.56.56,0,0,0,446.9,360.81Z" style="fill:#fff"></path><path d="M450.88,334.49l.16,0a72.42,72.42,0,0,1,15.71-2.23.55.55,0,0,0,0-1.09,74.9,74.9,0,0,0-16,2.27.54.54,0,0,0-.38.67A.56.56,0,0,0,450.88,334.49Z" style="fill:#fff"></path></g><g id="freepik--plants--inject-3"><path d="M43.83,285.53l8.69-3.91s3.78-17.39,3.82-31.14c.06-19.33-10-43.6-25.27-39.69s4.25,25.59,7.39,42.3S43.83,285.53,43.83,285.53Z" style="fill:#6165FA"></path><g style="opacity:0.15"><path d="M43.83,285.53l8.69-3.91s3.78-17.39,3.82-31.14c.06-19.33-10-43.6-25.27-39.69s4.25,25.59,7.39,42.3S43.83,285.53,43.83,285.53Z"></path></g><path d="M48.35,284h0a.51.51,0,0,1-.43-.57c5.74-42.37-13.27-65.9-13.46-66.13a.52.52,0,0,1,.07-.71.5.5,0,0,1,.7.07c.2.23,19.48,24.1,13.68,66.91A.5.5,0,0,1,48.35,284Z" style="fill:#fff"></path><path d="M38.36,288l6.19-2.78s2.21-12-2.22-27.23c-3.86-13.28-15.57-25.16-22.23-23.58s-7,6.15-4.3,11.25S36.37,264,38.36,288Z" style="fill:#6165FA"></path><g style="opacity:0.2"><path d="M38.36,288l6.19-2.78s2.21-12-2.22-27.23c-3.86-13.28-15.57-25.16-22.23-23.58s-7,6.15-4.3,11.25S36.37,264,38.36,288Z" style="fill:#fff"></path></g><path d="M41.58,287h0a.5.5,0,0,1-.44-.55c2.83-26.87-20.58-47.6-20.81-47.8a.51.51,0,0,1-.05-.71.49.49,0,0,1,.7,0c.24.2,24,21.27,21.15,48.66A.49.49,0,0,1,41.58,287Z" style="fill:#fff"></path></g></g><g id="freepik--Device--inject-3"><g id="freepik--Mobile--inject-3"><g id="freepik--mobile--inject-3"><path d="M447.89,375.16,317.08,450.67a14.12,14.12,0,0,1-13.65.26L40.08,298.87c-4.15-2.39-7.51-7.75-7.51-12s3.36-9.57,7.51-12L170.4,199.7a16.65,16.65,0,0,1,15,0L447.89,351.23c4.15,2.4,7.51,7.75,7.51,12S452,372.77,447.89,375.16Z" style="fill:#6165FA"></path><g style="opacity:0.5"><path d="M170.4,199.7,40.08,274.94c-4.15,2.39-7.51,7.75-7.51,12s3.36,9.58,7.51,12L303.43,450.93a14.71,14.71,0,0,0,6.53,1.61V271.6L185.43,199.7A16.65,16.65,0,0,0,170.4,199.7Z"></path></g><g style="opacity:0.4"><path d="M317.08,450.67l130.81-75.51c4.15-2.39,7.51-7.75,7.51-12s-3.36-9.57-7.51-12L310,271.6V452.54A13.9,13.9,0,0,0,317.08,450.67Z"></path></g><path d="M314,437.21a14.66,14.66,0,0,1-13.25,0L40.05,286.72c-5.61-3.24-5.61-8.53,0-11.77L170.39,199.7a16.65,16.65,0,0,1,15,0L447.88,351.23c4.13,2.39,4.13,6.29,0,8.67Z" style="fill:#6165FA"></path><g style="opacity:0.30000000000000004"><path d="M314,437.21a14.66,14.66,0,0,1-13.25,0L40.05,286.72c-5.61-3.24-5.61-8.53,0-11.77L170.39,199.7a16.65,16.65,0,0,1,15,0L447.88,351.23c4.13,2.39,4.13,6.29,0,8.67Z"></path></g><path d="M301.31,422.06a15.76,15.76,0,0,1-14.28,0L62.73,292.56c-3.94-2.28-3.94-6,0-8.24l122.62-70.79a15.89,15.89,0,0,1,14.28,0L423.93,343c3.92,2.27,3.92,6,0,8.25Z" style="fill:#37474f"></path><path d="M192.05,211.86a14.35,14.35,0,0,0-6.7,1.67L62.73,284.32c-3.94,2.27-3.94,6,0,8.24l24.31,14,105-67.06Z" style="fill:#263238"></path><path d="M199.71,218.89a15.82,15.82,0,0,0-14.28,0L62.82,289.68A7.26,7.26,0,0,0,61,291.17a7.44,7.44,0,0,0,1.78,1.39L287,422.06a15.76,15.76,0,0,0,14.28,0l122.62-70.78a7.51,7.51,0,0,0,1.85-1.48,7.42,7.42,0,0,0-1.77-1.41Z" style="fill:#455a64"></path><path d="M107.55,251.21l21.73-12.55c1.3-.75,1.36-1.92.15-2.62a5,5,0,0,0-4.55.08l-21.73,12.55c-1.3.75-1.37,1.92-.15,2.62A5,5,0,0,0,107.55,251.21Z" style="fill:#37474f"></path><path d="M144.87,229.7a1.35,1.35,0,0,0,0-2.55,4.89,4.89,0,0,0-4.41,0,1.35,1.35,0,0,0,0,2.55A4.89,4.89,0,0,0,144.87,229.7Z" style="fill:#37474f"></path><path d="M153.68,224.6a1.34,1.34,0,0,0,0-2.54,4.89,4.89,0,0,0-4.41,0,1.34,1.34,0,0,0,0,2.54A4.83,4.83,0,0,0,153.68,224.6Z" style="fill:#37474f"></path><path d="M83.2,265.29a1.34,1.34,0,0,0,0-2.54,4.87,4.87,0,0,0-4.4,0,1.34,1.34,0,0,0,0,2.54A4.81,4.81,0,0,0,83.2,265.29Z" style="fill:#37474f"></path><path d="M92,260.2a1.34,1.34,0,0,0,0-2.54,4.87,4.87,0,0,0-4.4,0,1.34,1.34,0,0,0,0,2.54A4.87,4.87,0,0,0,92,260.2Z" style="fill:#37474f"></path><path d="M122.69,338a5,5,0,0,1,2.35,3.9,1.48,1.48,0,0,1-.65,1.37c-.28.15-1.35.79-1.64.95a1.71,1.71,0,0,1-1.7-.19L90.51,326.35a5.06,5.06,0,0,1-2.34-3.9,1.5,1.5,0,0,1,.59-1.34c.29-.18,1.4-.82,1.69-1a1.75,1.75,0,0,1,1.7.2Z" style="fill:#6165FA"></path><g style="opacity:0.4"><path d="M122.69,338a5,5,0,0,1,2.35,3.9,1.48,1.48,0,0,1-.65,1.37c-.28.15-1.35.79-1.64.95a1.71,1.71,0,0,1-1.7-.19L90.51,326.35a5.06,5.06,0,0,1-2.34-3.9,1.5,1.5,0,0,1,.59-1.34c.29-.18,1.4-.82,1.69-1a1.75,1.75,0,0,1,1.7.2Z"></path></g><path d="M121.05,338.89,90.51,321.26c-1.29-.75-2.34-.21-2.34,1.19a5.06,5.06,0,0,0,2.34,3.9L121.05,344c1.3.75,2.35.22,2.35-1.19A5,5,0,0,0,121.05,338.89Z" style="fill:#6165FA"></path><g style="opacity:0.30000000000000004"><path d="M121.05,338.89,90.51,321.26c-1.29-.75-2.34-.21-2.34,1.19a5.06,5.06,0,0,0,2.34,3.9L121.05,344c1.3.75,2.35.22,2.35-1.19A5,5,0,0,0,121.05,338.89Z"></path></g><path d="M81.81,314.35a5,5,0,0,1,2.35,3.89,1.46,1.46,0,0,1-.65,1.37l-1.64,1a1.74,1.74,0,0,1-1.7-.19l-14.39-8.31a5,5,0,0,1-2.35-3.9,1.48,1.48,0,0,1,.59-1.34c.29-.18,1.4-.82,1.7-1a1.72,1.72,0,0,1,1.69.19Z" style="fill:#6165FA"></path><g style="opacity:0.4"><path d="M81.81,314.35a5,5,0,0,1,2.35,3.89,1.46,1.46,0,0,1-.65,1.37l-1.64,1a1.74,1.74,0,0,1-1.7-.19l-14.39-8.31a5,5,0,0,1-2.35-3.9,1.48,1.48,0,0,1,.59-1.34c.29-.18,1.4-.82,1.7-1a1.72,1.72,0,0,1,1.69.19Z"></path></g><path d="M80.17,315.29,65.78,307c-1.3-.75-2.35-.22-2.35,1.19a5,5,0,0,0,2.35,3.9l14.39,8.31c1.3.75,2.35.22,2.35-1.19A5,5,0,0,0,80.17,315.29Z" style="fill:#6165FA"></path><g style="opacity:0.30000000000000004"><path d="M80.17,315.29,65.78,307c-1.3-.75-2.35-.22-2.35,1.19a5,5,0,0,0,2.35,3.9l14.39,8.31c1.3.75,2.35.22,2.35-1.19A5,5,0,0,0,80.17,315.29Z"></path></g></g></g></g><g id="freepik--Window--inject-3"><g id="freepik--window--inject-3"><path d="M422.94,321.23l-125.06,72.3a6.21,6.21,0,0,1-5.63,0L63,261.17a6.2,6.2,0,0,1-2.8-4.88v-2A6.28,6.28,0,0,1,63,249.38l125.16-72.24a6.21,6.21,0,0,1,5.63,0L423,309.45a6.21,6.21,0,0,1,2.81,4.88v2A6.24,6.24,0,0,1,422.94,321.23Z" style="fill:#e0e0e0"></path><path d="M193.64,177c-2.15-1.24-4.39-.52-6.54.73l-123,71C62,250,62,252,64.11,253.27L291.22,384.39h0a7.72,7.72,0,0,0,7.75,0l123-71a2.6,2.6,0,0,0,0-4.5h0Z" style="fill:#fafafa"></path><path d="M191.26,177.48a3.53,3.53,0,0,1,1.83.5L421.47,309.83a1.52,1.52,0,0,1,0,2.62l-123,71a6.69,6.69,0,0,1-6.67,0L64.65,252.33c-.68-.39-1.07-.87-1.07-1.31s.39-.92,1.07-1.31l123-71a7.39,7.39,0,0,1,3.61-1.22m0-1.08a8.48,8.48,0,0,0-4.16,1.37l-123,71C62,250,62,252,64.11,253.27L291.22,384.39a7.74,7.74,0,0,0,7.75,0l123-71a2.6,2.6,0,0,0,0-4.5L193.64,177a4.71,4.71,0,0,0-2.38-.64Z" style="fill:#e0e0e0"></path><path d="M423,309.44l-1-.55a2.61,2.61,0,0,1,0,4.51l-123,71a7.62,7.62,0,0,1-3.87,1H295v8.79a5.89,5.89,0,0,0,2.88-.68l125.06-72.3a6.27,6.27,0,0,0,2.83-4.87v-2A6.19,6.19,0,0,0,423,309.44Z" style="fill:#ebebeb"></path><polygon points="95.75 271.57 268.67 371.37 399.52 295.91 226.53 196.06 95.75 271.57" style="fill:#6165FA"></polygon><path d="M97.19,244.63a.85.85,0,0,1-.22-.08l-.79-.46-1.42.82a.25.25,0,0,1-.28,0l-.28-.16-.14-.09-.08-.11L92.68,242a.33.33,0,0,1,0-.1s0-.05.07-.08l.2-.11a.26.26,0,0,1,.19,0,.68.68,0,0,1,.23.09l2.75,1.58.31-.18a.3.3,0,0,1,.18,0,.68.68,0,0,1,.23.09l.19.11c.08.05.13.09.14.12s0,.07-.07.11l-.31.18.78.45c.09,0,.13.09.14.13s0,.07-.07.11l-.24.13A.31.31,0,0,1,97.19,244.63Zm-1.58-1-2-1.13.93,1.73Z" style="fill:#455a64"></path><path d="M98.4,243.38a6.07,6.07,0,0,1-2.23-.81,3,3,0,0,1-1.4-1.29c-.14-.4,0-.75.54-1A3.06,3.06,0,0,1,96,240a2.94,2.94,0,0,1,.71-.09.23.23,0,0,1,.13,0,.13.13,0,0,1,.07.06l.21.27s0,.06,0,.07H97a2.2,2.2,0,0,0-1,.27q-.51.28-.36.72a2.33,2.33,0,0,0,1.06.94,4.31,4.31,0,0,0,1.64.62,1.89,1.89,0,0,0,1.21-.19,1.47,1.47,0,0,0,.31-.23.56.56,0,0,0,.15-.23l-1.28-.74-.59.34a.24.24,0,0,1-.18,0,.68.68,0,0,1-.23-.09l-.18-.1c-.09,0-.14-.09-.15-.13s0-.06.08-.1l.94-.55a.33.33,0,0,1,.22,0,.72.72,0,0,1,.26.1l1.82,1.05.15.1a.12.12,0,0,1,0,.09q0,.47-.72.87A2.84,2.84,0,0,1,98.4,243.38Z" style="fill:#455a64"></path><path d="M110.08,236.3c.6.35.73.85.27,1.11a2.18,2.18,0,0,1-1.92-.16c-.61-.35-.73-.84-.28-1.11A2.2,2.2,0,0,1,110.08,236.3Z" style="fill:#455a64"></path><path d="M106.35,235.1a1.25,1.25,0,0,0-.38,2,.84.84,0,0,0,.63.26h0c.31,0,.49-.16.34-.35a.88.88,0,0,1,.27-1.41,3.44,3.44,0,0,1,2.43-.15c.33.08.62,0,.61-.2h0c0-.15-.2-.3-.45-.37A5.09,5.09,0,0,0,106.35,235.1Z" style="fill:#455a64"></path><path d="M104.6,234.09a2,2,0,0,0-.79,2.94.81.81,0,0,0,.65.3h0c.31,0,.48-.15.36-.34a1.59,1.59,0,0,1,.64-2.4,6.25,6.25,0,0,1,4.17-.37c.32.06.59,0,.58-.21h0c0-.16-.23-.32-.51-.37A7.6,7.6,0,0,0,104.6,234.09Z" style="fill:#455a64"></path><path d="M128.73,223.16a.43.43,0,0,1-.17-.06c-.05,0-.08-.07-.08-.11l-.06-1.4s0-.07,0-.1,0-.06.06-.08l.43-.25a.35.35,0,0,1,.16,0,.48.48,0,0,1,.18.06l4.7,2.71a.2.2,0,0,1,.09.1s0,.07-.05.1l-.44.25a.26.26,0,0,1-.16,0,.39.39,0,0,1-.18-.06l-3.59-2.07,0,.91a.09.09,0,0,1-.07.09.31.31,0,0,1-.17,0Z" style="fill:#455a64"></path><path d="M131.49,221.57a.29.29,0,0,1-.17-.07.14.14,0,0,1-.08-.1l-.06-1.41a.38.38,0,0,1,0-.1.09.09,0,0,1,.06-.08l.42-.24a.29.29,0,0,1,.17,0,.39.39,0,0,1,.18.06l4.69,2.71c.06,0,.09.06.1.1s0,.07-.05.1l-.44.25a.35.35,0,0,1-.16,0,.48.48,0,0,1-.18-.06l-3.59-2.07,0,.91a.09.09,0,0,1-.07.09.44.44,0,0,1-.17,0Z" style="fill:#455a64"></path><path d="M134.91,219.36a.26.26,0,0,1,.16,0,.35.35,0,0,1,.18,0l.71.41a.17.17,0,0,1,.1.11.08.08,0,0,1-.05.09l-.5.29a.23.23,0,0,1-.17,0,.53.53,0,0,1-.18,0l-.71-.42a.24.24,0,0,1-.1-.1.09.09,0,0,1,.05-.09Zm2.54,1.47a.27.27,0,0,1,.16,0,.41.41,0,0,1,.19.05l.71.41a.19.19,0,0,1,.09.11.07.07,0,0,1,0,.09l-.51.29a.26.26,0,0,1-.16,0,.48.48,0,0,1-.18-.06l-.72-.41a.17.17,0,0,1-.09-.1s0-.07,0-.1Z" style="fill:#455a64"></path><path d="M141.47,219.79a.26.26,0,0,1-.16,0,.35.35,0,0,1-.18-.05l-.88-.51-1.7,1a.26.26,0,0,1-.16,0,.37.37,0,0,1-.18-.05l-.51-.3a.49.49,0,0,1-.15-.12l-.08-.14-1.1-2.57c-.05-.11,0-.19,0-.23l.41-.24a.21.21,0,0,1,.16,0,.48.48,0,0,1,.18.05l2.91,1.68.47-.27a.27.27,0,0,1,.16,0,.35.35,0,0,1,.18.05l.52.3s.09.06.1.1,0,.07-.05.1l-.47.27.88.51s.09.06.1.1a.08.08,0,0,1-.05.09Zm-2.13-1.06-1.56-.9.62,1.44Z" style="fill:#455a64"></path><path d="M138.77,215.7a.17.17,0,0,1-.1-.11.08.08,0,0,1,.05-.09l2.05-1.18a.26.26,0,0,1,.16,0,.35.35,0,0,1,.18.06l.52.29a.19.19,0,0,1,.09.11.07.07,0,0,1,0,.09l-1.54.89.88.57a.57.57,0,0,1,.19-.22,1.76,1.76,0,0,1,.23-.15,2.08,2.08,0,0,1,.67-.26,2.87,2.87,0,0,1,.78-.08,3.41,3.41,0,0,1,.82.13,4,4,0,0,1,.83.35,2.8,2.8,0,0,1,.69.53,1,1,0,0,1,.24.49.62.62,0,0,1-.15.44,1.56,1.56,0,0,1-.45.38,2.76,2.76,0,0,1-.77.31,2.8,2.8,0,0,1-.76.07,2.85,2.85,0,0,1-.72-.11,3.14,3.14,0,0,1-.65-.25.17.17,0,0,1-.1-.11.09.09,0,0,1,0-.09l.45-.26a.26.26,0,0,1,.14,0l.19,0a1.14,1.14,0,0,0,.37.1,1.21,1.21,0,0,0,.33,0,1,1,0,0,0,.3-.07c.09,0,.17-.08.26-.12s.3-.26.27-.42-.16-.32-.42-.47a1.54,1.54,0,0,0-.74-.2,1.37,1.37,0,0,0-.73.15.93.93,0,0,0-.22.17.41.41,0,0,0-.08.14l0,.1a.18.18,0,0,1-.1.09l-.5.29a.2.2,0,0,1-.16,0,.35.35,0,0,1-.18-.05Z" style="fill:#455a64"></path><polygon points="82.08 254.02 80.57 253.15 82.08 252.27 83.6 253.15 82.08 254.02" style="fill:#455a64"></polygon><polygon points="84.36 252.71 81.33 250.96 82.84 250.08 85.87 251.83 84.36 252.71" style="fill:#455a64"></polygon><polygon points="86.63 251.4 82.09 248.77 83.6 247.9 88.15 250.52 86.63 251.4" style="fill:#455a64"></polygon><polygon points="88.9 250.08 82.84 246.58 84.36 245.71 90.42 249.21 88.9 250.08" style="fill:#455a64"></polygon><path d="M190.41,185.8a1.7,1.7,0,0,0-1,.07l-5.67,3.26c-.37.22-.15.68.5,1.05l2.76,1.59a3.64,3.64,0,0,0,1.25.44,3.28,3.28,0,0,0,.52,0,1.21,1.21,0,0,0,.48-.11l5.67-3.26c.36-.22.14-.68-.51-1l-2.75-1.59A3.8,3.8,0,0,0,190.41,185.8ZM188.13,192a1.59,1.59,0,0,1-.54-.21l-2.76-1.59c-.48-.28-.66-.64-.39-.8l5.68-3.26a.45.45,0,0,1,.24-.06h.17a1.67,1.67,0,0,1,.54.21l2.75,1.59c.48.27.66.64.39.8l-5.67,3.26A.6.6,0,0,1,188.13,192Z" style="fill:#455a64"></path><path d="M186,189l3.26,1.88-.9.51a.4.4,0,0,1-.34,0L185.6,190c-.35-.2-.49-.47-.3-.59Z" style="fill:#455a64"></path><polygon points="186.42 188.79 187.48 188.17 190.74 190.05 189.67 190.66 186.42 188.79" style="fill:#455a64"></polygon><polygon points="187.9 187.94 188.96 187.32 192.22 189.21 191.16 189.82 187.9 187.94" style="fill:#455a64"></polygon><path d="M190.65,186.6,193,188c.43.25.43.56,0,.81l-.35.21-3.26-1.88.84-.49A.58.58,0,0,1,190.65,186.6Z" style="fill:#455a64"></path><path d="M191.89,186.13c.15-.1.73.09,1.3.42l.51.3c.57.32.91.67.76.77l-.26.18-2.59-1.51Z" style="fill:#455a64"></path><polygon points="176.32 195.53 180.35 191.5 184 195.57 180.22 194.31 176.32 195.53" style="fill:#455a64"></polygon><path d="M308.58,368.55a6.92,6.92,0,0,1-3.37-.82l-3.45-2a2.49,2.49,0,0,1,0-4.64l77.11-44.65a7.4,7.4,0,0,1,6.76,0l3.44,2a2.49,2.49,0,0,1,0,4.64L312,367.73A7,7,0,0,1,308.58,368.55Zm73.67-51.63a5.6,5.6,0,0,0-2.74.64L302.4,362.21a1.58,1.58,0,0,0-.95,1.21c0,.42.35.86.95,1.21l3.45,2a6.12,6.12,0,0,0,5.47,0L388.43,322a1.58,1.58,0,0,0,.95-1.21c0-.42-.35-.86-.95-1.21l-3.44-2A5.63,5.63,0,0,0,382.25,316.92Z" style="fill:#e0e0e0"></path><path d="M395.33,316.7l-6.5-3.75c-.84-.49-.71-1.11,1.12-1.39l10.68-1.75c1.46-.29,2.21.12,1.63,1l-4.82,5.77A1.68,1.68,0,0,1,395.33,316.7Z" style="fill:#6165FA"></path><path d="M298.88,374.38l-4.24-2.45,4.24-2.44a.64.64,0,0,0-.64-1.11l-4.87,2.81-4.88-2.81a.64.64,0,0,0-.87.23.65.65,0,0,0,.23.88l4.24,2.44-4.24,2.45a.63.63,0,0,0-.23.87.65.65,0,0,0,.55.32.62.62,0,0,0,.32-.09l4.88-2.81,4.87,2.81a.62.62,0,0,0,.32.09.63.63,0,0,0,.55-.32A.63.63,0,0,0,298.88,374.38Z" style="fill:#e0e0e0"></path><path d="M96.14,261.37a.69.69,0,0,1-.5-.23.66.66,0,0,1-.12-.59l1.72-5.89a.65.65,0,0,1,.8-.43.63.63,0,0,1,.43.79L97,260l9.34-.86a.63.63,0,0,1,.7.57.64.64,0,0,1-.58.7l-10.28.95Z" style="fill:#455a64"></path><path d="M104.18,254.14a.81.81,0,0,1-.33-.12c-.08-.07-.13-.13-.13-.2l-.11-2.6a1.09,1.09,0,0,1,0-.18.2.2,0,0,1,.11-.15l.79-.46a.52.52,0,0,1,.3-.05.92.92,0,0,1,.33.11l8.7,5a.34.34,0,0,1,.17.19.14.14,0,0,1-.08.17l-.82.47a.47.47,0,0,1-.3.05.79.79,0,0,1-.34-.1l-6.64-3.84.06,1.69a.17.17,0,0,1-.13.16.8.8,0,0,1-.33,0Z" style="fill:#455a64"></path><path d="M208.73,198c-.41.09-2.43.48-2.77.58s-.58.17-.49.44a7.39,7.39,0,0,1,.2,1.12c0,.2-.12.3-.53.38a17.11,17.11,0,0,1-3.58.5,19.75,19.75,0,0,1-3.42-.21c-.43-.06-.43-.23-.43-.39s-.05-.34-.07-.52l0-.13a2,2,0,0,0-.15-.29.7.7,0,0,0-.5-.26l-2.89-.68c-.77-.19-.91,0-1.07.09l-.55.29a.7.7,0,0,0-.4.62c0,.31,0,1.1,1.32,1.88a6.26,6.26,0,0,0,1.08.46,14.25,14.25,0,0,0,2.88.52,27.12,27.12,0,0,0,8.83-.33c3.9-1,3.53-1.2,4-1.52s1-1.32.56-1.82a2.58,2.58,0,0,0-1.14-.85A4.15,4.15,0,0,0,208.73,198Z" style="fill:#455a64;fill-rule:evenodd"></path><ellipse cx="129.61" cy="241.4" rx="7.34" ry="4.24" style="fill:#6165FA"></ellipse><path d="M138.24,234.77a2.62,2.62,0,0,1-.85-.79,1.17,1.17,0,0,1-.18-.88,2,2,0,0,1,.54-.95,5.12,5.12,0,0,1,1.31-1,8,8,0,0,1,1.9-.83,6.9,6.9,0,0,1,1.59-.29,4.59,4.59,0,0,1,1.21.06,3.66,3.66,0,0,1,.75.22c.08.05.12.1.1.17a.26.26,0,0,1-.15.17l-.94.55a.65.65,0,0,1-.26.08.88.88,0,0,1-.23,0l-.3,0a2.45,2.45,0,0,0-.59,0,4.37,4.37,0,0,0-.83.17,4.64,4.64,0,0,0-1,.44c-.58.34-.91.68-1,1s.1.68.54,1l.79.49.85.46a3.15,3.15,0,0,0,1.78.38,4.69,4.69,0,0,0,2.49-1.1,1.33,1.33,0,0,0,.36-.51.62.62,0,0,0-.07-.51,1.72,1.72,0,0,0-.59-.51l-.08,0-1.42.82a.75.75,0,0,1-.31.08.49.49,0,0,1-.28-.06l-.72-.41a.17.17,0,0,1-.1-.17.28.28,0,0,1,.14-.17l2.68-1.55a.75.75,0,0,1,.31-.08.49.49,0,0,1,.28.06l1.11.64a2.7,2.7,0,0,1,.9.77,1.2,1.2,0,0,1,.21.89,2,2,0,0,1-.53,1,5.43,5.43,0,0,1-1.35,1,8.93,8.93,0,0,1-1.73.77,7.3,7.3,0,0,1-1.65.3,6.05,6.05,0,0,1-1.54-.13,5.12,5.12,0,0,1-1.36-.49l-.44-.24-.48-.27c-.17-.09-.32-.19-.47-.28Z" style="fill:#455a64"></path><path d="M149.64,228.67c-.47.27-.72.51-.75.73s.16.45.57.69l2.62,1.51a.16.16,0,0,1,.1.17.25.25,0,0,1-.14.17l-.89.51a.56.56,0,0,1-.3.08.49.49,0,0,1-.28-.05l-4.71-2.72a.16.16,0,0,1-.09-.16c0-.07,0-.13.14-.18l.88-.51a.61.61,0,0,1,.3-.08.45.45,0,0,1,.29.06l.23.13a1.38,1.38,0,0,1,.27-.59,2.92,2.92,0,0,1,.78-.6l.52-.3a.61.61,0,0,1,.3-.08.45.45,0,0,1,.29.06l.67.38a.16.16,0,0,1,.09.17c0,.06-.05.12-.14.17Z" style="fill:#455a64"></path><path d="M152.65,225.41a6.14,6.14,0,0,1,2.7-.81,5.68,5.68,0,0,1,1.31.06,3.56,3.56,0,0,1,1.13.35l.25.12.28.17.28.16.21.13a1.84,1.84,0,0,1,.6.66,1.09,1.09,0,0,1,.1.75,1.7,1.7,0,0,1-.42.79,4,4,0,0,1-1,.77,5.74,5.74,0,0,1-1.33.57,6.71,6.71,0,0,1-1.37.25,5.59,5.59,0,0,1-1.3-.06A4.34,4.34,0,0,1,153,229l-.24-.12-.29-.16-.27-.16-.22-.15a1.66,1.66,0,0,1-.6-.65,1.11,1.11,0,0,1-.1-.76,1.75,1.75,0,0,1,.42-.79A4,4,0,0,1,152.65,225.41Zm3.68.5a2.25,2.25,0,0,0-.69-.2,2.43,2.43,0,0,0-.66,0,2.93,2.93,0,0,0-.6.15,3.58,3.58,0,0,0-.52.25,4.19,4.19,0,0,0-.44.3,1,1,0,0,0-.26.35.5.5,0,0,0,0,.38.89.89,0,0,0,.35.4l.18.12.25.15.26.15.22.1a2.28,2.28,0,0,0,.69.21,2.91,2.91,0,0,0,.66,0,2.68,2.68,0,0,0,.59-.15,4.3,4.3,0,0,0,.53-.25,2.74,2.74,0,0,0,.43-.3.94.94,0,0,0,.26-.35.5.5,0,0,0,0-.38,1,1,0,0,0-.35-.4l-.19-.12-.26-.14-.25-.15Z" style="fill:#455a64"></path><path d="M156.94,223.37c-.08-.05-.11-.1-.1-.17A.25.25,0,0,1,157,223l.88-.51a.62.62,0,0,1,.31-.08.49.49,0,0,1,.28.05L161,224a2.77,2.77,0,0,0,1.26.39,2.35,2.35,0,0,0,1.34-.35c.41-.24.6-.49.58-.76s-.24-.51-.64-.74L161,221a.15.15,0,0,1-.09-.16c0-.07,0-.12.14-.17l.88-.52a1,1,0,0,1,.3-.08.62.62,0,0,1,.29.06l4.7,2.72c.08,0,.11.09.1.16a.21.21,0,0,1-.14.17l-.89.52a.66.66,0,0,1-.3.08.58.58,0,0,1-.28-.06l-.24-.13a1.47,1.47,0,0,1-.24.62,2.08,2.08,0,0,1-.77.66,4.76,4.76,0,0,1-1.37.57,4.29,4.29,0,0,1-1.26.13,4,4,0,0,1-1.15-.2,5.84,5.84,0,0,1-1-.45Z" style="fill:#455a64"></path><path d="M172.18,220.43a5.07,5.07,0,0,1-.71.34,5.24,5.24,0,0,1-.65.2,4.58,4.58,0,0,1-.57.1l-.44,0,2.15,1.24a.15.15,0,0,1,.1.16.24.24,0,0,1-.14.18l-.88.51a.75.75,0,0,1-.31.08.49.49,0,0,1-.28-.06l-6.63-3.82a.16.16,0,0,1-.09-.16c0-.07.05-.13.14-.18l.88-.51a.62.62,0,0,1,.31-.08.42.42,0,0,1,.28.06l.23.13a1,1,0,0,1,.05-.26,1.45,1.45,0,0,1,.17-.32,2,2,0,0,1,.35-.38,4,4,0,0,1,.59-.41,4.52,4.52,0,0,1,1.25-.49,5.56,5.56,0,0,1,1.33-.16,6,6,0,0,1,1.28.13,4.54,4.54,0,0,1,1.11.39l.36.2.35.21a2.29,2.29,0,0,1,.67.64,1.33,1.33,0,0,1,.24.74,1.46,1.46,0,0,1-.28.77A2.65,2.65,0,0,1,172.18,220.43Zm-1.36-2a2.82,2.82,0,0,0-.57-.32,2.69,2.69,0,0,0-1.41-.28,3,3,0,0,0-1.25.39,1.31,1.31,0,0,0-.67.73c-.06.26.06.51.39.74a3.71,3.71,0,0,0,.36.24,3,3,0,0,0,.41.2,2.46,2.46,0,0,0,1.27.22,2.9,2.9,0,0,0,1.27-.38,1.36,1.36,0,0,0,.68-.72C171.37,218.94,171.21,218.67,170.82,218.39Z" style="fill:#455a64"></path><path d="M174.35,213.21a.61.61,0,0,1,.3-.08.51.51,0,0,1,.29.05l1,.57c.07.05.11.1.1.17a.25.25,0,0,1-.14.17l-1.09.63a.56.56,0,0,1-.3.08.47.47,0,0,1-.28-.06l-1-.57a.15.15,0,0,1-.1-.16.24.24,0,0,1,.14-.18Zm3.54,2a.56.56,0,0,1,.3-.08.49.49,0,0,1,.28.05l1,.57c.08.05.11.1.1.17a.23.23,0,0,1-.14.17l-1.08.63a.75.75,0,0,1-.31.08.58.58,0,0,1-.28-.06l-1-.57a.16.16,0,0,1-.1-.16.27.27,0,0,1,.14-.18Z" style="fill:#455a64"></path><path d="M181.21,215.55a1,1,0,0,0,.49-.61.85.85,0,0,0-.21-.67,3.8,3.8,0,0,0-.84-.76,16.43,16.43,0,0,0-1.39-.89c-.55-.32-1.06-.58-1.53-.8a7.12,7.12,0,0,0-1.32-.48,4,4,0,0,0-1.16-.12,2.78,2.78,0,0,0-1.05.28.79.79,0,0,1-.31.08.49.49,0,0,1-.28-.05l-.67-.39a.18.18,0,0,1-.1-.16.26.26,0,0,1,.15-.18,5.62,5.62,0,0,1,1.77-.66,5.79,5.79,0,0,1,1.86,0,8.39,8.39,0,0,1,2,.55,17.47,17.47,0,0,1,2.17,1.08,13.54,13.54,0,0,1,1.86,1.25,3.24,3.24,0,0,1,1,1.15,1.18,1.18,0,0,1,0,1.08,2.88,2.88,0,0,1-1.15,1,.56.56,0,0,1-.3.08.49.49,0,0,1-.28-.05l-.67-.39a.16.16,0,0,1-.09-.16A.27.27,0,0,1,181.21,215.55Z" style="fill:#455a64"></path><path d="M230.21,207.11a15.32,15.32,0,0,0-13.89,0c-3.84,2.21-3.84,5.8,0,8a15.38,15.38,0,0,0,13.89,0C234.05,212.91,234.05,209.32,230.21,207.11Z" style="fill:#f5f5f5"></path><path d="M142.86,254.87c-1.64.94-1.64,2.47,0,3.42l17.23,9.95a6.59,6.59,0,0,0,5.93,0L220.3,236.9c1.64-1,1.64-2.48,0-3.43l-15.56-9,4.63-8Z" style="fill:#fafafa"></path><path d="M199.53,228.7l-48,27.71c-.82.47-1,1.15-.33,1.52a2.94,2.94,0,0,0,2.64-.19l48-27.7c.82-.47,1-1.15.32-1.52A3,3,0,0,0,199.53,228.7Z" style="fill:#e6e6e6"></path><path d="M204.17,231.39l-48,27.71c-.82.47-1,1.15-.32,1.52a3,3,0,0,0,2.63-.18l48-27.71c.82-.47,1-1.15.32-1.52A3,3,0,0,0,204.17,231.39Z" style="fill:#e6e6e6"></path><path d="M208.82,234.08l-48,27.71c-.82.47-1,1.15-.32,1.52a3,3,0,0,0,2.64-.18l48-27.71c.82-.47,1-1.15.33-1.52A3,3,0,0,0,208.82,234.08Z" style="fill:#e6e6e6"></path><path d="M215.36,314.11a15.4,15.4,0,0,0-13.9,0c-3.84,2.22-3.84,5.81,0,8a15.34,15.34,0,0,0,13.9,0C219.19,319.92,219.19,316.33,215.36,314.11Z" style="fill:#f5f5f5"></path><path d="M231.57,307.43l15.57,9a6.53,6.53,0,0,0,5.93,0l54.31-31.36c1.64-.94,1.64-2.47,0-3.42l-17.24-10a6.59,6.59,0,0,0-5.93,0L217.67,310.1Z" style="fill:#fafafa"></path><path d="M286.81,276.85l-48,27.71c-.82.47-1,1.15-.32,1.52a2.94,2.94,0,0,0,2.64-.19l48-27.7c.82-.47,1-1.16.32-1.53A3,3,0,0,0,286.81,276.85Z" style="fill:#e6e6e6"></path><path d="M291.45,279.54l-48,27.71c-.81.47-1,1.15-.32,1.52a2.94,2.94,0,0,0,2.64-.19l48-27.7c.82-.47,1-1.16.33-1.52A3,3,0,0,0,291.45,279.54Z" style="fill:#e6e6e6"></path><path d="M296.09,282.23l-48,27.71c-.82.47-1,1.15-.33,1.52a2.94,2.94,0,0,0,2.64-.19l48-27.7c.82-.47,1-1.16.32-1.52A3,3,0,0,0,296.09,282.23Z" style="fill:#e6e6e6"></path><path d="M348.19,274.94a15.4,15.4,0,0,0-13.9,0c-3.83,2.22-3.83,5.81,0,8a15.4,15.4,0,0,0,13.9,0C352,280.75,352,277.16,348.19,274.94Z" style="fill:#f5f5f5"></path><path d="M274.69,314.7c-1.63.95-1.63,2.48,0,3.42l12.69,7.27a6.59,6.59,0,0,0,5.93,0l40.42-23.34c1.64-.94,1.64-2.47,0-3.42l-11-6.3,4.64-8Z" style="fill:#fafafa"></path><path d="M315.81,295,281,315c-.82.48-1,1.16-.33,1.53a3,3,0,0,0,2.64-.19l34.8-20.09c.82-.47,1-1.15.32-1.52A2.94,2.94,0,0,0,315.81,295Z" style="fill:#e6e6e6"></path><path d="M320.46,297.65l-34.8,20.09c-.82.47-1,1.15-.32,1.52a3,3,0,0,0,2.64-.19L322.77,299c.82-.47,1-1.15.33-1.52A2.94,2.94,0,0,0,320.46,297.65Z" style="fill:#e6e6e6"></path><path d="M325.1,300.34l-34.8,20.09c-.81.47-1,1.15-.32,1.52a3,3,0,0,0,2.64-.19l34.8-20.09c.82-.47,1-1.15.32-1.52A2.94,2.94,0,0,0,325.1,300.34Z" style="fill:#e6e6e6"></path><path d="M376.45,291.53a15.4,15.4,0,0,0-13.9,0c-3.84,2.22-3.84,5.81,0,8a15.4,15.4,0,0,0,13.9,0C380.28,297.34,380.28,293.75,376.45,291.53Z" style="fill:#f5f5f5"></path><path d="M323.79,319.26c-1.63.94-1.63,2.48,0,3.42l6.27,3.59a6.57,6.57,0,0,0,5.92,0L355.56,315c1.64-.94,1.64-2.47,0-3.42L351,308.92l4.63-8Z" style="fill:#fafafa"></path><path d="M335.55,319.54a4.47,4.47,0,0,0-4,0,1.23,1.23,0,0,0,0,2.33,4.47,4.47,0,0,0,4,0A1.23,1.23,0,0,0,335.55,319.54Z" style="fill:#e6e6e6"></path><path d="M342.06,315.8a4.41,4.41,0,0,0-4,0,1.22,1.22,0,0,0,0,2.32,4.47,4.47,0,0,0,4,0A1.22,1.22,0,0,0,342.06,315.8Z" style="fill:#e6e6e6"></path><path d="M348.56,312.05a4.44,4.44,0,0,0-4,0,1.22,1.22,0,0,0,0,2.32,4.41,4.41,0,0,0,4,0A1.22,1.22,0,0,0,348.56,312.05Z" style="fill:#e6e6e6"></path><path d="M166.61,286a15.34,15.34,0,0,0-13.9,0c-3.83,2.21-3.83,5.81,0,8a15.32,15.32,0,0,0,13.89,0C170.45,291.78,170.45,288.18,166.61,286Z" style="fill:#f5f5f5"></path><path d="M182.82,279.28l6.3,3.64a6.53,6.53,0,0,0,5.93,0l26.49-15.3c1.64-.94,1.64-2.47,0-3.42l-8-4.6a6.57,6.57,0,0,0-5.92,0L168.93,282Z" style="fill:#fafafa"></path><path d="M209.54,262.42l-23.22,13.41c-.82.47-1,1.15-.32,1.52a2.94,2.94,0,0,0,2.64-.19l23.21-13.4c.82-.47,1-1.16.33-1.52A3,3,0,0,0,209.54,262.42Z" style="fill:#e6e6e6"></path><path d="M214.18,265.11,191,278.52c-.82.47-1,1.15-.33,1.52a2.94,2.94,0,0,0,2.64-.19l23.22-13.4c.82-.47,1-1.16.32-1.52A3,3,0,0,0,214.18,265.11Z" style="fill:#e6e6e6"></path><path d="M191,300a15.32,15.32,0,0,0-13.89,0c-3.84,2.22-3.84,5.81,0,8a15.32,15.32,0,0,0,13.89,0C194.82,305.85,194.82,302.26,191,300Z" style="fill:#f5f5f5"></path><path d="M207.19,293.36l6.3,3.63a6.53,6.53,0,0,0,5.93,0l26.49-15.3c1.64-.94,1.64-2.47,0-3.42l-8-4.6a6.57,6.57,0,0,0-5.92,0L193.3,296Z" style="fill:#fafafa"></path><path d="M233.91,276.49,210.69,289.9c-.81.47-1,1.15-.32,1.52a3,3,0,0,0,2.64-.18l23.22-13.41c.81-.47,1-1.15.32-1.52A3,3,0,0,0,233.91,276.49Z" style="fill:#e6e6e6"></path><path d="M238.55,279.18l-23.21,13.41c-.82.47-1,1.15-.33,1.52a3,3,0,0,0,2.64-.18l23.22-13.41c.82-.47,1-1.15.32-1.52A3,3,0,0,0,238.55,279.18Z" style="fill:#e6e6e6"></path></g></g><g id="freepik--character-4--inject-3"><ellipse id="freepik--shadow--inject-3" cx="347.64" cy="295.94" rx="31.34" ry="18.09" style="opacity:0.1"></ellipse><g id="freepik--Character--inject-3"><polygon points="353.23 158.99 354.27 168.79 363.48 168.64 362.46 157.54 353.23 158.99" style="fill:#f28f8f"></polygon><path d="M346.25,147.45s-2.49,4-2.19,4.35,2.21.68,2.21.68Z" style="fill:#b16668"></path><path d="M352.34,137.78c-4.63,1.08-5.93,3.16-6.2,10.56-.28,7.74.56,10.15,1.6,11.16.7.69,4.51.73,6.42.16,2.39-.72,7.78-2.76,10.23-6.71,2.89-4.64,3.54-10.85.28-13.32C360.08,136.15,354.23,137.33,352.34,137.78Z" style="fill:#f28f8f"></path><path d="M345.77,140.93a4,4,0,0,0,2.86.89c-.2,0-.13.86-.11,1a1.74,1.74,0,0,0,.56.91,1.77,1.77,0,0,0,2.09.36c-.63.52-.15,2.09.07,2.74s.37,1.57,1.22,1.92c0,0,.68-2.88,3.09-2.57s2.83,3.39,1.34,5.3-2.92,1.22-2.92,1.22.17,4.08,2,6.35a16.65,16.65,0,0,0,6.57-.31c1.49-1.67,3.14-3.72,5.31-6.66,4.25-5.74,3.66-12.39-.54-14.05a18.18,18.18,0,0,0-.13-2.63,3.85,3.85,0,0,0-1.35-2.1,9,9,0,0,0-5.12-1.76c-2.12-.13-4.24.18-6.36.16a21,21,0,0,1-6.81-1.17c-.94-.33-2.08-.68-2.82,0a2.16,2.16,0,0,0-.48,1.93,5.57,5.57,0,0,0,2.12,3.59,2,2,0,0,1-1.38-.36,1,1,0,0,0-1.62,1.19A6.9,6.9,0,0,0,345.77,140.93Z" style="fill:#263238"></path><path d="M367.44,139l2.74-1.7a1.61,1.61,0,1,0-2.74,1.7Z" style="fill:#263238"></path><path d="M329,304.51c-.2.07-.24,1.25,0,1.63A6.1,6.1,0,0,0,333,308.5c2.61.52,6.22,0,7.76-.09a73.94,73.94,0,0,1,8,.71c2.43.33,4.3-.2,5.2-1.08a1.61,1.61,0,0,0,.37-1.29c0-1-.14-1.23-.26-1.22Z" style="fill:#263238"></path><path d="M353.66,302.48c0,.2.09.4.13.61a10.14,10.14,0,0,1,.22,3.15,2.84,2.84,0,0,1-1.86,1.41,9.65,9.65,0,0,1-5.26.11,36.93,36.93,0,0,0-6.16-.38,38.85,38.85,0,0,1-5.39.27,13,13,0,0,1-4-.81c-1.07-.46-2.16-1-2.42-2.14a3.6,3.6,0,0,1,2-3.6,8.12,8.12,0,0,1,4-.87c1.51,0,2.65.2,4,.1a19.12,19.12,0,0,0,3.44-.48c1-.32,2.51-1.3,2.94-1.35,0,0,6.32-.16,7-.1s.87,1.64,1,2.14.09.81.19,1.18S353.6,302.23,353.66,302.48Z" style="fill:#37474f"></path><path d="M341.27,300.09a4.59,4.59,0,0,0-1.64,2.84c0,.77-1.32.84-1.36.07a6.53,6.53,0,0,1,1.19-2.72A3.33,3.33,0,0,1,341.27,300.09Z" style="fill:#fafafa"></path><path d="M338.25,300.36a4.81,4.81,0,0,0-1.46,2.61c0,.57-1.21.52-1.19-.05a3.67,3.67,0,0,1,1.46-2.6C337.44,300.06,338.12,300.13,338.25,300.36Z" style="fill:#fafafa"></path><path d="M358.31,284.11c-.2,2.16-.26,2.74.28,4.16a8.68,8.68,0,0,0,3,3.77,15.67,15.67,0,0,1,2.69,3.13,13.49,13.49,0,0,0,2.8,3.36c.87.72,3.27.74,4.42.23s1.53-.95,1.43-2.8-5.74-2.37-5.74-2.37Z" style="fill:#263238"></path><path d="M372.12,290.45c.48.17.62,1.08.73,2.89.08,1.37.7,3.37-1.17,4.27a4.61,4.61,0,0,1-5-1c-1.32-1.58-2.22-3-4.09-4.92-1.63-1.68-3.3-2.22-4.07-5.63-.5-2.18-.16-3.1,1.3-3.76,2-.91,5.27,1.86,6.87,2.27C368.05,285,371.64,290.28,372.12,290.45Z" style="fill:#37474f"></path><path d="M366.67,284.61l-.27-.08a5.25,5.25,0,0,0-4.35,3c-.25.6.59,1.05,1.08.58a5.59,5.59,0,0,1,4.34-3A2.47,2.47,0,0,0,366.67,284.61Z" style="fill:#fafafa"></path><path d="M368,285.62a5.23,5.23,0,0,0-4,2.94c-.26.61.59,1.06,1.08.58a5.31,5.31,0,0,1,3.61-2.81C368.44,286.08,368.22,285.84,368,285.62Z" style="fill:#fafafa"></path><path d="M374.72,255.6l-11.38,1.47s.3,7,1,14.66c.58,6.38,1.29,15.46,1.65,18.36a7.08,7.08,0,0,0,.12.91c.19,1.71,6,2.23,6,.25l.11-2.31C372.71,282.05,375.29,265.91,374.72,255.6Z" style="fill:#f28f8f"></path><path d="M354,257.75l-9.46,1.32.78,38.68,0,.68c.06,1.72,1,2.29,3.37,2.38,2.88.11,4-1.14,4-2.08,0-.09,0-.19,0-.29,1-9,2.54-23.85,2.75-28.75A38,38,0,0,0,354,257.75Z" style="fill:#f28f8f"></path><path d="M383.89,194.94c-2-23.82-6.41-32.48-16.35-31.72l3.16,13.43s4.69,15.89,5,21.33c.26,4.77.46,10.76-.24,14.72a2.93,2.93,0,0,1-1.07,1.77,16.63,16.63,0,0,0-3.11,3.7c-.84,1.1-1.62,1.43-1.46,1.74a1.57,1.57,0,0,0,2.08.48A10.4,10.4,0,0,0,374,218.9a14.54,14.54,0,0,1-1.89,4.28c-1.95,3-1.86,4.73,2.7,4.26,2.86-.29,5.3-2.25,6.75-8.79.42-1.88,1.08-4.61,1.58-7.52A58.57,58.57,0,0,0,383.89,194.94Z" style="fill:#f28f8f"></path><path d="M367.6,163.09c4.12-.11,7.61.6,10.94,5.88s5.37,21.15,5.53,24.95.14,6.27.14,6.27l-8.39.66a54.15,54.15,0,0,0-.95-6.57c-.55-2-2.89-14-5.53-19.8Z" style="fill:#6165FA"></path><g style="opacity:0.35000000000000003"><path d="M367.6,163.09c4.12-.11,7.61.6,10.94,5.88s5.37,21.15,5.53,24.95.14,6.27.14,6.27l-8.39.66a54.15,54.15,0,0,0-.95-6.57c-.55-2-2.89-14-5.53-19.8Z"></path></g><path d="M375.82,200.85a9.9,9.9,0,0,1,3.8-1.06,13,13,0,0,1,4.59.4s0,2.57-.23,4.66c0,0-2.88-1.53-8.06,0Z" style="fill:#455a64"></path><path d="M375.13,256.69c-.28-6.61-1-6.75-2-11.92.53-6.3,1-11.6,1.26-18.42.24-7.38.06-15.87-.47-24.06-8.06-.54-27.84-7.23-30.37,5.45-.74,10.24.29,30.51.4,44.46s.51,30.06,1,45.41c2.32.85,6.21,1.39,8.47-.13,1.59-10.47,3-24,3.61-29.78.8-7.1,0-9.95,0-13.18.39-5.57,2.4-24.44,2.4-24.44s.65,7.17,1.1,13.81,1.24,10.46,1.94,18.06c.65,7,1.88,19.08,2.56,27.19,1.91.9,5,1.68,7.62.2C373,281.36,375.4,263.29,375.13,256.69Z" style="fill:#37474f"></path><g style="opacity:0.2"><path d="M360.43,220.74c3.34-.29,4.77-1.54,7.13-4.17a7.73,7.73,0,0,1-5.55,5.75c-.06.39-1.39,8.12-1.39,8.12l-.2,11.62-1-12Z"></path></g><path d="M343.6,210.49a30,30,0,0,0,11.61,1l-.62-12.78-11,1.65Z" style="fill:#455a64"></path><path d="M373.36,167.67c-.9-2.74-3.41-5.13-6.9-4.49-6.4,1.19-12.45,1.87-16.24,3.22-.33.12-2.75.75-3.09.91-2.85,1.37-3.47,4-3.71,13.35,0,0-.83,25.1-.7,32.38a25,25,0,0,0,3.53,1.13l1.33-8.62,1.67,9.15c5.29.79,11.52.87,14.52.21,9.59-2.09,10.86-5.1,10.86-5.1s-.49-9.77-1-18.78c0,0,1.68-10.54,1.58-13.15C374.94,171.42,374,169.56,373.36,167.67Z" style="fill:#6165FA"></path><g style="opacity:0.2"><path d="M373.36,167.67c-.9-2.74-3.41-5.13-6.9-4.49-6.4,1.19-12.45,1.87-16.24,3.22-.33.12-2.75.75-3.09.91-2.85,1.37-3.47,4-3.71,13.35,0,0-.83,25.1-.7,32.38a25,25,0,0,0,3.53,1.13l1.33-8.62,1.67,9.15c5.29.79,11.52.87,14.52.21,9.59-2.09,10.86-5.1,10.86-5.1s-.49-9.77-1-18.78c0,0,1.68-10.54,1.58-13.15C374.94,171.42,374,169.56,373.36,167.67Z"></path></g><path d="M353.67,163.08l0,.43a12.09,12.09,0,0,0,5.73.33c2.89-.64,3.42-1.94,3.42-1.94l-.06-.69s.6-.2,1.2.83a22.66,22.66,0,0,0,1.88,2.55s-.65,3.64-5.24,4.2c-7.59.93-10.26-2.43-10.26-2.43C351.56,164.87,352.89,163,353.67,163.08Z" style="fill:#6165FA"></path><g style="opacity:0.35000000000000003"><path d="M353.67,163.08l0,.43a12.09,12.09,0,0,0,5.73.33c2.89-.64,3.42-1.94,3.42-1.94l-.06-.69s.6-.2,1.2.83a22.66,22.66,0,0,0,1.88,2.55s-.65,3.64-5.24,4.2c-7.59.93-10.26-2.43-10.26-2.43C351.56,164.87,352.89,163,353.67,163.08Z"></path></g><path d="M307.45,186.09c1.57.7,20.11,14.4,23,12.81s17.07-19.09,17.07-19.09c4.31-7.14.65-12.83.65-12.83a10.08,10.08,0,0,0-8.46,4.42c-2.64,3.66-12.14,16.28-12.14,16.28-3.34-1-11.85-5.59-14-6.8a7.74,7.74,0,0,1-1.67-1c-1.05-1-1.18-3.07-1.16-4.43a17.33,17.33,0,0,1,.1-1.91c.09-.78.23-2.69-1.17-2.08a1.72,1.72,0,0,0-.67.56,3.14,3.14,0,0,0-.5,1c-.26.82-.18,1.72-.42,2.55a.78.78,0,0,1-.17.34.6.6,0,0,1-.45.13c-2-.06-4-2.92-4.91-4.44a4.19,4.19,0,0,0-1.55-1.77c-1.12-.52-2.46.23-3.18,1.23a6.47,6.47,0,0,0-1,4.5,9,9,0,0,0,2.67,5.65A27.61,27.61,0,0,0,307.45,186.09Z" style="fill:#f28f8f"></path><path d="M348.78,166.81c-3.18-.28-5.6-1.23-9.94,4.67s-11.37,16-11.37,16l-3.28-1.14s-3.92,3.32-4.07,8.08c0,0,4,2.92,6,4s4.11,2,5.84.47,16.5-19.12,16.5-19.12A12.51,12.51,0,0,0,348.78,166.81Z" style="fill:#6165FA"></path><g style="opacity:0.35000000000000003"><path d="M348.78,166.81c-3.18-.28-5.6-1.23-9.94,4.67s-11.37,16-11.37,16l-3.28-1.14s-3.92,3.32-4.07,8.08c0,0,4,2.92,6,4s4.11,2,5.84.47,16.5-19.12,16.5-19.12A12.51,12.51,0,0,0,348.78,166.81Z"></path></g><path d="M324.19,186.32l-3.89-1.88a12.37,12.37,0,0,0-4.36,7.28l4.18,2.68A14.66,14.66,0,0,1,324.19,186.32Z" style="fill:#455a64"></path><g style="opacity:0.1"><path d="M327.47,187.46a12.86,12.86,0,0,0-1.59,4.28,11.76,11.76,0,0,1,.8-4.56"></path></g><path d="M347.74,159.5c.61.6,3.57.71,5.59.35l-.1-1.23A8.24,8.24,0,0,1,347.74,159.5Z" style="fill:#b16668"></path></g></g><g id="freepik--character-3--inject-3"><ellipse id="freepik--shadow--inject-3" cx="271.26" cy="337.89" rx="32.77" ry="18.92" style="opacity:0.1"></ellipse><g id="freepik--character--inject-3"><path d="M281.77,205.54c5.41-.61,7.48,1,9.5,5.46,1.93,4.28,7.81,17.18,7.51,20.19S286.18,247,286.18,247l-3.51-4.27,7.61-12.79-6-12.91Z" style="fill:#b16668"></path><g id="freepik--character--inject-3"><polygon points="270.89 201.3 271.91 211.92 281.4 211.33 280.64 199.56 270.89 201.3" style="fill:#b16668"></polygon><path d="M258.74,180.88a4.72,4.72,0,0,1,0-1.5,4.52,4.52,0,0,1,6-3.45,4.45,4.45,0,0,1,2.52-4.86,5.63,5.63,0,0,1,4.37.17,3.44,3.44,0,0,1,1.9,1.63,4.78,4.78,0,0,1,8.72,1.18c1.45-.32,3.49.32,4.13,1.75.74,1.64-.16,3.66.18,5.37.21,1.1.69,2.15.89,3.27a26.71,26.71,0,0,1,.36,3.79c.2,5.24-12,8.65-11.73,12.24l-6.48-7.89c0-.33-.92-1.15-1.13-1.42-.38-.52-.73-1.08-1.09-1.63a10.17,10.17,0,0,0-4.47-3.57,8.23,8.23,0,0,1-3.19-2.62A5.67,5.67,0,0,1,258.74,180.88Z" style="fill:#263238"></path><path d="M263.85,189.65s-2.1,3.12-1.83,3.45a5.19,5.19,0,0,0,1.61.69Z" style="fill:#9a4a4d"></path><path d="M270.27,179.76c-2,1-5.57,3-6.48,10.35-.93,7.59.79,10.23,1.84,11.23.71.67,4.38.91,6.3.33,2.39-.73,7.58-3.25,10-7.17,2.86-4.61,3.45-10.76.15-13.17A12.52,12.52,0,0,0,270.27,179.76Z" style="fill:#b16668"></path><path d="M265.83,201.47a10.9,10.9,0,0,0,5.12.41l-.06-1.37a13.32,13.32,0,0,1-2.42.79A8.59,8.59,0,0,1,265.83,201.47Z" style="fill:#9a4a4d"></path><path d="M269.38,179.53A8,8,0,0,0,267,180.9a3.26,3.26,0,0,0-.84,1.08,2.42,2.42,0,0,0-.17,1.22,3.23,3.23,0,0,0,1.91,2.64,3.21,3.21,0,0,0-.52,2.65,6.32,6.32,0,0,0,1.87,2.69.45.45,0,0,0,.16.12.47.47,0,0,0,.34-.1c1.28-.86,2.07-2.34,3.89-1.75,2.38.78,2.26,3.72.39,5.55a4,4,0,0,1-2.48,1.18,1.94,1.94,0,0,1-1.31-.46s.06,3.83,3.39,5.35a13.22,13.22,0,0,0,7.12.08c1.25-1.59,3.36-3.63,5.09-5.46,5.72-6,6-14.72-2.38-17.48l-.88-.26a17.83,17.83,0,0,0-8.28-.18,18.19,18.19,0,0,0-3.95,1.33C270,179.26,269.7,179.39,269.38,179.53Z" style="fill:#263238"></path><path d="M269.11,193.86A1.75,1.75,0,0,1,268,191.6a1.8,1.8,0,0,1,2.3-1.06Z" style="fill:#263238"></path><path d="M270.05,339.51s.55,1.69.86,3.17c.23,1.18.58,3.15.16,4s-2,1.46-4.51,1.44c-1.61,0-4.12,1.08-5.85,2a15.46,15.46,0,0,1-7.35,1.17c-2.22-.26-4.52-1.55-4.88-2.46s-.66-2.18,5.35-4.1c0,0,7.26-2.37,9.79-5.16Z" style="fill:#263238"></path><path d="M270.05,339.68l-1.15-.15-5.28.11c-2.53,2.79-9.74,5.14-9.79,5.16-.35.11-.66.21-1,.32-1.05.84-.16,2.27,2.31,2.49s10.2-2.37,11.9-3.2A5.09,5.09,0,0,0,270.05,339.68Z" style="fill:#b16668"></path><path d="M270.05,337.41s0,1.44,0,2.27-1,2.05-3.49,2c-1.78-.06-3-.54-2.94-2v-2.1Z" style="fill:#b16668"></path><path d="M287,330c.45.19.55,1.06.57,2.8,0,1.32.24,3.62-1.32,4s-3.8.12-4.75-1.15c-1.19-1.58-2-3-3.69-4.89-1.48-1.68-3.09-3.26-3.65-5.57-.5-2.09,0-3,1.42-3.54s2.73-.1,4.71,1.55a8.74,8.74,0,0,0,1.76.93C283.34,324.6,286.54,329.83,287,330Z" style="fill:#263238"></path><path d="M287,328.41l0,2.14s-1.43,2.79-5.4,0c-.09-.21-.44-4.34-.44-4.34Z" style="fill:#b16668"></path><path d="M282,324.19a8.74,8.74,0,0,1-1.76-.93h0c-1.6-.51-5,.08-3.45,2.41a18.12,18.12,0,0,0,4.75,4.88c1.8.88,2.43-.22,2.43-.22l-.64-5A4,4,0,0,0,282,324.19Z" style="fill:#b16668"></path><path d="M289.93,298.9a50.65,50.65,0,0,0-2.31-11s1.35-9.41,2.4-18.45c2.49-21.21.83-21.56-2.17-28.93,0,0-27.19-3.5-28.33,7.81-1.41,14.09-.77,41.39-.53,46.39s.64,7.25,2.12,17.72c1.13,8,2.2,25.37,2.2,25.37a6.86,6.86,0,0,0,7-.35s3.4-21.42,3.33-27.18a49.11,49.11,0,0,0-1.85-12.61s2.31-22.95,2.91-26.6c0,0,.65,7.32.89,12.31s1.59,9.8,2.78,19.1c1,8.07,2.76,24.91,2.76,24.91,3.56,2.05,6.05,1.12,6.05,1.12S290.72,305.89,289.93,298.9Z" style="fill:#6165FA"></path><g style="opacity:0.4"><path d="M289.93,298.9a50.65,50.65,0,0,0-2.31-11s1.35-9.41,2.4-18.45c2.49-21.21.83-21.56-2.17-28.93,0,0-27.19-3.5-28.33,7.81-1.41,14.09-.77,41.39-.53,46.39s.64,7.25,2.12,17.72c1.13,8,2.2,25.37,2.2,25.37a6.86,6.86,0,0,0,7-.35s3.4-21.42,3.33-27.18a49.11,49.11,0,0,0-1.85-12.61s2.31-22.95,2.91-26.6c0,0,.65,7.32.89,12.31s1.59,9.8,2.78,19.1c1,8.07,2.76,24.91,2.76,24.91,3.56,2.05,6.05,1.12,6.05,1.12S290.72,305.89,289.93,298.9Z"></path></g><g style="opacity:0.15"><path d="M274.7,271l1.3-9.92a17.07,17.07,0,0,0,10.56-3.68s-1.78,3.63-9,5.21l-1.4,10.21-.52,11.24Q275.28,277.5,274.7,271Z"></path></g><path d="M288.74,209.93c-.93-2.74-2.81-4.35-7-4.39l-.74,0c-.29,1.53-5.17,2.92-9.6,1.35-.61.12-2.72.35-3.69.48l-2.11.31c-3.22,1.06-4.65,6.65-5,15.52S259,251.05,259,251.05s6.93,3.71,17.86,2.28c9.78-1.29,14.12-7.05,13.79-6.31a95.88,95.88,0,0,0-5.59-14.24C290.25,220.13,290.11,214,288.74,209.93Z" style="fill:#455a64"></path><path d="M271.48,253.65a38.73,38.73,0,0,0,5.42-.32A23.82,23.82,0,0,0,290.68,247a92.8,92.8,0,0,0-5.58-14.19c2.6-6.39,3.85-11.12,4.28-14.76C289,220.67,285,231,279.9,234a9.13,9.13,0,0,1,5.37,3.86C287.74,241.28,285.71,252.92,271.48,253.65Z" style="fill:#37474f"></path><path d="M267.74,207.39c-4.26.54-7.64,1.43-9.5,5.5-3.16,6.9-6.57,12.56-9.06,15.22-2.65,2.84-13.53,7.85-16,7.45s-4.9-3.22-6.16-2.49,1.07,3.46.92,4.08-4.6.29-6.7-1.2-2.88,1.58-.16,4.77,7.83,3.44,13.37,2.32,16-4,20.28-7.54c5.16-4.25,6.92-7.47,9.11-11.28C271.81,216,267.74,207.39,267.74,207.39Z" style="fill:#b16668"></path></g></g></g><g id="freepik--character-2--inject-3"><ellipse id="freepik--shadow--inject-3" cx="224.31" cy="230.38" rx="30.67" ry="17.7" style="opacity:0.1"></ellipse><g id="freepik--character--inject-3"><path d="M227.44,95.29c4.62-.1,5.55.91,8.73,7.28,2.56,5.13,5.65,11.19,7.63,13.47,4.35.62,13.29,1.29,16.7.74a2.59,2.59,0,0,0,1.59-.9,14.92,14.92,0,0,1,3.32-2.61c1-.7,1.3-1.36,1.57-1.23a1.32,1.32,0,0,1,.4,1.78,9.77,9.77,0,0,1-1.36,1.82,24,24,0,0,0,4.61-1.28c2.92-1.21,4.49-.42,3.56,3.38-.53,2.16-2.39,3.78-8.21,4.93a35.33,35.33,0,0,1-5.38.7s-14.58,0-19.06,0h-.33v0a6,6,0,0,1-3.52-2c-6.45-7.49-9.59-14.1-12.4-18.94Z" style="fill:#ffbda7"></path><path d="M227.44,95.29c3.56-.23,5.36.1,6.51,2,2.7,4.58,8.59,17.54,10,18.3,1.11.6,15.92,1.25,15.92,1.25-.73.77-1.05,5.11.33,6.5,0,0-15.76.75-18.77.63-1.61-.06-2.94-1.1-4.34-2.75s-9.22-11.1-9.22-11.1Z" style="fill:#6165FA"></path><g id="freepik--character--inject-3"><path d="M211.72,124c-1.16,1.61-5,4.53-6.82,11.53-3,11.67,1.09,37.78,1.09,37.78-.16,1.69-.35,4.31-1.14,11.77-.94,8.81,2.05,32.12,2.05,32.12a6.33,6.33,0,0,0,6.11.34s4.3-33.75,5.49-42.51c1-7.64,2.61-24.6,2.61-24.6l4.2,23.55s-.66,4.29-1,7.55c-.55,5.15,4.23,31.09,4.23,31.09a7.1,7.1,0,0,0,5.69-.06s1.71-33,2.23-39.22c.54-6.39-.15-21.73-1.27-33.6-.33-3.58-1.44-13.06-2.05-16.13Z" style="fill:#37474f"></path><path d="M235.62,215.12c.21,1.31,1.44,3.92,5.76,7.1.79.58,2.16,1.62,2.8,2,2.82,1.86,4.14,2.51,3.28,3.88s-2.79,1.78-5.27,1.77a11.36,11.36,0,0,1-6.57-2.65,13.08,13.08,0,0,0-4.72-2.86c-1.76-.46-3.84-1.54-4-2.49a10.3,10.3,0,0,1,.17-3.67,13.68,13.68,0,0,0,.42-2.72c0-1.08-.15-3.47-.4-5.76s-.87-4.9,0-5.12l.16,1s.75.85,3.45.72a8.6,8.6,0,0,0,3.85-.84l.05-.82s.74-.15.7.69S235.41,213.81,235.62,215.12Z" style="fill:#263238"></path><path d="M213.55,219.74c-.06,1.31,0,2,0,4a46.73,46.73,0,0,0,.63,7.44c.42,3,.57,4.62-.86,7.58s-5,1.14-6.23-.6-1.77-2.91-1.65-6c.11-2.7.73-3.87.82-7.16.09-3.08.32-4.33.29-5.43s-.45-5.13-.55-6,.36-1.16.36-1.16l.11.94s.58,1.05,3.38,1,3.72-.88,3.72-.88l.12-.93s.49.24.38,1.08S213.62,218.43,213.55,219.74Z" style="fill:#263238"></path><path d="M221.11,150.47l1.12-7.23a18,18,0,0,0,8.54-2.68,10.86,10.86,0,0,1-7.17,3.93l-.72,6.47,1.92,20.22Z" style="fill:#263238"></path><path d="M232.81,114.76c-.13,2.12.33,8.89.33,8.89-8.74,5.8-21.42.39-21.42.39l-2.67-11.73s-2-10.39,3-16.22l4.93-.34,8.1-.59,2.4.13c2.64,2,6.35,7.29,7.19,9.48S236.71,110.25,232.81,114.76Z" style="fill:#455a64"></path></g><path d="M225,92.31h0c-5.51,0-15.25-5.71-15.17-14.66h0c.07-7.13,5-12.77,12.12-12.7h1.5a13.85,13.85,0,0,1,7.95,2.37c6.46-.5,10.37,8.68,2.69,11.84C229.59,82.4,225.13,81.84,225,92.31Z" style="fill:#263238"></path><path d="M212.84,69.78a3.3,3.3,0,0,0-2.78-.61,6.67,6.67,0,0,0-3.38,1.45,11.44,11.44,0,0,0-3.93,6.73,66.35,66.35,0,0,0-.7,7.33,15.24,15.24,0,0,1-2,7c-.37.57-.82,1.28-.48,1.88a1.54,1.54,0,0,0,.85.59,6.41,6.41,0,0,0,5.67-.72,6.54,6.54,0,0,0,3-5.17,15.18,15.18,0,0,0-.15-3.73c-.27-2.91-.66-6,0-8.91.32-1.42,1.06-3,2.72-3.06Z" style="fill:#263238"></path><path d="M214,66.11l-1.14,3.3a1.7,1.7,0,0,1-1.14-2.18A1.84,1.84,0,0,1,214,66.11Z" style="fill:#263238"></path><path d="M210.91,66.54l1.93,2.91a1.7,1.7,0,0,1-2.42-.42A1.84,1.84,0,0,1,210.91,66.54Z" style="fill:#263238"></path><path d="M231.27,71.17c1.44.86,3.19,4.51,2.94,12.11-.21,6.45-2.31,8-3.37,8.47s-3.07.15-5-.2l0,3.87s2.69,3.18,2.5,5-3.94,2.15-6.47.4a16.55,16.55,0,0,1-4.14-4.41l.1-10s-1.09,1.13-3-.19a3.52,3.52,0,0,1-.86-5.11,2.61,2.61,0,0,1,4,.51,19.46,19.46,0,0,0,6.84-2.47A13.43,13.43,0,0,0,231.27,71.17Z" style="fill:#ffbda7"></path><path d="M226.31,81.59a.83.83,0,0,1-.78.87.84.84,0,0,1-.07-1.68A.83.83,0,0,1,226.31,81.59Z" style="fill:#263238"></path><path d="M226.62,86.54l2.44.8a1.26,1.26,0,0,1-1.6.87A1.35,1.35,0,0,1,226.62,86.54Z" style="fill:#f0997a"></path><path d="M233.52,79.17,231.89,78a1,1,0,0,1,1.36-.26A1.05,1.05,0,0,1,233.52,79.17Z" style="fill:#263238"></path><path d="M233.12,81.07a.83.83,0,0,1-.78.87.85.85,0,1,1,.78-.87Z" style="fill:#263238"></path><polygon points="228.62 80.56 228.71 85.44 231.28 84.67 228.62 80.56" style="fill:#f0997a"></polygon><path d="M225.81,91.55c-2.08-.29-6.33-1.55-7-3.24a4.33,4.33,0,0,0,1.48,2.16c1.26,1.1,5.48,2.37,5.48,2.37Z" style="fill:#f0997a"></path><path d="M193.11,123.47c1.39-5.22,7.19-16.62,8.85-20.81,1.89-4.78,5.08-6.45,8.51-6.46,1.25,1.64,1.7,9.82-2.23,14.47-1.69,3.47-6.74,13.18-6.74,13.18.12.94,3.47,13.12,4.92,16.33a2.57,2.57,0,0,0,1.3,1.26,26.17,26.17,0,0,1,4.52,3.34c.95.75,1.68.87,1.61,1.16a1.38,1.38,0,0,1-1.66.86,22.32,22.32,0,0,1-3-1.25,37.48,37.48,0,0,0,3,4.18c2,2.39,2,4.43-2.06,4.46-3,0-4.62-1.71-7.27-6.94-.76-1.5-1.92-3.73-2.83-5.67-2.3-4.89-3.43-7-4.68-10.08C193.34,126.57,192.58,125.49,193.11,123.47Z" style="fill:#ffbda7"></path><path d="M201.92,123.9l6.77-12.82a23.14,23.14,0,0,0,3.32-15c-3.8-.08-6.61.24-8.83,3.44s-9.44,20.91-10.21,23.09-.62,2.67.12,4.6c1.63,3.94,7.15,14.86,7.15,14.86.35-2.38,3.52-4.4,5.33-4.14Z" style="fill:#6165FA"></path></g></g><g id="freepik--character-1--inject-3"><ellipse id="freepik--shadow--inject-3" cx="147.77" cy="270.95" rx="31.79" ry="18.36" style="opacity:0.1"></ellipse><g id="freepik--character--inject-3"><path d="M180.66,127.82c-1-7.81-6.16-7.48-7.5-7.3-1.53.22-2.23,1.31-1.26,5.49a14.52,14.52,0,0,1,.35,2.86c0,.41.2,1.27-.14,1.59-.52.48-1.34-.94-1.58-1.3a2.44,2.44,0,0,0-1.47-1.25.62.62,0,0,0-.66.21.81.81,0,0,0,0,.63,22.51,22.51,0,0,0,2.11,5.5,13.05,13.05,0,0,1,1,2.06,4,4,0,0,1-.31,3c-.19.46-.39.91-.58,1.36l-4.25,9.11s-8-9.41-10.12-11.75c-2.77-3-4.68-3.57-8.86-3.57l5.21,18.77s3.58,3.39,7.7,7c6.4,5.65,8.52,5.13,10.07,4.61s3.12-3.27,4.36-7.62c1.83-6.37,3.69-14.94,3.69-14.94h0c.24-.78.45-1.51.61-2.15C179.73,137.2,181.08,131,180.66,127.82Z" style="fill:#ffa8a7"></path><path d="M166.35,149.74c-1.56,2.79-2.29,3.64-2.36,8a14.41,14.41,0,0,1-.25-4.65,7.87,7.87,0,0,1,1.69-4.49Z" style="fill:#f28f8f"></path><path d="M146.64,134.38c2.62-.13,5.66,0,7.37,1.35a49.06,49.06,0,0,1,5.7,5.93c1.53,1.73,5.94,7.11,5.94,7.11a18.74,18.74,0,0,0-5.7,11.56L147.37,148Z" style="fill:#37474f"></path><polygon points="124.19 267.35 130.61 267.18 132.09 253.2 123.98 253.09 124.19 267.35" style="fill:#ffa8a7"></polygon><path d="M148.52,259.74c1.14,1.87,4.64,1.62,7.55.87l0-13.7-8.59-.12Z" style="fill:#ffa8a7"></path><path d="M125.51,179.21c-.07,5.93-.31,40.51-.31,40.51-.17,1.71-1.85,4.72-2.06,10.87-.3,8.91.76,28.44.76,28.44a10.22,10.22,0,0,0,7.65.25s4.57-28.18,5.8-37c1.07-7.69,4.1-27.81,4.1-27.81l3.86,26.24a44.22,44.22,0,0,0-.47,9.47c.24,4.08,3.1,23.89,3.1,23.89a14.21,14.21,0,0,0,8.21,0s1.11-30.89,1.23-34.64c.13-4.27-1-41.89-1-41.89Z" style="fill:#6165FA"></path><g style="opacity:0.4"><path d="M125.51,179.21c-.07,5.93-.31,40.51-.31,40.51-.17,1.71-1.85,4.72-2.06,10.87-.3,8.91.76,28.44.76,28.44a10.22,10.22,0,0,0,7.65.25s4.57-28.18,5.8-37c1.07-7.69,4.1-27.81,4.1-27.81l3.86,26.24a44.22,44.22,0,0,0-.47,9.47c.24,4.08,3.1,23.89,3.1,23.89a14.21,14.21,0,0,0,8.21,0s1.11-30.89,1.23-34.64c.13-4.27-1-41.89-1-41.89Z"></path></g><g style="opacity:0.2"><path d="M141.45,194.48a27.39,27.39,0,0,0,9.3-5.25s-1.71,3.11-6.71,6l.89,23Z"></path></g><path d="M138.25,278.61a2.93,2.93,0,0,1-.11,2,6.18,6.18,0,0,1-4.39,1.78,10.65,10.65,0,0,1-6.26-1.18,4.38,4.38,0,0,1-2.3-3.46c-.13-1.44,0-2.83-.62-3.95s-1.62-2.2-1.83-2.76a5.68,5.68,0,0,1,0-2.94Z" style="fill:#263238"></path><path d="M131.49,265.93a5.54,5.54,0,0,0,.27,1.61,14.77,14.77,0,0,0,1.51,3.19,11.8,11.8,0,0,0,1,1.5c.75.92,1.69,1.68,2.49,2.57a5.16,5.16,0,0,1,1.52,3.13c.08,2-2.08,2.63-3.74,2.9a12.12,12.12,0,0,1-5.39-.34,5,5,0,0,1-3.58-4c-.08-.55,0-1.12-.1-1.67a7.7,7.7,0,0,0-1.5-3.49,10.7,10.7,0,0,1-1.16-1.91c-.5-1.23-.07-2.61.28-3.83.3-1.06.63-2.25,1-2.14,0,.55,0,.6.39,1s.5,1.18,1,1.6a7,7,0,0,1-.35-1.41.78.78,0,0,1,.12-.56,1.54,1.54,0,0,1,.61-.32,12.58,12.58,0,0,1,2.42-.52,7.13,7.13,0,0,1,2.35,0,1,1,0,0,1,.59.35,1.12,1.12,0,0,1,.2.68C131.51,264.58,131.48,265.4,131.49,265.93Z" style="fill:#455a64"></path><path d="M133.53,271.15a5.73,5.73,0,0,0-3.29-.51,5.63,5.63,0,0,0-2.59.87.58.58,0,0,1-.76-.07h0a.55.55,0,0,1,.07-.84,5.54,5.54,0,0,1,2.91-1,5.8,5.8,0,0,1,2.88.26S133.76,270.49,133.53,271.15Z" style="fill:#f5f5f5"></path><path d="M135.2,273.21a7,7,0,0,0-3.65-.42,5,5,0,0,0-2.51.92.6.6,0,0,1-.76-.07h0a.56.56,0,0,1,.07-.85,5.79,5.79,0,0,1,3-1.12c2.23-.13,2.81.34,2.81.34A1.81,1.81,0,0,1,135.2,273.21Z" style="fill:#f5f5f5"></path><path d="M129,267.42a5.54,5.54,0,0,1,2.8.27c.39.23.64.85.39,1a5.26,5.26,0,0,0-2.48-.37,7.54,7.54,0,0,0-2.42.63l-.62.31A.53.53,0,0,1,126,269h0a.49.49,0,0,1,.2-.63A7,7,0,0,1,129,267.42Z" style="fill:#f5f5f5"></path><path d="M170.92,267.7a2.44,2.44,0,0,1,0,1.79c-.21.53-2.82,2.27-6.5,2.29a15.27,15.27,0,0,1-7.78-2.09,8.73,8.73,0,0,0-4.76-.85c-1.82,0-4.27-.7-4.73-1.52a4.05,4.05,0,0,1-.11-2.32Z" style="fill:#263238"></path><path d="M155.27,257.35l.29-.08a1.14,1.14,0,0,1,.48-.06.93.93,0,0,1,.48.27,9.59,9.59,0,0,1,1,1.4,10.78,10.78,0,0,0,4.39,2.93c1.24.56,2.45,1,3.73,1.44a29.54,29.54,0,0,1,4,1.29,2.65,2.65,0,0,1,.31,4.36,13,13,0,0,1-9,1.3c-2.17-.45-4.7-2.55-7.51-2.56-1.78,0-5.17-.26-6.42-1.52-.46-.56,0-2.5.3-4.17s.11-4.53.92-4.52l.08.91c.08.27.72.51.93.72l.74.74a3.47,3.47,0,0,0,1.08.83,3.54,3.54,0,0,0,2.31-.13s-.42-1.38-.46-1.51a.58.58,0,0,1,0-.34.48.48,0,0,1,.2-.27A5.76,5.76,0,0,1,155.27,257.35Z" style="fill:#455a64"></path><path d="M160.22,261a1.67,1.67,0,0,0-1.38-.78,4.76,4.76,0,0,0-3,1.41.66.66,0,0,0,.18,1.08h0a.66.66,0,0,0,.75-.14A5,5,0,0,1,160.22,261Z" style="fill:#f5f5f5"></path><path d="M162.82,262.19a1.9,1.9,0,0,0-1.61-.69,6,6,0,0,0-3.32,1.53.65.65,0,0,0,.17,1.05h0a.61.61,0,0,0,.72-.14A5.13,5.13,0,0,1,162.82,262.19Z" style="fill:#f5f5f5"></path><path d="M165.68,263.25a2.14,2.14,0,0,0-1.67-.61,5.68,5.68,0,0,0-3.17,1.53.66.66,0,0,0,.17,1.06h0a.65.65,0,0,0,.72-.14A4.82,4.82,0,0,1,165.68,263.25Z" style="fill:#f5f5f5"></path><path d="M137.69,134.61c-2.37.22-5.17.32-7.43.58-2.91.33-5.23,3.29-6,7.93-.87,5.11,2.13,19.86,2.13,19.86L125,180.29c4.21,3.21,22.31,5.18,31.47-1.18,0,0,.31-29.49-.31-34-.87-6.24-2.31-10.14-9.33-10.71Z" style="fill:#455a64"></path><path d="M109.73,171.22s5.06,7.48,8,10.81c2.06,2.31,6.56,7.08,9.48,8.55,7.24,3.65,9.94-.88,10.56-2.13.71-1.43.18-2.65-3.93-4.26a14.61,14.61,0,0,1-2.63-1.37c-.42-.27-1.79-.93-1.1-1.52a1.49,1.49,0,0,1,.78-.27l1.94-.28a2.63,2.63,0,0,0,1.21-.4.87.87,0,0,0,.29-1.12,1.28,1.28,0,0,0-1-.41c-2.25-.2-4.51-.3-6.77-.32-.46,0-1.25.19-1.63-.06a3.72,3.72,0,0,1-.6-.59c-.32-.45-.62-.91-.93-1.38-.82-1.24-1.62-2.5-2.42-3.76-1.1-1.73-3-5.36-4.06-7.1l10.4-15s4.36-5.77,2.43-15c0,0-4.58,0-7.32,2.68s-14.74,22.1-15.32,24.33S106.94,167,109.73,171.22Z" style="fill:#ffa8a7"></path><path d="M120.54,161.78l5.78-8.28a14.75,14.75,0,0,0,4.3-7.24c1-5,.42-9.94-.36-11.07-8.47.34-7.93,1.9-13.58,10.63-2.18,3.37-3.74,6.05-5.86,9.51A12.84,12.84,0,0,0,120.54,161.78Z" style="fill:#37474f"></path><path d="M132.19,120.62s2,6.09,2.68,7.35a2.47,2.47,0,0,0,1.95,1.41V125Z" style="fill:#263238"></path><path d="M135.33,110.8a3.43,3.43,0,0,0-3.91,1.43c-.88,1.31-1.14,4.29,2,11.51L136,121Z" style="fill:#263238"></path><path d="M136.52,121a3.7,3.7,0,0,0-1.08-1.68,2.73,2.73,0,0,0-4.16.82c-1.09,2.15.89,4.8,2.36,5.61a2.18,2.18,0,0,0,2.94-.47l.22,9.89h0c.91,2,4.87,3.66,7.18,3.3,1.85-.28,3.52-1.79,1.81-3.86l.06-2.83a17.33,17.33,0,0,0,3.71.28c2-.27,3.34-1.83,4-4,1.07-3.51,1.51-6.34.83-13.29-.74-7.62-9.57-7.9-14.41-5S136.52,121,136.52,121Z" style="fill:#ffa8a7"></path><path d="M157.14,106.9a3,3,0,0,0-.91-2.8c-1-.89-2.63-.66-4.19-.14a16.52,16.52,0,0,1-7.23,1.43c-2.15,0-5-.4-7.11.65-2.43,1.2-3.33,2.62-3.46,4.32-.05.54.47,1,.61,1.51a3.92,3.92,0,0,1,.3,1.41c-.09.85-.25,1.69-.34,2.53a18.6,18.6,0,0,0-.14,2.47,1.33,1.33,0,0,0,.63,1,3.79,3.79,0,0,1,1.09,1.5c.19.35.38,1.24.74,1.47,1.08.72,1.13-1.7,1.17-2.16a25.44,25.44,0,0,0-.1-3.21,3.85,3.85,0,0,0,2.8-1.38,3.3,3.3,0,0,0,.66-1.59,5.38,5.38,0,0,0,.06-1,4.94,4.94,0,0,0,3.58,1.22,3.71,3.71,0,0,0,3.1-1.43,5,5,0,0,0,1.59,1.44,5.86,5.86,0,0,0,3.47.42,3.53,3.53,0,0,0,2.57-2,3.34,3.34,0,0,0-.38-3.43A3.69,3.69,0,0,0,157.14,106.9Z" style="fill:#263238"></path><path d="M134.36,111.29l-3-1.71a1.69,1.69,0,0,1,2.33-.71A1.83,1.83,0,0,1,134.36,111.29Z" style="fill:#263238"></path><path d="M145.85,131.82a34.34,34.34,0,0,1-6.07-1.89,5.33,5.33,0,0,1-2.14-2.21,7.24,7.24,0,0,0,1.19,2.58c1.12,1.5,7,2.73,7,2.73Z" style="fill:#f28f8f"></path><path d="M145.3,120.48a1,1,0,0,1-1,1,1,1,0,0,1-.95-1,1,1,0,1,1,1.94,0Z" style="fill:#263238"></path><path d="M144.4,117.17l-2,1.06a1.19,1.19,0,0,1,.51-1.58A1.1,1.1,0,0,1,144.4,117.17Z" style="fill:#263238"></path><path d="M145.27,126l2.91,1.17a1.53,1.53,0,0,1-2,.92A1.63,1.63,0,0,1,145.27,126Z" style="fill:#f28f8f"></path><path d="M153.39,117.8l-1.79-1.45a1.1,1.1,0,0,1,1.59-.21A1.21,1.21,0,0,1,153.39,117.8Z" style="fill:#263238"></path><path d="M152.93,120.09a1,1,0,0,1-1,1,1,1,0,0,1-.92-1,1,1,0,0,1,1-1A1,1,0,0,1,152.93,120.09Z" style="fill:#263238"></path><polygon points="148.26 119.1 148.44 125.02 151.55 124.03 148.26 119.1" style="fill:#f28f8f"></polygon></g></g><g id="freepik--speech-bubbles--inject-3"><g id="freepik--speech-bubble--inject-3"><path d="M105.29,109.57l-1.36-.78a1.1,1.1,0,0,1-.49-.86V81.63a1.1,1.1,0,0,1,.49-.86l36.6-21.16a1.08,1.08,0,0,1,1,0l1.35.78a1.1,1.1,0,0,1,.5.86v26.3a1.07,1.07,0,0,1-.5.86l-36.59,21.16A1.08,1.08,0,0,1,105.29,109.57Z" style="fill:#6165FA"></path><g style="opacity:0.4"><path d="M105.29,109.57l-1.36-.78a1.1,1.1,0,0,1-.49-.86V81.63a1.1,1.1,0,0,1,.49-.86l36.6-21.16a1.08,1.08,0,0,1,1,0l1.35.78a1.1,1.1,0,0,1,.5.86v26.3a1.07,1.07,0,0,1-.5.86l-36.59,21.16A1.08,1.08,0,0,1,105.29,109.57Z" style="fill:#fff"></path></g><path d="M106.28,82.12,142.87,61c.28-.16.5,0,.5.28v26.3a1.07,1.07,0,0,1-.5.86l-36.59,21.16c-.27.16-.5,0-.5-.29V83A1.13,1.13,0,0,1,106.28,82.12Z" style="fill:#6165FA"></path><path d="M106.17,109.62a1.1,1.1,0,0,1-.89-.05l-1.34-.78a1.1,1.1,0,0,1-.5-.86V81.63a1,1,0,0,1,.14-.49l2.35,1.35a1.07,1.07,0,0,0-.15.49v26.3C105.78,109.55,105.94,109.69,106.17,109.62Z" style="fill:#6165FA"></path><g style="opacity:0.15"><path d="M106.17,109.62a1.1,1.1,0,0,1-.89-.05l-1.34-.78a1.1,1.1,0,0,1-.5-.86V81.63a1,1,0,0,1,.14-.49l2.35,1.35a1.07,1.07,0,0,0-.15.49v26.3C105.78,109.55,105.94,109.69,106.17,109.62Z"></path></g><path d="M111.15,86.89,138,71.36c.46-.27.83-.08.83.42a1.8,1.8,0,0,1-.83,1.38L111.15,88.69c-.46.27-.83.08-.83-.42A1.8,1.8,0,0,1,111.15,86.89Z" style="fill:#f5f5f5"></path><path d="M111.15,92.72,138,77.18c.46-.27.83-.08.83.42A1.78,1.78,0,0,1,138,79L111.15,94.51c-.46.27-.83.08-.83-.42A1.76,1.76,0,0,1,111.15,92.72Z" style="fill:#f5f5f5"></path><path d="M133.6,93.1l.55,4.61a.57.57,0,0,1-.85.56l-4.4-2.52Z" style="fill:#6165FA"></path><g id="freepik--Check--inject-3"><path d="M135.24,84.43a.57.57,0,0,0-.76.28l-2.33,5.09-.5-.52a.58.58,0,0,0-.83.8l1.08,1.12a.62.62,0,0,0,.4.18h.11a.56.56,0,0,0,.43-.33l2.68-5.85A.56.56,0,0,0,135.24,84.43Z" style="fill:#455a64"></path></g><g id="freepik--check--inject-3"><path d="M140.19,81.76a.58.58,0,0,0-.76.28l-2.33,5.09-.5-.52a.59.59,0,0,0-.82,0,.58.58,0,0,0,0,.81l1.08,1.13a.6.6,0,0,0,.4.17h.11a.57.57,0,0,0,.43-.32l2.68-5.86A.56.56,0,0,0,140.19,81.76Z" style="fill:#455a64"></path></g></g><g id="freepik--speech-bubble--inject-3"><path d="M369.36,125.16l-1.36-.79a1.08,1.08,0,0,1-.49-.86V97.21a1.12,1.12,0,0,1,.49-.86L404.6,75.2a1.08,1.08,0,0,1,1,0l1.35.78a1.07,1.07,0,0,1,.5.86v26.3a1.1,1.1,0,0,1-.5.86l-36.59,21.16A1.15,1.15,0,0,1,369.36,125.16Z" style="fill:#6165FA"></path><g style="opacity:0.4"><path d="M369.36,125.16l-1.36-.79a1.08,1.08,0,0,1-.49-.86V97.21a1.12,1.12,0,0,1,.49-.86L404.6,75.2a1.08,1.08,0,0,1,1,0l1.35.78a1.07,1.07,0,0,1,.5.86v26.3a1.1,1.1,0,0,1-.5.86l-36.59,21.16A1.15,1.15,0,0,1,369.36,125.16Z" style="fill:#fff"></path></g><path d="M370.35,97.71l36.59-21.16c.28-.16.5,0,.5.29v26.3a1.1,1.1,0,0,1-.5.86l-36.59,21.16c-.27.15-.5,0-.5-.29V98.57A1.11,1.11,0,0,1,370.35,97.71Z" style="fill:#6165FA"></path><path d="M377,119.91v4.61a.75.75,0,0,0,1.36.43l6.73-9.71Z" style="fill:#6165FA"></path><path d="M370.24,125.21a1.1,1.1,0,0,1-.89-.06l-1.34-.77a1.1,1.1,0,0,1-.5-.87V97.22a1.05,1.05,0,0,1,.14-.5L370,98.08a1,1,0,0,0-.15.49v26.3C369.85,125.14,370,125.27,370.24,125.21Z" style="fill:#6165FA"></path><g style="opacity:0.15"><path d="M370.24,125.21a1.1,1.1,0,0,1-.89-.06l-1.34-.77a1.1,1.1,0,0,1-.5-.87V97.22a1.05,1.05,0,0,1,.14-.5L370,98.08a1,1,0,0,0-.15.49v26.3C369.85,125.14,370,125.27,370.24,125.21Z"></path></g><path d="M375.22,102.48l26.86-15.54c.46-.26.83-.07.83.42a1.77,1.77,0,0,1-.83,1.38l-26.86,15.54c-.46.26-.83.07-.83-.42A1.77,1.77,0,0,1,375.22,102.48Z" style="fill:#f5f5f5"></path><path d="M375.22,108.3l26.86-15.54c.46-.26.83-.07.83.42a1.77,1.77,0,0,1-.83,1.38L375.22,110.1c-.46.26-.83.08-.83-.42A1.78,1.78,0,0,1,375.22,108.3Z" style="fill:#f5f5f5"></path><g id="freepik--check--inject-3"><path d="M399.31,100a.58.58,0,0,0-.76.29l-2.33,5.09-.51-.52a.57.57,0,0,0-.81,0,.58.58,0,0,0,0,.81l1.08,1.13a.56.56,0,0,0,.4.17h.11a.61.61,0,0,0,.43-.33l2.68-5.86A.57.57,0,0,0,399.31,100Z" style="fill:#455a64"></path></g><g id="freepik--check--inject-3"><path d="M404.26,97.35a.56.56,0,0,0-.76.28l-2.33,5.09-.51-.52a.57.57,0,0,0-.81,0,.58.58,0,0,0,0,.81l1.08,1.12a.62.62,0,0,0,.4.18h.11a.58.58,0,0,0,.43-.33l2.68-5.85A.56.56,0,0,0,404.26,97.35Z" style="fill:#455a64"></path></g></g><g id="freepik--speech-bubble--inject-3"><path d="M269.36,163.55l-1.35-.78a1.1,1.1,0,0,1-.5-.86V149a1.08,1.08,0,0,1,.5-.86l25.92-15a1.15,1.15,0,0,1,1,0l1.35.78a1.1,1.1,0,0,1,.5.87v12.94a1.1,1.1,0,0,1-.5.87l-25.91,15A1.1,1.1,0,0,1,269.36,163.55Z" style="fill:#6165FA"></path><g style="opacity:0.4"><path d="M269.36,163.55l-1.35-.78a1.1,1.1,0,0,1-.5-.86V149a1.08,1.08,0,0,1,.5-.86l25.92-15a1.15,1.15,0,0,1,1,0l1.35.78a1.1,1.1,0,0,1,.5.87v12.94a1.1,1.1,0,0,1-.5.87l-25.91,15A1.1,1.1,0,0,1,269.36,163.55Z" style="fill:#fff"></path></g><path d="M270.36,149.45l25.91-15c.28-.16.5,0,.5.29v12.94a1.1,1.1,0,0,1-.5.87l-25.91,15c-.28.16-.5,0-.5-.29V150.31A1.1,1.1,0,0,1,270.36,149.45Z" style="fill:#6165FA"></path><path d="M277,158.3v4.62a.74.74,0,0,0,1.36.42l6.73-9.71Z" style="fill:#6165FA"></path><path d="M270.24,163.6a1.12,1.12,0,0,1-.88,0l-1.35-.78a1.1,1.1,0,0,1-.5-.86V149a.93.93,0,0,1,.15-.49l2.34,1.35a1,1,0,0,0-.14.49v12.95C269.86,163.53,270,163.67,270.24,163.6Z" style="fill:#6165FA"></path><g style="opacity:0.15"><path d="M270.24,163.6a1.12,1.12,0,0,1-.88,0l-1.35-.78a1.1,1.1,0,0,1-.5-.86V149a.93.93,0,0,1,.15-.49l2.34,1.35a1,1,0,0,0-.14.49v12.95C269.86,163.53,270,163.67,270.24,163.6Z"></path></g><path d="M276.85,150.77c.94-.54,1.69-.1,1.69,1a3.72,3.72,0,0,1-1.69,2.93c-.93.54-1.69.1-1.69-1A3.75,3.75,0,0,1,276.85,150.77Z" style="fill:#fafafa"></path><path d="M283.31,147.06c.94-.54,1.69-.1,1.69,1a3.72,3.72,0,0,1-1.69,2.93c-.93.53-1.68.1-1.68-1A3.74,3.74,0,0,1,283.31,147.06Z" style="fill:#fafafa"></path><path d="M289.78,143.36c.93-.54,1.69-.1,1.69,1a3.75,3.75,0,0,1-1.69,2.93c-.94.54-1.69.1-1.69-1A3.72,3.72,0,0,1,289.78,143.36Z" style="fill:#fafafa"></path></g><g id="freepik--speech-bubble--inject-3"><path d="M255.39,82.56,254,81.78a1.1,1.1,0,0,1-.5-.87V54.62a1.1,1.1,0,0,1,.5-.87L290.63,32.6a1.1,1.1,0,0,1,1,0l1.35.78a1.11,1.11,0,0,1,.5.86v26.3a1.11,1.11,0,0,1-.5.86L256.39,82.56A1.1,1.1,0,0,1,255.39,82.56Z" style="fill:#6165FA"></path><g style="opacity:0.4"><path d="M255.39,82.56,254,81.78a1.1,1.1,0,0,1-.5-.87V54.62a1.1,1.1,0,0,1,.5-.87L290.63,32.6a1.1,1.1,0,0,1,1,0l1.35.78a1.11,1.11,0,0,1,.5.86v26.3a1.11,1.11,0,0,1-.5.86L256.39,82.56A1.1,1.1,0,0,1,255.39,82.56Z" style="fill:#fff"></path></g><path d="M256.39,55.11,293,34c.27-.16.5,0,.5.29v26.3a1.11,1.11,0,0,1-.5.86L256.39,82.56c-.28.16-.5,0-.5-.29V56A1.08,1.08,0,0,1,256.39,55.11Z" style="fill:#6165FA"></path><path d="M263,77.31v4.62a.75.75,0,0,0,1.37.42l6.73-9.71Z" style="fill:#6165FA"></path><path d="M256.27,82.61a1.12,1.12,0,0,1-.88,0L254,81.78a1.1,1.1,0,0,1-.5-.86V54.62a1,1,0,0,1,.15-.49L256,55.48a1,1,0,0,0-.14.49v26.3C255.89,82.54,256.05,82.68,256.27,82.61Z" style="fill:#6165FA"></path><g style="opacity:0.15"><path d="M256.27,82.61a1.12,1.12,0,0,1-.88,0L254,81.78a1.1,1.1,0,0,1-.5-.86V54.62a1,1,0,0,1,.15-.49L256,55.48a1,1,0,0,0-.14.49v26.3C255.89,82.54,256.05,82.68,256.27,82.61Z"></path></g><path d="M261.25,59.88l26.86-15.54c.46-.26.83-.07.83.42a1.77,1.77,0,0,1-.83,1.38L261.25,61.68c-.46.26-.83.08-.83-.42A1.78,1.78,0,0,1,261.25,59.88Z" style="fill:#f5f5f5"></path><path d="M261.25,65.7l26.86-15.53c.46-.27.83-.08.83.42a1.76,1.76,0,0,1-.83,1.37L261.25,67.5c-.46.26-.83.08-.83-.42A1.78,1.78,0,0,1,261.25,65.7Z" style="fill:#f5f5f5"></path><g id="freepik--check--inject-3"><path d="M285.35,57.41a.58.58,0,0,0-.76.29l-2.34,5.09-.5-.52a.57.57,0,0,0-.81,0,.58.58,0,0,0,0,.82L282,64.19a.52.52,0,0,0,.39.17.48.48,0,0,0,.12,0,.57.57,0,0,0,.42-.33l2.69-5.85A.59.59,0,0,0,285.35,57.41Z" style="fill:#455a64"></path></g><g id="freepik--check--inject-3"><path d="M290.3,54.75a.57.57,0,0,0-.76.28l-2.34,5.09-.5-.52a.58.58,0,0,0-.83.8L287,61.52a.57.57,0,0,0,.39.18h.12a.55.55,0,0,0,.42-.33l2.69-5.85A.58.58,0,0,0,290.3,54.75Z" style="fill:#455a64"></path></g></g></g></svg>