<svg xmlns="http://www.w3.org/2000/svg" viewBox="0 0 500 500"><g id="freepik--Floor--inject-1--inject-6"><path id="freepik--floor--inject-1--inject-6" d="M99.67,433.12c82.5,44.74,216.26,44.75,298.76,0s82.5-117.31,0-162.06-216.26-44.75-298.76,0S17.16,388.37,99.67,433.12Z" style="fill:#f0f0f0;opacity:0.7000000000000001"></path></g><g id="freepik--Shadow--inject-1--inject-6"><ellipse id="freepik--shadow--inject-1--inject-6" cx="150.39" cy="305.55" rx="57.03" ry="27.18" style="fill:#e0e0e0"></ellipse></g><g id="freepik--Plants--inject-1--inject-6"><g id="freepik--plants--inject-1--inject-6"><g id="freepik--plants--inject-1--inject-6"><path d="M78.72,303.78l6.41-3.66s3.08-16.94.78-31.5c-3.24-20.48-17.18-27.54-22.24-25.51s-6.25,8.1,2.89,19.93C72,270,78.9,284.78,78.72,303.78Z" style="fill:#407BFF"></path><g style="opacity:0.1"><path d="M78.72,303.78l6.41-3.66s3.08-16.94.78-31.5c-3.24-20.48-17.18-27.54-22.24-25.51s-6.25,8.1,2.89,19.93C72,270,78.9,284.78,78.72,303.78Z"></path></g><path d="M81.05,295.65H81a.47.47,0,0,1-.39-.52C83.24,276,75.53,255,66.87,246.5a.46.46,0,0,1,.64-.66c8.82,8.62,16.68,30,14,49.42A.46.46,0,0,1,81.05,295.65Z" style="fill:#fff"></path><path d="M60.94,314.06c-1,.58-3.1-.69-3.9-1.23a9.72,9.72,0,0,1-3.22-3.69,9.1,9.1,0,0,1-.8-5.44,20.59,20.59,0,0,1,.69-2.89l.81-2.81a7.24,7.24,0,0,0,.41-2.83c-.25-1.92-2-3.27-3.5-4.43-1.72-1.28-3.5-3-3.49-5.29a8.14,8.14,0,0,1,2-4.84c1.1-1.4,2.41-2.63,3.41-4.11a5.74,5.74,0,0,0,1.17-3.59,6.05,6.05,0,0,0-.79-2.25,31.65,31.65,0,0,1-2.45-4.5c-.57-1.62-.49-3.63.78-4.79a5.28,5.28,0,0,1,4-1,9,9,0,0,1,3.7,1.3c3.67,2,5.77,6.38,9.66,8a41.13,41.13,0,0,0,4.72,1.15A5.78,5.78,0,0,1,78,273.46c1.43,2.86-1.22,6.37-.21,9.41.89,2.68,3.49,3.7,5,6.12a5.76,5.76,0,0,1,.68,3.51A16.76,16.76,0,0,1,82,298.44a42.77,42.77,0,0,1-3.26,5.34C78.66,303.84,61.09,314,60.94,314.06Z" style="fill:#407BFF"></path><path d="M71.34,308.51h0a.45.45,0,0,1-.44-.47c.75-18.15-7.8-38.18-14-44a.45.45,0,0,1,.62-.66c6.34,5.93,15.07,26.3,14.3,44.69A.45.45,0,0,1,71.34,308.51Z" style="fill:#fff"></path><path d="M68.63,287.08l-.14,0a61.51,61.51,0,0,0-13.17-2.13.46.46,0,0,1,0-.91,62.62,62.62,0,0,1,13.4,2.16.46.46,0,0,1-.13.9Z" style="fill:#fff"></path></g><g id="freepik--plants--inject-1--inject-6"><path d="M391.77,396.11c3.45-7.5,16-20.54,28.25-26.7s27.74-7.66,35.07-.7c6.82,6.48,1.07,16.69-12,19.22s-31.86,4.59-41.76,14.77l-15.91,10.76Z" style="fill:#407BFF"></path><path d="M391.77,396.11c3.45-7.5,16-20.54,28.25-26.7s27.74-7.66,35.07-.7c6.82,6.48,1.07,16.69-12,19.22s-31.86,4.59-41.76,14.77l-15.91,10.76Z" style="opacity:0.1"></path><path d="M386.51,406.11a.61.61,0,0,0,.7-.21c16.77-23.29,47-34.58,61.52-33.49a.61.61,0,0,0,.65-.56.6.6,0,0,0-.56-.64c-14.78-1.12-45.57,10.34-62.59,34a.6.6,0,0,0,.14.84A.39.39,0,0,0,386.51,406.11Z" style="fill:#fff"></path><path d="M382.81,424.24c3.14-3.66,11.48-8.25,22.44-10.17,12.13-2.13,25.12.3,30.08-3.41,5.95-4.46,3.52-12.37-6.47-15.54s-32.56,2.1-44.14,20.31Z" style="fill:#407BFF"></path><path d="M383,419a.6.6,0,0,0,.64-.15c17.91-18.32,38.17-18.33,46.38-15.78a.6.6,0,0,0,.75-.4.59.59,0,0,0-.39-.75c-9.08-2.82-29.32-2.61-47.61,16.09a.6.6,0,0,0,0,.85A.59.59,0,0,0,383,419Z" style="fill:#fff"></path></g></g></g><g id="freepik--Line--inject-1--inject-6"><g id="freepik--line--inject-1--inject-6"><g id="freepik--Arrow--inject-1--inject-6"><polygon points="201.24 330.23 212.98 337 209.07 339.26 224.71 339.26 224.71 330.23 220.8 332.49 209.07 325.71 201.24 330.23" style="fill:#407BFF"></polygon></g><g id="freepik--line--inject-1--inject-6"><path d="M231.54,344.17a.94.94,0,0,1-.48-.13l-2.92-1.69a1,1,0,0,1-.35-1.31,1,1,0,0,1,1.32-.36l2.92,1.69a1,1,0,0,1-.49,1.8Z" style="fill:#407BFF"></path><path d="M354.57,415.2a.94.94,0,0,1-.48-.13l-5.63-3.25a1,1,0,0,1,1-1.67l5.62,3.25a1,1,0,0,1-.48,1.8Zm-13.67-7.9a1,1,0,0,1-.48-.12l-5.63-3.25a1,1,0,1,1,1-1.67l5.63,3.25a1,1,0,0,1-.49,1.79Zm-13.67-7.89a.94.94,0,0,1-.48-.13L321.12,396a1,1,0,0,1-.35-1.31,1,1,0,0,1,1.32-.35l5.63,3.25a1,1,0,0,1-.49,1.79Zm-13.67-7.89a.94.94,0,0,1-.48-.13l-5.63-3.25a1,1,0,0,1-.35-1.31,1,1,0,0,1,1.32-.36l5.62,3.25a1,1,0,0,1-.48,1.8Zm-13.67-7.89a.94.94,0,0,1-.48-.13l-5.63-3.25a1,1,0,0,1,1-1.67l5.63,3.25a1,1,0,0,1,.35,1.32A1,1,0,0,1,299.89,383.63Zm-13.67-7.89a1,1,0,0,1-.48-.13l-5.63-3.25a1,1,0,1,1,1-1.67l5.63,3.25a1,1,0,0,1,.35,1.31A1,1,0,0,1,286.22,375.74Zm-13.67-7.9a1,1,0,0,1-.48-.12l-5.63-3.25a1,1,0,0,1,1-1.67l5.63,3.25a1,1,0,0,1-.49,1.79ZM258.88,360a.94.94,0,0,1-.48-.13l-5.63-3.25a1,1,0,0,1-.35-1.31,1,1,0,0,1,1.32-.36l5.63,3.25a1,1,0,0,1-.49,1.8Zm-13.67-7.89a.94.94,0,0,1-.48-.13l-5.63-3.25a1,1,0,0,1,1-1.67l5.63,3.25a1,1,0,0,1,.35,1.32A1,1,0,0,1,245.21,352.06Z" style="fill:#407BFF"></path><path d="M365.53,421.52a1,1,0,0,1-.48-.12l-2.92-1.69a1,1,0,0,1-.35-1.31,1,1,0,0,1,1.32-.36l2.91,1.69a1,1,0,0,1-.48,1.79Z" style="fill:#407BFF"></path></g></g></g><g id="freepik--Pin--inject-1--inject-6"><g id="freepik--pin--inject-1--inject-6"><path d="M429.3,169.32h0l-.9-.52-27.94-16a38.52,38.52,0,0,0-21.82-6.39c-9.77,0-19.63,3.54-31.24,10-40.57,22.48-75.23,87.3-75.23,129.86V298c0,51.58,67.84,114.54,67.84,114.54l28.13,16.25a.12.12,0,0,0,.12.05c-.94-1.11,29.89-46.09,59-133.83C459.4,197.85,429.9,169.88,429.3,169.32ZM381.82,323.54c-23,13.27-42.23,6.32-47.68-15.09C323.61,307,316,298.9,313.65,285.6c-2.95-43,19.87-77.19,52.55-91.07,14-5.09,25.68-1.46,31.94,9.06,19.2-3.3,32.94,9.86,32.94,34.64C431.08,269.63,409,307.85,381.82,323.54Z" style="fill:#455a64"></path><path d="M431.08,238.23c0,31.4-22.05,69.62-49.26,85.31-23,13.27-42.23,6.32-47.68-15.09,6.91,1,15.07-.85,23.84-5.92,24.92-14.37,45.1-49.35,45.1-78.09,0-8.54-1.78-15.57-4.94-20.85C417.34,200.29,431.08,213.45,431.08,238.23Z" style="fill:#263238"></path><polygon points="343.44 305.45 359.07 314.48 359.07 284.2 343.44 275.17 343.44 305.45" style="fill:#407BFF"></polygon><polygon points="343.44 305.45 359.07 314.48 359.07 284.2 343.44 275.17 343.44 305.45" style="opacity:0.2"></polygon><polygon points="418.03 250.16 381.8 233.18 345.57 292 359.07 284.2 359.07 314.48 376.19 304.6 376.19 284.79 387.4 278.32 387.4 298.12 404.54 288.22 404.54 257.94 418.03 250.16" style="fill:#407BFF"></polygon><polygon points="366.16 224.15 381.8 233.18 345.57 292 329.93 282.97 366.16 224.15" style="fill:#407BFF"></polygon><polygon points="366.16 224.15 381.8 233.18 345.57 292 329.93 282.97 366.16 224.15" style="opacity:0.1"></polygon><polygon points="366.16 224.15 381.8 233.18 418.03 250.16 402.39 241.13 366.16 224.15" style="fill:#407BFF"></polygon><polygon points="366.16 224.15 381.8 233.18 418.03 250.16 402.39 241.13 366.16 224.15" style="fill:#fff;opacity:0.4"></polygon><polygon points="376.19 304.6 387.4 298.12 387.4 278.32 376.19 284.79 376.19 304.6" style="fill:#407BFF"></polygon><polygon points="376.19 304.6 387.4 298.12 387.4 278.32 376.19 284.79 376.19 304.6" style="opacity:0.2"></polygon><path d="M429.3,169.32h0l-.9-.52c-13.56-7.62-31.68-6.6-51.59,4.88-30,17.35-56,53.79-68.29,92-4.88,15.15-6.94,23.17-6.94,37.82v11.77c0,39.75,44.32,93.22,65.05,112.31a9.35,9.35,0,0,0,1.51,1.14.12.12,0,0,0,.12.05,10.18,10.18,0,0,0,14.5-4.2C400.62,388,452.7,277.75,452.7,235V223.27C452.7,196.77,443.74,178,429.3,169.32ZM334.14,308.45c-.28-1.09-.54-2.23-.74-3.4a53.85,53.85,0,0,1-.84-9.94c0-31.4,22-69.61,49.26-85.3a58.84,58.84,0,0,1,9-4.24,42.45,42.45,0,0,1,7.33-2c19.2-3.3,32.94,9.86,32.94,34.64,0,31.4-22.05,69.62-49.26,85.31C358.85,336.81,339.59,329.86,334.14,308.45Z" style="fill:#37474f"></path></g></g><g id="freepik--Character--inject-1--inject-6"><g id="freepik--character--inject-1--inject-6"><path d="M180.6,127.58h-21a17.18,17.18,0,0,1-17.18-17.18v-4.85a19.08,19.08,0,0,1,19.08-19.08h0a19.08,19.08,0,0,1,19.08,19.08Z" style="fill:#263238"></path><path d="M145.47,96.05,141,93.68a2.44,2.44,0,0,1,3.35-1.11A2.65,2.65,0,0,1,145.47,96.05Z" style="fill:#263238"></path><path d="M145.84,96.55l-4.7,1.76a2.44,2.44,0,0,1,1.37-3.25A2.66,2.66,0,0,1,145.84,96.55Z" style="fill:#263238"></path><polygon points="187.56 151.93 193.34 162.52 185.31 169.41 177.28 156.96 187.56 151.93" style="fill:#9a4a4d"></polygon><path d="M171.4,129.21c3,.26,6.16,1.55,8.33,6l9,18.48s-1.52,6.08-9.44,6.89l-3.14-4.82Z" style="fill:#407BFF"></path><path d="M171.4,129.21c3,.26,6.16,1.55,8.33,6l9,18.48s-1.52,6.08-9.44,6.89l-3.14-4.82Z" style="opacity:0.1"></path><path d="M118,274.6c-1.51-.78-2.46,1.13-3.83,2.67-1,1.07-2.45,2.78-2.67,4-.33,1.82,1.31,4.67,3.12,6.25s3.91,2.7,4.57,6.15,2,5.5,5.58,7.05c3.92,1.69,9.17,1.15,10.95,0,2.11-1.37.18-2.86-2.77-7.09-3.86-5.52-6.87-9.47-6.87-14.62Z" style="fill:#263238"></path><path d="M121.09,270.07l-3.17,4.65A4.46,4.46,0,0,0,119,280.9l.1.07a4.8,4.8,0,0,0,6.07-.94l4.94-5.4Z" style="fill:#b16668"></path><path d="M178.06,181.92c.2,5.92,1.24,27.5-3.08,38.83a106.26,106.26,0,0,1-9,18.47c-1.29,2.21-38.36,38.3-38.36,38.3s-6.3-.46-7.3-6.56c0,0,15.19-25.83,18.48-31.12s14.94-13.42,14.94-13.42l-1.06-49.65Z" style="fill:#37474f"></path><rect x="169.72" y="293.1" width="8.04" height="11.71" transform="translate(409.44 551.95) rotate(167.19)" style="fill:#b16668"></rect><path d="M165,200a49.94,49.94,0,0,0,7.17-8.25c6-8.28,5.07-15.63,5.07-15.63h-2.46l-32.41.66c-3.22,5.27-3.92,13.26-2.83,21,2.25,16.15,15.63,44.1,15.63,44.1-.19,2.21-1.12,11.49,1,19.72,3.33,13,12.39,35,12.39,35s5.67.81,8.49-2.47c0,0-5-44.61-6.37-56C169.19,225.71,165,200,165,200Z" style="fill:#37474f"></path><path d="M178.08,299.9l-.26-1.12c.83.16,4.35,6,7.84,8.54,3.82,2.78,7.14,4.42,8.85,5.68,2.28,1.67-1,5.11-6.65,5.41-2.79.15-7.87-.7-9.44-2.18s-2.7-4-3.94-5-3.76-2-4.61-3.37c-.46-.75-.54-2.62-.48-4.22s.09-3.08.6-3.06c0,.17.19.86.19.86a9.82,9.82,0,0,0,4.77,1.05C176.27,302.41,178.73,302.1,178.08,299.9Z" style="fill:#263238"></path><path d="M169.66,230.51S165.88,203.66,165,200c0,0,6.66-2.54,8.71-4.86,0,0-1.46,3.25-6.23,6.14Z" style="fill:#263238"></path><path d="M149.64,229.47s3.9,10.23,5.52,12.44c0,0-.41,7.61-.35,9.15l-2.11,1.83s-.1-6.39,1-10.26A52.44,52.44,0,0,1,149.64,229.47Z" style="fill:#263238"></path><path d="M176.24,157.89c.51,4.7,1.82,24,1.82,24-15.51,8.28-34.75,2.79-37.69-.62a32.81,32.81,0,0,1,8.71-14.82l-5-14s-.6-1.44-.59-1.45c.31-.52,7.81-7.28,4.12-18a2.7,2.7,0,0,1,2.35-3.55l4.45-.36,12.08-.36c2.88.17,4.94.44,4.94.44,1.85,1.74,4.77,6.49,6.66,11.33C179.28,143.66,180.6,148.65,176.24,157.89Z" style="fill:#407BFF"></path><polygon points="147.29 157.52 149.06 150.67 151.25 166.49 146.82 168.95 149.08 166.48 146.79 160.09 147.29 157.52" style="opacity:0.1"></polygon><path d="M173.78,94.78c2,1.19,4.51,6.26,4.26,16.88-.21,9-3.13,11.24-4.59,11.88s-4.29.25-7-.21v5.41s4.09,7.57,3.17,10.59c-2,.34-4.51-1-8.06-3.41a41.58,41.58,0,0,1-7.14-6.79l.06-12.43s-1.62,1.57-4.36-.83c-2.26-2-3-5.31-1.26-7.11a3.94,3.94,0,0,1,6.27,1.25s4.39.17,10.22-3A16.41,16.41,0,0,0,173.78,94.78Z" style="fill:#b16668"></path><path d="M168,109.4a1.14,1.14,0,1,1-1.19-1.12A1.16,1.16,0,0,1,168,109.4Z" style="fill:#263238"></path><g style="opacity:0.5;mix-blend-mode:multiply"><path d="M168.29,117l2.63.84a1.36,1.36,0,0,1-1.71.94A1.44,1.44,0,0,1,168.29,117Z" style="fill:#9a4a4d"></path></g><path d="M177.27,105.92,175,104.34a1.33,1.33,0,0,1,1.9-.39A1.44,1.44,0,0,1,177.27,105.92Z" style="fill:#263238"></path><path d="M176.74,108.58a1.14,1.14,0,0,1-1.07,1.23,1.18,1.18,0,1,1,1.07-1.23Z" style="fill:#263238"></path><g style="opacity:0.5;mix-blend-mode:multiply"><polygon points="171.4 107.94 171.58 114.75 175.17 113.64 171.4 107.94" style="fill:#9a4a4d"></polygon></g><g style="opacity:0.5;mix-blend-mode:multiply"><path d="M166.41,123.33c-2.9-.38-8.86-2.09-9.79-4.45a6.12,6.12,0,0,0,2.09,3c1.78,1.52,7.7,3.24,7.7,3.24Z" style="fill:#9a4a4d"></path></g><path d="M130.78,174.92c.07-1,1.9-11.37,3.15-17.18l12.22,3.74-2,8.15L134,179.46A4,4,0,0,1,130.78,174.92Z" style="fill:#b16668"></path><path d="M149.93,129.49c-4.69.41-10.87,1.11-13.81,14.46-2.76,12.51-3.44,16.88-3.44,16.88s3.61,4.57,12.95,4.07l3.43-14.23C155.31,142.44,153.3,136.55,149.93,129.49Z" style="fill:#407BFF"></path><path d="M189.44,165.24c1.68-3.12,2.1-3.26,3.09-4s7.13-1.6,9.67-1.81c3-.25,4.05.3,3.22,2.87-1.78,5.5-7.18,17.18-8.39,18.8-.79,1-.95,2-4.31,2.36-3.14.31-7.08.48-8.24.55s-2.76.36-1.72-3.05a112.32,112.32,0,0,1,4.59-11.33C188.64,166.87,189.44,165.24,189.44,165.24Z" style="fill:#263238"></path><path d="M144.19,169.63s27.16,2.87,30.67,1.78,8.25-4.61,10.79-6.06,4.36-1.58,4.36-1-2.17,3.93-2.66,5.3,2.34,1.37,6.06.52,5.21-3,6.18-1.76-2.06,7.45-8.24,9.76-10.77.78-15.87,1-34.36,2.5-41.45.27a6.25,6.25,0,0,1,2.45-6A21.87,21.87,0,0,1,144.19,169.63Z" style="fill:#b16668"></path></g></g><g id="freepik--Clouds--inject-1--inject-6"><g id="freepik--clouds--inject-1--inject-6"><path d="M317.79,72.83l7.45-4.3a6.62,6.62,0,0,1-.06-.91V65.46a13.31,13.31,0,0,1,6-10.42,4.66,4.66,0,0,1,3.59-.69c.55-5.46,4.33-11.63,8.93-14.28,5-2.87,9-.55,9,5.2v3.22a15.56,15.56,0,0,1-.76,4.62l6.19-3.57c1.84-1.06,3.33-.2,3.33,1.93a7.38,7.38,0,0,1-3.33,5.78L317.79,80.54c-1.84,1.06-3.33.2-3.33-1.93A7.38,7.38,0,0,1,317.79,72.83Z" style="fill:#f0f0f0"></path><path d="M282.12,122.84l5.62-3.25a5,5,0,0,1-.05-.69v-1.62a10.06,10.06,0,0,1,4.54-7.87,3.5,3.5,0,0,1,2.71-.52,15.19,15.19,0,0,1,6.74-10.78c3.75-2.17,6.8-.41,6.8,3.92v2.44a11.69,11.69,0,0,1-.58,3.48l4.67-2.69c1.39-.8,2.52-.15,2.52,1.45a5.59,5.59,0,0,1-2.52,4.37l-30.45,17.57c-1.39.81-2.52.16-2.52-1.45A5.56,5.56,0,0,1,282.12,122.84Z" style="fill:#f0f0f0"></path></g></g></svg>